M48
;Layer_Color=9474304
;FILE_FORMAT=2:5
INCH,LZ
;TYPE=PLATED
T1F00S00C0.02800
T2F00S00C0.03150
T3F00S00C0.03543
T4F00S00C0.03937
T5F00S00C0.05118
T6F00S00C0.05906
T7F00S00C0.06693
T8F00S00C0.07874
T9F00S00C0.09843
;TYPE=NON_PLATED
T10F00S00C0.31496
%
T01
X-0077441Y-0086319
X-0103622Y-0007382
X-0117057
X-0130492
X-0214055Y-0015256
X-0273406
X-0279606
X-0285807
X-0405787Y0031496
X-0406083Y0087303
X-0384823
X-0374193
X-0373898Y0031496
X-0384528
X-0395158
X-0346339Y0026969
X-0258543Y0037795
X-0252441
X-0246339
X-0287579Y0133366
X-0312973Y0110335
X-033689Y012848
X-0236693Y0074902
X-0234134Y0037795
X-0240236
X-0228031
X-0208839Y0038287
X-0197126
X-0185413
X-0130492Y0031594
X-0117057
X-0103622
X-0101752Y0018602
Y000561
X-0118189Y0097441
X-0183051Y0099114
X-0194518
X-0205984
X-0167402Y0147539
X-0062677Y0234646
X-0036988Y0266831
Y0272539
Y0278937
X-0040827Y0290846
Y0300689
Y0310531
X-0072323
Y0300689
Y0290846
X-0007264Y0289961
X-0000965
X0005335
X0011634
X0017933
X-0088071Y0259744
X-0095846Y024941
X-0112382Y025685
X-0131772Y025689
X-0160512Y0249803
X-0163366Y0280906
X-0152244Y0280512
X-0175965Y0291339
X-0203819Y0272933
X-021248
X-0196831Y0256299
X-0189252Y0224705
X-0182165Y0227461
X-0167402Y0208661
X-0143455Y0191781
X-0209724Y0187894
X-0222323Y0194783
X-0257756Y0247835
X-0282756Y025
X-0293976Y0268799
X-0312579Y0288484
X-0335709Y0281693
X-0331772Y0304331
X-0283347Y0308268
X-0377343Y0231102
X-0406378Y0356644
X-0417008
Y0412057
X-0406378
X-0408445Y0453839
X-0416614Y0453937
X-0395748Y0412057
X-0385118
Y0356644
X-0395748
X-0368189Y0363976
X-0362726
X-0332913Y0375945
X-0298209Y0368406
X-0283051Y0387008
X-0313366Y0418405
X-0324587Y0461614
X-0330935
X-0337283
X-034191Y0322342
X-0255394Y0338484
X-0215728Y0386614
X-013689Y0411024
X-0110413Y0400787
X-011061Y033002
X-0135906Y0455413
Y0463517
X-0023799Y0449409
Y0442717
X-0016319
Y0449409
X-0046831Y0385039
X-0052835
X-0058839
Y037874
X-0052835
X-0046831
X-0058937Y0471752
Y0478445
X-0066417
Y0471752
X-0078917Y0471358
Y0480315
X-0088661
Y0471358
X-0135906Y0471621
Y0479724
T02
X-0276358Y0094193
X-0246437
X-0420484Y0174988
Y0184988
X-0550406
Y0174988
T03
X-005Y0
X-004
X-003
X-002
X-001
X0
X00175Y0104
Y0114
Y0124
Y0134
Y0144
X-00165Y0214
X-00265
X-00365
X-00465
X-0220532Y0160236
X-0230532
X-0240531
X-0250532
X-0260531
X-0312382Y0198839
Y0208839
Y0218839
Y0228839
Y0238839
Y0248839
Y0258839
Y0268839
T04
X-0580984Y0142539
Y0202539
X-0062894Y0517421
X-0122894
T05
X-0229004Y-008259
X-0209587
X-0189587
X-0170217
X-0150216
X-0130847
X-0110846
X-0249004
X-0268622
X-0288622
T06
X-0544173Y-0071555
X-050874
X-0611327Y-0071468
X-064676
X-0711299Y-007185
X-0746732
X-0808327Y-0071468
X-084376
X-0842106Y0001969
Y0139764
X-0811496Y0138681
X-0673701
X-0639153Y0139272
Y0001476
X-0262677Y0402559
Y0461614
X-0156378
Y0402559
Y0520669
X-0262677
T07
X-0346732Y-009124
Y-0072736
Y-0054232
T08
X-0411846Y0465343
X-0386272Y0465646
Y051289
X-0411846Y0512587
T09
X-086622Y-0002264
X-0728819Y0001476
X-0613661Y0001181
X-052626Y0002264
T10
X0005138Y0472394
M30
