G04 Layer_Color=32896*
%FSLAX25Y25*%
%MOIN*%
G70*
G01*
G75*
%ADD57C,0.01000*%
D57*
X412697Y190945D02*
G03*
X412697Y190945I-19685J0D01*
G01*
X404023D02*
G03*
X404023Y190945I-11811J0D01*
G01*
X113968Y339333D02*
X116634D01*
Y337334D01*
X115301D01*
X116634D01*
Y335335D01*
X112635D02*
X111302D01*
X111969D01*
Y338000D01*
X112635D01*
X107304Y335335D02*
X108636D01*
X109303Y336001D01*
Y337334D01*
X108636Y338000D01*
X107304D01*
X106637Y337334D01*
Y336668D01*
X109303D01*
X105304Y335335D02*
X103971D01*
X104638D01*
Y339333D01*
X105304D01*
X99306D02*
Y335335D01*
X101305D01*
X101972Y336001D01*
Y337334D01*
X101305Y338000D01*
X99306D01*
X97973Y335335D02*
Y339333D01*
X96640Y338000D01*
X95307Y339333D01*
Y335335D01*
X93308Y338000D02*
X91975D01*
X91309Y337334D01*
Y335335D01*
X93308D01*
X93975Y336001D01*
X93308Y336668D01*
X91309D01*
X89976Y335335D02*
X87976D01*
X87310Y336001D01*
X87976Y336668D01*
X89309D01*
X89976Y337334D01*
X89309Y338000D01*
X87310D01*
X85311Y338667D02*
Y338000D01*
X85977D01*
X84644D01*
X85311D01*
Y336001D01*
X84644Y335335D01*
X80646D02*
X81978D01*
X82645Y336001D01*
Y337334D01*
X81978Y338000D01*
X80646D01*
X79979Y337334D01*
Y336668D01*
X82645D01*
X78646Y338000D02*
Y335335D01*
Y336668D01*
X77980Y337334D01*
X77313Y338000D01*
X76647D01*
X74647Y334668D02*
X71982D01*
X67983Y339333D02*
X70649D01*
Y335335D01*
X67983D01*
X70649Y337334D02*
X69316D01*
X66650Y335335D02*
Y338000D01*
X64651D01*
X63984Y337334D01*
Y335335D01*
X60652D02*
X61985D01*
X62651Y336001D01*
Y337334D01*
X61985Y338000D01*
X60652D01*
X59986Y337334D01*
Y336668D01*
X62651D01*
X58653Y338000D02*
Y335335D01*
Y336668D01*
X57986Y337334D01*
X57320Y338000D01*
X56653D01*
X53321Y334002D02*
X52654D01*
X51988Y334668D01*
Y338000D01*
X53987D01*
X54654Y337334D01*
Y336001D01*
X53987Y335335D01*
X51988D01*
X50655D02*
X49322D01*
X49989D01*
Y338000D01*
X50655D01*
X47323D02*
X44657D01*
X47323Y335335D01*
X44657D01*
X41325D02*
X42658D01*
X43324Y336001D01*
Y337334D01*
X42658Y338000D01*
X41325D01*
X40658Y337334D01*
Y336668D01*
X43324D01*
X39325Y338000D02*
Y335335D01*
Y336668D01*
X38659Y337334D01*
X37993Y338000D01*
X37326D01*
X35327Y334668D02*
X32661D01*
X28662Y338667D02*
X29329Y339333D01*
X30662D01*
X31328Y338667D01*
Y336001D01*
X30662Y335335D01*
X29329D01*
X28662Y336001D01*
Y337334D01*
X29995D01*
X24664Y338667D02*
X25330Y339333D01*
X26663D01*
X27329Y338667D01*
Y338000D01*
X26663Y337334D01*
X25330D01*
X24664Y336668D01*
Y336001D01*
X25330Y335335D01*
X26663D01*
X27329Y336001D01*
X23331Y335335D02*
Y339333D01*
X21998Y338000D01*
X20665Y339333D01*
Y335335D01*
X19332Y334668D02*
X16666D01*
X15333Y339333D02*
Y336668D01*
X14000Y335335D01*
X12667Y336668D01*
Y339333D01*
X11334Y335335D02*
X10002D01*
X10668D01*
Y339333D01*
X11334Y338667D01*
X8002Y335335D02*
Y336001D01*
X7336D01*
Y335335D01*
X8002D01*
X4670D02*
X3337D01*
X4003D01*
Y339333D01*
X4670Y338667D01*
X392947Y181102D02*
X396358D01*
X392947Y184513D01*
Y185366D01*
X393800Y186219D01*
X395505D01*
X396358Y185366D01*
X391242Y186219D02*
X387831D01*
Y185366D01*
X391242Y181955D01*
Y181102D01*
X377844Y181045D02*
Y184981D01*
X379812Y183013D01*
X377188D01*
X382488Y179681D02*
X385112D01*
Y177713D01*
X383800Y178369D01*
X383144D01*
X382488Y177713D01*
Y176401D01*
X383144Y175745D01*
X384456D01*
X385112Y176401D01*
X391388Y176981D02*
X392700Y176325D01*
X394012Y175013D01*
Y173701D01*
X393356Y173045D01*
X392044D01*
X391388Y173701D01*
Y174357D01*
X392044Y175013D01*
X394012D01*
X401212Y178981D02*
X398588D01*
Y178325D01*
X401212Y175701D01*
Y175045D01*
X408212Y184025D02*
X407556Y184681D01*
X406244D01*
X405588Y184025D01*
Y183369D01*
X406244Y182713D01*
X405588Y182057D01*
Y181401D01*
X406244Y180745D01*
X407556D01*
X408212Y181401D01*
Y182057D01*
X407556Y182713D01*
X408212Y183369D01*
Y184025D01*
X407556Y182713D02*
X406244D01*
X410812Y189301D02*
X410156Y188645D01*
X408844D01*
X408188Y189301D01*
Y191925D01*
X408844Y192581D01*
X410156D01*
X410812Y191925D01*
Y191269D01*
X410156Y190613D01*
X408188D01*
X409312Y196645D02*
X408000D01*
X408656D01*
Y200581D01*
X409312Y199925D01*
X406032D02*
X405376Y200581D01*
X404064D01*
X403408Y199925D01*
Y197301D01*
X404064Y196645D01*
X405376D01*
X406032Y197301D01*
Y199925D01*
X403212Y202545D02*
X401900D01*
X402556D01*
Y206481D01*
X403212Y205825D01*
X399932Y202545D02*
X398620D01*
X399276D01*
Y206481D01*
X399932Y205825D01*
X395712Y204845D02*
X394400D01*
X395056D01*
Y208781D01*
X395712Y208125D01*
X389808Y204845D02*
X392432D01*
X389808Y207469D01*
Y208125D01*
X390464Y208781D01*
X391776D01*
X392432Y208125D01*
X385112Y203045D02*
X383800D01*
X384456D01*
Y206981D01*
X385112Y206325D01*
X377712Y191825D02*
X377056Y192481D01*
X375744D01*
X375088Y191825D01*
Y191169D01*
X375744Y190513D01*
X376400D01*
X375744D01*
X375088Y189857D01*
Y189201D01*
X375744Y188545D01*
X377056D01*
X377712Y189201D01*
X377888Y197445D02*
X380512D01*
X377888Y200069D01*
Y200725D01*
X378544Y201381D01*
X379856D01*
X380512Y200725D01*
X393046Y195669D02*
X396457D01*
X393046Y199080D01*
Y199933D01*
X393899Y200786D01*
X395604D01*
X396457Y199933D01*
X387929Y200786D02*
X391340D01*
Y198228D01*
X389635Y199080D01*
X388782D01*
X387929Y198228D01*
Y196522D01*
X388782Y195669D01*
X390488D01*
X391340Y196522D01*
X393243Y188583D02*
X396654D01*
X393243Y191994D01*
Y192846D01*
X394095Y193699D01*
X395801D01*
X396654Y192846D01*
X388126Y193699D02*
X389832Y192846D01*
X391537Y191141D01*
Y189435D01*
X390684Y188583D01*
X388979D01*
X388126Y189435D01*
Y190288D01*
X388979Y191141D01*
X391537D01*
M02*
