G04 Layer_Color=8388736*
%FSLAX25Y25*%
%MOIN*%
G70*
G01*
G75*
%ADD52C,0.05000*%
%ADD54C,0.10000*%
%ADD55C,0.06000*%
%ADD83C,0.07000*%
%ADD84R,0.02650X0.03320*%
%ADD85R,0.12611X0.12611*%
%ADD86R,0.10642X0.16548*%
%ADD87R,0.24422X0.28359*%
%ADD88R,0.06706X0.06312*%
%ADD89R,0.06312X0.06706*%
%ADD90R,0.10249X0.13792*%
%ADD91R,0.03359X0.08674*%
%ADD92R,0.41784X0.43320*%
%ADD93R,0.09304X0.05013*%
%ADD94R,0.08674X0.08674*%
%ADD95R,0.14579X0.10642*%
%ADD96R,0.35839X0.42729*%
%ADD97R,0.13792X0.09855*%
%ADD98R,0.07099X0.03162*%
%ADD99R,0.04737X0.07887*%
%ADD100R,0.13398X0.08674*%
%ADD101R,0.12611X0.16548*%
%ADD102R,0.28359X0.12611*%
%ADD103R,0.07099X0.10642*%
%ADD104R,0.12611X0.22453*%
%ADD105R,0.22453X0.12611*%
%ADD106R,0.14579X0.14579*%
%ADD107R,0.16548X0.10642*%
%ADD108R,0.28359X0.24422*%
%ADD109R,0.12611X0.12611*%
%ADD110R,0.10642X0.12611*%
%ADD111R,0.16548X0.14579*%
%ADD112R,0.08674X0.06706*%
%ADD113R,0.06706X0.04343*%
%ADD114R,0.24422X0.13398*%
G04:AMPARAMS|DCode=115|XSize=65.87mil|YSize=17.45mil|CornerRadius=5.18mil|HoleSize=0mil|Usage=FLASHONLY|Rotation=270.000|XOffset=0mil|YOffset=0mil|HoleType=Round|Shape=RoundedRectangle|*
%AMROUNDEDRECTD115*
21,1,0.06587,0.00709,0,0,270.0*
21,1,0.05551,0.01745,0,0,270.0*
1,1,0.01036,-0.00354,-0.02776*
1,1,0.01036,-0.00354,0.02776*
1,1,0.01036,0.00354,0.02776*
1,1,0.01036,0.00354,-0.02776*
%
%ADD115ROUNDEDRECTD115*%
G04:AMPARAMS|DCode=116|XSize=65.87mil|YSize=17.45mil|CornerRadius=5.18mil|HoleSize=0mil|Usage=FLASHONLY|Rotation=0.000|XOffset=0mil|YOffset=0mil|HoleType=Round|Shape=RoundedRectangle|*
%AMROUNDEDRECTD116*
21,1,0.06587,0.00709,0,0,0.0*
21,1,0.05551,0.01745,0,0,0.0*
1,1,0.01036,0.02776,-0.00354*
1,1,0.01036,-0.02776,-0.00354*
1,1,0.01036,-0.02776,0.00354*
1,1,0.01036,0.02776,0.00354*
%
%ADD116ROUNDEDRECTD116*%
%ADD117R,0.08674X0.08674*%
%ADD118R,0.13792X0.10249*%
%ADD119R,0.03359X0.08083*%
%ADD120R,0.13398X0.07690*%
%ADD121R,0.04540X0.07690*%
%ADD122C,0.06706*%
%ADD123R,0.06706X0.06706*%
%ADD124C,0.14579*%
%ADD125R,0.06706X0.06706*%
%ADD126R,0.10642X0.10642*%
%ADD127C,0.10642*%
%ADD128C,0.16548*%
%ADD129C,0.12611*%
%ADD130C,0.08674*%
%ADD131C,0.00800*%
%ADD132C,0.05800*%
%ADD133C,0.20485*%
G36*
X703346Y231078D02*
X703346Y227658D01*
X701476Y225787D01*
X668504D01*
X665059Y221555D01*
X665059Y184154D01*
X659941Y179035D01*
X654485Y179035D01*
X616142Y179035D01*
X612402Y175295D01*
Y150295D01*
X611713Y149606D01*
X595472D01*
X594291Y150787D01*
Y185138D01*
X594291Y186319D01*
X600984Y193012D01*
X649606D01*
X654675Y198081D01*
Y220374D01*
Y226870D01*
X660753Y232948D01*
X701476D01*
X703346Y231078D01*
D02*
G37*
G36*
X904724Y441240D02*
X904626Y424016D01*
X904724Y423917D01*
Y419685D01*
X902362Y417323D01*
X874508D01*
X872933Y418898D01*
Y440748D01*
X874803Y442618D01*
X903347D01*
X904724Y441240D01*
D02*
G37*
G36*
X784941Y119980D02*
X748721D01*
Y147539D01*
Y147736D01*
Y165059D01*
X784941D01*
Y119980D01*
D02*
G37*
G36*
X514370Y155610D02*
X472342D01*
Y223228D01*
X514370D01*
Y155610D01*
D02*
G37*
G36*
X839567Y525295D02*
X856004D01*
X856890Y524409D01*
Y513976D01*
X856299Y513386D01*
X840551D01*
X839468Y512303D01*
Y507480D01*
X837795Y505807D01*
X823032D01*
X821260Y507579D01*
Y515846D01*
X818799Y518307D01*
X817028D01*
Y529724D01*
X835138D01*
X839567Y525295D01*
D02*
G37*
G36*
X808169Y613918D02*
Y583563D01*
Y583563D01*
X806398Y581791D01*
X806398Y581791D01*
X791831D01*
X790453Y580413D01*
X790256Y580610D01*
X741831D01*
X741831Y614270D01*
X807818D01*
X808169Y613918D01*
D02*
G37*
G36*
X845571Y417815D02*
X807677D01*
Y456496D01*
X845571D01*
Y417815D01*
D02*
G37*
G36*
X503150Y480758D02*
X461122D01*
Y548376D01*
X503150D01*
Y480758D01*
D02*
G37*
D52*
X597539Y116535D02*
X603839Y122835D01*
X602461Y123917D02*
X609941Y116437D01*
Y115256D02*
Y116437D01*
Y115256D02*
Y116437D01*
X603839Y122835D02*
Y124508D01*
X515158Y494488D02*
X526083D01*
X515158D02*
Y499547D01*
X520620Y494488D02*
Y504715D01*
X526083Y494488D02*
Y499252D01*
X515158Y498622D02*
X525291D01*
D54*
X826181Y431693D02*
Y448130D01*
X497075Y545500D02*
Y596158D01*
X471500Y643099D02*
X496772D01*
X497075Y643402D01*
X499701D01*
X504626Y648327D01*
X521654D01*
X524606Y651280D01*
X545177D01*
X545768Y651870D01*
X567362Y650787D02*
X587697D01*
X565590Y652559D02*
X567362Y650787D01*
X595177Y558563D02*
X620669Y533071D01*
X595177Y558563D02*
Y620669D01*
X587697Y628150D02*
X595177Y620669D01*
D55*
X851181Y454724D02*
X852461Y453445D01*
D83*
X597539Y115256D02*
X609941D01*
X824213Y452953D02*
X825197Y451968D01*
X603839Y109941D02*
X634390Y79390D01*
X603839Y109941D02*
Y124508D01*
X602854Y125492D02*
X603839Y124508D01*
X726969Y533071D02*
Y560925D01*
X760039Y593996D01*
X773425D01*
X624803Y168307D02*
X655315D01*
Y163779D02*
Y168307D01*
X655020Y163484D02*
X655315Y163779D01*
X624902Y163484D02*
X655020D01*
X624803Y163583D02*
X624902Y163484D01*
X624803Y163583D02*
Y168307D01*
X675000Y157480D02*
X675590D01*
X673327Y159154D02*
X675000Y157480D01*
X820177Y581299D02*
Y644705D01*
X780709Y567618D02*
X796890D01*
X799606Y570335D01*
X807933D01*
X810866Y573268D01*
X846063D01*
X846102Y573228D01*
X882677D01*
X859547Y579921D02*
X867028D01*
Y573228D02*
Y579921D01*
X859547Y573228D02*
Y579921D01*
X820177Y573524D02*
Y581299D01*
X816929Y602264D02*
Y608957D01*
Y602264D02*
X824409D01*
Y608957D01*
X897244Y465847D02*
Y492618D01*
Y465847D02*
X897342Y465748D01*
X849212Y492618D02*
X870866D01*
X849212D02*
X850689Y491142D01*
Y472342D02*
Y491142D01*
Y472342D02*
X852953Y470079D01*
X850679Y450246D02*
X852067Y451634D01*
X634390Y55795D02*
Y79390D01*
X654390Y55795D02*
Y93839D01*
X639665Y108563D02*
X654390Y93839D01*
X639665Y108563D02*
Y125984D01*
X639961Y126280D01*
X673760Y55795D02*
Y125925D01*
X713130Y55795D02*
Y109311D01*
X696949Y125492D02*
X713130Y109311D01*
X696949Y125492D02*
Y127165D01*
X733130Y55795D02*
Y131610D01*
X733760Y132240D01*
D84*
X772146Y188976D02*
D03*
X770177Y194882D02*
D03*
X774114D02*
D03*
X802461Y389961D02*
D03*
X804429Y384055D02*
D03*
X800492D02*
D03*
D85*
X835709Y385925D02*
D03*
X817520D02*
D03*
X784193Y625689D02*
D03*
X766004D02*
D03*
X595118Y280709D02*
D03*
X576929D02*
D03*
X565590Y652559D02*
D03*
X547402D02*
D03*
X556043Y304429D02*
D03*
X537854D02*
D03*
X753976Y184252D02*
D03*
X735787D02*
D03*
X556850Y157579D02*
D03*
X575039D02*
D03*
D86*
X817772Y404724D02*
D03*
X835772D02*
D03*
X762709Y567618D02*
D03*
X780709D02*
D03*
D87*
X826772Y432480D02*
D03*
X771709Y595374D02*
D03*
D88*
X820571Y373130D02*
D03*
X811122D02*
D03*
X718799Y346949D02*
D03*
X728248D02*
D03*
X692618Y289272D02*
D03*
X702067D02*
D03*
Y298229D02*
D03*
X692618D02*
D03*
X488780Y361614D02*
D03*
X498228D02*
D03*
X829626Y373130D02*
D03*
X839075D02*
D03*
X488780Y382087D02*
D03*
X498228D02*
D03*
X488779Y372047D02*
D03*
X498228D02*
D03*
X493504Y305413D02*
D03*
X484055D02*
D03*
X515453Y305512D02*
D03*
X506004D02*
D03*
X552165Y290059D02*
D03*
X542717D02*
D03*
X740256Y200591D02*
D03*
X749705D02*
D03*
X584350Y461417D02*
D03*
X593799D02*
D03*
X609449Y333661D02*
D03*
X618898D02*
D03*
X628740Y324016D02*
D03*
X619291D02*
D03*
X547539Y565650D02*
D03*
X556988D02*
D03*
X702067Y311713D02*
D03*
X692618D02*
D03*
X578445Y263976D02*
D03*
X587894D02*
D03*
X534941Y477854D02*
D03*
X544390D02*
D03*
X534842Y486417D02*
D03*
X544291D02*
D03*
X561221Y426280D02*
D03*
X570669D02*
D03*
D89*
X719980Y429823D02*
D03*
Y420374D02*
D03*
X608465Y417224D02*
D03*
Y426673D02*
D03*
X697441Y426575D02*
D03*
Y417126D02*
D03*
X707283Y426575D02*
D03*
Y417126D02*
D03*
X556791Y134941D02*
D03*
Y144390D02*
D03*
X722441Y322342D02*
D03*
Y331791D02*
D03*
X712402Y331890D02*
D03*
Y322441D02*
D03*
X742618Y396850D02*
D03*
Y387402D02*
D03*
X722786Y396850D02*
D03*
Y387402D02*
D03*
X732702Y396850D02*
D03*
Y387402D02*
D03*
X732382Y331791D02*
D03*
Y322342D02*
D03*
X470079Y332677D02*
D03*
Y342126D02*
D03*
X660532Y259646D02*
D03*
Y250197D02*
D03*
X510630Y352362D02*
D03*
Y342913D02*
D03*
X511122Y372736D02*
D03*
Y382185D02*
D03*
X656504Y426673D02*
D03*
Y417225D02*
D03*
X646896D02*
D03*
Y426673D02*
D03*
X637288D02*
D03*
Y417225D02*
D03*
X627680D02*
D03*
Y426673D02*
D03*
X618072D02*
D03*
Y417225D02*
D03*
X731042Y420472D02*
D03*
Y429921D02*
D03*
X759646Y200689D02*
D03*
Y210138D02*
D03*
X740650Y420472D02*
D03*
Y429921D02*
D03*
X610039Y373425D02*
D03*
Y363977D02*
D03*
X600591Y373524D02*
D03*
Y364075D02*
D03*
X701968Y322342D02*
D03*
Y331791D02*
D03*
X666112Y417224D02*
D03*
Y426673D02*
D03*
X675719Y417225D02*
D03*
Y426673D02*
D03*
X685327Y417225D02*
D03*
Y426673D02*
D03*
X762657Y52264D02*
D03*
Y60531D02*
D03*
X762697Y458563D02*
D03*
Y449114D02*
D03*
X749803Y550394D02*
D03*
Y559842D02*
D03*
X541240Y445571D02*
D03*
Y436122D02*
D03*
X561417Y444291D02*
D03*
Y434842D02*
D03*
X570276Y444291D02*
D03*
Y434842D02*
D03*
D90*
X469488Y572244D02*
D03*
X496850D02*
D03*
D91*
X692913Y463287D02*
D03*
X696850D02*
D03*
Y450059D02*
D03*
X692913D02*
D03*
X637795D02*
D03*
Y463287D02*
D03*
X641732Y450059D02*
D03*
Y463287D02*
D03*
X645669Y450059D02*
D03*
X649606D02*
D03*
X653543D02*
D03*
X669291D02*
D03*
X665354D02*
D03*
X661417D02*
D03*
X657480D02*
D03*
X685039D02*
D03*
X681102D02*
D03*
X677165D02*
D03*
X673228D02*
D03*
X688976D02*
D03*
Y463287D02*
D03*
X673228D02*
D03*
X677165D02*
D03*
X681102D02*
D03*
X685039D02*
D03*
X657480D02*
D03*
X661417D02*
D03*
X665354D02*
D03*
X669291D02*
D03*
X653543D02*
D03*
X649606D02*
D03*
X645669D02*
D03*
D92*
X493602Y191043D02*
D03*
D93*
X526374Y204429D02*
D03*
Y197736D02*
D03*
Y191043D02*
D03*
Y184351D02*
D03*
Y177657D02*
D03*
D94*
X796457Y544783D02*
D03*
X782283D02*
D03*
X543406Y580413D02*
D03*
X557579D02*
D03*
X782283Y532087D02*
D03*
X796457D02*
D03*
X799803Y626870D02*
D03*
X813976D02*
D03*
X657775Y517224D02*
D03*
X643602D02*
D03*
X617126Y517323D02*
D03*
X631299D02*
D03*
X758858Y515453D02*
D03*
X773032D02*
D03*
D95*
X824311Y554331D02*
D03*
Y524409D02*
D03*
D96*
X478740Y514862D02*
D03*
D97*
X520473Y524862D02*
D03*
Y504862D02*
D03*
D98*
X527067Y378150D02*
D03*
Y374410D02*
D03*
Y370669D02*
D03*
X538484D02*
D03*
Y378150D02*
D03*
D99*
X762697Y545276D02*
D03*
X766437Y534449D02*
D03*
X758957D02*
D03*
X506890Y317028D02*
D03*
X514370D02*
D03*
X510630Y327854D02*
D03*
X582776Y240846D02*
D03*
X579035Y251673D02*
D03*
X586516D02*
D03*
X550197Y278248D02*
D03*
X542716D02*
D03*
X546457Y267421D02*
D03*
D100*
X587697Y650787D02*
D03*
Y628150D02*
D03*
D101*
X870866Y492618D02*
D03*
X897244D02*
D03*
D102*
X890846Y435335D02*
D03*
Y465256D02*
D03*
X639961Y156201D02*
D03*
Y126280D02*
D03*
D103*
X702638Y244784D02*
D03*
X692638D02*
D03*
Y273721D02*
D03*
X702638D02*
D03*
X772717Y470965D02*
D03*
X762716D02*
D03*
Y499902D02*
D03*
X772717D02*
D03*
X604508Y500492D02*
D03*
X594508D02*
D03*
Y471555D02*
D03*
X604508D02*
D03*
D104*
X812697Y502953D02*
D03*
Y461614D02*
D03*
X882185Y568996D02*
D03*
Y527658D02*
D03*
D105*
X525689Y246162D02*
D03*
X484350D02*
D03*
X482087Y134449D02*
D03*
X523425D02*
D03*
D106*
X675000Y127165D02*
D03*
Y157480D02*
D03*
X521654Y648327D02*
D03*
Y618012D02*
D03*
X521850Y563779D02*
D03*
Y594095D02*
D03*
X603839Y126575D02*
D03*
Y156890D02*
D03*
X696949Y127165D02*
D03*
Y157480D02*
D03*
X497075Y596158D02*
D03*
X471500Y643099D02*
D03*
D107*
X735138Y151618D02*
D03*
Y133618D02*
D03*
D108*
X762894Y142618D02*
D03*
D109*
X539764Y506457D02*
D03*
Y524646D02*
D03*
X488386Y346004D02*
D03*
Y327815D02*
D03*
X799606Y588524D02*
D03*
Y570335D02*
D03*
X852067Y451634D02*
D03*
Y469823D02*
D03*
X674213Y263819D02*
D03*
Y245630D02*
D03*
X846063Y555079D02*
D03*
Y573268D02*
D03*
D110*
X281366Y297764D02*
D03*
X244437D02*
D03*
Y318236D02*
D03*
X281366D02*
D03*
D111*
X207579Y298622D02*
D03*
Y330118D02*
D03*
X551575Y603051D02*
D03*
Y634547D02*
D03*
D112*
X875197Y31890D02*
D03*
Y77953D02*
D03*
X840551D02*
D03*
Y31890D02*
D03*
D113*
X824409Y42441D02*
D03*
Y47441D02*
D03*
Y52441D02*
D03*
Y62441D02*
D03*
Y57441D02*
D03*
Y67441D02*
D03*
D114*
X565354Y179823D02*
D03*
Y219193D02*
D03*
D115*
X673819Y343228D02*
D03*
X672244D02*
D03*
X670669D02*
D03*
X669094D02*
D03*
X667520D02*
D03*
X665945D02*
D03*
X664370D02*
D03*
X662795D02*
D03*
X661220D02*
D03*
X659646D02*
D03*
X658071D02*
D03*
X656496D02*
D03*
X654921D02*
D03*
X653346D02*
D03*
X651772D02*
D03*
X650197D02*
D03*
Y376063D02*
D03*
X651772D02*
D03*
X653346D02*
D03*
X654921D02*
D03*
X656496D02*
D03*
X658071D02*
D03*
X659646D02*
D03*
X661220D02*
D03*
X662795D02*
D03*
X664370D02*
D03*
X665945D02*
D03*
X667520D02*
D03*
X669094D02*
D03*
X670669D02*
D03*
X672244D02*
D03*
X673819D02*
D03*
D116*
X678425Y371457D02*
D03*
Y369882D02*
D03*
Y368307D02*
D03*
Y366732D02*
D03*
Y365157D02*
D03*
Y363583D02*
D03*
Y362008D02*
D03*
Y360433D02*
D03*
Y358858D02*
D03*
Y357283D02*
D03*
Y355709D02*
D03*
Y354134D02*
D03*
Y352559D02*
D03*
Y350984D02*
D03*
Y349409D02*
D03*
Y347835D02*
D03*
X645591D02*
D03*
Y349409D02*
D03*
Y350984D02*
D03*
Y352559D02*
D03*
Y354134D02*
D03*
Y355709D02*
D03*
Y357283D02*
D03*
Y358858D02*
D03*
Y360433D02*
D03*
Y362008D02*
D03*
Y363583D02*
D03*
Y365157D02*
D03*
Y366732D02*
D03*
Y368307D02*
D03*
Y369882D02*
D03*
Y371457D02*
D03*
D117*
X572835Y594685D02*
D03*
Y580512D02*
D03*
X636909Y224705D02*
D03*
D118*
X849016Y519783D02*
D03*
Y492421D02*
D03*
D119*
X573543Y455807D02*
D03*
X568543D02*
D03*
X563543D02*
D03*
X558543D02*
D03*
Y497736D02*
D03*
X563543D02*
D03*
X568543D02*
D03*
X573543D02*
D03*
D120*
X579036Y515650D02*
D03*
D121*
X569980Y540453D02*
D03*
X579036D02*
D03*
X588091D02*
D03*
D122*
X866846Y344512D02*
D03*
X856847D02*
D03*
X846846D02*
D03*
X843347Y130512D02*
D03*
X853347D02*
D03*
X863346D02*
D03*
X873347D02*
D03*
X883346D02*
D03*
X900846Y274512D02*
D03*
Y264512D02*
D03*
Y254512D02*
D03*
Y244512D02*
D03*
X462862Y315500D02*
D03*
Y305500D02*
D03*
X332941D02*
D03*
X570965Y329350D02*
D03*
Y339350D02*
D03*
Y349350D02*
D03*
Y359350D02*
D03*
Y369350D02*
D03*
Y379350D02*
D03*
Y389350D02*
D03*
X632815Y290748D02*
D03*
X642815D02*
D03*
X652815D02*
D03*
X662815D02*
D03*
D123*
X836847Y344512D02*
D03*
X833346Y130512D02*
D03*
X622815Y290748D02*
D03*
D124*
X272020Y59043D02*
D03*
X236587D02*
D03*
X75020D02*
D03*
X39587D02*
D03*
X497075Y643402D02*
D03*
X471500Y595854D02*
D03*
X374606Y58957D02*
D03*
X339173D02*
D03*
X172047Y58661D02*
D03*
X136614D02*
D03*
D125*
X900846Y234512D02*
D03*
X332941Y315500D02*
D03*
X570965Y399350D02*
D03*
D126*
X555354Y55795D02*
D03*
X509055Y76280D02*
D03*
Y57776D02*
D03*
Y39272D02*
D03*
X673760Y55795D02*
D03*
X634390D02*
D03*
X713130D02*
D03*
X594972Y55795D02*
D03*
D127*
X575354Y55795D02*
D03*
X760453Y647933D02*
D03*
X820453D02*
D03*
X302362Y273051D02*
D03*
Y333051D02*
D03*
X693760Y55795D02*
D03*
X654390D02*
D03*
X733130D02*
D03*
X614972Y55795D02*
D03*
D128*
X41240Y132480D02*
D03*
Y270276D02*
D03*
X244193Y131988D02*
D03*
Y269783D02*
D03*
X209646Y269193D02*
D03*
X71850D02*
D03*
D129*
X726969Y533071D02*
D03*
Y592126D02*
D03*
Y651181D02*
D03*
X620669D02*
D03*
Y592126D02*
D03*
Y533071D02*
D03*
D130*
X606988Y224705D02*
D03*
D131*
X888484Y602906D02*
D03*
D132*
X739892Y322293D02*
D03*
X770964Y387362D02*
D03*
X600295Y517520D02*
D03*
X765158Y227953D02*
D03*
X715945Y278051D02*
D03*
X603740Y115256D02*
D03*
X609941D02*
D03*
X597539D02*
D03*
X686221Y168799D02*
D03*
X674508D02*
D03*
X697933D02*
D03*
X688829Y229626D02*
D03*
X677362D02*
D03*
X700295D02*
D03*
X646654Y205413D02*
D03*
X811024Y421358D02*
D03*
Y441043D02*
D03*
Y431201D02*
D03*
X842520D02*
D03*
Y441043D02*
D03*
Y421358D02*
D03*
X846358Y397342D02*
D03*
X661024Y325295D02*
D03*
X600591Y380512D02*
D03*
X722835Y380315D02*
D03*
X751575Y387402D02*
D03*
X816929Y608957D02*
D03*
Y602264D02*
D03*
X824409Y608957D02*
D03*
Y602264D02*
D03*
X867028Y573228D02*
D03*
X772933Y531299D02*
D03*
X520620Y494488D02*
D03*
X515158D02*
D03*
X476968Y542569D02*
D03*
X487598Y487155D02*
D03*
X476968D02*
D03*
X498228D02*
D03*
Y542569D02*
D03*
X487598D02*
D03*
X466339D02*
D03*
Y487155D02*
D03*
X474902Y584350D02*
D03*
X466732Y584449D02*
D03*
X546063Y592126D02*
D03*
X552411D02*
D03*
X558760D02*
D03*
X537008Y157480D02*
D03*
X506004Y361614D02*
D03*
X546457Y258992D02*
D03*
X509154Y217815D02*
D03*
X498524D02*
D03*
X477264D02*
D03*
X509449Y162008D02*
D03*
X498819D02*
D03*
X488189D02*
D03*
X477559D02*
D03*
X894980Y420472D02*
D03*
X901280D02*
D03*
X830512Y515551D02*
D03*
X824508D02*
D03*
Y509252D02*
D03*
X830512D02*
D03*
X836516Y515551D02*
D03*
Y509252D02*
D03*
X547638Y412205D02*
D03*
X715945Y339173D02*
D03*
X589370Y399311D02*
D03*
X673622Y318406D02*
D03*
X595768Y263878D02*
D03*
X625591Y378346D02*
D03*
X772736Y460532D02*
D03*
X570374Y240846D02*
D03*
X624803Y168307D02*
D03*
X876083Y420472D02*
D03*
X882382D02*
D03*
X888681D02*
D03*
X752854Y162106D02*
D03*
X766289D02*
D03*
X779724Y123130D02*
D03*
X766289D02*
D03*
X752854D02*
D03*
X779724Y162106D02*
D03*
X781594Y149114D02*
D03*
Y136122D02*
D03*
X686516Y386811D02*
D03*
X670866Y403445D02*
D03*
X643110Y168307D02*
D03*
X637008D02*
D03*
X630905D02*
D03*
X747441Y602133D02*
D03*
Y594029D02*
D03*
Y585925D02*
D03*
Y610236D02*
D03*
X804429Y610827D02*
D03*
X794685Y601870D02*
D03*
Y610827D02*
D03*
X804429Y601870D02*
D03*
X859547Y573228D02*
D03*
X867028Y579921D02*
D03*
X859547D02*
D03*
X746457Y541536D02*
D03*
X846358Y403051D02*
D03*
Y409449D02*
D03*
X795276Y390256D02*
D03*
X787500Y379921D02*
D03*
X731102Y411024D02*
D03*
X719980Y411417D02*
D03*
X820669Y365158D02*
D03*
X600000Y438779D02*
D03*
X550433Y506457D02*
D03*
X585138Y498917D02*
D03*
X569980Y548917D02*
D03*
X667618Y517126D02*
D03*
X551575Y434842D02*
D03*
X570768Y418996D02*
D03*
X701181Y357972D02*
D03*
X694095Y355217D02*
D03*
X541437Y452854D02*
D03*
X649213Y168307D02*
D03*
X655315D02*
D03*
X669291Y115256D02*
D03*
X678543Y398819D02*
D03*
X631398Y441043D02*
D03*
X707382Y409842D02*
D03*
D133*
X357087Y132776D02*
D03*
X154528Y131988D02*
D03*
X17126Y128248D02*
D03*
X269685Y131693D02*
D03*
M02*
