G04 Layer_Color=32768*
%FSLAX25Y25*%
%MOIN*%
G70*
G01*
G75*
%ADD80C,0.00394*%
%ADD136C,0.00197*%
D80*
X813878Y373130D02*
X817815D01*
X815847Y371161D02*
Y375098D01*
X719980Y423130D02*
Y427067D01*
X718012Y425098D02*
X721949D01*
X469988Y167543D02*
Y214543D01*
Y167543D02*
X533988D01*
X469988Y214543D02*
X533988D01*
Y167543D02*
Y214543D01*
X789370Y542815D02*
Y546752D01*
X787402Y544783D02*
X791339D01*
X781496Y541043D02*
X797244D01*
X781496Y548524D02*
X797244D01*
Y541043D02*
Y548524D01*
X781496Y541043D02*
Y548524D01*
X550492Y578445D02*
Y582382D01*
X548524Y580413D02*
X552460D01*
X542618Y584154D02*
X558366D01*
X542618Y576673D02*
X558366D01*
X542618D02*
Y584154D01*
X558366Y576673D02*
Y584154D01*
X781496Y528346D02*
Y535827D01*
X797244Y528346D02*
Y535827D01*
X781496D02*
X797244D01*
X781496Y528346D02*
X797244D01*
X787402Y532087D02*
X791339D01*
X789370Y530118D02*
Y534055D01*
X806890Y624902D02*
Y628839D01*
X804921Y626870D02*
X808858D01*
X799016Y630610D02*
X814764D01*
X799016Y623130D02*
X814764D01*
X799016D02*
Y630610D01*
X814764Y623130D02*
Y630610D01*
X650689Y515256D02*
Y519193D01*
X648721Y517224D02*
X652658D01*
X642815Y513484D02*
X658563D01*
X642815Y520965D02*
X658563D01*
Y513484D02*
Y520965D01*
X642815Y513484D02*
Y520965D01*
X616338Y513583D02*
Y521063D01*
X632087Y513583D02*
Y521063D01*
X616338D02*
X632087D01*
X616338Y513583D02*
X632087D01*
X622244Y517323D02*
X626181D01*
X624213Y515354D02*
Y519291D01*
X608465Y419980D02*
Y423917D01*
X606496Y421949D02*
X610433D01*
X721555Y346949D02*
X725492D01*
X723524Y344980D02*
Y348917D01*
X697441Y419882D02*
Y423819D01*
X695472Y421850D02*
X699409D01*
X707283Y419882D02*
Y423819D01*
X705315Y421850D02*
X709252D01*
X556791Y137697D02*
Y141634D01*
X554823Y139665D02*
X558760D01*
X722441Y325098D02*
Y329035D01*
X720472Y327067D02*
X724409D01*
X712402Y325197D02*
Y329134D01*
X710433Y327165D02*
X714370D01*
X492717Y512894D02*
Y516831D01*
X490748Y514862D02*
X494685D01*
X460236Y536713D02*
X528079D01*
X460236Y493012D02*
X528079D01*
X460236D02*
Y536713D01*
X528079Y493012D02*
Y536713D01*
X760728Y539862D02*
X764665D01*
X762697Y537894D02*
Y541831D01*
X510630Y320472D02*
Y324409D01*
X508662Y322441D02*
X512599D01*
X580807Y246260D02*
X584744D01*
X582776Y244291D02*
Y248228D01*
X546457Y270866D02*
Y274803D01*
X544488Y272835D02*
X548425D01*
X742618Y390158D02*
Y394095D01*
X740650Y392126D02*
X744587D01*
X720817D02*
X724754D01*
X722786Y390158D02*
Y394095D01*
X732702Y390158D02*
Y394094D01*
X730733Y392126D02*
X734670D01*
X697342Y287303D02*
Y291240D01*
X695374Y289272D02*
X699311D01*
X695374Y298229D02*
X699311D01*
X697342Y296260D02*
Y300197D01*
X730413Y327067D02*
X734350D01*
X732382Y325098D02*
Y329035D01*
X491536Y361614D02*
X495472D01*
X493504Y359646D02*
Y363583D01*
X834350Y371161D02*
Y375098D01*
X832382Y373130D02*
X836319D01*
X470079Y335433D02*
Y339370D01*
X468110Y337402D02*
X472047D01*
X493504Y380118D02*
Y384055D01*
X491536Y382087D02*
X495472D01*
X660532Y252953D02*
Y256890D01*
X658563Y254921D02*
X662500D01*
X493504Y370079D02*
Y374016D01*
X491536Y372047D02*
X495472D01*
X486811Y305413D02*
X490748D01*
X488780Y303445D02*
Y307382D01*
X508661Y347638D02*
X512598D01*
X510630Y345669D02*
Y349606D01*
X508760Y305512D02*
X512697D01*
X510728Y303543D02*
Y307480D01*
X547441Y288090D02*
Y292027D01*
X545472Y290059D02*
X549409D01*
X511122Y375492D02*
Y379429D01*
X509154Y377461D02*
X513091D01*
X654535Y421949D02*
X658472D01*
X656504Y419980D02*
Y423917D01*
X646896Y419980D02*
Y423917D01*
X644927Y421949D02*
X648864D01*
X635319D02*
X639256D01*
X637288Y419980D02*
Y423917D01*
X627680Y419980D02*
Y423917D01*
X625712Y421949D02*
X629649D01*
X616104D02*
X620041D01*
X618072Y419980D02*
Y423917D01*
X731042Y423228D02*
Y427165D01*
X729073Y425197D02*
X733010D01*
X743012Y200591D02*
X746949D01*
X744980Y198622D02*
Y202559D01*
X759646Y203445D02*
Y207382D01*
X757677Y205413D02*
X761614D01*
X589075Y459449D02*
Y463386D01*
X587106Y461417D02*
X591043D01*
X740650Y423228D02*
Y427165D01*
X738681Y425197D02*
X742618D01*
X610039Y366732D02*
Y370669D01*
X608071Y368701D02*
X612008D01*
X600591Y366831D02*
Y370768D01*
X598622Y368799D02*
X602559D01*
X612205Y333661D02*
X616142D01*
X614173Y331693D02*
Y335630D01*
X622047Y324016D02*
X625984D01*
X624016Y322047D02*
Y325984D01*
X550295Y565650D02*
X554232D01*
X552264Y563681D02*
Y567618D01*
X701968Y325098D02*
Y329035D01*
X700000Y327067D02*
X703937D01*
X695374Y311713D02*
X699311D01*
X697342Y309744D02*
Y313681D01*
X666112Y419980D02*
Y423917D01*
X664143Y421949D02*
X668080D01*
X675719Y419980D02*
Y423917D01*
X673751Y421949D02*
X677688D01*
X685327Y419980D02*
Y423917D01*
X683359Y421949D02*
X687296D01*
X581201Y263976D02*
X585138D01*
X583169Y262008D02*
Y265945D01*
X760689Y56398D02*
X764626D01*
X569095Y595472D02*
X576575D01*
X569095Y579724D02*
X576575D01*
Y595472D01*
X569095Y579724D02*
Y595472D01*
X572835Y585630D02*
Y589567D01*
X570866Y587598D02*
X574803D01*
X758071Y511713D02*
Y519193D01*
X773819Y511713D02*
Y519193D01*
X758071D02*
X773819D01*
X758071Y511713D02*
X773819D01*
X763976Y515453D02*
X767913D01*
X765945Y513484D02*
Y517421D01*
X762697Y451870D02*
Y455807D01*
X760728Y453839D02*
X764665D01*
X749803Y553150D02*
Y557087D01*
X747835Y555118D02*
X751772D01*
X537697Y477854D02*
X541634D01*
X539665Y475886D02*
Y479823D01*
X537598Y486417D02*
X541536D01*
X539567Y484449D02*
Y488386D01*
X541240Y438878D02*
Y442815D01*
X539272Y440846D02*
X543209D01*
X561417Y437598D02*
Y441536D01*
X559449Y439567D02*
X563386D01*
X570276Y437598D02*
Y441536D01*
X568307Y439567D02*
X572244D01*
X563976Y426280D02*
X567913D01*
X565945Y424311D02*
Y428248D01*
D136*
X768209Y196732D02*
X776083D01*
X768209Y187126D02*
Y196732D01*
Y187126D02*
X776083D01*
Y196732D01*
X798524Y382205D02*
X806398D01*
Y391811D01*
X798524D02*
X806398D01*
X798524Y382205D02*
Y391811D01*
X523276Y381398D02*
X542276D01*
Y367421D02*
Y381398D01*
X523276Y367421D02*
X542276D01*
X523276D02*
Y381398D01*
X641713Y339350D02*
X682303D01*
X641713Y379941D02*
X682303D01*
Y339350D02*
Y379941D01*
X641713Y339350D02*
Y379941D01*
X553346Y502362D02*
X578740D01*
X553346Y451181D02*
Y502362D01*
Y451181D02*
X578740D01*
Y502362D01*
X564862Y544882D02*
X593209D01*
X564862Y511221D02*
Y544882D01*
Y511221D02*
X593209D01*
Y544882D01*
M02*
