G04 Layer_Color=255*
%FSLAX25Y25*%
%MOIN*%
G70*
G01*
G75*
%ADD15R,0.13780X0.13780*%
%ADD18R,0.07874X0.07874*%
%ADD63C,0.09843*%
%ADD64R,0.09843X0.09843*%
%ADD65C,0.13780*%
%ADD66C,0.05906*%
%ADD67R,0.05906X0.05906*%
%ADD68R,0.05906X0.05906*%
%ADD69C,0.07874*%
%ADD70C,0.11811*%
%ADD71C,0.15748*%
D15*
X-411846Y512587D02*
D03*
X-386272Y465646D02*
D03*
D18*
X-246437Y94193D02*
D03*
D63*
X-229004Y-82590D02*
D03*
X-110846D02*
D03*
X-189587D02*
D03*
X-150216D02*
D03*
X-580984Y202539D02*
D03*
Y142539D02*
D03*
X-62894Y517421D02*
D03*
X-122894D02*
D03*
X-268622Y-82590D02*
D03*
D64*
X-249004D02*
D03*
X-130847D02*
D03*
X-209587D02*
D03*
X-170217D02*
D03*
X-346732Y-91240D02*
D03*
Y-72736D02*
D03*
Y-54232D02*
D03*
X-288622Y-82590D02*
D03*
D65*
X-746732Y-71850D02*
D03*
X-711299D02*
D03*
X-544173Y-71555D02*
D03*
X-508740D02*
D03*
X-411846Y465343D02*
D03*
X-386272Y512890D02*
D03*
X-843760Y-71468D02*
D03*
X-808327D02*
D03*
X-646760D02*
D03*
X-611327D02*
D03*
D66*
X-220532Y160236D02*
D03*
X-230532D02*
D03*
X-240531D02*
D03*
X-250532D02*
D03*
X-312382Y258839D02*
D03*
Y248839D02*
D03*
Y238839D02*
D03*
Y228839D02*
D03*
Y218839D02*
D03*
Y208839D02*
D03*
Y198839D02*
D03*
X-550406Y174988D02*
D03*
X-420484D02*
D03*
Y184988D02*
D03*
X17500Y114000D02*
D03*
Y124000D02*
D03*
Y134000D02*
D03*
Y144000D02*
D03*
X0Y0D02*
D03*
X-10000D02*
D03*
X-20000D02*
D03*
X-30000D02*
D03*
X-40000D02*
D03*
X-36500Y214000D02*
D03*
X-26500D02*
D03*
X-16500D02*
D03*
D67*
X-260531Y160236D02*
D03*
X-50000Y0D02*
D03*
X-46500Y214000D02*
D03*
D68*
X-312382Y268839D02*
D03*
X-550406Y184988D02*
D03*
X17500Y104000D02*
D03*
D69*
X-276358Y94193D02*
D03*
D70*
X-262677Y402559D02*
D03*
Y461614D02*
D03*
Y520669D02*
D03*
X-156378D02*
D03*
Y461614D02*
D03*
Y402559D02*
D03*
D71*
X-811496Y138681D02*
D03*
X-673701D02*
D03*
X-639153Y139272D02*
D03*
Y1476D02*
D03*
X-842106Y139764D02*
D03*
Y1969D02*
D03*
M02*
