G04 Layer_Color=128*
%FSLAX25Y25*%
%MOIN*%
G70*
G01*
G75*
%ADD137C,0.00200*%
D137*
X-231563Y-82590D02*
X-226445D01*
X-229004Y-85150D02*
Y-80031D01*
X-251563Y-82590D02*
X-246445D01*
X-249004Y-85150D02*
Y-80031D01*
X-749685Y-71850D02*
X-743780D01*
X-746732Y-74803D02*
Y-68898D01*
X-714252Y-71850D02*
X-708347D01*
X-711299Y-74803D02*
Y-68898D01*
X-547126Y-71555D02*
X-541220D01*
X-544173Y-74508D02*
Y-68602D01*
X-511693Y-71555D02*
X-505787D01*
X-508740Y-74508D02*
Y-68602D01*
X-222303Y160236D02*
X-218760D01*
X-220532Y158465D02*
Y162008D01*
X-232303Y160236D02*
X-228760D01*
X-230532Y158465D02*
Y162008D01*
X-242303Y160236D02*
X-238760D01*
X-240531Y158465D02*
Y162008D01*
X-252303Y160236D02*
X-248760D01*
X-250532Y158465D02*
Y162008D01*
X-262303Y160236D02*
X-258760D01*
X-260531Y158465D02*
Y162008D01*
X-314154Y268839D02*
X-310610D01*
X-312382Y267067D02*
Y270610D01*
X-314154Y258839D02*
X-310610D01*
X-312382Y257067D02*
Y260610D01*
X-314154Y248839D02*
X-310610D01*
X-312382Y247067D02*
Y250610D01*
X-314154Y238839D02*
X-310610D01*
X-312382Y237067D02*
Y240610D01*
X-314154Y228839D02*
X-310610D01*
X-312382Y227067D02*
Y230610D01*
X-314154Y218839D02*
X-310610D01*
X-312382Y217067D02*
Y220610D01*
X-314154Y208839D02*
X-310610D01*
X-312382Y207067D02*
Y210610D01*
X-314154Y198839D02*
X-310610D01*
X-312382Y197067D02*
Y200610D01*
X-113406Y-82590D02*
X-108287D01*
X-110846Y-85150D02*
Y-80031D01*
X-133405Y-82590D02*
X-128287D01*
X-130847Y-85150D02*
Y-80031D01*
X-192146Y-82590D02*
X-187028D01*
X-189587Y-85150D02*
Y-80031D01*
X-212146Y-82590D02*
X-207028D01*
X-209587Y-85150D02*
Y-80031D01*
X-152776Y-82590D02*
X-147657D01*
X-150216Y-85150D02*
Y-80031D01*
X-172775Y-82590D02*
X-167657D01*
X-170217Y-85150D02*
Y-80031D01*
X-350079Y-91240D02*
X-343386D01*
X-346732Y-94586D02*
Y-87894D01*
X-350079Y-72736D02*
X-343386D01*
X-346732Y-76083D02*
Y-69390D01*
X-350079Y-54232D02*
X-343386D01*
X-346732Y-57579D02*
Y-50886D01*
X-10610Y472394D02*
X20886D01*
X5138Y456646D02*
Y488142D01*
X-582953Y202539D02*
X-579016D01*
X-580984Y200571D02*
Y204508D01*
X-582953Y142539D02*
X-579016D01*
X-580984Y140571D02*
Y144508D01*
X-415784Y465343D02*
X-407909D01*
X-411846Y461406D02*
Y469280D01*
X-415784Y512587D02*
X-407909D01*
X-411846Y508650D02*
Y516524D01*
X-390209Y512890D02*
X-382334D01*
X-386272Y508953D02*
Y516827D01*
X-390209Y465646D02*
X-382334D01*
X-386272Y461709D02*
Y469583D01*
X-64862Y517421D02*
X-60925D01*
X-62894Y515453D02*
Y519390D01*
X-124862Y517421D02*
X-120925D01*
X-122894Y515453D02*
Y519390D01*
X-551980Y184988D02*
X-548831D01*
X-550406Y183413D02*
Y186563D01*
X-551980Y174988D02*
X-548831D01*
X-550406Y173413D02*
Y176563D01*
X-422059Y174988D02*
X-418910D01*
X-420484Y173413D02*
Y176563D01*
X-422059Y184988D02*
X-418910D01*
X-420484Y183413D02*
Y186563D01*
X-846713Y-71468D02*
X-840807D01*
X-843760Y-74421D02*
Y-68516D01*
X-811279Y-71468D02*
X-805374D01*
X-808327Y-74421D02*
Y-68516D01*
X-277933Y94193D02*
X-274784D01*
X-276358Y92618D02*
Y95768D01*
X-248012Y94193D02*
X-244862D01*
X-246437Y92618D02*
Y95768D01*
X-265630Y402559D02*
X-259724D01*
X-262677Y399606D02*
Y405512D01*
X-265630Y461614D02*
X-259724D01*
X-262677Y458661D02*
Y464567D01*
X-265630Y520669D02*
X-259724D01*
X-262677Y517717D02*
Y523622D01*
X-159331Y520669D02*
X-153425D01*
X-156378Y517717D02*
Y523622D01*
X-159331Y461614D02*
X-153425D01*
X-156378Y458661D02*
Y464567D01*
X-159331Y402559D02*
X-153425D01*
X-156378Y399606D02*
Y405512D01*
X-814449Y138681D02*
X-808543D01*
X-811496Y135728D02*
Y141634D01*
X-676654Y138681D02*
X-670748D01*
X-673701Y135728D02*
Y141634D01*
X-642106Y139272D02*
X-636201D01*
X-639153Y136319D02*
Y142224D01*
X-642106Y1476D02*
X-636201D01*
X-639153Y-1476D02*
Y4429D01*
X-845059Y139764D02*
X-839153D01*
X-842106Y136811D02*
Y142717D01*
X-845059Y1969D02*
X-839153D01*
X-842106Y-984D02*
Y4921D01*
X-271181Y-82590D02*
X-266063D01*
X-268622Y-85150D02*
Y-80031D01*
X-291181Y-82590D02*
X-286063D01*
X-288622Y-85150D02*
Y-80031D01*
X15728Y104000D02*
X19272D01*
X17500Y102228D02*
Y105772D01*
X15728Y114000D02*
X19272D01*
X17500Y112228D02*
Y115772D01*
X15728Y124000D02*
X19272D01*
X17500Y122228D02*
Y125772D01*
X15728Y134000D02*
X19272D01*
X17500Y132228D02*
Y135772D01*
X15728Y144000D02*
X19272D01*
X17500Y142228D02*
Y145772D01*
X-649713Y-71468D02*
X-643807D01*
X-646760Y-74421D02*
Y-68516D01*
X-614279Y-71468D02*
X-608374D01*
X-611327Y-74421D02*
Y-68516D01*
X-1772Y0D02*
X1772D01*
X0Y-1772D02*
Y1772D01*
X-11772Y0D02*
X-8228D01*
X-10000Y-1772D02*
Y1772D01*
X-21772Y0D02*
X-18228D01*
X-20000Y-1772D02*
Y1772D01*
X-31772Y0D02*
X-28228D01*
X-30000Y-1772D02*
Y1772D01*
X-41772Y0D02*
X-38228D01*
X-40000Y-1772D02*
Y1772D01*
X-51772Y0D02*
X-48228D01*
X-50000Y-1772D02*
Y1772D01*
X-48272Y214000D02*
X-44728D01*
X-46500Y212228D02*
Y215772D01*
X-38272Y214000D02*
X-34728D01*
X-36500Y212228D02*
Y215772D01*
X-28272Y214000D02*
X-24728D01*
X-26500Y212228D02*
Y215772D01*
X-18272Y214000D02*
X-14728D01*
X-16500Y212228D02*
Y215772D01*
X-343309Y322342D02*
X-340510D01*
X-341910Y320942D02*
Y323743D01*
X-190652Y224705D02*
X-187852D01*
X-189252Y223305D02*
Y226105D01*
X-183565Y227461D02*
X-180765D01*
X-182165Y226061D02*
Y228861D01*
X-313979Y288484D02*
X-311179D01*
X-312579Y287084D02*
Y289884D01*
X-333172Y304331D02*
X-330372D01*
X-331772Y302931D02*
Y305731D01*
X-217128Y386614D02*
X-214328D01*
X-215728Y385214D02*
Y388014D01*
X-314766Y418405D02*
X-311966D01*
X-313366Y417005D02*
Y419805D01*
X-299609Y368406D02*
X-296809D01*
X-298209Y367005D02*
Y369806D01*
X-334313Y375945D02*
X-331513D01*
X-332913Y374545D02*
Y377345D01*
X-284747Y308268D02*
X-281946D01*
X-283347Y306868D02*
Y309668D01*
X-64077Y234646D02*
X-61277D01*
X-62677Y233246D02*
Y236046D01*
X-164766Y280906D02*
X-161966D01*
X-163366Y279505D02*
Y282306D01*
X-153644Y280512D02*
X-150844D01*
X-152244Y279112D02*
Y281912D01*
X-97246Y249410D02*
X-94446D01*
X-95846Y248009D02*
Y250810D01*
X-89471Y259744D02*
X-86671D01*
X-88071Y258344D02*
Y261144D01*
X-38388Y278937D02*
X-35588D01*
X-36988Y277537D02*
Y280337D01*
X-38388Y272539D02*
X-35588D01*
X-36988Y271139D02*
Y273939D01*
X-138290Y411024D02*
X-135490D01*
X-136890Y409624D02*
Y412424D01*
X-25199Y449409D02*
X-22399D01*
X-23799Y448009D02*
Y450809D01*
X-17719Y449409D02*
X-14919D01*
X-16319Y448009D02*
Y450809D01*
X-25199Y442717D02*
X-22399D01*
X-23799Y441317D02*
Y444116D01*
X-80317Y471358D02*
X-77517D01*
X-78917Y469958D02*
Y472758D01*
X-90061Y480315D02*
X-87261D01*
X-88661Y478915D02*
Y481715D01*
X-90061Y471358D02*
X-87261D01*
X-88661Y469958D02*
Y472758D01*
X-80317Y480315D02*
X-77517D01*
X-78917Y478915D02*
Y481715D01*
X-137305Y479724D02*
X-134505D01*
X-135906Y478324D02*
Y481124D01*
X-137305Y455413D02*
X-134505D01*
X-135906Y454013D02*
Y456813D01*
X-137305Y463517D02*
X-134505D01*
X-135906Y462117D02*
Y464917D01*
X-137305Y471621D02*
X-134505D01*
X-135906Y470221D02*
Y473021D01*
X-253841Y37795D02*
X-251041D01*
X-252441Y36395D02*
Y39195D01*
X-247739Y37795D02*
X-244939D01*
X-246339Y36395D02*
Y39195D01*
X-241636Y37795D02*
X-238836D01*
X-240236Y36395D02*
Y39195D01*
X-235534Y37795D02*
X-232734D01*
X-234134Y36395D02*
Y39195D01*
X-205219Y272933D02*
X-202419D01*
X-203819Y271533D02*
Y274333D01*
X-213880Y272933D02*
X-211080D01*
X-212480Y271533D02*
Y274333D01*
X-198231Y256299D02*
X-195431D01*
X-196831Y254899D02*
Y257699D01*
X-103152Y5610D02*
X-100352D01*
X-101752Y4210D02*
Y7010D01*
X-103152Y18602D02*
X-100352D01*
X-101752Y17202D02*
Y20002D01*
X-105022Y31594D02*
X-102222D01*
X-103622Y30195D02*
Y32994D01*
X-131892Y-7382D02*
X-129092D01*
X-130492Y-8782D02*
Y-5982D01*
X-118457Y-7382D02*
X-115657D01*
X-117057Y-8782D02*
Y-5982D01*
X-105022Y-7382D02*
X-102222D01*
X-103622Y-8782D02*
Y-5982D01*
X-118457Y31594D02*
X-115657D01*
X-117057Y30195D02*
Y32994D01*
X-131892Y31594D02*
X-129092D01*
X-130492Y30195D02*
Y32994D01*
X3935Y289961D02*
X6735D01*
X5335Y288561D02*
Y291361D01*
X-2365Y289961D02*
X435D01*
X-965Y288561D02*
Y291361D01*
X-8664Y289961D02*
X-5864D01*
X-7264Y288561D02*
Y291361D01*
X-259943Y37795D02*
X-257143D01*
X-258543Y36395D02*
Y39195D01*
X-229432Y37795D02*
X-226631D01*
X-228031Y36395D02*
Y39195D01*
X-314373Y110335D02*
X-311573D01*
X-312973Y108934D02*
Y111734D01*
X-618583Y1181D02*
X-608740D01*
X-613661Y-3740D02*
Y6102D01*
X-112010Y330020D02*
X-109210D01*
X-110610Y328620D02*
Y331420D01*
X-259156Y247835D02*
X-256356D01*
X-257756Y246435D02*
Y249235D01*
X-288979Y133366D02*
X-286179D01*
X-287579Y131966D02*
Y134766D01*
X-211124Y187894D02*
X-208324D01*
X-209724Y186494D02*
Y189294D01*
X-295376Y268799D02*
X-292576D01*
X-293976Y267399D02*
Y270199D01*
X-168802Y208661D02*
X-166002D01*
X-167402Y207261D02*
Y210061D01*
X-337109Y281693D02*
X-334309D01*
X-335709Y280293D02*
Y283093D01*
X-48231Y378740D02*
X-45431D01*
X-46831Y377340D02*
Y380140D01*
X-48231Y385039D02*
X-45431D01*
X-46831Y383639D02*
Y386439D01*
X-54235Y378740D02*
X-51435D01*
X-52835Y377340D02*
Y380140D01*
X-60239Y378740D02*
X-57439D01*
X-58839Y377340D02*
Y380140D01*
X-60239Y385039D02*
X-57439D01*
X-58839Y383639D02*
Y386439D01*
X-54235Y385039D02*
X-51435D01*
X-52835Y383639D02*
Y386439D01*
X16533Y289961D02*
X19333D01*
X17933Y288561D02*
Y291361D01*
X10234Y289961D02*
X13034D01*
X11634Y288561D02*
Y291361D01*
X-407187Y31496D02*
X-404387D01*
X-405787Y30096D02*
Y32896D01*
X-396557Y31496D02*
X-393758D01*
X-395158Y30096D02*
Y32896D01*
X-385928Y31496D02*
X-383128D01*
X-384528Y30096D02*
Y32896D01*
X-375298Y31496D02*
X-372498D01*
X-373898Y30096D02*
Y32896D01*
X-407483Y87303D02*
X-404683D01*
X-406083Y85903D02*
Y88703D01*
X-386223Y87303D02*
X-383423D01*
X-384823Y85903D02*
Y88703D01*
X-375593Y87303D02*
X-372793D01*
X-374193Y85903D02*
Y88703D01*
X-338290Y128480D02*
X-335490D01*
X-336890Y127080D02*
Y129880D01*
X-378743Y231102D02*
X-375942D01*
X-377343Y229702D02*
Y232502D01*
X-347739Y26969D02*
X-344939D01*
X-346339Y25569D02*
Y28368D01*
X-325987Y461614D02*
X-323187D01*
X-324587Y460214D02*
Y463014D01*
X-332335Y461614D02*
X-329535D01*
X-330935Y460214D02*
Y463014D01*
X-338684Y461614D02*
X-335883D01*
X-337283Y460214D02*
Y463014D01*
X-418014Y453937D02*
X-415214D01*
X-416614Y452537D02*
Y455337D01*
X-409845Y453839D02*
X-407045D01*
X-408445Y452439D02*
Y455239D01*
X-418408Y356644D02*
X-415608D01*
X-417008Y355244D02*
Y358044D01*
X-418408Y412057D02*
X-415608D01*
X-417008Y410657D02*
Y413457D01*
X-397148Y412057D02*
X-394348D01*
X-395748Y410657D02*
Y413457D01*
X-386518Y412057D02*
X-383718D01*
X-385118Y410657D02*
Y413457D01*
X-386518Y356644D02*
X-383718D01*
X-385118Y355244D02*
Y358044D01*
X-407778Y356644D02*
X-404978D01*
X-406378Y355244D02*
Y358044D01*
X-397148Y356644D02*
X-394348D01*
X-395748Y355244D02*
Y358044D01*
X-407778Y412057D02*
X-404978D01*
X-406378Y410657D02*
Y413457D01*
X-369589Y363976D02*
X-366789D01*
X-368189Y362576D02*
Y365376D01*
X-364126Y363976D02*
X-361326D01*
X-362726Y362576D02*
Y365376D01*
X-256794Y338484D02*
X-253994D01*
X-255394Y337084D02*
Y339884D01*
X-111813Y400787D02*
X-109013D01*
X-110413Y399387D02*
Y402187D01*
X-17719Y442717D02*
X-14919D01*
X-16319Y441317D02*
Y444116D01*
X-60337Y471752D02*
X-57537D01*
X-58937Y470352D02*
Y473152D01*
X-60337Y478445D02*
X-57537D01*
X-58937Y477045D02*
Y479845D01*
X-67817Y471752D02*
X-65017D01*
X-66417Y470352D02*
Y473152D01*
X-67817Y478445D02*
X-65017D01*
X-66417Y477045D02*
Y479845D01*
X-133172Y256890D02*
X-130372D01*
X-131772Y255490D02*
Y258290D01*
X-177365Y291339D02*
X-174565D01*
X-175965Y289939D02*
Y292739D01*
X-161912Y249803D02*
X-159112D01*
X-160512Y248403D02*
Y251203D01*
X-284156Y250000D02*
X-281356D01*
X-282756Y248600D02*
Y251400D01*
X-223723Y194783D02*
X-220923D01*
X-222323Y193384D02*
Y196184D01*
X-38388Y266831D02*
X-35588D01*
X-36988Y265431D02*
Y268231D01*
X-42227Y290846D02*
X-39427D01*
X-40827Y289446D02*
Y292247D01*
X-42227Y310531D02*
X-39427D01*
X-40827Y309132D02*
Y311931D01*
X-42227Y300689D02*
X-39427D01*
X-40827Y299289D02*
Y302089D01*
X-73723Y300689D02*
X-70923D01*
X-72323Y299289D02*
Y302089D01*
X-73723Y310531D02*
X-70923D01*
X-72323Y309132D02*
Y311931D01*
X-73723Y290846D02*
X-70923D01*
X-72323Y289446D02*
Y292247D01*
X-215455Y-15256D02*
X-212655D01*
X-214055Y-16656D02*
Y-13856D01*
X-238093Y74902D02*
X-235293D01*
X-236693Y73502D02*
Y76302D01*
X-184451Y99114D02*
X-181651D01*
X-183051Y97714D02*
Y100514D01*
X-207384Y99114D02*
X-204584D01*
X-205984Y97714D02*
Y100514D01*
X-195918Y99114D02*
X-193118D01*
X-194518Y97714D02*
Y100514D01*
X-186813Y38287D02*
X-184013D01*
X-185413Y36887D02*
Y39687D01*
X-210239Y38287D02*
X-207439D01*
X-208839Y36887D02*
Y39687D01*
X-198526Y38287D02*
X-195726D01*
X-197126Y36887D02*
Y39687D01*
X-287207Y-15256D02*
X-284407D01*
X-285807Y-16656D02*
Y-13856D01*
X-274805Y-15256D02*
X-272006D01*
X-273406Y-16656D02*
Y-13856D01*
X-281006Y-15256D02*
X-278206D01*
X-279606Y-16656D02*
Y-13856D01*
X-168802Y147539D02*
X-166002D01*
X-167402Y146139D02*
Y148939D01*
X-119589Y97441D02*
X-116789D01*
X-118189Y96041D02*
Y98841D01*
X-284451Y387008D02*
X-281651D01*
X-283051Y385608D02*
Y388408D01*
X-871142Y-2264D02*
X-861299D01*
X-866220Y-7185D02*
Y2657D01*
X-733740Y1476D02*
X-723898D01*
X-728819Y-3445D02*
Y6398D01*
X-531181Y2264D02*
X-521339D01*
X-526260Y-2657D02*
Y7185D01*
X-78841Y-86319D02*
X-76041D01*
X-77441Y-87719D02*
Y-84919D01*
X-113782Y256850D02*
X-110982D01*
X-112382Y255450D02*
Y258250D01*
X-144855Y191781D02*
X-142055D01*
X-143455Y190382D02*
Y193182D01*
M02*
