G04 Layer_Color=2752767*
%FSLAX25Y25*%
%MOIN*%
G70*
G01*
G75*
%ADD137C,0.00200*%
%ADD138C,0.00267*%
%ADD139C,0.00133*%
D137*
X-229804Y-83390D02*
Y-81790D01*
X-228204D01*
Y-83390D01*
X-229804D01*
X-249804D02*
Y-81790D01*
X-248204D01*
Y-83390D01*
X-249804D01*
X-220532Y159436D02*
X-221332Y161036D01*
X-219731D01*
X-220532Y159436D01*
X-230532D02*
X-231331Y161036D01*
X-229731D01*
X-230532Y159436D01*
X-240531D02*
X-241332Y161036D01*
X-239732D01*
X-240531Y159436D01*
X-250532D02*
X-251331Y161036D01*
X-249731D01*
X-250532Y159436D01*
X-260531D02*
X-261332Y161036D01*
X-259732D01*
X-260531Y159436D01*
X-312382Y268039D02*
X-313182Y269639D01*
X-311582D01*
X-312382Y268039D01*
Y258039D02*
X-313182Y259639D01*
X-311582D01*
X-312382Y258039D01*
Y248039D02*
X-313182Y249639D01*
X-311582D01*
X-312382Y248039D01*
Y238039D02*
X-313182Y239639D01*
X-311582D01*
X-312382Y238039D01*
Y228039D02*
X-313182Y229639D01*
X-311582D01*
X-312382Y228039D01*
Y218039D02*
X-313182Y219639D01*
X-311582D01*
X-312382Y218039D01*
Y208039D02*
X-313182Y209639D01*
X-311582D01*
X-312382Y208039D01*
Y198039D02*
X-313182Y199639D01*
X-311582D01*
X-312382Y198039D01*
X-111646Y-83390D02*
Y-81790D01*
X-110047D01*
Y-83390D01*
X-111646D01*
X-131647D02*
Y-81790D01*
X-130046D01*
Y-83390D01*
X-131647D01*
X-190387D02*
Y-81790D01*
X-188787D01*
Y-83390D01*
X-190387D01*
X-210387D02*
Y-81790D01*
X-208787D01*
Y-83390D01*
X-210387D01*
X-151016D02*
Y-81790D01*
X-149416D01*
Y-83390D01*
X-151016D01*
X-171017D02*
Y-81790D01*
X-169416D01*
Y-83390D01*
X-171017D01*
X-346732Y-92040D02*
X-346332Y-91640D01*
X-345932D01*
X-346332Y-91240D01*
X-345932Y-90840D01*
X-346332D01*
X-346732Y-90440D01*
X-347132Y-90840D01*
X-347532D01*
X-347132Y-91240D01*
X-347532Y-91640D01*
X-347132D01*
X-346732Y-92040D01*
Y-73536D02*
X-346332Y-73136D01*
X-345932D01*
X-346332Y-72736D01*
X-345932Y-72336D01*
X-346332D01*
X-346732Y-71936D01*
X-347132Y-72336D01*
X-347532D01*
X-347132Y-72736D01*
X-347532Y-73136D01*
X-347132D01*
X-346732Y-73536D01*
Y-55032D02*
X-346332Y-54632D01*
X-345932D01*
X-346332Y-54232D01*
X-345932Y-53832D01*
X-346332D01*
X-346732Y-53432D01*
X-347132Y-53832D01*
X-347532D01*
X-347132Y-54232D01*
X-347532Y-54632D01*
X-347132D01*
X-346732Y-55032D01*
X4338Y471594D02*
X4738Y472394D01*
X4338Y473194D01*
X5138Y472794D01*
X5938Y473194D01*
X5538Y472394D01*
X5938Y471594D01*
X5138Y471994D01*
X4338Y471594D01*
X-581384Y202139D02*
Y201739D01*
X-580584D01*
Y202139D01*
X-580184D01*
Y202939D01*
X-580584D01*
Y203339D01*
X-581384D01*
Y202939D01*
X-581784D01*
Y202139D01*
X-581384D01*
Y142139D02*
Y141739D01*
X-580584D01*
Y142139D01*
X-580184D01*
Y142939D01*
X-580584D01*
Y143339D01*
X-581384D01*
Y142939D01*
X-581784D01*
Y142139D01*
X-581384D01*
X-412646Y464543D02*
X-412247D01*
X-411846Y464943D01*
X-411447Y464543D01*
X-411047D01*
Y464943D01*
X-411447Y465343D01*
X-411047Y465743D01*
Y466143D01*
X-411447D01*
X-411846Y465743D01*
X-412247Y466143D01*
X-412646D01*
Y465743D01*
X-412247Y465343D01*
X-412646Y464943D01*
Y464543D01*
Y511787D02*
X-412247D01*
X-411846Y512187D01*
X-411447Y511787D01*
X-411047D01*
Y512187D01*
X-411447Y512587D01*
X-411047Y512987D01*
Y513387D01*
X-411447D01*
X-411846Y512987D01*
X-412247Y513387D01*
X-412646D01*
Y512987D01*
X-412247Y512587D01*
X-412646Y512187D01*
Y511787D01*
X-387071Y512090D02*
X-386671D01*
X-386272Y512490D01*
X-385872Y512090D01*
X-385472D01*
Y512490D01*
X-385872Y512890D01*
X-385472Y513290D01*
Y513690D01*
X-385872D01*
X-386272Y513290D01*
X-386671Y513690D01*
X-387071D01*
Y513290D01*
X-386671Y512890D01*
X-387071Y512490D01*
Y512090D01*
Y464846D02*
X-386671D01*
X-386272Y465246D01*
X-385872Y464846D01*
X-385472D01*
Y465246D01*
X-385872Y465646D01*
X-385472Y466046D01*
Y466446D01*
X-385872D01*
X-386272Y466046D01*
X-386671Y466446D01*
X-387071D01*
Y466046D01*
X-386671Y465646D01*
X-387071Y465246D01*
Y464846D01*
X-63294Y517021D02*
Y516621D01*
X-62494D01*
Y517021D01*
X-62094D01*
Y517821D01*
X-62494D01*
Y518221D01*
X-63294D01*
Y517821D01*
X-63694D01*
Y517021D01*
X-63294D01*
X-123294D02*
Y516621D01*
X-122494D01*
Y517021D01*
X-122094D01*
Y517821D01*
X-122494D01*
Y518221D01*
X-123294D01*
Y517821D01*
X-123694D01*
Y517021D01*
X-123294D01*
X-551205Y184988D02*
X-550406Y185788D01*
X-549606Y184988D01*
X-550406Y184188D01*
X-551205Y184988D01*
Y174988D02*
X-550406Y175788D01*
X-549606Y174988D01*
X-550406Y174188D01*
X-551205Y174988D01*
X-421284D02*
X-420484Y175788D01*
X-419684Y174988D01*
X-420484Y174188D01*
X-421284Y174988D01*
Y184988D02*
X-420484Y185788D01*
X-419684Y184988D01*
X-420484Y184188D01*
X-421284Y184988D01*
X-277158Y94193D02*
X-276358Y94993D01*
X-275558Y94193D01*
X-276358Y93393D01*
X-277158Y94193D01*
X-247237D02*
X-246437Y94993D01*
X-245637Y94193D01*
X-246437Y93393D01*
X-247237Y94193D01*
X-269422Y-83390D02*
Y-81790D01*
X-267822D01*
Y-83390D01*
X-269422D01*
X-289422D02*
Y-81790D01*
X-287822D01*
Y-83390D01*
X-289422D01*
X17500Y103200D02*
X16700Y104800D01*
X18300D01*
X17500Y103200D01*
Y113200D02*
X16700Y114800D01*
X18300D01*
X17500Y113200D01*
Y123200D02*
X16700Y124800D01*
X18300D01*
X17500Y123200D01*
Y133200D02*
X16700Y134800D01*
X18300D01*
X17500Y133200D01*
Y143200D02*
X16700Y144800D01*
X18300D01*
X17500Y143200D01*
X0Y-800D02*
X-800Y800D01*
X800D01*
X0Y-800D01*
X-10000D02*
X-10800Y800D01*
X-9200D01*
X-10000Y-800D01*
X-20000D02*
X-20800Y800D01*
X-19200D01*
X-20000Y-800D01*
X-30000D02*
X-30800Y800D01*
X-29200D01*
X-30000Y-800D01*
X-40000D02*
X-40800Y800D01*
X-39200D01*
X-40000Y-800D01*
X-50000D02*
X-50800Y800D01*
X-49200D01*
X-50000Y-800D01*
X-46500Y213200D02*
X-47300Y214800D01*
X-45700D01*
X-46500Y213200D01*
X-36500D02*
X-37300Y214800D01*
X-35700D01*
X-36500Y213200D01*
X-26500D02*
X-27300Y214800D01*
X-25700D01*
X-26500Y213200D01*
X-16500D02*
X-17300Y214800D01*
X-15700D01*
X-16500Y213200D01*
X-342709Y321543D02*
Y323143D01*
X-341109D01*
Y321543D01*
X-342709D01*
X-342309Y321942D02*
Y322743D01*
X-341510D01*
Y321942D01*
X-342309D01*
X-190052Y223905D02*
Y225505D01*
X-188452D01*
Y223905D01*
X-190052D01*
X-189652Y224305D02*
Y225105D01*
X-188852D01*
Y224305D01*
X-189652D01*
X-182965Y226661D02*
Y228261D01*
X-181365D01*
Y226661D01*
X-182965D01*
X-182565Y227061D02*
Y227861D01*
X-181765D01*
Y227061D01*
X-182565D01*
X-313379Y287684D02*
Y289284D01*
X-311779D01*
Y287684D01*
X-313379D01*
X-312979Y288084D02*
Y288884D01*
X-312179D01*
Y288084D01*
X-312979D01*
X-332572Y303531D02*
Y305131D01*
X-330972D01*
Y303531D01*
X-332572D01*
X-332172Y303931D02*
Y304731D01*
X-331372D01*
Y303931D01*
X-332172D01*
X-216528Y385814D02*
Y387414D01*
X-214928D01*
Y385814D01*
X-216528D01*
X-216128Y386214D02*
Y387014D01*
X-215328D01*
Y386214D01*
X-216128D01*
X-314166Y417605D02*
Y419206D01*
X-312566D01*
Y417605D01*
X-314166D01*
X-313766Y418006D02*
Y418806D01*
X-312966D01*
Y418006D01*
X-313766D01*
X-299009Y367605D02*
Y369205D01*
X-297409D01*
Y367605D01*
X-299009D01*
X-298609Y368005D02*
Y368806D01*
X-297809D01*
Y368005D01*
X-298609D01*
X-333713Y375145D02*
Y376745D01*
X-332113D01*
Y375145D01*
X-333713D01*
X-333313Y375545D02*
Y376345D01*
X-332513D01*
Y375545D01*
X-333313D01*
X-284146Y307468D02*
Y309068D01*
X-282546D01*
Y307468D01*
X-284146D01*
X-283747Y307868D02*
Y308668D01*
X-282946D01*
Y307868D01*
X-283747D01*
X-63477Y233846D02*
Y235446D01*
X-61877D01*
Y233846D01*
X-63477D01*
X-63077Y234246D02*
Y235046D01*
X-62277D01*
Y234246D01*
X-63077D01*
X-164166Y280105D02*
Y281705D01*
X-162566D01*
Y280105D01*
X-164166D01*
X-163766Y280505D02*
Y281306D01*
X-162966D01*
Y280505D01*
X-163766D01*
X-153044Y279712D02*
Y281312D01*
X-151444D01*
Y279712D01*
X-153044D01*
X-152644Y280112D02*
Y280912D01*
X-151844D01*
Y280112D01*
X-152644D01*
X-96646Y248609D02*
Y250209D01*
X-95047D01*
Y248609D01*
X-96646D01*
X-96246Y249009D02*
Y249810D01*
X-95446D01*
Y249009D01*
X-96246D01*
X-88871Y258944D02*
Y260544D01*
X-87271D01*
Y258944D01*
X-88871D01*
X-88471Y259344D02*
Y260144D01*
X-87671D01*
Y259344D01*
X-88471D01*
X-37788Y278137D02*
Y279737D01*
X-36188D01*
Y278137D01*
X-37788D01*
X-37388Y278537D02*
Y279337D01*
X-36588D01*
Y278537D01*
X-37388D01*
X-37788Y271739D02*
Y273339D01*
X-36188D01*
Y271739D01*
X-37788D01*
X-37388Y272139D02*
Y272939D01*
X-36588D01*
Y272139D01*
X-37388D01*
X-137690Y410224D02*
Y411824D01*
X-136090D01*
Y410224D01*
X-137690D01*
X-137290Y410624D02*
Y411424D01*
X-136490D01*
Y410624D01*
X-137290D01*
X-24599Y448609D02*
Y450210D01*
X-22999D01*
Y448609D01*
X-24599D01*
X-24199Y449010D02*
Y449810D01*
X-23399D01*
Y449010D01*
X-24199D01*
X-17119Y448609D02*
Y450210D01*
X-15519D01*
Y448609D01*
X-17119D01*
X-16719Y449010D02*
Y449810D01*
X-15919D01*
Y449010D01*
X-16719D01*
X-24599Y441917D02*
Y443516D01*
X-22999D01*
Y441917D01*
X-24599D01*
X-24199Y442316D02*
Y443117D01*
X-23399D01*
Y442316D01*
X-24199D01*
X-79717Y470558D02*
Y472158D01*
X-78117D01*
Y470558D01*
X-79717D01*
X-79317Y470958D02*
Y471758D01*
X-78517D01*
Y470958D01*
X-79317D01*
X-89461Y479515D02*
Y481115D01*
X-87861D01*
Y479515D01*
X-89461D01*
X-89061Y479915D02*
Y480715D01*
X-88261D01*
Y479915D01*
X-89061D01*
X-89461Y470558D02*
Y472158D01*
X-87861D01*
Y470558D01*
X-89461D01*
X-89061Y470958D02*
Y471758D01*
X-88261D01*
Y470958D01*
X-89061D01*
X-79717Y479515D02*
Y481115D01*
X-78117D01*
Y479515D01*
X-79717D01*
X-79317Y479915D02*
Y480715D01*
X-78517D01*
Y479915D01*
X-79317D01*
X-136706Y478924D02*
Y480524D01*
X-135106D01*
Y478924D01*
X-136706D01*
X-136305Y479324D02*
Y480124D01*
X-135505D01*
Y479324D01*
X-136305D01*
X-136706Y454613D02*
Y456213D01*
X-135106D01*
Y454613D01*
X-136706D01*
X-136305Y455013D02*
Y455813D01*
X-135505D01*
Y455013D01*
X-136305D01*
X-136706Y462717D02*
Y464317D01*
X-135106D01*
Y462717D01*
X-136706D01*
X-136305Y463117D02*
Y463917D01*
X-135505D01*
Y463117D01*
X-136305D01*
X-136706Y470821D02*
Y472421D01*
X-135106D01*
Y470821D01*
X-136706D01*
X-136305Y471221D02*
Y472021D01*
X-135505D01*
Y471221D01*
X-136305D01*
X-253241Y36995D02*
Y38595D01*
X-251641D01*
Y36995D01*
X-253241D01*
X-252841Y37395D02*
Y38195D01*
X-252041D01*
Y37395D01*
X-252841D01*
X-247139Y36995D02*
Y38595D01*
X-245539D01*
Y36995D01*
X-247139D01*
X-246739Y37395D02*
Y38195D01*
X-245939D01*
Y37395D01*
X-246739D01*
X-241036Y36995D02*
Y38595D01*
X-239436D01*
Y36995D01*
X-241036D01*
X-240636Y37395D02*
Y38195D01*
X-239836D01*
Y37395D01*
X-240636D01*
X-234934Y36995D02*
Y38595D01*
X-233334D01*
Y36995D01*
X-234934D01*
X-234534Y37395D02*
Y38195D01*
X-233734D01*
Y37395D01*
X-234534D01*
X-204619Y272133D02*
Y273733D01*
X-203019D01*
Y272133D01*
X-204619D01*
X-204219Y272533D02*
Y273333D01*
X-203419D01*
Y272533D01*
X-204219D01*
X-213280Y272133D02*
Y273733D01*
X-211680D01*
Y272133D01*
X-213280D01*
X-212880Y272533D02*
Y273333D01*
X-212080D01*
Y272533D01*
X-212880D01*
X-197631Y255499D02*
Y257099D01*
X-196031D01*
Y255499D01*
X-197631D01*
X-197231Y255899D02*
Y256699D01*
X-196431D01*
Y255899D01*
X-197231D01*
X-102552Y4810D02*
Y6410D01*
X-100952D01*
Y4810D01*
X-102552D01*
X-102152Y5210D02*
Y6010D01*
X-101352D01*
Y5210D01*
X-102152D01*
X-102552Y17802D02*
Y19402D01*
X-100952D01*
Y17802D01*
X-102552D01*
X-102152Y18202D02*
Y19002D01*
X-101352D01*
Y18202D01*
X-102152D01*
X-104422Y30795D02*
Y32394D01*
X-102822D01*
Y30795D01*
X-104422D01*
X-104022Y31194D02*
Y31995D01*
X-103222D01*
Y31194D01*
X-104022D01*
X-131292Y-8182D02*
Y-6582D01*
X-129692D01*
Y-8182D01*
X-131292D01*
X-130892Y-7782D02*
Y-6982D01*
X-130092D01*
Y-7782D01*
X-130892D01*
X-117857Y-8182D02*
Y-6582D01*
X-116257D01*
Y-8182D01*
X-117857D01*
X-117457Y-7782D02*
Y-6982D01*
X-116657D01*
Y-7782D01*
X-117457D01*
X-104422Y-8182D02*
Y-6582D01*
X-102822D01*
Y-8182D01*
X-104422D01*
X-104022Y-7782D02*
Y-6982D01*
X-103222D01*
Y-7782D01*
X-104022D01*
X-117857Y30795D02*
Y32394D01*
X-116257D01*
Y30795D01*
X-117857D01*
X-117457Y31194D02*
Y31995D01*
X-116657D01*
Y31194D01*
X-117457D01*
X-131292Y30795D02*
Y32394D01*
X-129692D01*
Y30795D01*
X-131292D01*
X-130892Y31194D02*
Y31995D01*
X-130092D01*
Y31194D01*
X-130892D01*
X4535Y289161D02*
Y290761D01*
X6135D01*
Y289161D01*
X4535D01*
X4935Y289561D02*
Y290361D01*
X5735D01*
Y289561D01*
X4935D01*
X-1765Y289161D02*
Y290761D01*
X-165D01*
Y289161D01*
X-1765D01*
X-1365Y289561D02*
Y290361D01*
X-565D01*
Y289561D01*
X-1365D01*
X-8064Y289161D02*
Y290761D01*
X-6464D01*
Y289161D01*
X-8064D01*
X-7664Y289561D02*
Y290361D01*
X-6864D01*
Y289561D01*
X-7664D01*
X-259343Y36995D02*
Y38595D01*
X-257743D01*
Y36995D01*
X-259343D01*
X-258943Y37395D02*
Y38195D01*
X-258143D01*
Y37395D01*
X-258943D01*
X-228832Y36995D02*
Y38595D01*
X-227232D01*
Y36995D01*
X-228832D01*
X-228432Y37395D02*
Y38195D01*
X-227631D01*
Y37395D01*
X-228432D01*
X-313773Y109535D02*
Y111135D01*
X-312173D01*
Y109535D01*
X-313773D01*
X-313373Y109934D02*
Y110734D01*
X-312573D01*
Y109934D01*
X-313373D01*
X-111410Y329220D02*
Y330820D01*
X-109810D01*
Y329220D01*
X-111410D01*
X-111010Y329620D02*
Y330420D01*
X-110210D01*
Y329620D01*
X-111010D01*
X-258556Y247035D02*
Y248635D01*
X-256956D01*
Y247035D01*
X-258556D01*
X-258156Y247435D02*
Y248235D01*
X-257356D01*
Y247435D01*
X-258156D01*
X-288379Y132566D02*
Y134166D01*
X-286779D01*
Y132566D01*
X-288379D01*
X-287979Y132966D02*
Y133766D01*
X-287179D01*
Y132966D01*
X-287979D01*
X-210524Y187094D02*
Y188694D01*
X-208924D01*
Y187094D01*
X-210524D01*
X-210124Y187494D02*
Y188294D01*
X-209324D01*
Y187494D01*
X-210124D01*
X-294776Y267999D02*
Y269599D01*
X-293176D01*
Y267999D01*
X-294776D01*
X-294376Y268399D02*
Y269199D01*
X-293576D01*
Y268399D01*
X-294376D01*
X-168202Y207861D02*
Y209461D01*
X-166602D01*
Y207861D01*
X-168202D01*
X-167802Y208261D02*
Y209061D01*
X-167002D01*
Y208261D01*
X-167802D01*
X-336509Y280893D02*
Y282493D01*
X-334909D01*
Y280893D01*
X-336509D01*
X-336109Y281293D02*
Y282093D01*
X-335309D01*
Y281293D01*
X-336109D01*
X-47631Y377940D02*
Y379540D01*
X-46031D01*
Y377940D01*
X-47631D01*
X-47231Y378340D02*
Y379140D01*
X-46431D01*
Y378340D01*
X-47231D01*
X-47631Y384239D02*
Y385839D01*
X-46031D01*
Y384239D01*
X-47631D01*
X-47231Y384639D02*
Y385439D01*
X-46431D01*
Y384639D01*
X-47231D01*
X-53635Y377940D02*
Y379540D01*
X-52035D01*
Y377940D01*
X-53635D01*
X-53235Y378340D02*
Y379140D01*
X-52435D01*
Y378340D01*
X-53235D01*
X-59639Y377940D02*
Y379540D01*
X-58039D01*
Y377940D01*
X-59639D01*
X-59239Y378340D02*
Y379140D01*
X-58439D01*
Y378340D01*
X-59239D01*
X-59639Y384239D02*
Y385839D01*
X-58039D01*
Y384239D01*
X-59639D01*
X-59239Y384639D02*
Y385439D01*
X-58439D01*
Y384639D01*
X-59239D01*
X-53635Y384239D02*
Y385839D01*
X-52035D01*
Y384239D01*
X-53635D01*
X-53235Y384639D02*
Y385439D01*
X-52435D01*
Y384639D01*
X-53235D01*
X17133Y289161D02*
Y290761D01*
X18733D01*
Y289161D01*
X17133D01*
X17533Y289561D02*
Y290361D01*
X18333D01*
Y289561D01*
X17533D01*
X10834Y289161D02*
Y290761D01*
X12434D01*
Y289161D01*
X10834D01*
X11234Y289561D02*
Y290361D01*
X12034D01*
Y289561D01*
X11234D01*
X-406587Y30696D02*
Y32296D01*
X-404987D01*
Y30696D01*
X-406587D01*
X-406187Y31096D02*
Y31896D01*
X-405387D01*
Y31096D01*
X-406187D01*
X-395957Y30696D02*
Y32296D01*
X-394357D01*
Y30696D01*
X-395957D01*
X-395557Y31096D02*
Y31896D01*
X-394758D01*
Y31096D01*
X-395557D01*
X-385328Y30696D02*
Y32296D01*
X-383728D01*
Y30696D01*
X-385328D01*
X-384928Y31096D02*
Y31896D01*
X-384128D01*
Y31096D01*
X-384928D01*
X-374698Y30696D02*
Y32296D01*
X-373098D01*
Y30696D01*
X-374698D01*
X-374298Y31096D02*
Y31896D01*
X-373498D01*
Y31096D01*
X-374298D01*
X-406883Y86503D02*
Y88103D01*
X-405283D01*
Y86503D01*
X-406883D01*
X-406483Y86903D02*
Y87703D01*
X-405683D01*
Y86903D01*
X-406483D01*
X-385623Y86503D02*
Y88103D01*
X-384023D01*
Y86503D01*
X-385623D01*
X-385223Y86903D02*
Y87703D01*
X-384423D01*
Y86903D01*
X-385223D01*
X-374993Y86503D02*
Y88103D01*
X-373393D01*
Y86503D01*
X-374993D01*
X-374593Y86903D02*
Y87703D01*
X-373793D01*
Y86903D01*
X-374593D01*
X-337690Y127680D02*
Y129280D01*
X-336090D01*
Y127680D01*
X-337690D01*
X-337290Y128080D02*
Y128880D01*
X-336490D01*
Y128080D01*
X-337290D01*
X-378142Y230302D02*
Y231902D01*
X-376542D01*
Y230302D01*
X-378142D01*
X-377743Y230702D02*
Y231502D01*
X-376942D01*
Y230702D01*
X-377743D01*
X-347139Y26169D02*
Y27768D01*
X-345539D01*
Y26169D01*
X-347139D01*
X-346739Y26568D02*
Y27369D01*
X-345939D01*
Y26568D01*
X-346739D01*
X-325387Y460814D02*
Y462414D01*
X-323787D01*
Y460814D01*
X-325387D01*
X-324987Y461214D02*
Y462014D01*
X-324187D01*
Y461214D01*
X-324987D01*
X-331735Y460814D02*
Y462414D01*
X-330135D01*
Y460814D01*
X-331735D01*
X-331335Y461214D02*
Y462014D01*
X-330535D01*
Y461214D01*
X-331335D01*
X-338084Y460814D02*
Y462414D01*
X-336484D01*
Y460814D01*
X-338084D01*
X-337684Y461214D02*
Y462014D01*
X-336883D01*
Y461214D01*
X-337684D01*
X-417414Y453137D02*
Y454737D01*
X-415814D01*
Y453137D01*
X-417414D01*
X-417014Y453537D02*
Y454337D01*
X-416214D01*
Y453537D01*
X-417014D01*
X-409245Y453039D02*
Y454639D01*
X-407645D01*
Y453039D01*
X-409245D01*
X-408845Y453439D02*
Y454239D01*
X-408045D01*
Y453439D01*
X-408845D01*
X-417808Y355844D02*
Y357444D01*
X-416208D01*
Y355844D01*
X-417808D01*
X-417408Y356244D02*
Y357044D01*
X-416608D01*
Y356244D01*
X-417408D01*
X-417808Y411257D02*
Y412857D01*
X-416208D01*
Y411257D01*
X-417808D01*
X-417408Y411657D02*
Y412457D01*
X-416608D01*
Y411657D01*
X-417408D01*
X-396548Y411257D02*
Y412857D01*
X-394948D01*
Y411257D01*
X-396548D01*
X-396148Y411657D02*
Y412457D01*
X-395348D01*
Y411657D01*
X-396148D01*
X-385918Y411257D02*
Y412857D01*
X-384318D01*
Y411257D01*
X-385918D01*
X-385518Y411657D02*
Y412457D01*
X-384718D01*
Y411657D01*
X-385518D01*
X-385918Y355844D02*
Y357444D01*
X-384318D01*
Y355844D01*
X-385918D01*
X-385518Y356244D02*
Y357044D01*
X-384718D01*
Y356244D01*
X-385518D01*
X-407178Y355844D02*
Y357444D01*
X-405578D01*
Y355844D01*
X-407178D01*
X-406778Y356244D02*
Y357044D01*
X-405978D01*
Y356244D01*
X-406778D01*
X-396548Y355844D02*
Y357444D01*
X-394948D01*
Y355844D01*
X-396548D01*
X-396148Y356244D02*
Y357044D01*
X-395348D01*
Y356244D01*
X-396148D01*
X-407178Y411257D02*
Y412857D01*
X-405578D01*
Y411257D01*
X-407178D01*
X-406778Y411657D02*
Y412457D01*
X-405978D01*
Y411657D01*
X-406778D01*
X-368989Y363176D02*
Y364776D01*
X-367389D01*
Y363176D01*
X-368989D01*
X-368589Y363576D02*
Y364376D01*
X-367789D01*
Y363576D01*
X-368589D01*
X-363526Y363176D02*
Y364776D01*
X-361926D01*
Y363176D01*
X-363526D01*
X-363126Y363576D02*
Y364376D01*
X-362326D01*
Y363576D01*
X-363126D01*
X-256194Y337684D02*
Y339284D01*
X-254594D01*
Y337684D01*
X-256194D01*
X-255794Y338084D02*
Y338884D01*
X-254994D01*
Y338084D01*
X-255794D01*
X-111213Y399987D02*
Y401587D01*
X-109613D01*
Y399987D01*
X-111213D01*
X-110813Y400387D02*
Y401187D01*
X-110013D01*
Y400387D01*
X-110813D01*
X-17119Y441917D02*
Y443516D01*
X-15519D01*
Y441917D01*
X-17119D01*
X-16719Y442316D02*
Y443117D01*
X-15919D01*
Y442316D01*
X-16719D01*
X-59737Y470952D02*
Y472552D01*
X-58137D01*
Y470952D01*
X-59737D01*
X-59337Y471352D02*
Y472152D01*
X-58537D01*
Y471352D01*
X-59337D01*
X-59737Y477645D02*
Y479245D01*
X-58137D01*
Y477645D01*
X-59737D01*
X-59337Y478045D02*
Y478845D01*
X-58537D01*
Y478045D01*
X-59337D01*
X-67217Y470952D02*
Y472552D01*
X-65617D01*
Y470952D01*
X-67217D01*
X-66817Y471352D02*
Y472152D01*
X-66017D01*
Y471352D01*
X-66817D01*
X-67217Y477645D02*
Y479245D01*
X-65617D01*
Y477645D01*
X-67217D01*
X-66817Y478045D02*
Y478845D01*
X-66017D01*
Y478045D01*
X-66817D01*
X-132572Y256090D02*
Y257690D01*
X-130972D01*
Y256090D01*
X-132572D01*
X-132172Y256490D02*
Y257290D01*
X-131372D01*
Y256490D01*
X-132172D01*
X-176765Y290539D02*
Y292139D01*
X-175165D01*
Y290539D01*
X-176765D01*
X-176365Y290939D02*
Y291739D01*
X-175565D01*
Y290939D01*
X-176365D01*
X-161312Y249003D02*
Y250603D01*
X-159712D01*
Y249003D01*
X-161312D01*
X-160912Y249403D02*
Y250203D01*
X-160112D01*
Y249403D01*
X-160912D01*
X-283556Y249200D02*
Y250800D01*
X-281956D01*
Y249200D01*
X-283556D01*
X-283156Y249600D02*
Y250400D01*
X-282356D01*
Y249600D01*
X-283156D01*
X-223123Y193983D02*
Y195583D01*
X-221523D01*
Y193983D01*
X-223123D01*
X-222723Y194384D02*
Y195184D01*
X-221923D01*
Y194384D01*
X-222723D01*
X-37788Y266031D02*
Y267631D01*
X-36188D01*
Y266031D01*
X-37788D01*
X-37388Y266431D02*
Y267231D01*
X-36588D01*
Y266431D01*
X-37388D01*
X-41627Y290047D02*
Y291647D01*
X-40027D01*
Y290047D01*
X-41627D01*
X-41227Y290446D02*
Y291247D01*
X-40427D01*
Y290446D01*
X-41227D01*
X-41627Y309732D02*
Y311332D01*
X-40027D01*
Y309732D01*
X-41627D01*
X-41227Y310132D02*
Y310931D01*
X-40427D01*
Y310132D01*
X-41227D01*
X-41627Y299889D02*
Y301489D01*
X-40027D01*
Y299889D01*
X-41627D01*
X-41227Y300289D02*
Y301089D01*
X-40427D01*
Y300289D01*
X-41227D01*
X-73123Y299889D02*
Y301489D01*
X-71523D01*
Y299889D01*
X-73123D01*
X-72723Y300289D02*
Y301089D01*
X-71923D01*
Y300289D01*
X-72723D01*
X-73123Y309732D02*
Y311332D01*
X-71523D01*
Y309732D01*
X-73123D01*
X-72723Y310132D02*
Y310931D01*
X-71923D01*
Y310132D01*
X-72723D01*
X-73123Y290047D02*
Y291647D01*
X-71523D01*
Y290047D01*
X-73123D01*
X-72723Y290446D02*
Y291247D01*
X-71923D01*
Y290446D01*
X-72723D01*
X-214855Y-16056D02*
Y-14456D01*
X-213255D01*
Y-16056D01*
X-214855D01*
X-214455Y-15656D02*
Y-14856D01*
X-213655D01*
Y-15656D01*
X-214455D01*
X-237493Y74102D02*
Y75702D01*
X-235893D01*
Y74102D01*
X-237493D01*
X-237093Y74502D02*
Y75302D01*
X-236293D01*
Y74502D01*
X-237093D01*
X-183851Y98314D02*
Y99914D01*
X-182251D01*
Y98314D01*
X-183851D01*
X-183451Y98714D02*
Y99514D01*
X-182651D01*
Y98714D01*
X-183451D01*
X-206784Y98314D02*
Y99914D01*
X-205184D01*
Y98314D01*
X-206784D01*
X-206384Y98714D02*
Y99514D01*
X-205584D01*
Y98714D01*
X-206384D01*
X-195318Y98314D02*
Y99914D01*
X-193718D01*
Y98314D01*
X-195318D01*
X-194918Y98714D02*
Y99514D01*
X-194118D01*
Y98714D01*
X-194918D01*
X-186213Y37487D02*
Y39087D01*
X-184613D01*
Y37487D01*
X-186213D01*
X-185813Y37887D02*
Y38687D01*
X-185013D01*
Y37887D01*
X-185813D01*
X-209639Y37487D02*
Y39087D01*
X-208039D01*
Y37487D01*
X-209639D01*
X-209239Y37887D02*
Y38687D01*
X-208439D01*
Y37887D01*
X-209239D01*
X-197926Y37487D02*
Y39087D01*
X-196326D01*
Y37487D01*
X-197926D01*
X-197526Y37887D02*
Y38687D01*
X-196726D01*
Y37887D01*
X-197526D01*
X-286607Y-16056D02*
Y-14456D01*
X-285007D01*
Y-16056D01*
X-286607D01*
X-286207Y-15656D02*
Y-14856D01*
X-285407D01*
Y-15656D01*
X-286207D01*
X-274205Y-16056D02*
Y-14456D01*
X-272605D01*
Y-16056D01*
X-274205D01*
X-273805Y-15656D02*
Y-14856D01*
X-273006D01*
Y-15656D01*
X-273805D01*
X-280406Y-16056D02*
Y-14456D01*
X-278806D01*
Y-16056D01*
X-280406D01*
X-280006Y-15656D02*
Y-14856D01*
X-279206D01*
Y-15656D01*
X-280006D01*
X-168202Y146739D02*
Y148339D01*
X-166602D01*
Y146739D01*
X-168202D01*
X-167802Y147139D02*
Y147939D01*
X-167002D01*
Y147139D01*
X-167802D01*
X-118989Y96641D02*
Y98241D01*
X-117389D01*
Y96641D01*
X-118989D01*
X-118589Y97041D02*
Y97841D01*
X-117789D01*
Y97041D01*
X-118589D01*
X-283851Y386208D02*
Y387808D01*
X-282251D01*
Y386208D01*
X-283851D01*
X-283451Y386608D02*
Y387408D01*
X-282651D01*
Y386608D01*
X-283451D01*
X-78241Y-87119D02*
Y-85519D01*
X-76641D01*
Y-87119D01*
X-78241D01*
X-77841Y-86719D02*
Y-85919D01*
X-77041D01*
Y-86719D01*
X-77841D01*
X-113182Y256050D02*
Y257650D01*
X-111582D01*
Y256050D01*
X-113182D01*
X-112782Y256450D02*
Y257250D01*
X-111982D01*
Y256450D01*
X-112782D01*
X-144255Y190981D02*
Y192581D01*
X-142655D01*
Y190981D01*
X-144255D01*
X-143855Y191382D02*
Y192182D01*
X-143055D01*
Y191382D01*
X-143855D01*
D138*
X-745932Y-71850D02*
G03*
X-745932Y-71850I-800J0D01*
G01*
X-710499D02*
G03*
X-710499Y-71850I-800J0D01*
G01*
X-543373Y-71555D02*
G03*
X-543373Y-71555I-800J0D01*
G01*
X-507940D02*
G03*
X-507940Y-71555I-800J0D01*
G01*
X-842960Y-71468D02*
G03*
X-842960Y-71468I-800J0D01*
G01*
X-807527D02*
G03*
X-807527Y-71468I-800J0D01*
G01*
X-261877Y402559D02*
G03*
X-261877Y402559I-800J0D01*
G01*
Y461614D02*
G03*
X-261877Y461614I-800J0D01*
G01*
Y520669D02*
G03*
X-261877Y520669I-800J0D01*
G01*
X-155578D02*
G03*
X-155578Y520669I-800J0D01*
G01*
Y461614D02*
G03*
X-155578Y461614I-800J0D01*
G01*
Y402559D02*
G03*
X-155578Y402559I-800J0D01*
G01*
X-810696Y138681D02*
G03*
X-810696Y138681I-800J0D01*
G01*
X-672901D02*
G03*
X-672901Y138681I-800J0D01*
G01*
X-638353Y139272D02*
G03*
X-638353Y139272I-800J0D01*
G01*
Y1476D02*
G03*
X-638353Y1476I-800J0D01*
G01*
X-841306Y139764D02*
G03*
X-841306Y139764I-800J0D01*
G01*
Y1969D02*
G03*
X-841306Y1969I-800J0D01*
G01*
X-645960Y-71468D02*
G03*
X-645960Y-71468I-800J0D01*
G01*
X-610527D02*
G03*
X-610527Y-71468I-800J0D01*
G01*
X-612861Y1181D02*
G03*
X-612861Y1181I-800J0D01*
G01*
X-865421Y-2264D02*
G03*
X-865421Y-2264I-800J0D01*
G01*
X-728019Y1476D02*
G03*
X-728019Y1476I-800J0D01*
G01*
X-525460Y2264D02*
G03*
X-525460Y2264I-800J0D01*
G01*
D139*
X-613262Y1181D02*
G03*
X-613262Y1181I-400J0D01*
G01*
X-865821Y-2264D02*
G03*
X-865821Y-2264I-400J0D01*
G01*
X-728419Y1476D02*
G03*
X-728419Y1476I-400J0D01*
G01*
X-525860Y2264D02*
G03*
X-525860Y2264I-400J0D01*
G01*
M02*
