G04 Layer_Color=128*
%FSLAX25Y25*%
%MOIN*%
G70*
G01*
G75*
%ADD137C,0.00200*%
D137*
X865075Y344512D02*
X868618D01*
X866846Y342740D02*
Y346284D01*
X855075Y344512D02*
X858618D01*
X856847Y342740D02*
Y346284D01*
X845075Y344512D02*
X848618D01*
X846846Y342740D02*
Y346284D01*
X835075Y344512D02*
X838618D01*
X836847Y342740D02*
Y346284D01*
X831575Y130512D02*
X835118D01*
X833346Y128740D02*
Y132283D01*
X841575Y130512D02*
X845118D01*
X843347Y128740D02*
Y132283D01*
X851575Y130512D02*
X855118D01*
X853347Y128740D02*
Y132283D01*
X861575Y130512D02*
X865118D01*
X863346Y128740D02*
Y132283D01*
X871575Y130512D02*
X875118D01*
X873347Y128740D02*
Y132283D01*
X881575Y130512D02*
X885118D01*
X883346Y128740D02*
Y132283D01*
X269067Y59043D02*
X274973D01*
X272020Y56091D02*
Y61996D01*
X233634Y59043D02*
X239539D01*
X236587Y56091D02*
Y61996D01*
X899075Y274512D02*
X902618D01*
X900846Y272740D02*
Y276284D01*
X899075Y264512D02*
X902618D01*
X900846Y262740D02*
Y266283D01*
X899075Y254512D02*
X902618D01*
X900846Y252740D02*
Y256283D01*
X899075Y244512D02*
X902618D01*
X900846Y242740D02*
Y246284D01*
X899075Y234512D02*
X902618D01*
X900846Y232740D02*
Y236283D01*
X552795Y55795D02*
X557913D01*
X555354Y53236D02*
Y58354D01*
X572795Y55795D02*
X577913D01*
X575354Y53236D02*
Y58354D01*
X38287Y132480D02*
X44193D01*
X41240Y129528D02*
Y135433D01*
X38287Y270276D02*
X44193D01*
X41240Y267323D02*
Y273228D01*
X241240Y131988D02*
X247146D01*
X244193Y129035D02*
Y134941D01*
X241240Y269783D02*
X247146D01*
X244193Y266831D02*
Y272736D01*
X206693Y269193D02*
X212598D01*
X209646Y266240D02*
Y272146D01*
X68898Y269193D02*
X74803D01*
X71850Y266240D02*
Y272146D01*
X724016Y533071D02*
X729921D01*
X726969Y530118D02*
Y536024D01*
X724016Y592126D02*
X729921D01*
X726969Y589173D02*
Y595079D01*
X724016Y651181D02*
X729921D01*
X726969Y648228D02*
Y654134D01*
X617717Y651181D02*
X623622D01*
X620669Y648228D02*
Y654134D01*
X617717Y592126D02*
X623622D01*
X620669Y589173D02*
Y595079D01*
X617717Y533071D02*
X623622D01*
X620669Y530118D02*
Y536024D01*
X635335Y224705D02*
X638484D01*
X636909Y223130D02*
Y226280D01*
X605413Y224705D02*
X608563D01*
X606988Y223130D02*
Y226280D01*
X72067Y59043D02*
X77973D01*
X75020Y56091D02*
Y61996D01*
X36634Y59043D02*
X42539D01*
X39587Y56091D02*
Y61996D01*
X461287Y315500D02*
X464437D01*
X462862Y313925D02*
Y317075D01*
X461287Y305500D02*
X464437D01*
X462862Y303925D02*
Y307075D01*
X331366Y305500D02*
X334516D01*
X332941Y303925D02*
Y307075D01*
X331366Y315500D02*
X334516D01*
X332941Y313925D02*
Y317075D01*
X758484Y647933D02*
X762421D01*
X760453Y645965D02*
Y649902D01*
X818484Y647933D02*
X822421D01*
X820453Y645965D02*
Y649902D01*
X493138Y596158D02*
X501012D01*
X497075Y592221D02*
Y600095D01*
X493138Y643402D02*
X501012D01*
X497075Y639465D02*
Y647339D01*
X467563Y643099D02*
X475437D01*
X471500Y639162D02*
Y647036D01*
X467563Y595854D02*
X475437D01*
X471500Y591917D02*
Y599791D01*
X300394Y273051D02*
X304331D01*
X302362Y271083D02*
Y275020D01*
X300394Y333051D02*
X304331D01*
X302362Y331083D02*
Y335020D01*
X872736Y602906D02*
X904232D01*
X888484Y587158D02*
Y618654D01*
X505709Y76280D02*
X512402D01*
X509055Y72933D02*
Y79626D01*
X505709Y57776D02*
X512402D01*
X509055Y54429D02*
Y61122D01*
X505709Y39272D02*
X512402D01*
X509055Y35925D02*
Y42618D01*
X671201Y55795D02*
X676319D01*
X673760Y53236D02*
Y58354D01*
X691201Y55795D02*
X696319D01*
X693760Y53236D02*
Y58354D01*
X631831Y55795D02*
X636949D01*
X634390Y53236D02*
Y58354D01*
X651831Y55795D02*
X656949D01*
X654390Y53236D02*
Y58354D01*
X710571Y55795D02*
X715689D01*
X713130Y53236D02*
Y58354D01*
X730571Y55795D02*
X735689D01*
X733130Y53236D02*
Y58354D01*
X569193Y329350D02*
X572736D01*
X570965Y327579D02*
Y331122D01*
X569193Y339350D02*
X572736D01*
X570965Y337579D02*
Y341122D01*
X569193Y349350D02*
X572736D01*
X570965Y347579D02*
Y351122D01*
X569193Y359350D02*
X572736D01*
X570965Y357579D02*
Y361122D01*
X569193Y369350D02*
X572736D01*
X570965Y367579D02*
Y371122D01*
X569193Y379350D02*
X572736D01*
X570965Y377579D02*
Y381122D01*
X569193Y389350D02*
X572736D01*
X570965Y387579D02*
Y391122D01*
X569193Y399350D02*
X572736D01*
X570965Y397579D02*
Y401122D01*
X621043Y290748D02*
X624587D01*
X622815Y288976D02*
Y292520D01*
X631043Y290748D02*
X634587D01*
X632815Y288976D02*
Y292520D01*
X641043Y290748D02*
X644587D01*
X642815Y288976D02*
Y292520D01*
X651043Y290748D02*
X654587D01*
X652815Y288976D02*
Y292520D01*
X661043Y290748D02*
X664587D01*
X662815Y288976D02*
Y292520D01*
X371654Y58957D02*
X377559D01*
X374606Y56004D02*
Y61909D01*
X336221Y58957D02*
X342126D01*
X339173Y56004D02*
Y61909D01*
X169095Y58661D02*
X175000D01*
X172047Y55709D02*
Y61614D01*
X133661Y58661D02*
X139567D01*
X136614Y55709D02*
Y61614D01*
X592413Y55795D02*
X597532D01*
X594972Y53236D02*
Y58354D01*
X612413Y55795D02*
X617531D01*
X614972Y53236D02*
Y58354D01*
X738492Y322293D02*
X741292D01*
X739892Y320893D02*
Y323693D01*
X769564Y387362D02*
X772365D01*
X770964Y385962D02*
Y388762D01*
X352165Y132776D02*
X362008D01*
X357087Y127854D02*
Y137697D01*
X149606Y131988D02*
X159449D01*
X154528Y127067D02*
Y136909D01*
X12205Y128248D02*
X22047D01*
X17126Y123327D02*
Y133169D01*
X598895Y517520D02*
X601695D01*
X600295Y516120D02*
Y518920D01*
X763758Y227953D02*
X766558D01*
X765158Y226553D02*
Y229353D01*
X714545Y278051D02*
X717345D01*
X715945Y276651D02*
Y279451D01*
X602340Y115256D02*
X605140D01*
X603740Y113856D02*
Y116656D01*
X608541Y115256D02*
X611341D01*
X609941Y113856D02*
Y116656D01*
X596139Y115256D02*
X598939D01*
X597539Y113856D02*
Y116656D01*
X684821Y168799D02*
X687620D01*
X686221Y167399D02*
Y170199D01*
X673108Y168799D02*
X675908D01*
X674508Y167399D02*
Y170199D01*
X696533Y168799D02*
X699333D01*
X697933Y167399D02*
Y170199D01*
X687429Y229626D02*
X690229D01*
X688829Y228226D02*
Y231026D01*
X675962Y229626D02*
X678762D01*
X677362Y228226D02*
Y231026D01*
X698895Y229626D02*
X701695D01*
X700295Y228226D02*
Y231026D01*
X645254Y205413D02*
X648054D01*
X646654Y204013D02*
Y206813D01*
X809624Y421358D02*
X812424D01*
X811024Y419958D02*
Y422758D01*
X809624Y441043D02*
X812424D01*
X811024Y439643D02*
Y442443D01*
X809624Y431201D02*
X812424D01*
X811024Y429801D02*
Y432601D01*
X841120Y431201D02*
X843920D01*
X842520Y429801D02*
Y432601D01*
X841120Y441043D02*
X843920D01*
X842520Y439643D02*
Y442443D01*
X841120Y421358D02*
X843920D01*
X842520Y419958D02*
Y422758D01*
X844958Y397342D02*
X847758D01*
X846358Y395942D02*
Y398743D01*
X659624Y325295D02*
X662424D01*
X661024Y323895D02*
Y326695D01*
X599191Y380512D02*
X601991D01*
X600591Y379112D02*
Y381912D01*
X721435Y380315D02*
X724235D01*
X722835Y378915D02*
Y381715D01*
X750175Y387402D02*
X752975D01*
X751575Y386002D02*
Y388802D01*
X815529Y608957D02*
X818329D01*
X816929Y607557D02*
Y610357D01*
X815529Y602264D02*
X818329D01*
X816929Y600864D02*
Y603664D01*
X823009Y608957D02*
X825809D01*
X824409Y607557D02*
Y610357D01*
X823009Y602264D02*
X825809D01*
X824409Y600864D02*
Y603664D01*
X865628Y573228D02*
X868428D01*
X867028Y571828D02*
Y574628D01*
X771533Y531299D02*
X774333D01*
X772933Y529899D02*
Y532699D01*
X519220Y494488D02*
X522020D01*
X520620Y493088D02*
Y495888D01*
X513758Y494488D02*
X516558D01*
X515158Y493088D02*
Y495888D01*
X475568Y542569D02*
X478369D01*
X476968Y541169D02*
Y543969D01*
X486198Y487155D02*
X488998D01*
X487598Y485755D02*
Y488555D01*
X475568Y487155D02*
X478369D01*
X476968Y485755D02*
Y488555D01*
X496828Y487155D02*
X499628D01*
X498228Y485755D02*
Y488555D01*
X496828Y542569D02*
X499628D01*
X498228Y541169D02*
Y543969D01*
X486198Y542569D02*
X488998D01*
X487598Y541169D02*
Y543969D01*
X464939Y542569D02*
X467739D01*
X466339Y541169D02*
Y543969D01*
X464939Y487155D02*
X467739D01*
X466339Y485755D02*
Y488555D01*
X473502Y584350D02*
X476302D01*
X474902Y582950D02*
Y585750D01*
X465332Y584449D02*
X468132D01*
X466732Y583049D02*
Y585849D01*
X544663Y592126D02*
X547463D01*
X546063Y590726D02*
Y593526D01*
X551011Y592126D02*
X553811D01*
X552411Y590726D02*
Y593526D01*
X557360Y592126D02*
X560160D01*
X558760Y590726D02*
Y593526D01*
X535608Y157480D02*
X538408D01*
X537008Y156080D02*
Y158880D01*
X504604Y361614D02*
X507404D01*
X506004Y360214D02*
Y363014D01*
X545057Y258992D02*
X547857D01*
X546457Y257592D02*
Y260392D01*
X507754Y217815D02*
X510554D01*
X509154Y216415D02*
Y219215D01*
X497124Y217815D02*
X499924D01*
X498524Y216415D02*
Y219215D01*
X475864Y217815D02*
X478664D01*
X477264Y216415D02*
Y219215D01*
X508049Y162008D02*
X510849D01*
X509449Y160608D02*
Y163408D01*
X497419Y162008D02*
X500219D01*
X498819Y160608D02*
Y163408D01*
X486789Y162008D02*
X489589D01*
X488189Y160608D02*
Y163408D01*
X476159Y162008D02*
X478959D01*
X477559Y160608D02*
Y163408D01*
X893580Y420472D02*
X896380D01*
X894980Y419072D02*
Y421872D01*
X899879Y420472D02*
X902680D01*
X901280Y419072D02*
Y421872D01*
X829112Y515551D02*
X831912D01*
X830512Y514151D02*
Y516951D01*
X823108Y515551D02*
X825908D01*
X824508Y514151D02*
Y516951D01*
X823108Y509252D02*
X825908D01*
X824508Y507852D02*
Y510652D01*
X829112Y509252D02*
X831912D01*
X830512Y507852D02*
Y510652D01*
X835116Y515551D02*
X837916D01*
X836516Y514151D02*
Y516951D01*
X835116Y509252D02*
X837916D01*
X836516Y507852D02*
Y510652D01*
X546238Y412205D02*
X549038D01*
X547638Y410805D02*
Y413605D01*
X714545Y339173D02*
X717345D01*
X715945Y337773D02*
Y340573D01*
X587970Y399311D02*
X590770D01*
X589370Y397911D02*
Y400711D01*
X672222Y318406D02*
X675022D01*
X673622Y317005D02*
Y319806D01*
X594368Y263878D02*
X597168D01*
X595768Y262478D02*
Y265278D01*
X624191Y378346D02*
X626991D01*
X625591Y376946D02*
Y379747D01*
X771336Y460532D02*
X774136D01*
X772736Y459131D02*
Y461932D01*
X264764Y131693D02*
X274606D01*
X269685Y126772D02*
Y136614D01*
X568974Y240846D02*
X571774D01*
X570374Y239446D02*
Y242246D01*
X623403Y168307D02*
X626203D01*
X624803Y166907D02*
Y169707D01*
X874683Y420472D02*
X877483D01*
X876083Y419072D02*
Y421872D01*
X880982Y420472D02*
X883782D01*
X882382Y419072D02*
Y421872D01*
X887281Y420472D02*
X890081D01*
X888681Y419072D02*
Y421872D01*
X751454Y162106D02*
X754254D01*
X752854Y160706D02*
Y163506D01*
X764889Y162106D02*
X767689D01*
X766289Y160706D02*
Y163506D01*
X778324Y123130D02*
X781124D01*
X779724Y121730D02*
Y124530D01*
X764889Y123130D02*
X767689D01*
X766289Y121730D02*
Y124530D01*
X751454Y123130D02*
X754254D01*
X752854Y121730D02*
Y124530D01*
X778324Y162106D02*
X781124D01*
X779724Y160706D02*
Y163506D01*
X780194Y149114D02*
X782994D01*
X781594Y147714D02*
Y150514D01*
X780194Y136122D02*
X782994D01*
X781594Y134722D02*
Y137522D01*
X685116Y386811D02*
X687916D01*
X686516Y385411D02*
Y388211D01*
X669466Y403445D02*
X672266D01*
X670866Y402045D02*
Y404845D01*
X641710Y168307D02*
X644510D01*
X643110Y166907D02*
Y169707D01*
X635608Y168307D02*
X638408D01*
X637008Y166907D02*
Y169707D01*
X629505Y168307D02*
X632305D01*
X630905Y166907D02*
Y169707D01*
X746041Y602133D02*
X748841D01*
X747441Y600733D02*
Y603533D01*
X746041Y594029D02*
X748841D01*
X747441Y592629D02*
Y595429D01*
X746041Y585925D02*
X748841D01*
X747441Y584525D02*
Y587325D01*
X746041Y610236D02*
X748841D01*
X747441Y608836D02*
Y611636D01*
X803029Y610827D02*
X805829D01*
X804429Y609427D02*
Y612227D01*
X793285Y601870D02*
X796085D01*
X794685Y600470D02*
Y603270D01*
X793285Y610827D02*
X796085D01*
X794685Y609427D02*
Y612227D01*
X803029Y601870D02*
X805829D01*
X804429Y600470D02*
Y603270D01*
X858147Y573228D02*
X860947D01*
X859547Y571828D02*
Y574628D01*
X865628Y579921D02*
X868428D01*
X867028Y578521D02*
Y581321D01*
X858147Y579921D02*
X860947D01*
X859547Y578521D02*
Y581321D01*
X745057Y541536D02*
X747857D01*
X746457Y540135D02*
Y542936D01*
X844958Y403051D02*
X847758D01*
X846358Y401651D02*
Y404451D01*
X844958Y409449D02*
X847758D01*
X846358Y408049D02*
Y410849D01*
X793876Y390256D02*
X796676D01*
X795276Y388856D02*
Y391656D01*
X786100Y379921D02*
X788900D01*
X787500Y378521D02*
Y381321D01*
X729702Y411024D02*
X732502D01*
X731102Y409624D02*
Y412424D01*
X718580Y411417D02*
X721380D01*
X719980Y410017D02*
Y412817D01*
X819269Y365158D02*
X822069D01*
X820669Y363757D02*
Y366558D01*
X598600Y438779D02*
X601400D01*
X600000Y437380D02*
Y440179D01*
X549033Y506457D02*
X551833D01*
X550433Y505057D02*
Y507857D01*
X583738Y498917D02*
X586538D01*
X585138Y497517D02*
Y500317D01*
X568580Y548917D02*
X571380D01*
X569980Y547517D02*
Y550317D01*
X666218Y517126D02*
X669018D01*
X667618Y515726D02*
Y518526D01*
X550175Y434842D02*
X552975D01*
X551575Y433442D02*
Y436242D01*
X569368Y418996D02*
X572168D01*
X570768Y417596D02*
Y420396D01*
X699781Y357972D02*
X702581D01*
X701181Y356572D02*
Y359372D01*
X692695Y355217D02*
X695495D01*
X694095Y353817D02*
Y356617D01*
X540037Y452854D02*
X542837D01*
X541437Y451454D02*
Y454254D01*
X647813Y168307D02*
X650613D01*
X649213Y166907D02*
Y169707D01*
X653915Y168307D02*
X656715D01*
X655315Y166907D02*
Y169707D01*
X667891Y115256D02*
X670691D01*
X669291Y113856D02*
Y116656D01*
X677143Y398819D02*
X679943D01*
X678543Y397419D02*
Y400219D01*
X629998Y441043D02*
X632798D01*
X631398Y439643D02*
Y442443D01*
X705982Y409842D02*
X708782D01*
X707382Y408442D02*
Y411242D01*
M02*
