G04 Layer_Physical_Order=2*
G04 Layer_Color=16711680*
%FSLAX25Y25*%
%MOIN*%
G70*
G01*
G75*
%ADD32R,0.13780X0.13780*%
%ADD43R,0.07874X0.07874*%
%ADD48C,0.03000*%
%ADD49C,0.00900*%
%ADD50C,0.02000*%
%ADD51C,0.30000*%
%ADD53C,0.01500*%
%ADD54C,0.10000*%
%ADD56C,0.04000*%
%ADD60C,0.15000*%
%ADD63C,0.05906*%
%ADD64R,0.05906X0.05906*%
%ADD65C,0.13780*%
%ADD66R,0.05906X0.05906*%
%ADD67R,0.09843X0.09843*%
%ADD68C,0.09843*%
%ADD69C,0.15748*%
%ADD70C,0.11811*%
%ADD71C,0.07874*%
%ADD72C,0.05000*%
%ADD73C,0.19685*%
G36*
X503253Y548273D02*
Y479636D01*
X503113D01*
X503109Y479626D01*
X461377D01*
X461367Y479636D01*
X461314D01*
X461314Y479689D01*
X461024Y479980D01*
X461122Y548376D01*
X503150D01*
X503253Y548273D01*
D02*
G37*
G36*
X735236Y655905D02*
X735630Y655512D01*
Y648917D01*
Y645177D01*
X721457Y631004D01*
X716043Y625591D01*
Y596260D01*
Y585532D01*
X734842Y566732D01*
X744488Y557087D01*
X790059D01*
X791339Y557087D01*
X828248Y519734D01*
X829561Y518405D01*
X837992Y518405D01*
X839764Y516634D01*
Y508661D01*
X839764Y507776D01*
X837795Y505807D01*
X819980D01*
X813189Y512598D01*
X801772Y524016D01*
X786713Y539075D01*
X737598D01*
X711024Y565650D01*
X700394Y576279D01*
Y637598D01*
X700492D01*
X721063Y658169D01*
X732972D01*
X735236Y655905D01*
D02*
G37*
G36*
X904812Y414358D02*
X900591Y410136D01*
Y406595D01*
Y390846D01*
X900591Y313013D01*
X889152Y301575D01*
X843012D01*
X765551Y224114D01*
X720571Y224114D01*
X675394D01*
X671432Y227264D01*
Y232013D01*
X675394Y235975D01*
X693947Y235975D01*
X721457Y235974D01*
X746309D01*
X831683Y321349D01*
X869379Y321349D01*
X879132Y331102D01*
Y410137D01*
X873819Y415846D01*
X872736Y416929D01*
Y422736D01*
X874902Y424902D01*
X904812D01*
Y414358D01*
D02*
G37*
G36*
X784252Y433563D02*
X804577Y413238D01*
X870722D01*
X870915Y413045D01*
X875098Y408550D01*
Y395047D01*
X799684D01*
X798904Y395687D01*
X797775Y396290D01*
X796550Y396662D01*
X795276Y396787D01*
X794948Y397084D01*
Y403543D01*
X794785Y404783D01*
X794307Y405939D01*
X793545Y406931D01*
X778978Y421498D01*
X777986Y422259D01*
X776831Y422738D01*
X775591Y422901D01*
X725197D01*
X723957Y422738D01*
X722801Y422259D01*
X721809Y421498D01*
X717885Y417574D01*
X717481Y417452D01*
X716352Y416848D01*
X715362Y416036D01*
X714550Y415046D01*
X713946Y413917D01*
X713574Y412692D01*
X713449Y411417D01*
X713574Y410143D01*
X713946Y408918D01*
X714550Y407789D01*
X715362Y406799D01*
X716352Y405987D01*
X717481Y405383D01*
X718706Y405011D01*
X719980Y404886D01*
X721255Y405011D01*
X722480Y405383D01*
X723609Y405987D01*
X724599Y406799D01*
X725098Y407407D01*
X725633Y407396D01*
X725703Y407357D01*
X726484Y406405D01*
X726614Y406298D01*
Y377745D01*
X708044Y359175D01*
X707546Y359384D01*
X707215Y360472D01*
X706612Y361601D01*
X705799Y362591D01*
X705669Y362698D01*
Y401968D01*
X705669Y401968D01*
X705517Y403130D01*
X705068Y404213D01*
X704355Y405142D01*
X687327Y422170D01*
X686398Y422883D01*
X685315Y423331D01*
X684154Y423485D01*
X575493D01*
X575386Y423615D01*
X574396Y424427D01*
X573267Y425030D01*
X572042Y425402D01*
X570768Y425527D01*
X569493Y425402D01*
X568268Y425030D01*
X567139Y424427D01*
X566149Y423615D01*
X565337Y422625D01*
X564734Y421496D01*
X564362Y420270D01*
X564289Y419534D01*
X561419D01*
X556063Y424891D01*
Y430117D01*
X556193Y430224D01*
X557006Y431214D01*
X557609Y432343D01*
X557981Y433568D01*
X558106Y434842D01*
X557981Y436117D01*
X557609Y437342D01*
X557006Y438471D01*
X556193Y439461D01*
X555203Y440273D01*
X554074Y440877D01*
X552849Y441249D01*
X551575Y441374D01*
X550301Y441249D01*
X549075Y440877D01*
X547946Y440273D01*
X546956Y439461D01*
X546144Y438471D01*
X545541Y437342D01*
X545169Y436117D01*
X545043Y434842D01*
X545169Y433568D01*
X545541Y432343D01*
X546144Y431214D01*
X546956Y430224D01*
X547086Y430117D01*
Y423032D01*
X547239Y421870D01*
X547688Y420787D01*
X548401Y419858D01*
X549241Y419018D01*
X548984Y418589D01*
X548912Y418611D01*
X547638Y418736D01*
X546364Y418611D01*
X545138Y418239D01*
X544009Y417635D01*
X543019Y416823D01*
X542207Y415833D01*
X541604Y414704D01*
X541232Y413479D01*
X541106Y412205D01*
X541232Y410930D01*
X541604Y409705D01*
X542207Y408576D01*
X543019Y407586D01*
X544009Y406774D01*
X545138Y406170D01*
X546364Y405799D01*
X547638Y405673D01*
X548912Y405799D01*
X550137Y406170D01*
X551266Y406774D01*
X552256Y407586D01*
X552363Y407716D01*
X556227D01*
X556419Y407254D01*
X551452Y402288D01*
X550739Y401358D01*
X550290Y400276D01*
X550138Y399114D01*
Y335630D01*
X550290Y334468D01*
X550739Y333386D01*
X551452Y332456D01*
X557732Y326177D01*
X558661Y325463D01*
X559744Y325015D01*
X560906Y324862D01*
X565654D01*
X566024Y324410D01*
X567083Y323541D01*
X568291Y322896D01*
X569602Y322498D01*
X570965Y322364D01*
X572328Y322498D01*
X573638Y322896D01*
X574846Y323541D01*
X575905Y324410D01*
X576774Y325469D01*
X577419Y326677D01*
X577817Y327987D01*
X577951Y329350D01*
X577817Y330713D01*
X577419Y332024D01*
X576774Y333232D01*
X576163Y333976D01*
X575940Y334350D01*
X576163Y334725D01*
X576774Y335469D01*
X577419Y336677D01*
X577817Y337987D01*
X577951Y339350D01*
X577817Y340713D01*
X577419Y342024D01*
X576774Y343232D01*
X576163Y343976D01*
X575940Y344350D01*
X576163Y344725D01*
X576774Y345469D01*
X577419Y346677D01*
X577817Y347987D01*
X577951Y349350D01*
X577817Y350713D01*
X577419Y352024D01*
X576774Y353232D01*
X576163Y353976D01*
X575940Y354350D01*
X576163Y354725D01*
X576774Y355469D01*
X577419Y356677D01*
X577817Y357987D01*
X577951Y359350D01*
X577817Y360713D01*
X577419Y362024D01*
X576774Y363232D01*
X576163Y363976D01*
X575940Y364350D01*
X576163Y364725D01*
X576774Y365469D01*
X577419Y366677D01*
X577817Y367987D01*
X577951Y369350D01*
X577817Y370713D01*
X577419Y372024D01*
X576774Y373232D01*
X576163Y373976D01*
X575940Y374350D01*
X576163Y374725D01*
X576774Y375469D01*
X577419Y376677D01*
X577817Y377987D01*
X577951Y379350D01*
X577817Y380713D01*
X577419Y382024D01*
X576774Y383232D01*
X575905Y384291D01*
X574846Y385159D01*
X573638Y385805D01*
X572328Y386203D01*
X570965Y386337D01*
X569602Y386203D01*
X568291Y385805D01*
X567083Y385159D01*
X566024Y384291D01*
X565156Y383232D01*
X564510Y382024D01*
X564112Y380713D01*
X563978Y379350D01*
X564112Y377987D01*
X564510Y376677D01*
X565156Y375469D01*
X565766Y374725D01*
X565989Y374350D01*
X565766Y373976D01*
X565156Y373232D01*
X564510Y372024D01*
X564112Y370713D01*
X563978Y369350D01*
X564112Y367987D01*
X564510Y366677D01*
X565156Y365469D01*
X565766Y364725D01*
X565989Y364350D01*
X565766Y363976D01*
X565156Y363232D01*
X564510Y362024D01*
X564112Y360713D01*
X563978Y359350D01*
X564112Y357987D01*
X564510Y356677D01*
X565156Y355469D01*
X565766Y354725D01*
X565989Y354350D01*
X565766Y353976D01*
X565156Y353232D01*
X564510Y352024D01*
X564112Y350713D01*
X563978Y349350D01*
X564112Y347987D01*
X564510Y346677D01*
X565156Y345469D01*
X565766Y344725D01*
X565989Y344350D01*
X565766Y343976D01*
X565654Y343839D01*
X564084D01*
X563445Y344477D01*
Y396764D01*
X563512Y396808D01*
X564012Y396541D01*
Y392398D01*
X577917D01*
Y393803D01*
X585886D01*
X586871Y393277D01*
X587859Y392977D01*
X595782Y385054D01*
X596931Y384172D01*
X598269Y383618D01*
X599705Y383429D01*
X599705Y383429D01*
X620806D01*
X620906Y383148D01*
X620943Y382929D01*
X620160Y381975D01*
X619556Y380846D01*
X619185Y379621D01*
X619059Y378346D01*
X619076Y378179D01*
X592594Y351697D01*
X591881Y350768D01*
X591432Y349685D01*
X591279Y348524D01*
Y268603D01*
X591149Y268496D01*
X590337Y267507D01*
X589733Y266377D01*
X589362Y265152D01*
X589236Y263878D01*
X589362Y262604D01*
X589733Y261379D01*
X590337Y260249D01*
X591149Y259260D01*
X592139Y258447D01*
X593268Y257844D01*
X594493Y257472D01*
X595768Y257347D01*
X597042Y257472D01*
X598267Y257844D01*
X599396Y258447D01*
X600386Y259260D01*
X601198Y260249D01*
X601802Y261379D01*
X602174Y262604D01*
X602299Y263878D01*
X602174Y265152D01*
X601802Y266377D01*
X601198Y267507D01*
X600386Y268496D01*
X600256Y268603D01*
Y346665D01*
X625423Y371831D01*
X625591Y371815D01*
X626865Y371940D01*
X628090Y372312D01*
X629189Y372900D01*
X629465Y372822D01*
X629689Y372716D01*
Y323721D01*
Y316865D01*
X618892Y306068D01*
X618011Y304919D01*
X617456Y303582D01*
X617268Y302146D01*
Y297701D01*
X615862D01*
Y283795D01*
X629768D01*
Y284002D01*
X630268Y284255D01*
X631452Y283896D01*
X632815Y283762D01*
X634178Y283896D01*
X635489Y284293D01*
X636696Y284939D01*
X637440Y285549D01*
X637815Y285772D01*
X638190Y285549D01*
X638934Y284939D01*
X640141Y284293D01*
X641452Y283896D01*
X642815Y283762D01*
X644178Y283896D01*
X645489Y284293D01*
X646696Y284939D01*
X647440Y285549D01*
X647815Y285772D01*
X648190Y285549D01*
X648934Y284939D01*
X650141Y284293D01*
X651452Y283896D01*
X652815Y283762D01*
X654178Y283896D01*
X655488Y284293D01*
X656696Y284939D01*
X657755Y285808D01*
X658624Y286867D01*
X659270Y288074D01*
X659667Y289385D01*
X659801Y290748D01*
X659667Y292111D01*
X659270Y293422D01*
X658624Y294630D01*
X657755Y295688D01*
X656696Y296557D01*
X655488Y297203D01*
X654178Y297600D01*
X652815Y297734D01*
X651452Y297600D01*
X650141Y297203D01*
X648934Y296557D01*
X648190Y295947D01*
X647815Y295724D01*
X647440Y295947D01*
X646696Y296557D01*
X645489Y297203D01*
X644178Y297600D01*
X642815Y297734D01*
X641452Y297600D01*
X640141Y297203D01*
X638934Y296557D01*
X638190Y295947D01*
X637815Y295724D01*
X637440Y295947D01*
X636696Y296557D01*
X635489Y297203D01*
X634178Y297600D01*
X632815Y297734D01*
X631452Y297600D01*
X630268Y297241D01*
X629768Y297494D01*
Y297701D01*
X628362D01*
Y299848D01*
X639159Y310644D01*
X639159Y310644D01*
X640040Y311793D01*
X640595Y313131D01*
X640784Y314567D01*
Y318173D01*
X649867D01*
X664286Y303755D01*
X664286Y303754D01*
X665435Y302873D01*
X666773Y302319D01*
X668209Y302130D01*
X684154D01*
X685589Y302319D01*
X686927Y302873D01*
X688076Y303754D01*
X702455Y318133D01*
X702917Y317942D01*
Y285531D01*
X703106Y284096D01*
X703660Y282758D01*
X704542Y281609D01*
X709611Y276540D01*
X709911Y275552D01*
X710514Y274422D01*
X711327Y273433D01*
X712316Y272620D01*
X713445Y272017D01*
X714671Y271645D01*
X715945Y271520D01*
X717219Y271645D01*
X718444Y272017D01*
X719574Y272620D01*
X720563Y273433D01*
X721376Y274422D01*
X721979Y275552D01*
X722351Y276777D01*
X722476Y278051D01*
X722351Y279325D01*
X721979Y280551D01*
X721376Y281680D01*
X720563Y282670D01*
X719574Y283482D01*
X718444Y284085D01*
X717456Y284385D01*
X714012Y287829D01*
Y289661D01*
X714512Y289862D01*
X715103Y289271D01*
X715939Y288630D01*
X715939Y288630D01*
X716837Y288111D01*
X717810Y287708D01*
X718811Y287440D01*
X719855Y287303D01*
X720893D01*
X721937Y287440D01*
X722938Y287708D01*
X722938Y287708D01*
X723912Y288111D01*
X724810Y288630D01*
X725645Y289271D01*
X726378Y290004D01*
X727020Y290840D01*
X727020Y290840D01*
X727538Y291738D01*
X727941Y292711D01*
X727941Y292711D01*
X728210Y293713D01*
X728347Y294757D01*
Y295276D01*
Y307605D01*
X728210Y308649D01*
X727941Y309651D01*
X727941Y309651D01*
X727538Y310624D01*
X727020Y311522D01*
X726378Y312358D01*
X725645Y313091D01*
X724810Y313732D01*
X724810Y313732D01*
X723912Y314251D01*
X722938Y314654D01*
X722938Y314654D01*
X721937Y314922D01*
X720893Y315060D01*
X719855D01*
X718811Y314922D01*
X717810Y314654D01*
X717810Y314654D01*
X716837Y314251D01*
X715939Y313732D01*
X715103Y313091D01*
X714512Y312500D01*
X714012Y312702D01*
Y318175D01*
X719868Y324030D01*
X719868Y324030D01*
X720749Y325179D01*
X721303Y326517D01*
X721492Y327953D01*
X721492Y327953D01*
Y335763D01*
X721979Y336674D01*
X722279Y337662D01*
X766432Y381815D01*
X767554D01*
X768465Y381328D01*
X769690Y380956D01*
X770964Y380831D01*
X772239Y380956D01*
X773464Y381328D01*
X774593Y381931D01*
X775583Y382744D01*
X776039Y383300D01*
X776539Y383121D01*
Y344227D01*
X754050Y321738D01*
X753168Y320589D01*
X752614Y319251D01*
X752425Y317815D01*
Y266176D01*
X734218Y247969D01*
X672835D01*
X672835Y247969D01*
X671399Y247780D01*
X670061Y247225D01*
X668912Y246344D01*
X645308Y222740D01*
X644846Y222932D01*
Y232642D01*
X628972D01*
Y216768D01*
X638683D01*
X638874Y216306D01*
X599916Y177348D01*
X599034Y176199D01*
X598480Y174861D01*
X598291Y173425D01*
Y124300D01*
X597539D01*
X595775Y124126D01*
X594079Y123611D01*
X592515Y122775D01*
X591145Y121651D01*
X590020Y120280D01*
X589184Y118717D01*
X588670Y117020D01*
X588496Y115256D01*
X588670Y113492D01*
X589184Y111795D01*
X590020Y110232D01*
X591145Y108861D01*
X592515Y107737D01*
X594079Y106901D01*
X595775Y106386D01*
X597539Y106212D01*
X599994D01*
X613192Y93015D01*
X613192Y93015D01*
X614562Y91890D01*
X616126Y91054D01*
X617822Y90540D01*
X619587Y90366D01*
X619587Y90366D01*
X687401D01*
X687402Y90366D01*
X689166Y90540D01*
X690862Y91054D01*
X692426Y91890D01*
X693796Y93015D01*
X704328Y103546D01*
X704328Y103546D01*
X705452Y104917D01*
X706288Y106480D01*
X706803Y108177D01*
X706977Y109941D01*
X706977Y109941D01*
Y168799D01*
X706803Y170563D01*
X706288Y172260D01*
X705452Y173824D01*
X704328Y175194D01*
X702957Y176319D01*
X701394Y177154D01*
X699697Y177669D01*
X697933Y177843D01*
X674902D01*
X673137Y177669D01*
X671441Y177154D01*
X669877Y176319D01*
X668507Y175194D01*
X667382Y173824D01*
X666546Y172260D01*
X666032Y170563D01*
X665858Y168799D01*
X666032Y167035D01*
X666546Y165338D01*
X667382Y163775D01*
X668507Y162405D01*
X669877Y161280D01*
X671441Y160444D01*
X673137Y159929D01*
X674902Y159756D01*
X688890D01*
Y113687D01*
X683656Y108453D01*
X670979D01*
X670905Y108953D01*
X671791Y109222D01*
X672920Y109825D01*
X673910Y110637D01*
X674722Y111627D01*
X675326Y112756D01*
X675697Y113982D01*
X675823Y115256D01*
X675697Y116530D01*
X675326Y117755D01*
X674722Y118885D01*
X673910Y119874D01*
X672920Y120687D01*
X671791Y121290D01*
X670566Y121662D01*
X669291Y121787D01*
X668017Y121662D01*
X666792Y121290D01*
X665881Y120803D01*
X638617D01*
X614933Y144487D01*
Y165848D01*
X648165Y199079D01*
X649153Y199379D01*
X650282Y199983D01*
X651272Y200795D01*
X652084Y201785D01*
X652688Y202914D01*
X653059Y204139D01*
X653185Y205413D01*
X653059Y206688D01*
X652688Y207913D01*
X652084Y209042D01*
X651272Y210032D01*
X650282Y210844D01*
X649884Y211057D01*
X649810Y211552D01*
X666936Y228677D01*
X667397Y228486D01*
Y227264D01*
X667427Y227036D01*
X667424Y226806D01*
X667496Y226516D01*
X667535Y226220D01*
X667623Y226007D01*
X667679Y225784D01*
X667824Y225523D01*
X667938Y225247D01*
X668078Y225064D01*
X668189Y224863D01*
X668397Y224648D01*
X668579Y224411D01*
X668762Y224271D01*
X668921Y224106D01*
X672883Y220956D01*
X673139Y220802D01*
X673377Y220620D01*
X673589Y220532D01*
X673786Y220414D01*
X674073Y220332D01*
X674349Y220217D01*
X674577Y220187D01*
X674798Y220124D01*
X675097Y220119D01*
X675394Y220080D01*
X720571D01*
X765551Y220080D01*
X766595Y220217D01*
X767568Y220620D01*
X768404Y221261D01*
X768404Y221261D01*
X844683Y297540D01*
X889152D01*
X890197Y297678D01*
X891170Y298081D01*
X892005Y298722D01*
X892005Y298722D01*
X903443Y310160D01*
X903443Y310160D01*
X904085Y310996D01*
X904312Y311544D01*
X904812Y311444D01*
Y270843D01*
X904312Y270543D01*
X903520Y270966D01*
X902209Y271364D01*
X900846Y271498D01*
X899483Y271364D01*
X898173Y270966D01*
X896965Y270321D01*
X895906Y269452D01*
X895038Y268393D01*
X894392Y267185D01*
X893994Y265875D01*
X893860Y264512D01*
X893994Y263149D01*
X894392Y261838D01*
X895038Y260630D01*
X895648Y259887D01*
X895871Y259512D01*
X895648Y259137D01*
X895038Y258393D01*
X894392Y257185D01*
X893994Y255875D01*
X893860Y254512D01*
X893994Y253149D01*
X894392Y251838D01*
X895038Y250630D01*
X895648Y249887D01*
X895871Y249512D01*
X895648Y249137D01*
X895038Y248393D01*
X894392Y247185D01*
X893994Y245875D01*
X893860Y244512D01*
X893994Y243149D01*
X894354Y241965D01*
X894101Y241465D01*
X893894D01*
Y227559D01*
X904812D01*
Y4539D01*
X460827D01*
Y7382D01*
Y20080D01*
X461060Y20313D01*
X461301Y20627D01*
X461562Y20925D01*
X462316Y22053D01*
X462491Y22408D01*
X462689Y22751D01*
X463208Y24005D01*
X463311Y24387D01*
X463438Y24762D01*
X463703Y26093D01*
X463729Y26488D01*
X463780Y26880D01*
Y27559D01*
Y265551D01*
Y266230D01*
X463729Y266622D01*
X463703Y267017D01*
X463438Y268348D01*
X463311Y268723D01*
X463208Y269105D01*
X462689Y270359D01*
X462491Y270702D01*
X462316Y271057D01*
X461562Y272186D01*
X461301Y272483D01*
X461060Y272797D01*
X460827Y273030D01*
Y283563D01*
X457776Y286614D01*
X454035Y290354D01*
Y338670D01*
X455210Y338825D01*
X456305Y339278D01*
X457245Y339999D01*
X457966Y340939D01*
X458420Y342034D01*
X458574Y343209D01*
Y457972D01*
X624375D01*
X624567Y457511D01*
X611383Y444327D01*
X603410D01*
X602499Y444814D01*
X601274Y445186D01*
X600000Y445311D01*
X598726Y445186D01*
X597501Y444814D01*
X596371Y444210D01*
X595382Y443398D01*
X594569Y442408D01*
X593966Y441279D01*
X593594Y440054D01*
X593469Y438779D01*
X593594Y437505D01*
X593966Y436280D01*
X594569Y435151D01*
X595382Y434161D01*
X596371Y433349D01*
X597501Y432745D01*
X598726Y432374D01*
X600000Y432248D01*
X601274Y432374D01*
X602499Y432745D01*
X603410Y433232D01*
X613681D01*
X615117Y433421D01*
X616455Y433975D01*
X617604Y434857D01*
X637731Y454984D01*
X769326D01*
X770237Y454497D01*
X771462Y454126D01*
X772736Y454000D01*
X774011Y454126D01*
X775236Y454497D01*
X776365Y455101D01*
X777355Y455913D01*
X778167Y456903D01*
X778739Y457972D01*
X784252D01*
X784252Y433563D01*
D02*
G37*
G36*
X904812Y614877D02*
X904333Y614732D01*
X904185Y614953D01*
X902478Y616899D01*
X900532Y618606D01*
X898379Y620045D01*
X896058Y621189D01*
X893606Y622022D01*
X891067Y622527D01*
X888484Y622696D01*
X885901Y622527D01*
X883362Y622022D01*
X880911Y621189D01*
X878589Y620045D01*
X876437Y618606D01*
X874490Y616899D01*
X872783Y614953D01*
X871345Y612801D01*
X870200Y610479D01*
X869368Y608028D01*
X868863Y605489D01*
X868694Y602906D01*
X868863Y600322D01*
X869368Y597784D01*
X870200Y595332D01*
X871345Y593010D01*
X872783Y590858D01*
X874490Y588912D01*
X876437Y587205D01*
X878589Y585767D01*
X880911Y584622D01*
X883362Y583789D01*
X885901Y583285D01*
X888484Y583115D01*
X891067Y583285D01*
X893606Y583789D01*
X896058Y584622D01*
X898379Y585767D01*
X900532Y587205D01*
X902478Y588912D01*
X904185Y590858D01*
X904333Y591080D01*
X904812Y590935D01*
Y430413D01*
X863386D01*
X850787Y417815D01*
X807677D01*
Y417815D01*
D01*
X802264Y423228D01*
Y481004D01*
X788878Y494390D01*
X758858D01*
Y496949D01*
X741240Y514567D01*
X741043Y514370D01*
X674040D01*
X673726Y514870D01*
X674024Y515852D01*
X674150Y517126D01*
X674024Y518400D01*
X673652Y519626D01*
X673049Y520755D01*
X672237Y521744D01*
X671247Y522557D01*
X670118Y523160D01*
X668892Y523532D01*
X667618Y523657D01*
X666344Y523532D01*
X665119Y523160D01*
X664208Y522674D01*
X621262D01*
X621237Y523174D01*
X622611Y523309D01*
X624478Y523875D01*
X626199Y524795D01*
X627707Y526033D01*
X628945Y527541D01*
X629865Y529262D01*
X630432Y531129D01*
X630623Y533071D01*
X630432Y535013D01*
X629865Y536880D01*
X628945Y538601D01*
X627707Y540109D01*
X626199Y541347D01*
X624478Y542267D01*
X622611Y542833D01*
X620669Y543024D01*
X618727Y542833D01*
X616860Y542267D01*
X615139Y541347D01*
X613631Y540109D01*
X612393Y538601D01*
X611474Y536880D01*
X610907Y535013D01*
X610716Y533071D01*
X610907Y531129D01*
X611474Y529262D01*
X612393Y527541D01*
X613631Y526033D01*
X615139Y524795D01*
X616860Y523875D01*
X618727Y523309D01*
X620101Y523174D01*
X620077Y522674D01*
X615585D01*
X585419Y552840D01*
X584270Y553722D01*
X582932Y554276D01*
X581496Y554465D01*
X573391D01*
X572480Y554952D01*
X571255Y555323D01*
X569980Y555449D01*
X568706Y555323D01*
X567481Y554952D01*
X566352Y554348D01*
X565362Y553536D01*
X564550Y552546D01*
X563946Y551417D01*
X563574Y550192D01*
X563449Y548917D01*
X563574Y547643D01*
X563946Y546418D01*
X564550Y545289D01*
X565362Y544299D01*
X566352Y543487D01*
X567481Y542883D01*
X568706Y542511D01*
X569980Y542386D01*
X571255Y542511D01*
X572480Y542883D01*
X573391Y543370D01*
X579198D01*
X607736Y514832D01*
X607545Y514370D01*
X606004D01*
X592010Y500376D01*
X591445Y500518D01*
X591172Y501417D01*
X590568Y502546D01*
X589756Y503536D01*
X588766Y504348D01*
X587637Y504952D01*
X586412Y505323D01*
X585695Y505394D01*
X581066Y510023D01*
X580022Y510824D01*
X578805Y511328D01*
X577500Y511500D01*
X554534D01*
X554062Y511887D01*
X552933Y512491D01*
X551707Y512863D01*
X550433Y512988D01*
X549159Y512863D01*
X547934Y512491D01*
X546804Y511887D01*
X545815Y511075D01*
X545002Y510085D01*
X544399Y508956D01*
X544027Y507731D01*
X543902Y506457D01*
X544027Y505183D01*
X544399Y503957D01*
X545002Y502828D01*
X545815Y501838D01*
X546804Y501026D01*
X547934Y500422D01*
X549159Y500051D01*
X550433Y499925D01*
X551707Y500051D01*
X552933Y500422D01*
X554062Y501026D01*
X554534Y501414D01*
X575411D01*
X578683Y498142D01*
X578732Y497643D01*
X579104Y496418D01*
X579707Y495289D01*
X580519Y494299D01*
X581509Y493487D01*
X582638Y492883D01*
X583537Y492610D01*
X583663Y492109D01*
X583335Y491732D01*
X507287D01*
Y548273D01*
X507150Y549317D01*
X506747Y550290D01*
X506106Y551126D01*
X506106Y551126D01*
X506003Y551229D01*
X505167Y551870D01*
X504194Y552273D01*
X503150Y552411D01*
X503150Y552411D01*
X461122D01*
X461116Y552410D01*
X461111Y552411D01*
X460596Y552341D01*
X460083Y552275D01*
X460081Y552273D01*
X460078Y552273D01*
X460073Y552271D01*
X460067Y552270D01*
X459588Y552070D01*
X459110Y551873D01*
X459107Y551871D01*
X459105Y551870D01*
X459100Y551866D01*
X459095Y551864D01*
X459074Y551848D01*
X458574Y552094D01*
Y660815D01*
X717350D01*
X717542Y660354D01*
X697964Y640776D01*
X697541Y640451D01*
X696900Y639616D01*
X696497Y638643D01*
X696359Y637598D01*
Y576280D01*
X696359Y576279D01*
X696497Y575235D01*
X696900Y574262D01*
X697541Y573427D01*
X697541Y573427D01*
X708171Y562797D01*
X708171Y562797D01*
X727525Y543443D01*
X727311Y542991D01*
X726969Y543024D01*
X725027Y542833D01*
X723160Y542267D01*
X721439Y541347D01*
X719930Y540109D01*
X718693Y538601D01*
X717773Y536880D01*
X717206Y535013D01*
X717015Y533071D01*
X717206Y531129D01*
X717773Y529262D01*
X718693Y527541D01*
X719930Y526033D01*
X721439Y524795D01*
X723160Y523875D01*
X725027Y523309D01*
X726969Y523117D01*
X728910Y523309D01*
X730778Y523875D01*
X732498Y524795D01*
X734007Y526033D01*
X735245Y527541D01*
X736164Y529262D01*
X736731Y531129D01*
X736922Y533071D01*
X736767Y534645D01*
X737213Y535091D01*
X737598Y535040D01*
X737599Y535040D01*
X746088D01*
X746457Y535004D01*
X746825Y535040D01*
X785041D01*
X798919Y521163D01*
X810336Y509746D01*
X817128Y502954D01*
X817963Y502313D01*
X818936Y501910D01*
X819980Y501772D01*
X819980Y501773D01*
X837795D01*
X838840Y501910D01*
X839812Y502313D01*
X840648Y502954D01*
X840648Y502954D01*
X842617Y504923D01*
X842617Y504923D01*
X843258Y505758D01*
X843511Y506369D01*
X843661Y506732D01*
X843661Y506732D01*
X843710Y507107D01*
X843798Y507776D01*
X843798Y507776D01*
X843798Y508662D01*
Y516634D01*
X843739Y517085D01*
X843661Y517678D01*
X843258Y518651D01*
X843258Y518651D01*
X842617Y519487D01*
X842617Y519487D01*
X840845Y521258D01*
X840845Y521258D01*
X840298Y521678D01*
X840010Y521899D01*
X840009Y521899D01*
X840009Y521900D01*
X839529Y522098D01*
X839036Y522302D01*
X839036Y522302D01*
X839036Y522302D01*
X838753Y522340D01*
X837992Y522440D01*
X837992Y522440D01*
X831246Y522440D01*
X831118Y522570D01*
X831118Y522570D01*
X831118Y522570D01*
X794208Y559922D01*
X794199Y559930D01*
X794191Y559940D01*
X793783Y560253D01*
X793377Y560569D01*
X793365Y560573D01*
X793356Y560581D01*
X792880Y560778D01*
X792406Y560977D01*
X792394Y560979D01*
X792383Y560984D01*
X791873Y561051D01*
X791363Y561121D01*
X791351Y561120D01*
X791338Y561121D01*
X790059Y561121D01*
X746159D01*
X737695Y569585D01*
X737695Y569585D01*
X725462Y581818D01*
X725689Y582299D01*
X726969Y582172D01*
X728910Y582364D01*
X730778Y582930D01*
X732498Y583850D01*
X734007Y585088D01*
X735245Y586596D01*
X736164Y588317D01*
X736731Y590184D01*
X736922Y592126D01*
X736731Y594068D01*
X736164Y595935D01*
X735245Y597656D01*
X734007Y599164D01*
X732498Y600402D01*
X730778Y601322D01*
X728910Y601888D01*
X726969Y602079D01*
X725027Y601888D01*
X723160Y601322D01*
X721439Y600402D01*
X720530Y599656D01*
X720078Y599870D01*
Y623919D01*
X724309Y628151D01*
X724310Y628151D01*
X738483Y642324D01*
X739124Y643160D01*
X739527Y644133D01*
X739665Y645177D01*
X739664Y645177D01*
Y648917D01*
Y655512D01*
X739665Y655512D01*
X739527Y656556D01*
X739124Y657529D01*
X738483Y658365D01*
X738483Y658365D01*
X738089Y658758D01*
X736494Y660354D01*
X736685Y660815D01*
X904812D01*
Y614877D01*
D02*
G37*
%LPC*%
G36*
X643311Y64717D02*
X625468D01*
Y46874D01*
X643311D01*
Y64717D01*
D02*
G37*
G36*
X564276D02*
X546433D01*
Y46874D01*
X564276D01*
Y64717D01*
D02*
G37*
G36*
X720893Y185138D02*
X719855D01*
X718811Y185001D01*
X717810Y184732D01*
X717810Y184732D01*
X716837Y184329D01*
X715939Y183811D01*
X715103Y183170D01*
X714370Y182437D01*
X713728Y181601D01*
X713728Y181601D01*
X713210Y180703D01*
X712807Y179730D01*
X712538Y178728D01*
X712401Y177684D01*
Y177165D01*
Y164836D01*
X712538Y163792D01*
X712807Y162790D01*
X712807Y162790D01*
X713210Y161817D01*
X713728Y160919D01*
X714370Y160083D01*
X715103Y159350D01*
X715939Y158709D01*
X715939Y158709D01*
X716837Y158190D01*
X717810Y157787D01*
X718811Y157519D01*
X719855Y157381D01*
X720893D01*
X721937Y157519D01*
X722938Y157787D01*
X722938Y157787D01*
X723912Y158190D01*
X724810Y158709D01*
X725645Y159350D01*
X726378Y160083D01*
X727020Y160919D01*
X727020Y160919D01*
X727538Y161817D01*
X727941Y162790D01*
X727941Y162790D01*
X728210Y163792D01*
X728347Y164836D01*
Y165354D01*
Y177684D01*
X728210Y178728D01*
X727941Y179730D01*
X727941Y179730D01*
X727538Y180703D01*
X727020Y181601D01*
X726378Y182437D01*
X725645Y183170D01*
X724810Y183811D01*
X724810Y183811D01*
X723912Y184329D01*
X722938Y184732D01*
X722938Y184732D01*
X721937Y185001D01*
X720893Y185138D01*
D02*
G37*
G36*
X883346Y137498D02*
X881983Y137364D01*
X880673Y136966D01*
X879465Y136321D01*
X878721Y135710D01*
X878347Y135488D01*
X877972Y135710D01*
X877228Y136321D01*
X876020Y136966D01*
X874710Y137364D01*
X873347Y137498D01*
X871984Y137364D01*
X870673Y136966D01*
X869465Y136321D01*
X868721Y135710D01*
X868347Y135488D01*
X867972Y135710D01*
X867228Y136321D01*
X866020Y136966D01*
X864709Y137364D01*
X863346Y137498D01*
X861983Y137364D01*
X860673Y136966D01*
X859465Y136321D01*
X858721Y135710D01*
X858346Y135488D01*
X857972Y135710D01*
X857228Y136321D01*
X856020Y136966D01*
X854710Y137364D01*
X853347Y137498D01*
X851984Y137364D01*
X850673Y136966D01*
X849465Y136321D01*
X848721Y135710D01*
X848347Y135488D01*
X847972Y135710D01*
X847228Y136321D01*
X846020Y136966D01*
X844709Y137364D01*
X843347Y137498D01*
X841984Y137364D01*
X840799Y137005D01*
X840299Y137257D01*
Y137465D01*
X826394D01*
Y123559D01*
X840299D01*
Y123766D01*
X840799Y124019D01*
X841984Y123660D01*
X843347Y123525D01*
X844709Y123660D01*
X846020Y124057D01*
X847228Y124703D01*
X847972Y125313D01*
X848347Y125536D01*
X848721Y125313D01*
X849465Y124703D01*
X850673Y124057D01*
X851984Y123660D01*
X853347Y123525D01*
X854710Y123660D01*
X856020Y124057D01*
X857228Y124703D01*
X857972Y125313D01*
X858346Y125536D01*
X858721Y125313D01*
X859465Y124703D01*
X860673Y124057D01*
X861983Y123660D01*
X863346Y123525D01*
X864709Y123660D01*
X866020Y124057D01*
X867228Y124703D01*
X867972Y125313D01*
X868347Y125536D01*
X868721Y125313D01*
X869465Y124703D01*
X870673Y124057D01*
X871984Y123660D01*
X873347Y123525D01*
X874710Y123660D01*
X876020Y124057D01*
X877228Y124703D01*
X877972Y125313D01*
X878347Y125536D01*
X878721Y125313D01*
X879465Y124703D01*
X880673Y124057D01*
X881983Y123660D01*
X883346Y123525D01*
X884709Y123660D01*
X886020Y124057D01*
X887228Y124703D01*
X888287Y125572D01*
X889155Y126630D01*
X889801Y127838D01*
X890199Y129149D01*
X890333Y130512D01*
X890199Y131875D01*
X889801Y133185D01*
X889155Y134393D01*
X888287Y135452D01*
X887228Y136321D01*
X886020Y136966D01*
X884709Y137364D01*
X883346Y137498D01*
D02*
G37*
G36*
X575354Y64760D02*
X573605Y64587D01*
X571924Y64077D01*
X570374Y63249D01*
X569016Y62134D01*
X567901Y60776D01*
X567072Y59226D01*
X566562Y57544D01*
X566390Y55795D01*
X566562Y54046D01*
X567072Y52365D01*
X567901Y50815D01*
X569016Y49457D01*
X570374Y48342D01*
X571924Y47513D01*
X573605Y47003D01*
X575354Y46831D01*
X577103Y47003D01*
X578785Y47513D01*
X580335Y48342D01*
X581693Y49457D01*
X582808Y50815D01*
X583636Y52365D01*
X584146Y54046D01*
X584319Y55795D01*
X584146Y57544D01*
X583636Y59226D01*
X582808Y60776D01*
X581693Y62134D01*
X580335Y63249D01*
X578785Y64077D01*
X577103Y64587D01*
X575354Y64760D01*
D02*
G37*
G36*
X727165Y89784D02*
X700787D01*
X698983Y89642D01*
X697223Y89219D01*
X695550Y88526D01*
X694007Y87581D01*
X692631Y86405D01*
X685603Y79377D01*
X684427Y78001D01*
X683482Y76458D01*
X682789Y74785D01*
X682366Y73025D01*
X682224Y71220D01*
Y64717D01*
X664839D01*
Y46874D01*
X682681D01*
Y51184D01*
X683181Y51284D01*
X683482Y50558D01*
X684427Y49015D01*
X685603Y47638D01*
X686979Y46463D01*
X688523Y45517D01*
X690195Y44824D01*
X691955Y44402D01*
X693760Y44260D01*
X695565Y44402D01*
X697325Y44824D01*
X698997Y45517D01*
X700540Y46463D01*
X701917Y47638D01*
X703092Y49015D01*
X703709Y50021D01*
X704209Y49880D01*
Y46874D01*
X722051D01*
Y51184D01*
X722551Y51284D01*
X722852Y50558D01*
X723798Y49015D01*
X724973Y47638D01*
X726349Y46463D01*
X727893Y45517D01*
X729565Y44824D01*
X731325Y44402D01*
X733130Y44260D01*
X734935Y44402D01*
X736695Y44824D01*
X738367Y45517D01*
X739910Y46463D01*
X741287Y47638D01*
X742462Y49015D01*
X743408Y50558D01*
X744101Y52231D01*
X744523Y53991D01*
X744665Y55795D01*
Y72284D01*
X744523Y74088D01*
X744101Y75848D01*
X743408Y77521D01*
X742462Y79064D01*
X741287Y80440D01*
X735322Y86405D01*
X733946Y87581D01*
X732402Y88526D01*
X730730Y89219D01*
X728970Y89642D01*
X727165Y89784D01*
D02*
G37*
G36*
X603894Y64717D02*
X586051D01*
Y46874D01*
X603894D01*
Y64717D01*
D02*
G37*
G36*
X654390Y64760D02*
X652641Y64587D01*
X650959Y64077D01*
X649409Y63249D01*
X648051Y62134D01*
X646936Y60776D01*
X646108Y59226D01*
X645598Y57544D01*
X645425Y55795D01*
X645598Y54046D01*
X646108Y52365D01*
X646936Y50815D01*
X648051Y49457D01*
X649409Y48342D01*
X650959Y47513D01*
X652641Y47003D01*
X654390Y46831D01*
X656139Y47003D01*
X657820Y47513D01*
X659370Y48342D01*
X660729Y49457D01*
X661843Y50815D01*
X662672Y52365D01*
X663182Y54046D01*
X663354Y55795D01*
X663182Y57544D01*
X662672Y59226D01*
X661843Y60776D01*
X660729Y62134D01*
X659370Y63249D01*
X657820Y64077D01*
X656139Y64587D01*
X654390Y64760D01*
D02*
G37*
G36*
X546457Y265524D02*
X545183Y265398D01*
X543957Y265026D01*
X542828Y264423D01*
X541838Y263611D01*
X541026Y262621D01*
X540422Y261492D01*
X540051Y260266D01*
X539925Y258992D01*
X540051Y257718D01*
X540422Y256493D01*
X540428Y256483D01*
Y128777D01*
X506853Y95202D01*
X502362D01*
X501186Y95086D01*
X500055Y94743D01*
X499013Y94186D01*
X498099Y93436D01*
X498099Y93436D01*
X487272Y82610D01*
X486522Y81696D01*
X485965Y80654D01*
X485622Y79523D01*
X485506Y78347D01*
Y49114D01*
X485622Y47938D01*
X485965Y46807D01*
X486522Y45765D01*
X487272Y44851D01*
X497115Y35009D01*
X498028Y34259D01*
X499071Y33702D01*
X500134Y33379D01*
Y30351D01*
X517976D01*
Y48193D01*
X501237D01*
X501117Y48354D01*
X501368Y48854D01*
X517976D01*
Y51850D01*
X518105Y51862D01*
X519236Y52205D01*
X520279Y52763D01*
X521192Y53512D01*
X527295Y59615D01*
X528045Y60528D01*
X528602Y61571D01*
X528945Y62702D01*
X529061Y63878D01*
X529061Y63878D01*
Y87857D01*
X563883Y122679D01*
X564345Y122488D01*
Y116437D01*
X564461Y115261D01*
X564804Y114130D01*
X565361Y113088D01*
X566111Y112174D01*
X608943Y69341D01*
Y62388D01*
X608634Y62134D01*
X607519Y60776D01*
X606690Y59226D01*
X606180Y57544D01*
X606008Y55795D01*
X606180Y54046D01*
X606690Y52365D01*
X607519Y50815D01*
X608634Y49457D01*
X609992Y48342D01*
X611542Y47513D01*
X613224Y47003D01*
X614972Y46831D01*
X616721Y47003D01*
X618403Y47513D01*
X619953Y48342D01*
X621311Y49457D01*
X622426Y50815D01*
X623254Y52365D01*
X623765Y54046D01*
X623937Y55795D01*
X623765Y57544D01*
X623254Y59226D01*
X622426Y60776D01*
X621311Y62134D01*
X621001Y62388D01*
Y71839D01*
X620886Y73015D01*
X620542Y74146D01*
X619985Y75188D01*
X619236Y76102D01*
X576403Y118934D01*
Y238337D01*
X576408Y238347D01*
X576780Y239572D01*
X576905Y240846D01*
X576780Y242121D01*
X576408Y243346D01*
X575805Y244475D01*
X574992Y245465D01*
X574003Y246277D01*
X572873Y246881D01*
X571648Y247252D01*
X570374Y247378D01*
X569100Y247252D01*
X568230Y246988D01*
X567965Y247430D01*
X568541Y248006D01*
X575160D01*
X599073Y224094D01*
X599166Y223149D01*
X599620Y221653D01*
X600357Y220274D01*
X601349Y219065D01*
X602557Y218074D01*
X603936Y217337D01*
X605432Y216883D01*
X606988Y216729D01*
X608544Y216883D01*
X610040Y217337D01*
X611419Y218074D01*
X612628Y219065D01*
X613619Y220274D01*
X614356Y221653D01*
X614810Y223149D01*
X614963Y224705D01*
X614810Y226261D01*
X614356Y227757D01*
X613619Y229136D01*
X612628Y230344D01*
X611419Y231336D01*
X610040Y232073D01*
X608544Y232527D01*
X607599Y232620D01*
X581921Y258299D01*
X581007Y259048D01*
X579965Y259606D01*
X578834Y259949D01*
X577658Y260065D01*
X566043D01*
X564867Y259949D01*
X563736Y259606D01*
X562694Y259048D01*
X561780Y258299D01*
X557056Y253574D01*
X556306Y252661D01*
X555749Y251618D01*
X555406Y250487D01*
X555290Y249311D01*
Y131139D01*
X552948Y128797D01*
X552486Y128988D01*
Y256483D01*
X552491Y256493D01*
X552863Y257718D01*
X552988Y258992D01*
X552863Y260266D01*
X552491Y261492D01*
X551887Y262621D01*
X551075Y263611D01*
X550085Y264423D01*
X548956Y265026D01*
X547731Y265398D01*
X546457Y265524D01*
D02*
G37*
G36*
X462862Y322486D02*
X461499Y322352D01*
X460189Y321955D01*
X458981Y321309D01*
X457922Y320440D01*
X457053Y319381D01*
X456408Y318174D01*
X456010Y316863D01*
X455876Y315500D01*
X456010Y314137D01*
X456408Y312826D01*
X457053Y311619D01*
X457664Y310875D01*
X457887Y310500D01*
X457664Y310125D01*
X457053Y309381D01*
X456408Y308174D01*
X456010Y306863D01*
X455876Y305500D01*
X456010Y304137D01*
X456408Y302826D01*
X457053Y301619D01*
X457922Y300560D01*
X458981Y299691D01*
X460189Y299045D01*
X461499Y298648D01*
X462862Y298514D01*
X464225Y298648D01*
X465536Y299045D01*
X466744Y299691D01*
X467802Y300560D01*
X468671Y301619D01*
X469317Y302826D01*
X469714Y304137D01*
X469849Y305500D01*
X469714Y306863D01*
X469317Y308174D01*
X468671Y309381D01*
X468061Y310125D01*
X467838Y310500D01*
X468061Y310875D01*
X468671Y311619D01*
X469317Y312826D01*
X469714Y314137D01*
X469849Y315500D01*
X469714Y316863D01*
X469317Y318174D01*
X468671Y319381D01*
X467802Y320440D01*
X466744Y321309D01*
X465536Y321955D01*
X464225Y322352D01*
X462862Y322486D01*
D02*
G37*
G36*
X507965Y607047D02*
X486185D01*
Y585268D01*
X507965D01*
Y607047D01*
D02*
G37*
G36*
X807816Y618306D02*
X807801Y618304D01*
X741831D01*
X740787Y618167D01*
X739813Y617764D01*
X738978Y617123D01*
X738337Y616287D01*
X737934Y615314D01*
X737796Y614270D01*
X737796Y580610D01*
X737934Y579566D01*
X738337Y578593D01*
X738978Y577757D01*
X738978Y577757D01*
X739175Y577561D01*
X740010Y576919D01*
X740983Y576516D01*
X742028Y576379D01*
X742028Y576379D01*
X790453D01*
X790453Y576379D01*
X791497Y576516D01*
X792470Y576919D01*
X793306Y577561D01*
X793306Y577561D01*
X793502Y577757D01*
X806398D01*
X807442Y577894D01*
X808415Y578297D01*
X809251Y578939D01*
X811022Y580710D01*
X811663Y581546D01*
X812066Y582519D01*
X812204Y583563D01*
X812204Y583563D01*
Y613918D01*
X812066Y614962D01*
X811663Y615936D01*
X811022Y616771D01*
X811022Y616771D01*
X810669Y617125D01*
X809833Y617766D01*
X808860Y618169D01*
X807816Y618306D01*
D02*
G37*
G36*
X620669Y602079D02*
X618727Y601888D01*
X616860Y601322D01*
X615139Y600402D01*
X613631Y599164D01*
X612393Y597656D01*
X611474Y595935D01*
X610907Y594068D01*
X610716Y592126D01*
X610907Y590184D01*
X611474Y588317D01*
X612393Y586596D01*
X613631Y585088D01*
X615139Y583850D01*
X616860Y582930D01*
X618727Y582364D01*
X620669Y582172D01*
X622611Y582364D01*
X624478Y582930D01*
X626199Y583850D01*
X627707Y585088D01*
X628945Y586596D01*
X629865Y588317D01*
X630432Y590184D01*
X630623Y592126D01*
X630432Y594068D01*
X629865Y595935D01*
X628945Y597656D01*
X627707Y599164D01*
X626199Y600402D01*
X624478Y601322D01*
X622611Y601888D01*
X620669Y602079D01*
D02*
G37*
G36*
X482390Y653988D02*
X460610D01*
Y632209D01*
X482390D01*
Y653988D01*
D02*
G37*
G36*
X760453Y656897D02*
X758704Y656725D01*
X757022Y656215D01*
X755473Y655387D01*
X754114Y654272D01*
X752999Y652914D01*
X752171Y651364D01*
X751661Y649682D01*
X751488Y647933D01*
X751661Y646184D01*
X752171Y644502D01*
X752999Y642953D01*
X754114Y641594D01*
X755473Y640479D01*
X757022Y639651D01*
X758704Y639141D01*
X760453Y638969D01*
X762202Y639141D01*
X763883Y639651D01*
X765433Y640479D01*
X766792Y641594D01*
X767907Y642953D01*
X768735Y644502D01*
X769245Y646184D01*
X769417Y647933D01*
X769245Y649682D01*
X768735Y651364D01*
X767907Y652914D01*
X766792Y654272D01*
X765433Y655387D01*
X763883Y656215D01*
X762202Y656725D01*
X760453Y656897D01*
D02*
G37*
G36*
X497075Y654325D02*
X495366Y654191D01*
X493700Y653791D01*
X492116Y653135D01*
X490654Y652239D01*
X489351Y651126D01*
X488238Y649822D01*
X487342Y648361D01*
X486686Y646777D01*
X486286Y645111D01*
X486152Y643402D01*
X486286Y641693D01*
X486686Y640026D01*
X487342Y638443D01*
X488238Y636981D01*
X489351Y635678D01*
X490654Y634565D01*
X492116Y633669D01*
X493700Y633013D01*
X495366Y632613D01*
X497075Y632478D01*
X498784Y632613D01*
X500451Y633013D01*
X502034Y633669D01*
X503496Y634565D01*
X504799Y635678D01*
X505912Y636981D01*
X506808Y638443D01*
X507464Y640026D01*
X507864Y641693D01*
X507998Y643402D01*
X507864Y645111D01*
X507464Y646777D01*
X506808Y648361D01*
X505912Y649822D01*
X504799Y651126D01*
X503496Y652239D01*
X502034Y653135D01*
X500451Y653791D01*
X498784Y654191D01*
X497075Y654325D01*
D02*
G37*
%LPD*%
G36*
X808169Y613918D02*
Y583563D01*
X806398Y581791D01*
X791831D01*
X790453Y580413D01*
X742028D01*
X741831Y580610D01*
X741831Y614270D01*
X807814D01*
X807816Y614272D01*
X808169Y613918D01*
D02*
G37*
D32*
X497075Y596158D02*
D03*
X471500Y643099D02*
D03*
D43*
X636909Y224705D02*
D03*
D48*
X672835Y242421D02*
X736516D01*
X603839Y173425D02*
X672835Y242421D01*
X609386Y168146D02*
X646654Y205413D01*
X647244D01*
X609386Y142189D02*
Y168146D01*
X782087Y341929D02*
Y391339D01*
X777658Y395768D02*
X782087Y391339D01*
X759941Y395768D02*
X777658D01*
X751575Y387402D02*
X759941Y395768D01*
X751575Y387402D02*
X751575D01*
X764134Y387362D02*
X770965D01*
X715945Y339173D02*
X764134Y387362D01*
X715650Y339173D02*
X715945D01*
X684154Y307677D02*
X715650Y339173D01*
X668209Y307677D02*
X684154D01*
X635236Y323721D02*
Y382087D01*
Y314567D02*
Y323721D01*
X652165D02*
X668209Y307677D01*
X635236Y323721D02*
X652165D01*
X622815Y290748D02*
Y302146D01*
X635236Y314567D01*
X628346Y388976D02*
X635236Y382087D01*
X599705Y388976D02*
X628346D01*
X589331Y399350D02*
X589370Y399311D01*
X570965Y399350D02*
X589331D01*
X589370Y399311D02*
X599705Y388976D01*
X635433Y460532D02*
X772736D01*
X600000Y438779D02*
X613681D01*
X635433Y460532D01*
X569980Y548917D02*
X581496D01*
X613287Y517126D01*
X667618D01*
X609386Y142189D02*
X636319Y115256D01*
X669291D01*
X708465Y285531D02*
X715945Y278051D01*
X708465Y285531D02*
Y320473D01*
X715945Y327953D01*
Y339173D01*
X757972Y317815D02*
X782087Y341929D01*
X736516Y242421D02*
X757972Y263878D01*
Y317815D01*
X603839Y115157D02*
Y115256D01*
Y173425D01*
D49*
X740650Y374213D02*
Y393110D01*
X678740Y312303D02*
X740650Y374213D01*
X669685Y312303D02*
X678740D01*
X661024Y320965D02*
X669685Y312303D01*
X661024Y320965D02*
Y325295D01*
X595768Y348524D02*
X625591Y378346D01*
X595768Y263878D02*
Y348524D01*
X560906Y329350D02*
X570965D01*
X554626Y335630D02*
X560906Y329350D01*
X558957Y342618D02*
X562224Y339350D01*
X570965D01*
X673622Y318406D02*
X731398Y376181D01*
X731102Y376476D02*
X731398Y376181D01*
X731102Y376476D02*
Y411024D01*
X740650Y393110D02*
X748622Y401083D01*
X779921D01*
X786417Y381004D02*
X787500Y379921D01*
X786417Y381004D02*
Y394587D01*
X779921Y401083D02*
X786417Y394587D01*
X558957Y342618D02*
Y399016D01*
X564468Y404528D01*
X654626D01*
X663779Y395374D01*
X554626Y335630D02*
Y399114D01*
X686516Y386811D02*
Y404724D01*
X679036Y412205D02*
X686516Y404724D01*
X554626Y399114D02*
X563878Y408366D01*
X665945D01*
X670866Y403445D01*
X547638Y412205D02*
X679036D01*
X570768Y418996D02*
X684154D01*
X701181Y358169D02*
Y401968D01*
X684154Y418996D02*
X701181Y401968D01*
X694095Y355217D02*
Y402953D01*
X551575Y423032D02*
Y434842D01*
X681988Y415059D02*
X694095Y402953D01*
X572404Y415046D02*
X572417Y415059D01*
X681988D01*
X559560Y415046D02*
X572404D01*
X551575Y423032D02*
X559560Y415046D01*
X675098Y395374D02*
X678543Y398819D01*
X663779Y395374D02*
X675098D01*
D50*
X550433Y506457D02*
X577500D01*
X585138Y498819D01*
D51*
X18209Y125000D02*
X25689Y132480D01*
X269390Y131988D02*
X269685Y131693D01*
X244193Y131988D02*
X269390D01*
X236587Y124382D02*
X244193Y131988D01*
X236587Y59043D02*
Y124382D01*
Y59043D02*
X272020D01*
X25689Y132480D02*
X41240D01*
X18209Y80421D02*
Y125000D01*
Y80421D02*
X39587Y59043D01*
X75020D01*
D53*
X794685Y390256D02*
X795276D01*
X883957D01*
X719980Y411417D02*
Y412894D01*
X725197Y418110D01*
X775591D01*
X790158Y403543D01*
Y385630D02*
Y403543D01*
X810630Y365158D02*
X820669D01*
X790158Y385630D02*
X810630Y365158D01*
D54*
X603740Y115256D02*
X603839D01*
X597539D02*
X603740D01*
X603839D02*
X609941D01*
X686221Y168799D02*
X697933D01*
X674902D02*
X686221D01*
X697933Y109941D02*
Y168799D01*
X619587Y99410D02*
X687402D01*
X697933Y109941D01*
X466339Y487155D02*
Y542569D01*
X487598Y487155D02*
X498228D01*
X476968D02*
X487598D01*
X466339D02*
X476968D01*
X498228D02*
Y542569D01*
X487598D02*
X498228D01*
X476968D02*
X487598D01*
X708563Y632776D02*
X726969Y651181D01*
X708563Y579528D02*
Y632776D01*
Y579528D02*
X741043Y547047D01*
X890650Y367224D02*
Y419291D01*
X603839Y115157D02*
X619587Y99410D01*
D56*
X546457Y126279D02*
Y258992D01*
X509350Y89173D02*
X546457Y126279D01*
X561319Y249311D02*
X566043Y254035D01*
X561319Y128642D02*
Y249311D01*
X566043Y254035D02*
X577658D01*
X606988Y224705D01*
X570374Y116437D02*
Y240846D01*
X509055Y57776D02*
X516929D01*
X523032Y63878D01*
Y90354D01*
X561319Y128642D01*
X501378Y39272D02*
X509055D01*
X491536Y49114D02*
X501378Y39272D01*
X491536Y49114D02*
Y78347D01*
X502362Y89173D01*
X509350D01*
X614972Y55795D02*
Y71839D01*
X570374Y116437D02*
X614972Y71839D01*
D60*
X693760Y55795D02*
Y71220D01*
X733130Y55795D02*
Y72284D01*
X693760Y71220D02*
X700787Y78248D01*
X727165D01*
X733130Y72284D01*
D63*
X866846Y344512D02*
D03*
X856847D02*
D03*
X846846D02*
D03*
X843347Y130512D02*
D03*
X853347D02*
D03*
X863346D02*
D03*
X873347D02*
D03*
X883346D02*
D03*
X900846Y274512D02*
D03*
Y264512D02*
D03*
Y254512D02*
D03*
Y244512D02*
D03*
X462862Y315500D02*
D03*
Y305500D02*
D03*
X332941D02*
D03*
X570965Y329350D02*
D03*
Y339350D02*
D03*
Y349350D02*
D03*
Y359350D02*
D03*
Y369350D02*
D03*
Y379350D02*
D03*
Y389350D02*
D03*
X632815Y290748D02*
D03*
X642815D02*
D03*
X652815D02*
D03*
X662815D02*
D03*
D64*
X836847Y344512D02*
D03*
X833346Y130512D02*
D03*
X622815Y290748D02*
D03*
D65*
X272020Y59043D02*
D03*
X236587D02*
D03*
X75020D02*
D03*
X39587D02*
D03*
X497075Y643402D02*
D03*
X471500Y595854D02*
D03*
X374606Y58957D02*
D03*
X339173D02*
D03*
X172047Y58661D02*
D03*
X136614D02*
D03*
D66*
X900846Y234512D02*
D03*
X332941Y315500D02*
D03*
X570965Y399350D02*
D03*
D67*
X555354Y55795D02*
D03*
X509055Y76280D02*
D03*
Y57776D02*
D03*
Y39272D02*
D03*
X673760Y55795D02*
D03*
X634390D02*
D03*
X713130D02*
D03*
X594972Y55795D02*
D03*
D68*
X575354Y55795D02*
D03*
X760453Y647933D02*
D03*
X820453D02*
D03*
X302362Y273051D02*
D03*
Y333051D02*
D03*
X693760Y55795D02*
D03*
X654390D02*
D03*
X733130D02*
D03*
X614972Y55795D02*
D03*
D69*
X41240Y132480D02*
D03*
Y270276D02*
D03*
X244193Y131988D02*
D03*
Y269783D02*
D03*
X209646Y269193D02*
D03*
X71850D02*
D03*
D70*
X726969Y533071D02*
D03*
Y592126D02*
D03*
Y651181D02*
D03*
X620669D02*
D03*
Y592126D02*
D03*
Y533071D02*
D03*
D71*
X606988Y224705D02*
D03*
D72*
X739892Y322293D02*
D03*
X770964Y387362D02*
D03*
X600295Y517520D02*
D03*
X765158Y227953D02*
D03*
X715945Y278051D02*
D03*
X603740Y115256D02*
D03*
X609941D02*
D03*
X597539D02*
D03*
X686221Y168799D02*
D03*
X674508D02*
D03*
X697933D02*
D03*
X688829Y229626D02*
D03*
X677362D02*
D03*
X700295D02*
D03*
X646654Y205413D02*
D03*
X811024Y421358D02*
D03*
Y441043D02*
D03*
Y431201D02*
D03*
X842520D02*
D03*
Y441043D02*
D03*
Y421358D02*
D03*
X846358Y397342D02*
D03*
X661024Y325295D02*
D03*
X600591Y380512D02*
D03*
X722835Y380315D02*
D03*
X751575Y387402D02*
D03*
X816929Y608957D02*
D03*
Y602264D02*
D03*
X824409Y608957D02*
D03*
Y602264D02*
D03*
X867028Y573228D02*
D03*
X772933Y531299D02*
D03*
X520620Y494488D02*
D03*
X515158D02*
D03*
X476968Y542569D02*
D03*
X487598Y487155D02*
D03*
X476968D02*
D03*
X498228D02*
D03*
Y542569D02*
D03*
X487598D02*
D03*
X466339D02*
D03*
Y487155D02*
D03*
X474902Y584350D02*
D03*
X466732Y584449D02*
D03*
X546063Y592126D02*
D03*
X552411D02*
D03*
X558760D02*
D03*
X537008Y157480D02*
D03*
X506004Y361614D02*
D03*
X546457Y258992D02*
D03*
X509154Y217815D02*
D03*
X498524D02*
D03*
X477264D02*
D03*
X509449Y162008D02*
D03*
X498819D02*
D03*
X488189D02*
D03*
X477559D02*
D03*
X894980Y420472D02*
D03*
X901280D02*
D03*
X830512Y515551D02*
D03*
X824508D02*
D03*
Y509252D02*
D03*
X830512D02*
D03*
X836516Y515551D02*
D03*
Y509252D02*
D03*
X547638Y412205D02*
D03*
X715945Y339173D02*
D03*
X589370Y399311D02*
D03*
X673622Y318406D02*
D03*
X595768Y263878D02*
D03*
X625591Y378346D02*
D03*
X772736Y460532D02*
D03*
X570374Y240846D02*
D03*
X624803Y168307D02*
D03*
X876083Y420472D02*
D03*
X882382D02*
D03*
X888681D02*
D03*
X752854Y162106D02*
D03*
X766289D02*
D03*
X779724Y123130D02*
D03*
X766289D02*
D03*
X752854D02*
D03*
X779724Y162106D02*
D03*
X781594Y149114D02*
D03*
Y136122D02*
D03*
X686516Y386811D02*
D03*
X670866Y403445D02*
D03*
X643110Y168307D02*
D03*
X637008D02*
D03*
X630905D02*
D03*
X747441Y602133D02*
D03*
Y594029D02*
D03*
Y585925D02*
D03*
Y610236D02*
D03*
X804429Y610827D02*
D03*
X794685Y601870D02*
D03*
Y610827D02*
D03*
X804429Y601870D02*
D03*
X859547Y573228D02*
D03*
X867028Y579921D02*
D03*
X859547D02*
D03*
X746457Y541536D02*
D03*
X846358Y403051D02*
D03*
Y409449D02*
D03*
X795276Y390256D02*
D03*
X787500Y379921D02*
D03*
X731102Y411024D02*
D03*
X719980Y411417D02*
D03*
X820669Y365158D02*
D03*
X600000Y438779D02*
D03*
X550433Y506457D02*
D03*
X585138Y498917D02*
D03*
X569980Y548917D02*
D03*
X667618Y517126D02*
D03*
X551575Y434842D02*
D03*
X570768Y418996D02*
D03*
X701181Y357972D02*
D03*
X694095Y355217D02*
D03*
X541437Y452854D02*
D03*
X649213Y168307D02*
D03*
X655315D02*
D03*
X669291Y115256D02*
D03*
X678543Y398819D02*
D03*
X631398Y441043D02*
D03*
X707382Y409842D02*
D03*
D73*
X357087Y132776D02*
D03*
X154528Y131988D02*
D03*
X17126Y128248D02*
D03*
X269685Y131693D02*
D03*
M02*
