M48
;Layer_Color=9474304
;FILE_FORMAT=2:5
INCH,LZ
;TYPE=PLATED
T1F00S00C0.02800
T2F00S00C0.03150
T3F00S00C0.03543
T4F00S00C0.03937
T5F00S00C0.05118
T6F00S00C0.05906
T7F00S00C0.06693
T8F00S00C0.07874
T9F00S00C0.09843
;TYPE=NON_PLATED
T10F00S00C0.31496
%
T01
X0669291Y0115256
X0752854Y012313
X0766289
X0779724
X0609941Y0115256
X060374
X0597539
X0477559Y0162008
X0477264Y0217815
X0498524
X0509154
X0509449Y0162008
X0498819
X0488189
X0537008Y015748
X0624803Y0168307
X0630905
X0637008
X0595768Y0263878
X0570374Y0240846
X0546457Y0258992
X0646654Y0205413
X0649213Y0168307
X064311
X0655315
X0674508Y0168799
X0686221
X0697933
X0752854Y0162106
X0766289
X0779724
X0781594Y0149114
Y0136122
X0765158Y0227953
X0700295Y0229626
X0688829
X0677362
X0715945Y0278051
X0820669Y0365158
X0846358Y0397342
Y0403051
Y0409449
X084252Y0421358
Y0431201
Y0441043
X0811024
Y0431201
Y0421358
X0876083Y0420472
X0882382
X0888681
X089498
X090128
X0795276Y0390256
X07875Y0379921
X0770964Y0387362
X0751575Y0387402
X0722835Y0380315
X071998Y0411417
X0731102Y0411024
X0707382Y0409842
X0678543Y0398819
X0670866Y0403445
X0686516Y0386811
X0694095Y0355217
X0701181Y0357972
X0715945Y0339173
X0739892Y0322293
X0673622Y0318406
X0661024Y0325295
X0625591Y0378346
X0600591Y0380512
X058937Y0399311
X0570768Y0418996
X0547638Y0412205
X0551575Y0434842
X06Y0438779
X0631398Y0441043
X0506004Y0361614
X0476968Y0487155
X0466339
Y0542569
X0476968
X0474902Y058435
X0466732Y0584449
X0487598Y0542569
X0498228
Y0487155
X0487598
X0515158Y0494488
X052062
X0550433Y0506457
X0585138Y0498917
X0600295Y051752
X056998Y0548917
X055876Y0592126
X0552411
X0546063
X0541437Y0452854
X0667618Y0517126
X0746457Y0541536
X0772933Y0531299
X0772736Y0460532
X0747441Y0585925
Y0594029
X0859547Y0579921
Y0573228
X0867028
Y0579921
X0836516Y0515551
X0830512
X0824508
Y0509252
X0830512
X0836516
X0824409Y0602264
Y0608957
X0816929
Y0602264
X0804429Y060187
Y0610827
X0794685
Y060187
X0747441Y0602133
Y0610236
T02
X0606988Y0224705
X0636909
X0462862Y03055
Y03155
X0332941
Y03055
T03
X0833346Y0130512
X0843347
X0853347
X0863346
X0873347
X0883346
X0900846Y0234512
Y0244512
Y0254512
Y0264512
Y0274512
X0866846Y0344512
X0856847
X0846846
X0836847
X0662815Y0290748
X0652815
X0642815
X0632815
X0622815
X0570965Y032935
Y033935
Y034935
Y035935
Y036935
Y037935
Y038935
Y039935
T04
X0302362Y0273051
Y0333051
X0820453Y0647933
X0760453
T05
X065439Y0055795
X067376
X069376
X071313
X073313
X063439
X0614972Y0055795
X0594972
X0575354Y0055795
X0555354
T06
X0339173Y0058957
X0374606
X027202Y0059043
X0236587
X0172047Y0058661
X0136614
X007502Y0059043
X0039587
X004124Y013248
Y0270276
X007185Y0269193
X0209646
X0244193Y0269783
Y0131988
X0620669Y0533071
Y0592126
X0726969
Y0533071
Y0651181
X0620669
T07
X0509055Y0039272
Y0057776
Y007628
T08
X04715Y0595854
X0497075Y0596158
Y0643402
X04715Y0643099
T09
X0017126Y0128248
X0154528Y0131988
X0269685Y0131693
X0357087Y0132776
T10
X0888484Y0602906
M30
