G04 Layer_Color=16711935*
%FSLAX25Y25*%
%MOIN*%
G70*
G01*
G75*
%ADD81C,0.00394*%
%ADD134C,0.13780*%
%ADD135C,0.07874*%
D81*
X-35118Y375590D02*
X-33543D01*
X-34331Y374803D02*
Y376378D01*
X-400965Y441732D02*
X-399390D01*
X-400177Y440945D02*
Y442520D01*
D134*
X-668189Y84055D02*
X-668189Y50787D01*
X-610118Y51575D02*
Y84055D01*
X-753031Y167421D02*
X-736693Y167421D01*
X-762776Y108760D02*
X-729803D01*
X-812776Y62992D02*
Y88287D01*
X-871142Y62992D02*
Y88287D01*
X-509527Y198721D02*
X-471634Y160827D01*
X-430492Y-102953D02*
Y135039D01*
X-680295Y-102953D02*
Y-12402D01*
X-778031Y-102953D02*
Y-12402D01*
X-866220Y45472D02*
X-821142D01*
X-789252Y13583D01*
X-864941Y107185D02*
X-790925D01*
X-770157Y127953D01*
Y168799D01*
X-770453Y169095D02*
X-770157Y168799D01*
X-719961Y123327D02*
Y168504D01*
Y123327D02*
X-699587Y102953D01*
X-595157D01*
X-695256Y31890D02*
X-579902D01*
X-577791Y-102953D02*
Y-12402D01*
D135*
X-346339Y337106D02*
X-314941D01*
X-298504Y353543D01*
X-276457D01*
X-255984Y370965D02*
X-181181D01*
X-174488Y364272D01*
M02*
