G04 Layer_Color=16711935*
%FSLAX25Y25*%
%MOIN*%
G70*
G01*
G75*
%ADD76C,0.00500*%
%ADD79C,0.00787*%
%ADD80C,0.00394*%
D76*
X648228Y373425D02*
X675787D01*
X648228Y345866D02*
X675787D01*
Y373425D01*
X648228Y345866D02*
Y373425D01*
D79*
X493492Y171536D02*
Y210551D01*
Y171536D02*
X526484D01*
Y210551D01*
X493492D02*
X526484D01*
D80*
X773327Y193622D02*
X775295Y191654D01*
X768996Y193622D02*
X775295D01*
X768996Y190236D02*
Y193622D01*
Y190236D02*
X775295D01*
Y193622D01*
X820079Y370374D02*
Y375886D01*
X811614Y370374D02*
Y375886D01*
Y370374D02*
X820079D01*
X811614Y375886D02*
X820079D01*
X799311Y387283D02*
X801280Y385315D01*
X799311D02*
X805610D01*
Y388701D01*
X799311D02*
X805610D01*
X799311Y385315D02*
Y388701D01*
X717224Y429331D02*
X722736D01*
X717224Y420866D02*
X722736D01*
Y429331D01*
X717224Y420866D02*
Y429331D01*
X782677Y541240D02*
X796063D01*
X782677Y548327D02*
X796063D01*
Y541240D02*
Y548327D01*
X782677Y541240D02*
Y548327D01*
X543799Y583957D02*
X557185D01*
X543799Y576870D02*
X557185D01*
X543799D02*
Y583957D01*
X557185Y576870D02*
Y583957D01*
X782677Y528543D02*
Y535630D01*
X796063Y528543D02*
Y535630D01*
X782677D02*
X796063D01*
X782677Y528543D02*
X796063D01*
X800197Y630413D02*
X813583D01*
X800197Y623327D02*
X813583D01*
X800197D02*
Y630413D01*
X813583Y623327D02*
Y630413D01*
X643996Y513681D02*
X657382D01*
X643996Y520768D02*
X657382D01*
Y513681D02*
Y520768D01*
X643996Y513681D02*
Y520768D01*
X617520Y513780D02*
Y520866D01*
X630905Y513780D02*
Y520866D01*
X617520D02*
X630905D01*
X617520Y513780D02*
X630905D01*
X605709Y417717D02*
X611220D01*
X605709Y426181D02*
X611220D01*
X605709Y417717D02*
Y426181D01*
X611220Y417717D02*
Y426181D01*
X719291Y344193D02*
Y349705D01*
X727756Y344193D02*
Y349705D01*
X719291D02*
X727756D01*
X719291Y344193D02*
X727756D01*
X694685Y426083D02*
X700197D01*
X694685Y417618D02*
X700197D01*
Y426083D01*
X694685Y417618D02*
Y426083D01*
X704528D02*
X710039D01*
X704528Y417618D02*
X710039D01*
Y426083D01*
X704528Y417618D02*
Y426083D01*
X554036Y135433D02*
X559547D01*
X554036Y143898D02*
X559547D01*
X554036Y135433D02*
Y143898D01*
X559547Y135433D02*
Y143898D01*
X719685Y322835D02*
X725197D01*
X719685Y331299D02*
X725197D01*
X719685Y322835D02*
Y331299D01*
X725197Y322835D02*
Y331299D01*
X709646Y331398D02*
X715157D01*
X709646Y322933D02*
X715157D01*
Y331398D01*
X709646Y322933D02*
Y331398D01*
X467914Y535630D02*
X503347D01*
X467914Y494095D02*
X503347D01*
X467914D02*
Y535630D01*
X503347Y494095D02*
Y535630D01*
X529626Y380118D02*
X535925D01*
Y368701D02*
Y380118D01*
X529626Y368701D02*
X535925D01*
X529626D02*
Y380118D01*
Y376378D02*
X533366Y380118D01*
X768602Y537106D02*
Y542618D01*
X756791Y537106D02*
Y542618D01*
X768602D01*
X756791Y537106D02*
X768602D01*
X504725Y319685D02*
X516536D01*
X504725Y325197D02*
X516536D01*
X504725Y319685D02*
Y325197D01*
X516536Y319685D02*
Y325197D01*
X576870Y243504D02*
Y249016D01*
X588681Y243504D02*
Y249016D01*
X576870Y243504D02*
X588681D01*
X576870Y249016D02*
X588681D01*
X540551Y275590D02*
X552362D01*
X540551Y270079D02*
X552362D01*
Y275590D01*
X540551Y270079D02*
Y275590D01*
X739862Y396358D02*
X745374D01*
X739862Y387894D02*
X745374D01*
Y396358D01*
X739862Y387894D02*
Y396358D01*
X725541Y387894D02*
Y396358D01*
X720030Y387894D02*
Y396358D01*
X725541D01*
X720030Y387894D02*
X725541D01*
X729946Y396358D02*
X735458D01*
X729946Y387894D02*
X735458D01*
Y396358D01*
X729946Y387894D02*
Y396358D01*
X693110Y292028D02*
X701575D01*
X693110Y286516D02*
X701575D01*
X693110D02*
Y292028D01*
X701575Y286516D02*
Y292028D01*
Y295473D02*
Y300984D01*
X693110Y295473D02*
Y300984D01*
Y295473D02*
X701575D01*
X693110Y300984D02*
X701575D01*
X735138Y322835D02*
Y331299D01*
X729626Y322835D02*
Y331299D01*
X735138D01*
X729626Y322835D02*
X735138D01*
X489272Y358858D02*
Y364370D01*
X497736Y358858D02*
Y364370D01*
X489272D02*
X497736D01*
X489272Y358858D02*
X497736D01*
X830118Y375886D02*
X838583D01*
X830118Y370374D02*
X838583D01*
X830118D02*
Y375886D01*
X838583Y370374D02*
Y375886D01*
X467323Y333169D02*
X472835D01*
X467323Y341634D02*
X472835D01*
X467323Y333169D02*
Y341634D01*
X472835Y333169D02*
Y341634D01*
X489272Y384843D02*
X497736D01*
X489272Y379331D02*
X497736D01*
X489272D02*
Y384843D01*
X497736Y379331D02*
Y384843D01*
X657776Y259154D02*
X663287D01*
X657776Y250689D02*
X663287D01*
Y259154D01*
X657776Y250689D02*
Y259154D01*
X489272Y374803D02*
X497736D01*
X489272Y369291D02*
X497736D01*
X489272D02*
Y374803D01*
X497736Y369291D02*
Y374803D01*
X493012Y302657D02*
Y308169D01*
X484547Y302657D02*
Y308169D01*
Y302657D02*
X493012D01*
X484547Y308169D02*
X493012D01*
X513386Y343406D02*
Y351870D01*
X507874Y343406D02*
Y351870D01*
X513386D01*
X507874Y343406D02*
X513386D01*
X514961Y302756D02*
Y308268D01*
X506496Y302756D02*
Y308268D01*
Y302756D02*
X514961D01*
X506496Y308268D02*
X514961D01*
X543209Y287303D02*
X551673D01*
X543209Y292815D02*
X551673D01*
Y287303D02*
Y292815D01*
X543209Y287303D02*
Y292815D01*
X508366Y373229D02*
X513878D01*
X508366Y381693D02*
X513878D01*
X508366Y373229D02*
Y381693D01*
X513878Y373229D02*
Y381693D01*
X659260Y417717D02*
Y426181D01*
X653748Y417717D02*
Y426181D01*
X659260D01*
X653748Y417717D02*
X659260D01*
X644140D02*
X649652D01*
X644140Y426181D02*
X649652D01*
X644140Y417717D02*
Y426181D01*
X649652Y417717D02*
Y426181D01*
X640044Y417717D02*
Y426181D01*
X634532Y417717D02*
Y426181D01*
X640044D01*
X634532Y417717D02*
X640044D01*
X624924D02*
X630436D01*
X624924Y426181D02*
X630436D01*
X624924Y417717D02*
Y426181D01*
X630436Y417717D02*
Y426181D01*
X620828Y417717D02*
Y426181D01*
X615316Y417717D02*
Y426181D01*
X620828D01*
X615316Y417717D02*
X620828D01*
X728286Y420964D02*
X733798D01*
X728286Y429429D02*
X733798D01*
X728286Y420964D02*
Y429429D01*
X733798Y420964D02*
Y429429D01*
X740748Y197835D02*
Y203346D01*
X749213Y197835D02*
Y203346D01*
X740748D02*
X749213D01*
X740748Y197835D02*
X749213D01*
X756890Y201181D02*
X762402D01*
X756890Y209646D02*
X762402D01*
X756890Y201181D02*
Y209646D01*
X762402Y201181D02*
Y209646D01*
X584842Y464173D02*
X593307D01*
X584842Y458661D02*
X593307D01*
X584842D02*
Y464173D01*
X593307Y458661D02*
Y464173D01*
X737894Y420964D02*
X743406D01*
X737894Y429429D02*
X743406D01*
X737894Y420964D02*
Y429429D01*
X743406Y420964D02*
Y429429D01*
X607284Y372933D02*
X612795D01*
X607284Y364468D02*
X612795D01*
Y372933D01*
X607284Y364468D02*
Y372933D01*
X597835Y373031D02*
X603346D01*
X597835Y364567D02*
X603346D01*
Y373031D01*
X597835Y364567D02*
Y373031D01*
X609941Y330906D02*
Y336417D01*
X618406Y330906D02*
Y336417D01*
X609941D02*
X618406D01*
X609941Y330906D02*
X618406D01*
X628248Y321260D02*
Y326772D01*
X619783Y321260D02*
Y326772D01*
Y321260D02*
X628248D01*
X619783Y326772D02*
X628248D01*
X548032Y562894D02*
Y568406D01*
X556496Y562894D02*
Y568406D01*
X548032D02*
X556496D01*
X548032Y562894D02*
X556496D01*
X699213Y322835D02*
X704724D01*
X699213Y331299D02*
X704724D01*
X699213Y322835D02*
Y331299D01*
X704724Y322835D02*
Y331299D01*
X701575Y308957D02*
Y314469D01*
X693110Y308957D02*
Y314469D01*
Y308957D02*
X701575D01*
X693110Y314469D02*
X701575D01*
X663356Y417717D02*
X668867D01*
X663356Y426181D02*
X668867D01*
X663356Y417717D02*
Y426181D01*
X668867Y417717D02*
Y426181D01*
X672963Y417717D02*
X678475D01*
X672963Y426181D02*
X678475D01*
X672963Y417717D02*
Y426181D01*
X678475Y417717D02*
Y426181D01*
X682571Y417717D02*
X688083D01*
X682571Y426181D02*
X688083D01*
X682571Y417717D02*
Y426181D01*
X688083Y417717D02*
Y426181D01*
X578937Y261221D02*
Y266732D01*
X587402Y261221D02*
Y266732D01*
X578937D02*
X587402D01*
X578937Y261221D02*
X587402D01*
X759902Y52165D02*
Y60630D01*
X765413Y52165D02*
Y60630D01*
X759902Y52165D02*
X765413D01*
X759902Y60630D02*
X765413D01*
X569291Y594291D02*
X576378D01*
X569291Y580905D02*
X576378D01*
Y594291D01*
X569291Y580905D02*
Y594291D01*
X759252Y511909D02*
Y518996D01*
X772638Y511909D02*
Y518996D01*
X759252D02*
X772638D01*
X759252Y511909D02*
X772638D01*
X759941Y458071D02*
X765453D01*
X759941Y449606D02*
X765453D01*
Y458071D01*
X759941Y449606D02*
Y458071D01*
X747047Y550886D02*
X752559D01*
X747047Y559350D02*
X752559D01*
X747047Y550886D02*
Y559350D01*
X752559Y550886D02*
Y559350D01*
X572559Y491536D02*
X577559Y486536D01*
X554528Y491536D02*
X577559D01*
X554528Y462008D02*
Y491536D01*
Y462008D02*
X577559D01*
Y491536D01*
X535433Y475099D02*
Y480610D01*
X543898Y475099D02*
Y480610D01*
X535433D02*
X543898D01*
X535433Y475099D02*
X543898D01*
X535335Y483661D02*
Y489173D01*
X543799Y483661D02*
Y489173D01*
X535335D02*
X543799D01*
X535335Y483661D02*
X543799D01*
X582776Y534941D02*
X591831Y525886D01*
X566240Y534941D02*
X591831D01*
X566240Y521161D02*
Y534941D01*
Y521161D02*
X591831D01*
Y534941D01*
X538484Y445079D02*
X543996D01*
X538484Y436614D02*
X543996D01*
Y445079D01*
X538484Y436614D02*
Y445079D01*
X558661Y443799D02*
X564173D01*
X558661Y435335D02*
X564173D01*
Y443799D01*
X558661Y435335D02*
Y443799D01*
X567520D02*
X573032D01*
X567520Y435335D02*
X573032D01*
Y443799D01*
X567520Y435335D02*
Y443799D01*
X561713Y423524D02*
Y429036D01*
X570177Y423524D02*
Y429036D01*
X561713D02*
X570177D01*
X561713Y423524D02*
X570177D01*
M02*
