G04 Layer_Physical_Order=1*
G04 Layer_Color=255*
%FSLAX25Y25*%
%MOIN*%
G70*
G01*
G75*
%ADD10R,0.05906X0.05512*%
%ADD11R,0.05512X0.05906*%
%ADD12R,0.03740X0.06890*%
%ADD13R,0.12598X0.06890*%
%ADD14R,0.02559X0.07284*%
%ADD15R,0.13780X0.13780*%
%ADD16R,0.12992X0.09449*%
%ADD17R,0.07874X0.07874*%
%ADD18R,0.07874X0.07874*%
G04:AMPARAMS|DCode=19|XSize=57.87mil|YSize=9.45mil|CornerRadius=1.18mil|HoleSize=0mil|Usage=FLASHONLY|Rotation=0.000|XOffset=0mil|YOffset=0mil|HoleType=Round|Shape=RoundedRectangle|*
%AMROUNDEDRECTD19*
21,1,0.05787,0.00709,0,0,0.0*
21,1,0.05551,0.00945,0,0,0.0*
1,1,0.00236,0.02776,-0.00354*
1,1,0.00236,-0.02776,-0.00354*
1,1,0.00236,-0.02776,0.00354*
1,1,0.00236,0.02776,0.00354*
%
%ADD19ROUNDEDRECTD19*%
G04:AMPARAMS|DCode=20|XSize=57.87mil|YSize=9.45mil|CornerRadius=1.18mil|HoleSize=0mil|Usage=FLASHONLY|Rotation=270.000|XOffset=0mil|YOffset=0mil|HoleType=Round|Shape=RoundedRectangle|*
%AMROUNDEDRECTD20*
21,1,0.05787,0.00709,0,0,270.0*
21,1,0.05551,0.00945,0,0,270.0*
1,1,0.00236,-0.00354,-0.02776*
1,1,0.00236,-0.00354,0.02776*
1,1,0.00236,0.00354,0.02776*
1,1,0.00236,0.00354,-0.02776*
%
%ADD20ROUNDEDRECTD20*%
%ADD21R,0.23622X0.12598*%
%ADD22R,0.11811X0.11811*%
%ADD23R,0.05906X0.03543*%
%ADD24R,0.07874X0.05906*%
%ADD25R,0.11811X0.11811*%
%ADD26R,0.15748X0.13780*%
%ADD27R,0.09843X0.11811*%
%ADD28R,0.15748X0.09843*%
%ADD29R,0.27559X0.23622*%
%ADD30R,0.09843X0.15748*%
%ADD31R,0.23622X0.27559*%
%ADD32R,0.21654X0.11811*%
%ADD33R,0.11811X0.21654*%
%ADD34R,0.06299X0.09843*%
%ADD35R,0.27559X0.11811*%
%ADD36R,0.11811X0.15748*%
%ADD37R,0.12598X0.07874*%
%ADD38R,0.03937X0.07087*%
%ADD39R,0.06299X0.02362*%
%ADD40R,0.12992X0.09055*%
%ADD41R,0.35039X0.41929*%
%ADD42R,0.13780X0.09843*%
%ADD43R,0.08504X0.04213*%
%ADD44R,0.40984X0.42520*%
%ADD45R,0.02559X0.07874*%
%ADD46R,0.09449X0.12992*%
%ADD47R,0.01850X0.02520*%
%ADD48C,0.02000*%
%ADD49C,0.03000*%
%ADD50C,0.00900*%
%ADD51C,0.08000*%
%ADD52C,0.01000*%
%ADD53C,0.05000*%
%ADD54C,0.01500*%
%ADD55C,0.06000*%
%ADD56C,0.10000*%
%ADD57C,0.04000*%
%ADD58C,0.02500*%
%ADD59C,0.30000*%
%ADD60C,0.13000*%
%ADD61C,0.15000*%
%ADD62C,0.20000*%
%ADD63C,0.09843*%
%ADD64R,0.09843X0.09843*%
%ADD65C,0.13780*%
%ADD66C,0.05906*%
%ADD67R,0.05906X0.05906*%
%ADD68R,0.05906X0.05906*%
%ADD69C,0.07874*%
%ADD70C,0.11811*%
%ADD71C,0.15748*%
%ADD72C,0.05000*%
%ADD73C,0.19685*%
G36*
X-368976Y25098D02*
X-411004D01*
Y92716D01*
X-368976D01*
Y25098D01*
D02*
G37*
G36*
X-330000Y88976D02*
X-330098D01*
X-337382Y81693D01*
Y96358D01*
X-330000Y88976D01*
D02*
G37*
G36*
X-224488Y38976D02*
X-224193Y38681D01*
Y29134D01*
Y20374D01*
X-225472Y19094D01*
X-260413D01*
X-261988Y20669D01*
X-261988Y21063D01*
Y36319D01*
Y38583D01*
X-258839Y41732D01*
X-227244D01*
X-224488Y38976D01*
D02*
G37*
G36*
X-177539Y37795D02*
Y21063D01*
X-177342Y20866D01*
X-178819Y19390D01*
X-215728D01*
X-217303Y20965D01*
Y37402D01*
X-212972Y41732D01*
X-181476D01*
X-177539Y37795D01*
D02*
G37*
G36*
X-580787Y155905D02*
X-589547Y164862D01*
X-571831D01*
X-580787Y155905D01*
D02*
G37*
G36*
X-32658Y280217D02*
Y265453D01*
X-34724Y263386D01*
X-53130Y263386D01*
X-54311Y264567D01*
Y281890D01*
X-53130Y283071D01*
X-35512D01*
X-32658Y280217D01*
D02*
G37*
G36*
X-176678Y101747D02*
X-176678Y96137D01*
X-179114Y93701D01*
X-198209Y93701D01*
X-209232Y93701D01*
X-210906Y93701D01*
X-215187Y87746D01*
X-215187Y50443D01*
X-220650Y44980D01*
X-224906D01*
X-225227Y45226D01*
X-226200Y45629D01*
X-227244Y45767D01*
X-227244Y45767D01*
X-258839D01*
X-258839Y45767D01*
X-259883Y45629D01*
X-260856Y45226D01*
X-261176Y44980D01*
X-265728D01*
X-265925Y44783D01*
X-269862Y40846D01*
Y40551D01*
Y19783D01*
X-269764Y19685D01*
X-270945Y18504D01*
X-290531D01*
X-293091Y21063D01*
Y30610D01*
Y57579D01*
X-292795Y57874D01*
X-286398Y64272D01*
X-235807Y64272D01*
X-230787Y69291D01*
Y72161D01*
X-230659Y72402D01*
X-230287Y73627D01*
X-230161Y74902D01*
X-230287Y76176D01*
X-230659Y77401D01*
X-230787Y77642D01*
Y99114D01*
X-225718Y104183D01*
X-179114D01*
X-176678Y101747D01*
D02*
G37*
G36*
X-661693Y173819D02*
X-661398Y173524D01*
X-633543D01*
X-632362Y172343D01*
X-632264Y172244D01*
Y152953D01*
Y146949D01*
X-629606Y144291D01*
X-629410Y144095D01*
Y137894D01*
Y134646D01*
X-632657Y131398D01*
X-633740Y130315D01*
X-679705D01*
X-682461Y133071D01*
X-685118Y135728D01*
Y142618D01*
Y174213D01*
X-683937Y175394D01*
X-663268D01*
X-661693Y173819D01*
D02*
G37*
G36*
X-178130Y5610D02*
X-176752Y4232D01*
Y1673D01*
Y-1870D01*
X-130787Y-47835D01*
X-123209Y-55413D01*
Y-77362D01*
Y-86910D01*
X-123307Y-87008D01*
X-125177Y-88878D01*
X-136988D01*
X-138563Y-87303D01*
Y-79626D01*
Y-63976D01*
X-185118Y-17421D01*
X-190236Y-12303D01*
X-193386D01*
X-193878Y-11811D01*
X-195551Y-10138D01*
Y-8957D01*
Y3937D01*
X-193583Y5906D01*
X-178425D01*
X-178130Y5610D01*
D02*
G37*
G36*
X-272421Y6004D02*
X-270059Y3642D01*
Y2165D01*
Y-13878D01*
X-268091Y-15846D01*
X-247618Y-36319D01*
X-236201D01*
X-231378Y-41142D01*
X-201949Y-70571D01*
Y-82874D01*
Y-86319D01*
X-203228Y-87598D01*
X-204213Y-88583D01*
X-215433D01*
X-217598Y-86417D01*
Y-84153D01*
Y-79035D01*
X-226555Y-70079D01*
X-243878Y-52756D01*
X-254902D01*
X-260807Y-46850D01*
X-289252Y-18406D01*
Y-18110D01*
Y3150D01*
X-289055Y3347D01*
X-286201Y6201D01*
X-272618D01*
X-272421Y6004D01*
D02*
G37*
G36*
X-140335Y-10728D02*
X-103720Y-47343D01*
Y-47835D01*
Y-87008D01*
X-103622Y-87106D01*
X-105787Y-89272D01*
X-117303D01*
X-119468Y-87106D01*
Y-74705D01*
Y-53642D01*
X-142008Y-31102D01*
X-159331Y-13780D01*
Y-5709D01*
Y5906D01*
X-158839Y6398D01*
X-157264Y7972D01*
X-140335D01*
Y-10728D01*
D02*
G37*
G36*
X-201555Y5413D02*
X-199882Y3740D01*
Y1476D01*
Y-10827D01*
X-196437Y-14272D01*
X-161496Y-49213D01*
Y-64764D01*
Y-86221D01*
X-162185Y-86910D01*
X-164350Y-89075D01*
X-176063D01*
X-177835Y-87303D01*
Y-87008D01*
Y-56398D01*
X-179016Y-55216D01*
X-217894Y-16339D01*
Y-10827D01*
Y3543D01*
X-215925Y5512D01*
X-201654D01*
X-201555Y5413D01*
D02*
G37*
G36*
X-98405Y-10531D02*
X-134626D01*
Y17028D01*
Y17224D01*
Y34547D01*
X-98405D01*
Y-10531D01*
D02*
G37*
G36*
X-297126Y-3494D02*
X-304705Y4085D01*
Y4183D01*
X-304311D01*
X-297126Y11368D01*
Y-3494D01*
D02*
G37*
G36*
X-229606Y6496D02*
X-225472Y2362D01*
Y-2854D01*
Y-14862D01*
X-191909Y-48425D01*
X-183346Y-56988D01*
Y-81595D01*
Y-86614D01*
X-183839Y-87106D01*
X-185315Y-88583D01*
X-194567D01*
X-196535Y-86614D01*
Y-73032D01*
Y-69390D01*
X-227146Y-38780D01*
X-235807Y-30118D01*
X-240630D01*
X-257264Y-13484D01*
X-259921Y-10827D01*
Y-7087D01*
Y4134D01*
X-259724Y4331D01*
X-257461Y6594D01*
X-229705D01*
X-229606Y6496D01*
D02*
G37*
G36*
X-281181Y-62598D02*
X-288622Y-70079D01*
Y-55158D01*
X-281181Y-62598D01*
D02*
G37*
G36*
X-6083Y312697D02*
X18032D01*
X18425Y312697D01*
X19411Y312696D01*
X21378Y310728D01*
Y299902D01*
Y288779D01*
X17835Y285728D01*
X-5492Y285728D01*
X-7756D01*
X-10807Y288779D01*
X-10905Y288878D01*
Y309744D01*
Y310728D01*
X-8937Y312697D01*
X-6083Y312697D01*
D02*
G37*
G36*
X-54803Y519105D02*
X-54803Y453642D01*
X-1057D01*
X16Y453278D01*
X2555Y452773D01*
X5138Y452603D01*
X7036Y452728D01*
X8583Y451181D01*
Y441142D01*
Y428839D01*
X8090Y428346D01*
X5728Y425984D01*
X-7264D01*
X-9036Y427756D01*
Y429724D01*
Y433268D01*
X-9921Y434154D01*
X-11693Y435925D01*
X-43976D01*
X-44173Y436122D01*
X-45256Y437205D01*
X-70551D01*
X-72717Y435039D01*
Y432579D01*
X-74291Y431004D01*
X-91516D01*
X-94272Y428248D01*
X-96437Y426083D01*
X-107953D01*
X-109331Y427461D01*
X-109429Y427559D01*
Y439075D01*
Y443996D01*
X-107756Y445669D01*
X-91319D01*
X-90138Y446850D01*
X-90039Y446949D01*
X-72126D01*
X-70453Y448622D01*
Y476279D01*
Y476673D01*
Y480217D01*
Y483957D01*
X-71516Y485020D01*
X-71516Y485020D01*
X-71683Y485424D01*
D01*
X-71683Y485424D01*
X-72026Y485870D01*
X-72324Y486259D01*
X-72324Y486259D01*
X-72324Y486259D01*
X-72678Y486613D01*
X-72678Y486613D01*
X-72678Y486613D01*
X-73118Y486950D01*
X-73513Y487254D01*
X-73513Y487254D01*
X-73513Y487254D01*
X-73799Y487372D01*
Y496555D01*
Y520276D01*
X-70551Y523524D01*
X-57953D01*
X-54803Y519105D01*
D02*
G37*
G36*
X-404213Y469291D02*
Y466831D01*
Y451083D01*
X-406083Y449213D01*
X-407461Y447835D01*
Y438386D01*
Y434252D01*
X-408543Y433169D01*
X-409035Y432677D01*
X-419173D01*
X-420157Y433661D01*
X-420256Y433760D01*
Y470276D01*
X-417598Y472933D01*
X-407854D01*
X-404213Y469291D01*
D02*
G37*
G36*
X-110315Y498327D02*
Y484646D01*
Y483760D01*
X-109134Y483760D01*
X-107559Y483760D01*
X-101654Y483760D01*
X-97717Y483760D01*
X-75531D01*
X-75177Y483406D01*
X-75177Y479528D01*
X-75177Y477067D01*
X-75177Y472835D01*
Y467618D01*
X-75177Y464173D01*
Y453051D01*
X-76949Y451280D01*
X-79114D01*
X-86102Y451279D01*
X-91516D01*
X-92894Y449902D01*
X-125472D01*
X-126394Y448980D01*
X-129559D01*
Y445815D01*
X-139091Y436283D01*
X-140299D01*
Y435075D01*
X-147323Y428051D01*
Y406201D01*
Y396358D01*
X-150472Y393209D01*
X-162382D01*
X-165039Y395866D01*
Y405020D01*
X-164941Y438091D01*
X-154262Y448770D01*
X-141516Y461516D01*
X-141516Y483758D01*
X-129017Y483761D01*
X-129016Y497342D01*
X-125374Y500984D01*
X-112972D01*
X-110315Y498327D01*
D02*
G37*
G36*
X-285709Y499409D02*
X-280197Y493898D01*
Y437894D01*
X-280197Y432480D01*
X-268337Y420620D01*
X-260856Y413140D01*
X-257313Y409596D01*
X-256772Y409055D01*
X-254705Y406988D01*
Y405413D01*
Y397933D01*
Y397342D01*
X-256772Y395276D01*
X-257559Y394488D01*
X-267500D01*
X-277441Y404429D01*
X-296142Y423130D01*
Y483465D01*
Y484547D01*
X-301555Y489961D01*
X-304016Y492421D01*
Y494685D01*
Y501083D01*
X-302736Y502362D01*
X-302343Y502756D01*
X-289055D01*
X-285709Y499409D01*
D02*
G37*
G36*
X-328327Y528937D02*
X-327933Y528543D01*
Y513386D01*
Y513287D01*
X-327146Y512500D01*
X-327047Y512402D01*
X-323602D01*
X-322520Y511319D01*
X-322224Y511024D01*
Y501181D01*
Y496457D01*
X-322618Y496063D01*
X-340827D01*
X-342303Y497539D01*
X-342402Y497638D01*
Y504134D01*
Y506496D01*
X-345059Y509154D01*
X-345354Y509449D01*
X-376063D01*
X-380000Y505512D01*
X-381968Y503543D01*
X-419665D01*
X-421732Y505610D01*
Y519193D01*
Y520276D01*
X-419665Y522342D01*
X-386299D01*
X-383937Y524705D01*
X-381870Y526772D01*
X-347126D01*
X-344961Y528937D01*
X-344370Y529528D01*
X-328917D01*
X-328327Y528937D01*
D02*
G37*
G36*
X-287579Y527461D02*
X-287087Y526968D01*
Y520768D01*
Y515453D01*
X-288563Y513976D01*
X-288957Y513583D01*
X-322126D01*
X-323996Y515453D01*
Y528346D01*
X-323996D01*
X-322421Y529921D01*
X-290039D01*
X-287579Y527461D01*
D02*
G37*
G36*
X-367205Y495669D02*
X-354114D01*
X-352933Y494488D01*
Y456791D01*
Y456201D01*
X-354016Y455118D01*
X-368878D01*
X-370059Y456299D01*
X-370551Y456791D01*
Y494291D01*
X-369370Y495472D01*
X-369173Y495669D01*
X-367205Y495669D01*
D02*
G37*
G36*
X-321437Y479134D02*
X-321142Y478839D01*
Y464468D01*
Y459842D01*
X-322717Y458268D01*
X-322913Y458071D01*
X-338662D01*
X-341220Y460630D01*
X-341614Y461024D01*
Y477953D01*
Y479429D01*
X-340531Y480512D01*
X-322815D01*
X-321437Y479134D01*
D02*
G37*
G36*
X-5984Y371850D02*
X-4803Y370669D01*
Y366339D01*
Y353543D01*
X-6673Y351673D01*
X-17402D01*
X-17500Y351575D01*
X-19665Y349409D01*
Y347539D01*
Y335433D01*
X-20059Y335039D01*
X-22618Y332480D01*
X-44469D01*
X-46536Y334547D01*
Y356693D01*
Y365453D01*
X-44764Y367224D01*
X-43878Y368110D01*
X-23209D01*
X-19764Y371555D01*
X-19272Y372047D01*
X-6181D01*
X-5984Y371850D01*
D02*
G37*
G36*
X-376752Y472638D02*
Y456595D01*
Y444095D01*
X-374390Y441732D01*
X-354114D01*
X-352638Y440256D01*
Y426673D01*
Y425984D01*
X-354213Y424409D01*
X-376850D01*
X-380197Y421063D01*
Y417864D01*
Y350246D01*
X-422224D01*
Y417864D01*
X-404440D01*
X-404648Y418364D01*
X-394665Y428346D01*
Y434547D01*
Y472539D01*
X-393091Y474114D01*
X-378228D01*
X-376752Y472638D01*
D02*
G37*
G36*
X-37776Y287303D02*
X-75669D01*
Y325984D01*
X-37776D01*
Y287303D01*
D02*
G37*
G36*
X21465Y326772D02*
X-6772D01*
X-8445Y328445D01*
X-8937Y328937D01*
Y337598D01*
Y344390D01*
X-7953Y345374D01*
X-6575Y346752D01*
X2382D01*
X4941Y349311D01*
X6319Y350689D01*
Y370965D01*
X7992Y372638D01*
X21465D01*
Y326772D01*
D02*
G37*
G36*
X-42599Y396161D02*
X-42500Y396063D01*
X-27638D01*
X-25374Y393799D01*
X-25177Y393602D01*
Y384941D01*
Y383563D01*
X-26358Y382382D01*
X-26555Y382185D01*
X-34429D01*
X-41516Y382185D01*
X-43583Y380118D01*
X-43583Y377264D01*
X-45551Y375295D01*
X-60020D01*
X-61398Y373917D01*
Y363583D01*
Y361024D01*
X-63071Y359350D01*
X-63169Y359252D01*
X-78425D01*
X-80197Y361024D01*
X-80689Y361516D01*
Y374508D01*
Y383563D01*
X-78524Y385728D01*
X-70551Y393701D01*
Y402756D01*
X-67894Y405413D01*
X-51850D01*
X-42599Y396161D01*
D02*
G37*
G36*
X-11398Y414665D02*
X-6968Y410236D01*
X4941D01*
X7500Y407677D01*
Y385728D01*
Y384941D01*
X5827Y383268D01*
X-9724D01*
X-11496Y385039D01*
X-15138Y388681D01*
Y392815D01*
Y396752D01*
X-34823Y416437D01*
X-35512Y417126D01*
X-66319D01*
X-68583Y419390D01*
Y425886D01*
Y429626D01*
X-67008Y431201D01*
X-27933D01*
X-11398Y414665D01*
D02*
G37*
G36*
X-354114Y378839D02*
X-354213Y378740D01*
Y363091D01*
X-356378Y360925D01*
X-356476Y360827D01*
X-369173D01*
X-371142Y362795D01*
X-371831Y363484D01*
Y378642D01*
X-369468Y380906D01*
X-356181D01*
X-354114Y378839D01*
D02*
G37*
G36*
X-136988Y380315D02*
X-143189Y386516D01*
X-137136Y392569D01*
X-136988D01*
X-136988Y380315D01*
D02*
G37*
D10*
X-312677Y295768D02*
D03*
X-322126D02*
D03*
X-339055Y355906D02*
D03*
X-348504D02*
D03*
X-338957Y347342D02*
D03*
X-348406D02*
D03*
X-295453Y133465D02*
D03*
X-304902D02*
D03*
X-190728Y181201D02*
D03*
X-181280D02*
D03*
X-326358Y435138D02*
D03*
X-335807D02*
D03*
X-264055Y193504D02*
D03*
X-254606D02*
D03*
X-264449Y203150D02*
D03*
X-273898D02*
D03*
X-289547Y330906D02*
D03*
X-298996D02*
D03*
X-148209Y63189D02*
D03*
X-157657D02*
D03*
X-340630Y159547D02*
D03*
X-331181D02*
D03*
X-377343Y175000D02*
D03*
X-367894D02*
D03*
X-399291Y174902D02*
D03*
X-389843D02*
D03*
X-385118Y241535D02*
D03*
X-394567D02*
D03*
X-385118Y251575D02*
D03*
X-394567D02*
D03*
X-44272Y242618D02*
D03*
X-53720D02*
D03*
X-385118Y231102D02*
D03*
X-394567D02*
D03*
X-190728Y167717D02*
D03*
X-181280D02*
D03*
Y158760D02*
D03*
X-190728D02*
D03*
X-155098Y216437D02*
D03*
X-164547D02*
D03*
X-72224Y242618D02*
D03*
X-62776D02*
D03*
D11*
X-313071Y304331D02*
D03*
Y313779D02*
D03*
X-321929Y304331D02*
D03*
Y313779D02*
D03*
X-342106Y305610D02*
D03*
Y315059D02*
D03*
X-133543Y429331D02*
D03*
Y419882D02*
D03*
X-120650Y318602D02*
D03*
Y328051D02*
D03*
X-84626Y-77854D02*
D03*
Y-86122D02*
D03*
X-198019Y307776D02*
D03*
Y298327D02*
D03*
X-207627Y307776D02*
D03*
Y298327D02*
D03*
X-217235Y307775D02*
D03*
Y298327D02*
D03*
X-181378Y201279D02*
D03*
Y191831D02*
D03*
X-282756Y233563D02*
D03*
Y243012D02*
D03*
X-273307Y233465D02*
D03*
Y242913D02*
D03*
X-142697Y307776D02*
D03*
Y298327D02*
D03*
X-138268Y72736D02*
D03*
Y63287D02*
D03*
X-152304Y307776D02*
D03*
Y298327D02*
D03*
X-265274Y298327D02*
D03*
Y307776D02*
D03*
X-255666D02*
D03*
Y298327D02*
D03*
X-246059D02*
D03*
Y307776D02*
D03*
X-236451D02*
D03*
Y298327D02*
D03*
X-226843D02*
D03*
Y307776D02*
D03*
X-372224Y251673D02*
D03*
Y242224D02*
D03*
X-372716Y212402D02*
D03*
Y221850D02*
D03*
X-222815Y119685D02*
D03*
Y129134D02*
D03*
X-413268Y211614D02*
D03*
Y202165D02*
D03*
X-150965Y191831D02*
D03*
Y201280D02*
D03*
X-150645Y256890D02*
D03*
Y266339D02*
D03*
X-160561Y256890D02*
D03*
Y266339D02*
D03*
X-140728Y256890D02*
D03*
Y266339D02*
D03*
X-170945Y191929D02*
D03*
Y201378D02*
D03*
X-160905Y201280D02*
D03*
Y191831D02*
D03*
X-326555Y13878D02*
D03*
Y4429D02*
D03*
X-176063Y298228D02*
D03*
Y307677D02*
D03*
X-185906Y298228D02*
D03*
Y307677D02*
D03*
X-274882Y307776D02*
D03*
Y298327D02*
D03*
X-163366Y298228D02*
D03*
Y307677D02*
D03*
D12*
X-295256Y409941D02*
D03*
X-304311D02*
D03*
X-313366D02*
D03*
D13*
X-304311Y385138D02*
D03*
D14*
X-309803Y367224D02*
D03*
X-314803D02*
D03*
X-319803D02*
D03*
X-324803D02*
D03*
Y325295D02*
D03*
X-319803D02*
D03*
X-314803D02*
D03*
X-309803D02*
D03*
D15*
X-186398Y26969D02*
D03*
Y-3347D02*
D03*
X-279508Y26378D02*
D03*
Y-3937D02*
D03*
X-361496Y463583D02*
D03*
Y433268D02*
D03*
X-361693Y487500D02*
D03*
Y517815D02*
D03*
X-208346Y26969D02*
D03*
Y-3347D02*
D03*
X-411846Y512587D02*
D03*
X-386272Y465646D02*
D03*
D16*
X-34331Y361910D02*
D03*
Y389272D02*
D03*
D17*
X-110315Y384941D02*
D03*
X-124488D02*
D03*
X-252047Y386811D02*
D03*
X-266221D02*
D03*
X-239744Y386713D02*
D03*
X-225571D02*
D03*
X-69370Y496358D02*
D03*
X-83543D02*
D03*
X-86890Y401575D02*
D03*
X-101063D02*
D03*
X-325768Y449902D02*
D03*
X-339941D02*
D03*
X-101063Y414272D02*
D03*
X-86890D02*
D03*
D18*
X-310512Y450000D02*
D03*
Y464173D02*
D03*
X-246437Y94193D02*
D03*
D19*
X-237756Y240945D02*
D03*
Y239370D02*
D03*
Y237795D02*
D03*
Y236220D02*
D03*
Y234646D02*
D03*
Y233071D02*
D03*
Y231496D02*
D03*
Y229921D02*
D03*
Y228346D02*
D03*
Y226772D02*
D03*
Y225197D02*
D03*
Y223622D02*
D03*
Y222047D02*
D03*
Y220472D02*
D03*
Y218898D02*
D03*
Y217323D02*
D03*
X-204921D02*
D03*
Y218898D02*
D03*
Y220472D02*
D03*
Y222047D02*
D03*
Y223622D02*
D03*
Y225197D02*
D03*
Y226772D02*
D03*
Y228346D02*
D03*
Y229921D02*
D03*
Y231496D02*
D03*
Y233071D02*
D03*
Y234646D02*
D03*
Y236220D02*
D03*
Y237795D02*
D03*
Y239370D02*
D03*
Y240945D02*
D03*
D20*
X-209528Y245551D02*
D03*
X-211102D02*
D03*
X-212677D02*
D03*
X-214252D02*
D03*
X-215827D02*
D03*
X-217402D02*
D03*
X-218976D02*
D03*
X-220551D02*
D03*
X-222126D02*
D03*
X-223701D02*
D03*
X-225276D02*
D03*
X-226851D02*
D03*
X-228425D02*
D03*
X-230000D02*
D03*
X-231575D02*
D03*
X-233150D02*
D03*
Y212717D02*
D03*
X-231575D02*
D03*
X-230000D02*
D03*
X-228425D02*
D03*
X-226851D02*
D03*
X-225276D02*
D03*
X-223701D02*
D03*
X-222126D02*
D03*
X-220551D02*
D03*
X-218976D02*
D03*
X-217402D02*
D03*
X-215827D02*
D03*
X-214252D02*
D03*
X-212677D02*
D03*
X-211102D02*
D03*
X-209528D02*
D03*
D21*
X-317992Y88681D02*
D03*
Y49311D02*
D03*
D22*
X-308307Y27067D02*
D03*
X-326496D02*
D03*
X-162126Y46850D02*
D03*
X-143937D02*
D03*
X-345492Y173917D02*
D03*
X-327303D02*
D03*
X-335945Y522047D02*
D03*
X-317756D02*
D03*
X-306417Y150197D02*
D03*
X-288228D02*
D03*
X-117342Y495177D02*
D03*
X-99154D02*
D03*
X-65827Y255413D02*
D03*
X-47638D02*
D03*
D23*
X-58937Y-63071D02*
D03*
Y-73071D02*
D03*
Y-68071D02*
D03*
Y-78071D02*
D03*
Y-83071D02*
D03*
Y-88071D02*
D03*
D24*
X-42795Y-98622D02*
D03*
Y-52559D02*
D03*
X-8150D02*
D03*
Y-98622D02*
D03*
D25*
X-37284Y442756D02*
D03*
Y424567D02*
D03*
X-209134Y115118D02*
D03*
Y133307D02*
D03*
X-31280Y339311D02*
D03*
Y321122D02*
D03*
X-83740Y439823D02*
D03*
Y458012D02*
D03*
X-394961Y197303D02*
D03*
Y215492D02*
D03*
X-343583Y394134D02*
D03*
Y375945D02*
D03*
D26*
X-331772Y504036D02*
D03*
Y472539D02*
D03*
X-675768Y199606D02*
D03*
Y168110D02*
D03*
D27*
X-601980Y187724D02*
D03*
X-638909D02*
D03*
Y167252D02*
D03*
X-601980D02*
D03*
D28*
X-148209Y3106D02*
D03*
Y21106D02*
D03*
D29*
X-120453Y12106D02*
D03*
D30*
X-102638Y437106D02*
D03*
X-120638D02*
D03*
X-47575Y274213D02*
D03*
X-65575D02*
D03*
D31*
X-111638Y464862D02*
D03*
X-56575Y301969D02*
D03*
D32*
X-359921Y3937D02*
D03*
X-401260D02*
D03*
X-398996Y115650D02*
D03*
X-357658D02*
D03*
D33*
X-1161Y397146D02*
D03*
Y438484D02*
D03*
X-70650Y331102D02*
D03*
Y372441D02*
D03*
D34*
X-278838Y341043D02*
D03*
X-288839D02*
D03*
Y369980D02*
D03*
X-278838D02*
D03*
X-110630Y369390D02*
D03*
X-120630D02*
D03*
Y340453D02*
D03*
X-110630D02*
D03*
X-180709Y143209D02*
D03*
X-190709D02*
D03*
Y114272D02*
D03*
X-180709D02*
D03*
D35*
X-243386Y-4232D02*
D03*
Y25689D02*
D03*
X7500Y334744D02*
D03*
Y304823D02*
D03*
D36*
X13898Y362106D02*
D03*
X-12480D02*
D03*
D37*
X-295650Y497638D02*
D03*
Y520275D02*
D03*
D38*
X-336890Y136909D02*
D03*
X-340630Y147736D02*
D03*
X-333150D02*
D03*
X-296831Y121161D02*
D03*
X-304311D02*
D03*
X-300571Y110335D02*
D03*
X-372717Y197343D02*
D03*
X-368976Y186516D02*
D03*
X-376457D02*
D03*
X-124390Y403937D02*
D03*
X-116910D02*
D03*
X-120650Y414764D02*
D03*
D39*
X-344862Y247638D02*
D03*
Y240158D02*
D03*
X-356280D02*
D03*
Y243898D02*
D03*
Y247638D02*
D03*
D40*
X-362874Y374350D02*
D03*
Y394350D02*
D03*
D41*
X-404606Y384350D02*
D03*
D42*
X-59035Y393898D02*
D03*
Y423819D02*
D03*
D43*
X-356972Y47146D02*
D03*
Y53839D02*
D03*
Y60532D02*
D03*
Y67225D02*
D03*
Y73917D02*
D03*
D44*
X-389744Y60532D02*
D03*
D45*
X-237677Y360433D02*
D03*
X-233740D02*
D03*
X-229803D02*
D03*
X-214055D02*
D03*
X-217992D02*
D03*
X-221929D02*
D03*
X-225866D02*
D03*
X-198307D02*
D03*
X-202244D02*
D03*
X-206181D02*
D03*
X-210118D02*
D03*
X-194370D02*
D03*
Y347205D02*
D03*
X-210118D02*
D03*
X-206181D02*
D03*
X-202244D02*
D03*
X-198307D02*
D03*
X-225866D02*
D03*
X-221929D02*
D03*
X-217992D02*
D03*
X-214055D02*
D03*
X-229803D02*
D03*
X-233740D02*
D03*
X-237677D02*
D03*
X-241614Y360433D02*
D03*
Y347205D02*
D03*
X-245551Y360433D02*
D03*
Y347205D02*
D03*
X-190433D02*
D03*
X-186496D02*
D03*
Y360433D02*
D03*
X-190433D02*
D03*
D46*
X-386496Y441732D02*
D03*
X-413858D02*
D03*
D47*
X-82854Y253543D02*
D03*
X-78917D02*
D03*
X-80886Y259449D02*
D03*
X-123799Y57480D02*
D03*
X-127736D02*
D03*
X-125768Y51575D02*
D03*
D48*
X-21240Y-33228D02*
X-10000Y-21988D01*
X-21240Y-56398D02*
Y-33228D01*
X-47913Y-83071D02*
X-21240Y-56398D01*
X-29213Y-26898D02*
X-20000Y-17685D01*
X-29213Y-54429D02*
Y-26898D01*
X-37854Y-63071D02*
X-29213Y-54429D01*
X-20000Y-17685D02*
Y0D01*
X-10000Y-21988D02*
Y0D01*
X-58937Y-63071D02*
X-37854D01*
X-58937Y-83071D02*
X-47913D01*
X-30000Y-10138D02*
Y0D01*
X-68090Y-48228D02*
X-30000Y-10138D01*
X-68090Y-64764D02*
Y-48228D01*
Y-64764D02*
X-64784Y-68071D01*
X-58937D01*
X-67874Y-78071D02*
X-58937D01*
X-73103Y-72842D02*
X-67874Y-78071D01*
X-73103Y-72842D02*
Y-44481D01*
X-40000Y-11378D01*
Y0D01*
X-77244Y-76870D02*
Y-12106D01*
X-50098Y-98D02*
X-50000Y0D01*
X-65236Y-98D02*
X-50098D01*
X-77244Y-12106D02*
X-65236Y-98D01*
X-75571Y-114961D02*
X-4705D01*
X3563Y-106693D01*
Y-3563D01*
X0Y0D02*
X3563Y-3563D01*
X-331476Y358957D02*
X-312854D01*
X-309823Y361988D01*
X-330689Y367224D02*
X-324803D01*
X-312677Y288583D02*
Y295768D01*
Y288583D02*
X-312579Y288484D01*
X-331772Y304331D02*
X-321929D01*
X-313071Y296162D02*
X-312677Y295768D01*
X-313071Y296162D02*
Y304331D01*
X-322126Y295768D02*
X-321929Y295965D01*
Y304331D01*
X-319803Y315905D02*
Y325295D01*
X-321929Y313779D02*
X-319803Y315905D01*
X-314803Y315512D02*
X-313071Y313779D01*
X-314803Y315512D02*
Y325295D01*
X-309823Y361988D02*
Y366634D01*
X-334528Y355906D02*
X-331476Y358957D01*
X-339055Y355906D02*
X-334528D01*
X-335906Y362008D02*
X-330689Y367224D01*
X-345256Y362008D02*
X-335906D01*
X-348406Y358858D02*
X-345256Y362008D01*
X-348504Y358760D02*
X-348406Y358858D01*
X-348504Y355906D02*
Y358760D01*
X-324803Y367224D02*
X-319803D01*
X-278838Y363268D02*
Y369980D01*
X-280689Y361417D02*
X-278838Y363268D01*
X-295256Y361417D02*
X-280689D01*
X-298012Y364173D02*
X-295256Y361417D01*
X-298012Y364173D02*
Y368209D01*
X-298209Y368406D02*
X-298012Y368209D01*
X-343583Y375945D02*
X-332913D01*
X-304311Y385138D02*
Y409941D01*
Y372146D02*
Y385138D01*
X-339055Y355906D02*
X-338957Y355807D01*
Y347342D02*
Y355807D01*
X-358937Y355906D02*
X-348504D01*
X-362726Y359695D02*
Y363976D01*
Y359695D02*
X-358937Y355906D01*
X-275374Y379626D02*
X-273110Y377362D01*
X-285610Y379626D02*
X-275374D01*
X-288465Y376772D02*
X-285610Y379626D01*
X-252047Y380906D02*
Y386811D01*
X-255591Y377362D02*
X-252047Y380906D01*
X-273110Y377362D02*
X-255591D01*
X-288465Y370354D02*
Y376772D01*
X-288839Y369980D02*
X-288465Y370354D01*
X-194370Y347205D02*
Y360433D01*
X-144468Y315748D02*
X-142697Y313976D01*
X-186496Y347205D02*
X-181535D01*
X-150079Y315748D01*
X-144468D01*
X-142697Y307776D02*
Y313976D01*
X-176063Y307677D02*
Y311713D01*
X-198307Y333957D02*
X-176063Y311713D01*
X-198307Y333957D02*
Y347205D01*
X-176850Y335039D02*
X-152304Y310493D01*
Y307776D02*
Y310493D01*
X-185906Y307677D02*
Y313976D01*
X-202244Y330315D02*
X-185906Y313976D01*
X-210118Y322638D02*
Y347205D01*
X-207627Y307776D02*
Y320147D01*
X-210118Y322638D02*
X-207627Y320147D01*
X-206181Y327461D02*
Y347205D01*
X-198019Y307776D02*
Y319299D01*
X-206181Y327461D02*
X-198019Y319299D01*
X-202244Y330315D02*
Y347205D01*
X-190433Y339764D02*
Y347205D01*
Y339764D02*
X-185709Y335039D01*
X-176850D01*
X-262283Y324213D02*
X-251752D01*
X-274882Y307776D02*
Y311614D01*
X-251752Y324213D02*
X-237677Y338287D01*
Y347205D01*
X-258740Y320177D02*
X-249291D01*
X-265274Y313643D02*
X-258740Y320177D01*
X-265274Y307776D02*
Y313643D01*
X-249291Y320177D02*
X-233740Y335728D01*
X-229803Y332677D02*
Y347205D01*
X-246634Y315846D02*
X-229803Y332677D01*
X-252835Y315846D02*
X-246634D01*
X-225866Y330019D02*
Y347205D01*
X-246059Y309827D02*
X-225866Y330019D01*
X-246059Y307776D02*
Y309827D01*
X-255666Y313015D02*
X-252835Y315846D01*
X-233740Y335728D02*
Y347205D01*
X-221929Y324606D02*
Y347205D01*
X-236451Y310085D02*
X-221929Y324606D01*
X-236451Y307776D02*
Y310085D01*
X-255666Y307776D02*
Y313015D01*
X-217992Y321654D02*
Y347205D01*
X-226843Y312803D02*
X-217992Y321654D01*
X-226843Y307776D02*
Y312803D01*
X-214055Y316929D02*
Y347205D01*
X-217235Y313749D02*
X-214055Y316929D01*
X-217235Y307775D02*
Y313749D01*
X-77244Y-76870D02*
X-66043Y-88071D01*
X-58937D01*
X-274882Y311614D02*
X-262283Y324213D01*
X-245551Y347205D02*
Y360433D01*
X-241614Y347205D02*
Y360433D01*
X-237677Y347205D02*
Y360433D01*
X-233740Y347205D02*
Y360433D01*
X-229803Y347205D02*
Y360433D01*
X-225866Y347205D02*
Y360433D01*
X-221929Y347205D02*
Y360433D01*
X-217992Y347205D02*
Y360433D01*
X-214055Y347205D02*
Y360433D01*
X-210118Y347205D02*
Y360433D01*
X-206181Y347205D02*
Y360433D01*
X-202244Y347205D02*
Y360433D01*
X-198307Y347205D02*
Y360433D01*
X-190433Y347205D02*
Y360433D01*
X-186496Y347205D02*
Y360433D01*
X-241614Y340748D02*
Y347205D01*
X-243878Y338484D02*
X-241614Y340748D01*
X-255394Y338484D02*
X-243878D01*
X-78917Y249311D02*
X-72224Y242618D01*
X-78917Y249311D02*
Y253543D01*
X-283051Y387008D02*
X-282854Y386811D01*
X-266221D01*
X-295256Y399213D02*
Y409941D01*
Y399213D02*
X-283051Y387008D01*
X-335807Y435138D02*
Y438780D01*
X-339941Y442913D02*
X-335807Y438780D01*
X-339941Y442913D02*
Y449902D01*
X-194370Y336811D02*
Y347205D01*
Y336811D02*
X-165236Y307677D01*
X-163366D01*
X-309823Y366634D02*
X-304311Y372146D01*
X-93779Y-96752D02*
Y-79232D01*
X-91417Y-76870D01*
X-85610D01*
X-84626Y-77854D01*
X-93779Y-96752D02*
X-75571Y-114961D01*
X-348406Y347342D02*
Y358858D01*
D49*
X-338957Y325295D02*
X-324803D01*
X-341910Y322342D02*
X-338957Y325295D01*
X-342106Y322146D02*
X-341910Y322342D01*
X-342106Y315059D02*
Y322146D01*
X-303524Y281594D02*
Y310728D01*
Y277697D02*
Y281594D01*
X-324685D02*
X-303524D01*
X-340827Y297736D02*
X-324685Y281594D01*
X-340827Y297736D02*
Y305217D01*
X-298996Y324902D02*
Y330906D01*
Y315256D02*
Y324902D01*
X-299390Y325295D02*
X-298996Y324902D01*
X-309803Y325295D02*
X-299390D01*
X-314803Y367224D02*
Y376929D01*
X-325768Y387894D02*
X-314803Y376929D01*
X-313366Y409941D02*
Y418405D01*
X-312382Y268839D02*
X-303524Y277697D01*
Y310728D02*
X-298996Y315256D01*
X-289547Y330906D02*
Y340335D01*
X-288839Y341043D01*
X-261890Y341496D02*
X-256181Y347205D01*
X-261890Y332677D02*
Y341496D01*
X-280197Y314370D02*
X-261890Y332677D01*
X-287087Y314370D02*
X-280197D01*
X-293780Y307677D02*
X-287087Y314370D01*
X-256181Y347205D02*
X-245551D01*
X-62776Y234744D02*
X-62677Y234646D01*
X-62776Y234744D02*
Y242618D01*
X-128413Y429331D02*
X-120638Y437106D01*
X-133543Y429331D02*
X-128413D01*
X-133543Y419882D02*
X-126555D01*
X-121437Y414764D01*
X-120650D01*
X-120157Y414272D01*
X-101063D01*
X-136988Y387205D02*
Y410925D01*
X-136890Y411024D01*
X-159386Y3106D02*
X-148209D01*
X-165827Y9547D02*
X-159386Y3106D01*
X-296831Y132087D02*
X-295453Y133465D01*
X-296831Y121161D02*
Y132087D01*
X-150841Y256693D02*
X-150645Y256890D01*
X-158617Y256201D02*
X-158420Y256398D01*
X-148209Y21106D02*
X-147106Y22209D01*
X-159036Y61811D02*
X-157657Y63189D01*
X-159036Y49941D02*
Y61811D01*
X-162126Y46850D02*
X-159036Y49941D01*
X-165827Y9547D02*
Y43150D01*
X-162126Y46850D01*
X-185906Y298228D02*
X-176063D01*
X-372717Y197343D02*
Y209842D01*
X-389843Y174902D02*
X-389744Y175000D01*
X-377343D01*
X-376457Y175886D01*
Y186516D01*
X-385118Y251575D02*
X-385118Y251575D01*
X-310610Y449902D02*
X-310512Y450000D01*
X-325768Y449902D02*
X-310610D01*
X-328425Y504036D02*
X-325571D01*
X-331772D02*
X-328425D01*
X-110630Y330039D02*
Y340453D01*
Y330039D02*
X-110610Y330020D01*
X-254606Y175099D02*
Y193504D01*
X-260531Y169173D02*
X-254606Y175099D01*
X-260531Y160236D02*
Y169173D01*
X-287677Y233563D02*
X-282756D01*
X-273898D01*
X-293780Y239665D02*
X-287677Y233563D01*
X-372716Y221850D02*
X-343287D01*
X-359921Y-6102D02*
Y3937D01*
X-368386Y-14567D02*
X-359921Y-6102D01*
X-412185Y-14567D02*
X-368386D01*
X-417894Y-8858D02*
X-412185Y-14567D01*
X-417894Y-8858D02*
Y155217D01*
X-430394Y167717D02*
X-417894Y155217D01*
X-430394Y167717D02*
Y199803D01*
X-418583Y211614D01*
X-413268D01*
Y253642D01*
X-401555Y265354D01*
X-353720D01*
X-344862Y256496D01*
Y247638D02*
Y256496D01*
X-110630Y369390D02*
Y384626D01*
X-110315Y384941D01*
Y386910D01*
X-129705Y369390D02*
X-120630D01*
X-136988Y376673D02*
X-129705Y369390D01*
X-343287Y221850D02*
X-328917Y236221D01*
Y259941D01*
X-320020Y268839D01*
X-312382D01*
X-310512Y464173D02*
Y488976D01*
X-325571Y504036D02*
X-310512Y488976D01*
X-137579Y386614D02*
X-136988Y387205D01*
Y376673D02*
Y387205D01*
X-103524Y393602D02*
X-101063Y396063D01*
Y401575D01*
X-124488Y393996D02*
X-124094Y393602D01*
X-103524D01*
X-113760Y400787D02*
X-110413D01*
X-116910Y403937D02*
X-113760Y400787D01*
X-176063Y291437D02*
Y298228D01*
Y291437D02*
X-175965Y291339D01*
X-160561Y256890D02*
X-150645D01*
X-160561Y249852D02*
Y256890D01*
Y249852D02*
X-160512Y249803D01*
X-47575Y255476D02*
Y274213D01*
X-47638Y255413D02*
X-47575Y255476D01*
X-44272Y242618D02*
Y252047D01*
X-47638Y255413D02*
X-44272Y252047D01*
X-65575Y255665D02*
Y274213D01*
X-65827Y255413D02*
X-65575Y255665D01*
X-65827Y255413D02*
X-62776Y252362D01*
Y242618D02*
Y252362D01*
X-62775Y242618D02*
X-53720D01*
X-62776Y242618D02*
X-62775Y242618D01*
X-190709Y136594D02*
Y143209D01*
Y136594D02*
X-186791Y132677D01*
X-208287Y114272D02*
X-190709D01*
X-209134Y115118D02*
X-208287Y114272D01*
X-222815Y129134D02*
X-213307D01*
X-209134Y133307D01*
X-148209Y63189D02*
X-147106Y62087D01*
X-148209Y63189D02*
X-138366D01*
X-138268Y63287D01*
X-147106Y22209D02*
Y62087D01*
X-180709Y114272D02*
X-168976D01*
X-157657Y102953D01*
Y63189D02*
Y102953D01*
X-230591Y119685D02*
X-222815D01*
X-236693Y113583D02*
X-230591Y119685D01*
X-236693Y74902D02*
Y113583D01*
X-173209Y132677D02*
X-167402Y138484D01*
Y147539D01*
X-186791Y132677D02*
X-173209D01*
X-325768Y387894D02*
Y449902D01*
X-84626Y-86122D02*
X-77638D01*
X-77441Y-86319D01*
X-110102Y104000D02*
X17500D01*
X-167402Y147539D02*
X-153642D01*
X-110102Y104000D01*
X-293780Y239665D02*
Y307677D01*
X-225571Y386614D02*
X-137579D01*
X-150965Y191831D02*
X-143504D01*
X-143455Y191781D01*
X-340827Y314665D02*
Y315059D01*
X-181378Y158760D02*
Y191831D01*
X-150965D01*
D50*
X-184134Y229429D02*
X-182165Y227461D01*
X-195256Y229429D02*
X-184134D01*
X-199488Y225197D02*
X-195256Y229429D01*
X-204921Y225197D02*
X-199488D01*
X-190335Y223622D02*
X-189252Y224705D01*
X-204921Y223622D02*
X-190335D01*
X-283347Y258465D02*
X-274882Y250000D01*
X-283347Y258465D02*
Y308268D01*
X-152244Y280512D02*
Y297676D01*
X-152304Y298327D02*
X-151949Y297971D01*
X-95846Y249410D02*
X-86988D01*
X-82854Y253543D01*
X-189547Y287205D02*
X-172717D01*
X-203819Y272933D02*
X-189547Y287205D01*
X-217402Y259350D02*
X-203819Y272933D01*
X-217402Y245551D02*
Y259350D01*
X-191811Y293602D02*
Y304429D01*
X-212480Y272933D02*
X-191811Y293602D01*
X-218976Y266437D02*
X-212480Y272933D01*
X-218976Y245551D02*
Y266437D01*
X-198019Y294874D02*
Y298327D01*
X-220551Y272342D02*
X-198019Y294874D01*
X-220551Y245551D02*
Y272342D01*
X-207627Y289287D02*
Y298327D01*
X-222126Y274788D02*
X-207627Y289287D01*
X-222126Y245551D02*
Y274788D01*
X-217235Y283828D02*
Y298327D01*
X-223701Y277362D02*
X-217235Y283828D01*
X-223701Y245551D02*
Y277362D01*
X-199882Y261319D02*
X-188170D01*
X-211102Y250098D02*
X-199882Y261319D01*
X-211102Y245551D02*
Y250098D01*
X-188170Y261319D02*
X-183150Y266339D01*
X-209528Y245551D02*
X-199705D01*
X-196831Y248425D02*
Y256299D01*
X-199705Y245551D02*
X-196831Y248425D01*
X-183150Y266339D02*
X-160561D01*
X-150645D02*
X-140728D01*
X-160561D02*
X-150645D01*
X-204921Y204842D02*
X-191910Y191831D01*
X-204921Y204842D02*
Y217323D01*
X-209528Y194685D02*
Y212717D01*
Y194685D02*
X-196043Y181201D01*
X-190728D01*
X-217402Y177165D02*
Y212717D01*
X-317205Y253937D02*
X-306673D01*
X-237756Y233071D02*
X-204921D01*
X-216811Y220472D02*
X-204921D01*
X-227835Y231496D02*
X-216811Y220472D01*
X-237756Y231496D02*
X-227835D01*
X-204921Y220472D02*
X-180984D01*
X-175965Y215453D01*
X-233150Y182185D02*
Y212717D01*
X-250532Y164803D02*
X-233150Y182185D01*
X-250532Y160236D02*
Y164803D01*
X-231575Y177854D02*
Y212717D01*
X-240531Y168898D02*
X-231575Y177854D01*
X-240531Y160236D02*
Y168898D01*
X-267205Y233563D02*
X-265138Y231496D01*
X-237756D01*
X-258839Y233071D02*
X-237756D01*
X-268780Y243012D02*
X-258839Y233071D01*
X-300276Y222047D02*
X-237756D01*
X-303484Y218839D02*
X-300276Y222047D01*
X-312382Y218839D02*
X-303484D01*
X-173602Y307677D02*
X-170158Y304232D01*
X-176063Y307677D02*
X-173602D01*
X-188563D02*
X-185906D01*
X-191811Y304429D02*
X-188563Y307677D01*
X-306673Y253937D02*
X-302146Y249409D01*
Y236319D02*
Y249409D01*
Y236319D02*
X-292598Y226772D01*
X-237756D01*
X-258642Y239370D02*
X-237756D01*
X-269272Y250000D02*
X-258642Y239370D01*
X-274882Y250000D02*
X-269272D01*
X-250866Y240945D02*
X-237756D01*
X-257756Y247835D02*
X-250866Y240945D01*
X-231575Y245551D02*
Y251280D01*
X-265274Y284979D02*
X-231575Y251280D01*
X-265274Y284979D02*
Y298327D01*
X-255666Y278619D02*
Y298327D01*
X-230000Y245551D02*
Y252953D01*
X-255666Y278619D02*
X-230000Y252953D01*
X-215827Y193996D02*
Y212717D01*
Y193996D02*
X-209724Y187894D01*
X-204921Y239370D02*
X-126083D01*
X-170945Y201378D02*
Y205118D01*
X-164547Y211516D02*
Y215453D01*
X-204921Y236220D02*
X-139547D01*
X-191910Y191831D02*
X-181378D01*
X-372716Y212402D02*
X-337283D01*
X-323209Y226476D01*
Y247933D01*
X-317205Y253937D01*
X-172717Y287205D02*
X-170158Y289764D01*
Y304232D01*
X-218976Y198130D02*
Y212717D01*
X-222323Y194783D02*
X-218976Y198130D01*
X-190728Y167717D02*
Y168898D01*
X-209724Y187894D02*
X-190728Y168898D01*
Y158760D02*
Y167717D01*
X-198012Y134843D02*
X-188957Y125787D01*
X-198012Y134843D02*
Y157776D01*
X-217402Y177165D02*
X-198012Y157776D01*
X-188957Y125787D02*
X-159921D01*
X-123799Y89665D01*
Y57480D02*
Y89665D01*
X-190728Y153740D02*
Y158760D01*
Y153740D02*
X-188465Y151476D01*
X-183248D01*
X-180709Y148937D01*
Y143209D02*
Y148937D01*
X-152244Y297676D02*
X-151949Y297971D01*
X-273898Y233563D02*
X-267205D01*
X-170945Y205118D02*
X-164547Y211516D01*
X-175965Y215453D02*
X-164547D01*
X-52067Y165354D02*
X9055D01*
X17500Y114000D02*
X20496D01*
X-139547Y236220D02*
X-37327Y134000D01*
X17500D01*
X19783Y138878D02*
X21903Y136759D01*
X-34350Y138878D02*
X19783D01*
X-133268Y237795D02*
X-34350Y138878D01*
X-204921Y237795D02*
X-133268D01*
X-126083Y239370D02*
X-52067Y165354D01*
X20496Y114000D02*
X23917Y117421D01*
Y150492D01*
X9055Y165354D02*
X23917Y150492D01*
X17500Y124000D02*
X20161D01*
X21903Y125741D01*
Y136759D01*
X-282756Y243012D02*
X-268780D01*
D51*
X-362874Y394350D02*
X-346358D01*
X-99154Y495177D02*
X-97973Y496358D01*
X-83543D01*
D52*
X-278838Y328917D02*
Y341043D01*
X-299291Y308465D02*
X-278838Y328917D01*
X-299291Y236909D02*
Y308465D01*
X-142697Y281693D02*
Y298327D01*
X-149291Y275098D02*
X-142697Y281693D01*
X-190433Y275098D02*
X-149291D01*
X-214252Y251279D02*
X-190433Y275098D01*
X-214252Y245551D02*
Y251279D01*
X-279508Y218898D02*
X-237756D01*
X-264449Y212008D02*
X-259134Y217323D01*
X-237756D01*
X-150965Y201280D02*
Y209350D01*
X-155098Y213484D02*
X-150965Y209350D01*
X-150965Y201280D02*
X-150965Y201280D01*
X-160905Y201280D02*
X-150965D01*
X-192008Y218898D02*
X-181378Y208268D01*
Y201279D02*
Y208268D01*
X-295158Y225197D02*
X-237756D01*
X-305197Y235236D02*
X-295158Y225197D01*
X-305197Y235236D02*
Y241653D01*
X-312382Y248839D02*
X-305197Y241653D01*
X-299095Y223622D02*
X-237756D01*
X-304311Y228839D02*
X-299095Y223622D01*
X-312382Y228839D02*
X-304311D01*
X-297520Y220472D02*
X-237756D01*
X-304016Y213976D02*
X-297520Y220472D01*
X-316811Y213976D02*
X-304016D01*
X-204921Y229921D02*
Y231496D01*
Y236220D02*
X-204919Y236218D01*
X-204921Y237795D02*
X-204919Y237793D01*
X-236280Y245551D02*
X-233150D01*
X-274882Y284154D02*
X-236280Y245551D01*
X-274882Y284154D02*
Y298327D01*
X-204921Y218898D02*
X-192008D01*
X-319862Y231358D02*
X-312382Y238839D01*
X-319862Y217028D02*
Y231358D01*
Y217028D02*
X-316811Y213976D01*
X-247224Y229921D02*
X-237756D01*
X-248874Y228272D02*
X-247224Y229921D01*
X-226843Y298327D02*
X-225276Y296760D01*
Y245551D02*
Y296760D01*
X-246059Y272358D02*
Y298327D01*
Y272358D02*
X-228425Y254724D01*
Y245551D02*
Y254724D01*
X-236451Y267967D02*
Y298327D01*
Y267967D02*
X-226851Y258366D01*
Y245551D02*
Y258366D01*
X-290653Y228272D02*
X-248874D01*
X-299291Y236909D02*
X-290653Y228272D01*
X-230532Y155374D02*
Y160236D01*
X-235610Y150295D02*
X-230532Y155374D01*
X-251850Y150295D02*
X-235610D01*
X-255197Y153642D02*
X-251850Y150295D01*
X-255197Y153642D02*
Y166339D01*
X-241516Y180020D01*
Y194685D01*
X-249980Y203150D02*
X-241516Y194685D01*
X-264449Y203150D02*
Y212008D01*
X-264449Y193897D02*
Y203150D01*
Y193897D02*
X-264055Y193504D01*
X-264449Y203150D02*
X-264449D01*
X-249980D01*
X-155098Y213484D02*
Y216437D01*
X-204921Y231496D02*
X-160216D01*
X-155098Y226378D01*
Y216437D02*
Y226378D01*
X-327303Y169232D02*
Y173917D01*
X-331181Y165354D02*
X-327303Y169232D01*
X-331181Y159547D02*
Y165354D01*
X-333150Y147736D02*
X-331181Y149705D01*
Y159547D01*
X-294222Y187155D02*
Y204183D01*
X-307461Y173917D02*
X-294222Y187155D01*
Y204183D02*
X-279508Y218898D01*
X-327303Y173917D02*
X-307461D01*
D53*
X-252047Y386811D02*
X-251949Y386713D01*
X-239744D01*
X-69370Y496358D02*
Y507992D01*
Y492421D02*
Y496358D01*
X-297126Y-30807D02*
X-288622Y-39311D01*
Y-62598D02*
Y-39311D01*
X-297126Y-30807D02*
Y3937D01*
X-288622Y-82590D02*
Y-62598D01*
X-257264D01*
X-249004Y-70858D01*
Y-82590D02*
Y-70858D01*
X-413268Y192205D02*
Y202165D01*
X-420484Y184988D02*
X-413268Y192205D01*
X-394961Y241535D02*
Y251181D01*
Y215492D02*
Y241535D01*
Y251181D02*
X-394567Y251575D01*
X-399291Y174902D02*
Y189173D01*
X-394370Y194095D01*
Y197205D01*
X-399378Y174988D02*
X-399291Y174902D01*
X-420484Y174988D02*
X-399378D01*
X-537185Y162500D02*
X-532165Y167520D01*
X-597228Y162500D02*
X-537185D01*
X-532165Y167520D02*
Y178543D01*
X-538610Y184988D02*
X-532165Y178543D01*
X-550406Y184988D02*
X-538610D01*
X-601980Y167252D02*
X-597228Y162500D01*
X-580984Y161319D02*
X-580689Y161614D01*
X-580984Y142539D02*
Y161319D01*
X-572705Y174988D02*
X-550406D01*
X-580098Y182382D02*
X-572705Y174988D01*
X-580098Y182382D02*
Y201654D01*
X-580984Y202539D02*
X-580098Y201654D01*
X-246437Y57382D02*
Y94193D01*
X-326496Y13937D02*
Y27067D01*
X-326555Y13878D02*
X-326496Y13937D01*
X-359921Y3937D02*
X-356972Y6886D01*
Y47146D01*
X-398996Y69784D02*
X-389744Y60532D01*
X-401260Y113386D02*
X-398996Y115650D01*
X-69370Y507992D02*
X-62894Y514468D01*
X-69370Y492421D02*
X-62126Y485177D01*
X-398996Y115650D02*
Y120177D01*
X-367894Y151279D02*
Y175000D01*
X-346575D01*
X-345492Y173917D01*
X-398996Y120177D02*
X-367894Y151279D01*
X-287972Y26378D02*
X-279508D01*
X-279508D01*
X-281772Y28642D02*
X-279508Y26378D01*
X-279360Y26230D01*
X-86890Y393012D02*
Y401575D01*
X-95059Y384842D02*
X-86890Y393012D01*
X-95059Y339075D02*
Y384842D01*
Y339075D02*
X-87087Y331102D01*
X-70650D01*
X-140728Y256890D02*
X-131772D01*
X-282756Y243012D02*
Y250000D01*
X-282756Y250000D02*
X-282756Y250000D01*
X-297126Y17224D02*
X-287972Y26378D01*
X-297126Y3937D02*
Y17224D01*
X-62126Y471260D02*
Y485177D01*
X-359921Y3937D02*
X-297126D01*
X-401260D02*
Y113386D01*
D54*
X-163366Y280906D02*
Y298228D01*
X-88071Y259744D02*
X-80984D01*
X-88661D02*
X-88071D01*
X-80886Y259449D02*
X-80787Y259547D01*
X-138268Y72736D02*
X-132559D01*
X-127736Y67913D01*
Y57480D02*
Y67913D01*
X-125768Y51575D02*
X-121929D01*
X-118189Y55315D01*
Y97441D01*
X-80984Y259744D02*
X-80787Y259547D01*
D55*
X-99154Y493209D02*
X-97973Y494390D01*
X-68583Y414272D02*
X-59035Y423819D01*
X-86890Y414272D02*
X-68583D01*
X-59035Y423819D02*
X-38032D01*
X-37284Y424567D01*
X-28583D01*
X-1161Y397146D01*
D56*
X-113268Y517421D02*
X-99154Y503307D01*
X-122894Y517421D02*
X-113268D01*
X-99154Y495177D02*
Y503307D01*
X-317756Y522047D02*
X-297422D01*
X-295650Y520275D01*
X-110846Y-82590D02*
Y-50256D01*
X-130847Y-82590D02*
Y-58898D01*
X-170217Y-82590D02*
Y-51811D01*
X-208346Y-13681D02*
X-170217Y-51811D01*
X-208346Y-13681D02*
Y-3347D01*
X-189587Y-82590D02*
Y-61772D01*
X-241417Y-9941D02*
X-189587Y-61772D01*
X-250768Y-44685D02*
X-240236D01*
X-209587Y-82590D02*
Y-75335D01*
X-240236Y-44685D02*
X-209587Y-75335D01*
X-186398Y-3347D02*
X-130847Y-58898D01*
X-148209Y-12894D02*
Y3106D01*
X-404606Y384350D02*
Y407382D01*
X-386496Y425492D02*
Y441732D01*
X-148209Y-12894D02*
X-110846Y-50256D01*
X-361693Y463779D02*
X-361496Y463583D01*
X-361693Y463779D02*
Y487500D01*
X-378031Y433268D02*
X-361496D01*
X-386496Y441732D02*
X-378031Y433268D01*
X-386496Y441732D02*
X-386272Y441957D01*
Y465646D01*
X-295650Y497638D02*
X-286004Y487992D01*
Y425886D02*
Y487992D01*
Y425886D02*
X-262677Y402559D01*
X-361693Y517815D02*
X-342205D01*
X-381347D02*
X-361693D01*
X-386272Y512890D02*
X-381347Y517815D01*
X-386575Y512587D02*
X-386272Y512890D01*
X-411846Y512587D02*
X-386575D01*
X-675768Y168110D02*
X-673701Y166043D01*
Y138681D02*
Y166043D01*
X-639744Y138681D02*
X-639153Y139272D01*
X-673701Y138681D02*
X-639744D01*
X-639153Y139272D02*
X-638909Y139516D01*
Y167252D01*
X-281772Y28642D02*
Y38583D01*
X-269961Y50394D01*
X-31831Y320571D02*
X-31280Y321122D01*
X-279508Y-15945D02*
X-250768Y-44685D01*
X-279508Y-15945D02*
Y-3937D01*
X-397840Y414149D02*
X-386496Y425492D01*
X-241417Y-9941D02*
Y-4232D01*
X-58051Y320571D02*
X-31831D01*
X-342205Y517815D02*
X-328425Y504036D01*
D57*
X-251850Y50984D02*
X-251260Y50394D01*
X-317992Y49311D02*
X-312579Y43898D01*
X-312973Y110335D02*
X-300571D01*
X-306417Y150197D02*
X-304311Y148091D01*
X-346732Y-72736D02*
X-335610D01*
X-309921Y-98425D01*
X-273799D01*
X-268622Y-93248D01*
Y-82590D01*
X-342992Y67225D02*
X-337382Y72835D01*
Y87697D01*
X-356972Y67225D02*
X-342992D01*
X-336398Y88681D02*
X-317992D01*
X-337382Y87697D02*
X-336398Y88681D01*
X-372716Y241535D02*
X-372224Y242028D01*
X-385118Y241535D02*
X-372716D01*
X-389744Y60532D02*
X-376358Y73917D01*
X-356972D01*
X-389744Y60532D02*
X-356972D01*
X-338465Y49311D02*
X-317992D01*
X-342992Y53839D02*
X-338465Y49311D01*
X-356972Y53839D02*
X-342992D01*
X-288228Y150197D02*
X-287579Y149547D01*
Y133366D02*
Y149547D01*
X-295453Y133465D02*
X-295354Y133366D01*
X-287579D01*
X-317992Y88681D02*
X-299784D01*
X-260531Y127933D01*
Y160236D01*
X-120630Y328071D02*
Y340453D01*
X-120650Y328051D02*
X-120630Y328071D01*
X-120650Y296358D02*
Y318602D01*
Y296358D02*
X-112382Y288090D01*
Y256850D02*
Y288090D01*
X-312579Y25197D02*
Y43898D01*
X-356673Y115650D02*
X-337382Y96358D01*
X-357658Y115650D02*
X-356673D01*
X-337382Y87697D02*
Y96358D01*
X-124488Y403838D02*
X-124390Y403937D01*
X-306417Y150197D02*
Y159803D01*
X-273898Y192323D01*
Y203150D01*
X-336890Y128480D02*
Y136909D01*
Y128480D02*
X-336890Y128480D01*
X-340630Y147736D02*
Y159252D01*
X-345492Y164409D02*
X-340630Y159547D01*
X-345492Y164409D02*
Y173917D01*
X-345453Y147736D02*
X-340630D01*
X-349882Y143307D02*
X-345453Y147736D01*
X-349882Y131201D02*
Y143307D01*
Y131201D02*
X-339843Y121161D01*
X-304311D01*
X-377343Y231102D02*
X-377343Y231102D01*
X-385118Y231102D02*
X-377343D01*
X-385118D02*
Y241535D01*
X-362579Y115650D02*
X-357658D01*
X-346339Y26969D02*
X-326594D01*
X-326496Y27067D01*
X-331772Y471161D02*
Y472539D01*
X-124488Y384941D02*
Y393996D01*
Y403838D01*
X-339941Y449902D02*
Y462992D01*
X-331772Y471161D01*
X-407165Y3937D02*
X-403917Y7185D01*
X-304311Y121161D02*
Y148091D01*
X-340778Y159400D02*
X-340630Y159252D01*
D58*
X-368976Y176083D02*
X-367894Y175000D01*
X-368976Y176083D02*
Y186516D01*
X-356280Y240158D02*
X-344862D01*
X-372224Y251476D02*
X-360118D01*
X-385118Y251575D02*
X-372224D01*
X-370354Y243898D02*
X-356280D01*
X-360118Y251476D02*
X-356280Y247638D01*
X-344862Y240158D02*
X-338661D01*
X-335709Y243110D01*
Y281693D01*
X-372224Y242028D02*
X-370354Y243898D01*
D59*
X-646760Y-71468D02*
X-611327D01*
X-646760D02*
Y-6130D01*
X-639153Y1476D01*
X-638858Y1181D01*
X-613661D01*
X-865335Y-49894D02*
Y-5709D01*
X-857657Y1969D02*
X-842106D01*
X-843760Y-71468D02*
X-808327D01*
X-865335Y-49894D02*
X-843760Y-71468D01*
X-842106Y139764D02*
X-812579D01*
X-865335Y-5709D02*
X-857657Y1969D01*
X-728819Y591D02*
X-728721Y689D01*
X-728819Y-72047D02*
Y-71850D01*
Y591D01*
X-746732Y-71850D02*
X-728819D01*
X-711299D01*
X-544173Y-71555D02*
X-526260D01*
X-508740D01*
X-526260Y-71752D02*
Y-71555D01*
Y886D01*
D60*
X-592815Y202539D02*
X-580984D01*
X-601980Y193374D02*
X-592815Y202539D01*
X-601980Y187724D02*
Y193374D01*
D61*
X-650792Y199606D02*
X-638909Y187724D01*
X-675768Y199606D02*
X-650792D01*
D62*
X-675866Y199508D02*
X-675768Y199606D01*
X-795847Y199508D02*
X-675866D01*
X-811496Y183858D02*
X-795847Y199508D01*
X-811496Y138681D02*
Y183858D01*
D63*
X-229004Y-82590D02*
D03*
X-110846D02*
D03*
X-189587D02*
D03*
X-150216D02*
D03*
X-580984Y202539D02*
D03*
Y142539D02*
D03*
X-62894Y517421D02*
D03*
X-122894D02*
D03*
X-268622Y-82590D02*
D03*
D64*
X-249004D02*
D03*
X-130847D02*
D03*
X-209587D02*
D03*
X-170217D02*
D03*
X-346732Y-91240D02*
D03*
Y-72736D02*
D03*
Y-54232D02*
D03*
X-288622Y-82590D02*
D03*
D65*
X-746732Y-71850D02*
D03*
X-711299D02*
D03*
X-544173Y-71555D02*
D03*
X-508740D02*
D03*
X-411846Y465343D02*
D03*
X-386272Y512890D02*
D03*
X-843760Y-71468D02*
D03*
X-808327D02*
D03*
X-646760D02*
D03*
X-611327D02*
D03*
D66*
X-220532Y160236D02*
D03*
X-230532D02*
D03*
X-240531D02*
D03*
X-250532D02*
D03*
X-312382Y258839D02*
D03*
Y248839D02*
D03*
Y238839D02*
D03*
Y228839D02*
D03*
Y218839D02*
D03*
Y208839D02*
D03*
Y198839D02*
D03*
X-550406Y174988D02*
D03*
X-420484D02*
D03*
Y184988D02*
D03*
X17500Y114000D02*
D03*
Y124000D02*
D03*
Y134000D02*
D03*
Y144000D02*
D03*
X0Y0D02*
D03*
X-10000D02*
D03*
X-20000D02*
D03*
X-30000D02*
D03*
X-40000D02*
D03*
X-36500Y214000D02*
D03*
X-26500D02*
D03*
X-16500D02*
D03*
D67*
X-260531Y160236D02*
D03*
X-50000Y0D02*
D03*
X-46500Y214000D02*
D03*
D68*
X-312382Y268839D02*
D03*
X-550406Y184988D02*
D03*
X17500Y104000D02*
D03*
D69*
X-276358Y94193D02*
D03*
D70*
X-262677Y402559D02*
D03*
Y461614D02*
D03*
Y520669D02*
D03*
X-156378D02*
D03*
Y461614D02*
D03*
Y402559D02*
D03*
D71*
X-811496Y138681D02*
D03*
X-673701D02*
D03*
X-639153Y139272D02*
D03*
Y1476D02*
D03*
X-842106Y139764D02*
D03*
Y1969D02*
D03*
D72*
X-341910Y322342D02*
D03*
X-189252Y224705D02*
D03*
X-182165Y227461D02*
D03*
X-312579Y288484D02*
D03*
X-331772Y304331D02*
D03*
X-215728Y386614D02*
D03*
X-313366Y418405D02*
D03*
X-298209Y368406D02*
D03*
X-332913Y375945D02*
D03*
X-283347Y308268D02*
D03*
X-62677Y234646D02*
D03*
X-163366Y280906D02*
D03*
X-152244Y280512D02*
D03*
X-95846Y249410D02*
D03*
X-88071Y259744D02*
D03*
X-36988Y278937D02*
D03*
Y272539D02*
D03*
X-136890Y411024D02*
D03*
X-23799Y449409D02*
D03*
X-16319D02*
D03*
X-23799Y442717D02*
D03*
X-78917Y471358D02*
D03*
X-88661Y480315D02*
D03*
Y471358D02*
D03*
X-78917Y480315D02*
D03*
X-135906Y479724D02*
D03*
Y455413D02*
D03*
Y463517D02*
D03*
Y471621D02*
D03*
X-252441Y37795D02*
D03*
X-246339D02*
D03*
X-240236D02*
D03*
X-234134D02*
D03*
X-203819Y272933D02*
D03*
X-212480D02*
D03*
X-196831Y256299D02*
D03*
X-101752Y5610D02*
D03*
Y18602D02*
D03*
X-103622Y31594D02*
D03*
X-130492Y-7382D02*
D03*
X-117057D02*
D03*
X-103622D02*
D03*
X-117057Y31594D02*
D03*
X-130492D02*
D03*
X5335Y289961D02*
D03*
X-965D02*
D03*
X-7264D02*
D03*
X-258543Y37795D02*
D03*
X-228031D02*
D03*
X-312973Y110335D02*
D03*
X-110610Y330020D02*
D03*
X-257756Y247835D02*
D03*
X-287579Y133366D02*
D03*
X-209724Y187894D02*
D03*
X-293976Y268799D02*
D03*
X-167402Y208661D02*
D03*
X-335709Y281693D02*
D03*
X-46831Y378740D02*
D03*
Y385039D02*
D03*
X-52835Y378740D02*
D03*
X-58839D02*
D03*
Y385039D02*
D03*
X-52835D02*
D03*
X17933Y289961D02*
D03*
X11634D02*
D03*
X-405787Y31496D02*
D03*
X-395158D02*
D03*
X-384528D02*
D03*
X-373898D02*
D03*
X-406083Y87303D02*
D03*
X-384823D02*
D03*
X-374193D02*
D03*
X-336890Y128480D02*
D03*
X-377343Y231102D02*
D03*
X-346339Y26969D02*
D03*
X-324587Y461614D02*
D03*
X-330935D02*
D03*
X-337283D02*
D03*
X-416614Y453937D02*
D03*
X-408445Y453839D02*
D03*
X-417008Y356644D02*
D03*
Y412057D02*
D03*
X-395748D02*
D03*
X-385118D02*
D03*
Y356644D02*
D03*
X-406378D02*
D03*
X-395748D02*
D03*
X-406378Y412057D02*
D03*
X-368189Y363976D02*
D03*
X-362726D02*
D03*
X-255394Y338484D02*
D03*
X-110413Y400787D02*
D03*
X-16319Y442717D02*
D03*
X-58937Y471752D02*
D03*
Y478445D02*
D03*
X-66417Y471752D02*
D03*
Y478445D02*
D03*
X-131772Y256890D02*
D03*
X-175965Y291339D02*
D03*
X-160512Y249803D02*
D03*
X-282756Y250000D02*
D03*
X-222323Y194783D02*
D03*
X-36988Y266831D02*
D03*
X-40827Y290846D02*
D03*
Y310531D02*
D03*
Y300689D02*
D03*
X-72323D02*
D03*
Y310531D02*
D03*
Y290846D02*
D03*
X-214055Y-15256D02*
D03*
X-236693Y74902D02*
D03*
X-183051Y99114D02*
D03*
X-205984D02*
D03*
X-194518D02*
D03*
X-185413Y38287D02*
D03*
X-208839D02*
D03*
X-197126D02*
D03*
X-285807Y-15256D02*
D03*
X-273406D02*
D03*
X-279606D02*
D03*
X-167402Y147539D02*
D03*
X-118189Y97441D02*
D03*
X-283051Y387008D02*
D03*
X-77441Y-86319D02*
D03*
X-112382Y256850D02*
D03*
X-143455Y191781D02*
D03*
D73*
X-613661Y1181D02*
D03*
X-866220Y-2264D02*
D03*
X-728819Y1476D02*
D03*
X-526260Y2264D02*
D03*
M02*
