G04 Layer_Physical_Order=2*
G04 Layer_Color=16711680*
%FSLAX25Y25*%
%MOIN*%
G70*
G01*
G75*
%ADD15R,0.13780X0.13780*%
%ADD18R,0.07874X0.07874*%
%ADD48C,0.02000*%
%ADD49C,0.03000*%
%ADD50C,0.00900*%
%ADD54C,0.01500*%
%ADD56C,0.10000*%
%ADD57C,0.04000*%
%ADD59C,0.30000*%
%ADD61C,0.15000*%
%ADD63C,0.09843*%
%ADD64R,0.09843X0.09843*%
%ADD65C,0.13780*%
%ADD66C,0.05906*%
%ADD67R,0.05906X0.05906*%
%ADD68R,0.05906X0.05906*%
%ADD69C,0.07874*%
%ADD70C,0.11811*%
%ADD71C,0.15748*%
%ADD72C,0.05000*%
%ADD73C,0.19685*%
G36*
X-380094Y417761D02*
Y349124D01*
X-380234D01*
X-380238Y349114D01*
X-421969D01*
X-421979Y349124D01*
X-422032D01*
X-422032Y349178D01*
X-422322Y349468D01*
X-422224Y417864D01*
X-380197D01*
X-380094Y417761D01*
D02*
G37*
G36*
X-148110Y525394D02*
X-147717Y525000D01*
Y518405D01*
Y514665D01*
X-161890Y500492D01*
X-167303Y495079D01*
Y465748D01*
Y455020D01*
X-148504Y436221D01*
X-138858Y426575D01*
X-93287D01*
X-92008Y426575D01*
X-55098Y389222D01*
X-53786Y387894D01*
X-45354Y387894D01*
X-43583Y386122D01*
Y378150D01*
X-43583Y377264D01*
X-45551Y375295D01*
X-63366D01*
X-70157Y382087D01*
X-81575Y393504D01*
X-96634Y408563D01*
X-145748D01*
X-172323Y435138D01*
X-182953Y445768D01*
Y507087D01*
X-182854D01*
X-162284Y527658D01*
X-150374D01*
X-148110Y525394D01*
D02*
G37*
G36*
X21465Y283846D02*
X17244Y279625D01*
Y276083D01*
Y260335D01*
X17244Y182501D01*
X5806Y171063D01*
X-40335D01*
X-117795Y93602D01*
X-162776Y93602D01*
X-207953D01*
X-211914Y96752D01*
Y101501D01*
X-207953Y105463D01*
X-189400Y105463D01*
X-161890Y105463D01*
X-137037D01*
X-51663Y190837D01*
X-13968Y190837D01*
X-4214Y200591D01*
Y279625D01*
X-9528Y285335D01*
X-10610Y286417D01*
Y292224D01*
X-8445Y294390D01*
X21465D01*
Y283846D01*
D02*
G37*
G36*
X-99094Y303051D02*
X-78770Y282726D01*
X-12625D01*
X-12432Y282533D01*
X-8248Y278038D01*
Y264535D01*
X-83663D01*
X-84442Y265175D01*
X-85571Y265778D01*
X-86797Y266150D01*
X-88071Y266276D01*
X-88398Y266572D01*
Y273031D01*
X-88561Y274271D01*
X-89040Y275427D01*
X-89801Y276419D01*
X-104368Y290986D01*
X-105360Y291748D01*
X-106516Y292226D01*
X-107756Y292389D01*
X-158150D01*
X-159390Y292226D01*
X-160545Y291748D01*
X-161537Y290986D01*
X-165461Y287063D01*
X-165866Y286940D01*
X-166995Y286336D01*
X-167985Y285524D01*
X-168797Y284534D01*
X-169400Y283405D01*
X-169772Y282180D01*
X-169898Y280906D01*
X-169772Y279631D01*
X-169400Y278406D01*
X-168797Y277277D01*
X-167985Y276287D01*
X-166995Y275475D01*
X-165866Y274871D01*
X-164640Y274500D01*
X-163366Y274374D01*
X-162092Y274500D01*
X-160867Y274871D01*
X-159737Y275475D01*
X-158748Y276287D01*
X-158248Y276895D01*
X-157713Y276884D01*
X-157643Y276845D01*
X-156862Y275893D01*
X-156732Y275787D01*
Y247233D01*
X-175302Y228663D01*
X-175801Y228872D01*
X-176131Y229960D01*
X-176735Y231089D01*
X-177547Y232079D01*
X-177677Y232186D01*
Y271457D01*
X-177677Y271457D01*
X-177830Y272618D01*
X-178278Y273701D01*
X-178992Y274630D01*
X-196019Y291658D01*
X-196949Y292371D01*
X-198031Y292820D01*
X-199193Y292973D01*
X-307854D01*
X-307960Y293103D01*
X-308950Y293915D01*
X-310079Y294518D01*
X-311304Y294890D01*
X-312579Y295016D01*
X-313853Y294890D01*
X-315078Y294518D01*
X-316207Y293915D01*
X-317197Y293103D01*
X-318009Y292113D01*
X-318613Y290984D01*
X-318985Y289758D01*
X-319057Y289023D01*
X-321927D01*
X-327283Y294379D01*
Y299606D01*
X-327153Y299712D01*
X-326341Y300702D01*
X-325737Y301831D01*
X-325366Y303057D01*
X-325240Y304331D01*
X-325366Y305605D01*
X-325737Y306830D01*
X-326341Y307959D01*
X-327153Y308949D01*
X-328143Y309761D01*
X-329272Y310365D01*
X-330497Y310737D01*
X-331772Y310862D01*
X-333046Y310737D01*
X-334271Y310365D01*
X-335400Y309761D01*
X-336390Y308949D01*
X-337202Y307959D01*
X-337806Y306830D01*
X-338178Y305605D01*
X-338303Y304331D01*
X-338178Y303057D01*
X-337806Y301831D01*
X-337202Y300702D01*
X-336390Y299712D01*
X-336260Y299606D01*
Y292520D01*
X-336107Y291358D01*
X-335659Y290276D01*
X-334945Y289346D01*
X-334105Y288506D01*
X-334363Y288077D01*
X-334435Y288099D01*
X-335709Y288224D01*
X-336983Y288099D01*
X-338208Y287727D01*
X-339337Y287124D01*
X-340327Y286311D01*
X-341139Y285322D01*
X-341743Y284192D01*
X-342115Y282967D01*
X-342240Y281693D01*
X-342115Y280419D01*
X-341743Y279193D01*
X-341139Y278064D01*
X-340327Y277075D01*
X-339337Y276262D01*
X-338208Y275659D01*
X-336983Y275287D01*
X-335709Y275162D01*
X-334435Y275287D01*
X-333209Y275659D01*
X-332080Y276262D01*
X-331090Y277075D01*
X-330983Y277204D01*
X-327119D01*
X-326928Y276743D01*
X-331894Y271776D01*
X-332608Y270847D01*
X-333056Y269764D01*
X-333209Y268602D01*
Y205118D01*
X-333056Y203956D01*
X-332608Y202874D01*
X-331894Y201944D01*
X-325615Y195665D01*
X-324685Y194951D01*
X-323603Y194503D01*
X-322441Y194350D01*
X-317693D01*
X-317322Y193898D01*
X-316263Y193030D01*
X-315055Y192384D01*
X-313745Y191986D01*
X-312382Y191852D01*
X-311019Y191986D01*
X-309708Y192384D01*
X-308501Y193030D01*
X-307442Y193898D01*
X-306573Y194957D01*
X-305927Y196165D01*
X-305530Y197476D01*
X-305396Y198839D01*
X-305530Y200202D01*
X-305927Y201512D01*
X-306573Y202720D01*
X-307183Y203464D01*
X-307406Y203839D01*
X-307183Y204213D01*
X-306573Y204957D01*
X-305927Y206165D01*
X-305530Y207476D01*
X-305396Y208839D01*
X-305530Y210202D01*
X-305927Y211512D01*
X-306573Y212720D01*
X-307183Y213464D01*
X-307406Y213839D01*
X-307183Y214213D01*
X-306573Y214957D01*
X-305927Y216165D01*
X-305530Y217476D01*
X-305396Y218839D01*
X-305530Y220201D01*
X-305927Y221512D01*
X-306573Y222720D01*
X-307183Y223464D01*
X-307406Y223839D01*
X-307183Y224213D01*
X-306573Y224957D01*
X-305927Y226165D01*
X-305530Y227476D01*
X-305396Y228839D01*
X-305530Y230202D01*
X-305927Y231512D01*
X-306573Y232720D01*
X-307183Y233464D01*
X-307406Y233839D01*
X-307183Y234213D01*
X-306573Y234957D01*
X-305927Y236165D01*
X-305530Y237476D01*
X-305396Y238839D01*
X-305530Y240201D01*
X-305927Y241512D01*
X-306573Y242720D01*
X-307183Y243464D01*
X-307406Y243839D01*
X-307183Y244213D01*
X-306573Y244957D01*
X-305927Y246165D01*
X-305530Y247476D01*
X-305396Y248839D01*
X-305530Y250202D01*
X-305927Y251512D01*
X-306573Y252720D01*
X-307442Y253779D01*
X-308501Y254647D01*
X-309708Y255293D01*
X-311019Y255691D01*
X-312382Y255825D01*
X-313745Y255691D01*
X-315055Y255293D01*
X-316263Y254647D01*
X-317322Y253779D01*
X-318191Y252720D01*
X-318836Y251512D01*
X-319234Y250202D01*
X-319368Y248839D01*
X-319234Y247476D01*
X-318836Y246165D01*
X-318191Y244957D01*
X-317581Y244213D01*
X-317358Y243839D01*
X-317581Y243464D01*
X-318191Y242720D01*
X-318836Y241512D01*
X-319234Y240201D01*
X-319368Y238839D01*
X-319234Y237476D01*
X-318836Y236165D01*
X-318191Y234957D01*
X-317581Y234213D01*
X-317358Y233839D01*
X-317581Y233464D01*
X-318191Y232720D01*
X-318836Y231512D01*
X-319234Y230202D01*
X-319368Y228839D01*
X-319234Y227476D01*
X-318836Y226165D01*
X-318191Y224957D01*
X-317581Y224213D01*
X-317358Y223839D01*
X-317581Y223464D01*
X-318191Y222720D01*
X-318836Y221512D01*
X-319234Y220201D01*
X-319368Y218839D01*
X-319234Y217476D01*
X-318836Y216165D01*
X-318191Y214957D01*
X-317581Y214213D01*
X-317358Y213839D01*
X-317581Y213464D01*
X-317693Y213327D01*
X-319263D01*
X-319901Y213966D01*
Y266252D01*
X-319835Y266296D01*
X-319335Y266029D01*
Y261886D01*
X-305429D01*
Y263291D01*
X-297460D01*
X-296476Y262765D01*
X-295488Y262465D01*
X-287564Y254542D01*
X-286416Y253660D01*
X-285078Y253106D01*
X-283642Y252917D01*
X-283642Y252917D01*
X-262540D01*
X-262440Y252637D01*
X-262404Y252417D01*
X-263187Y251463D01*
X-263790Y250334D01*
X-264162Y249109D01*
X-264287Y247835D01*
X-264271Y247667D01*
X-290753Y221186D01*
X-291466Y220256D01*
X-291914Y219174D01*
X-292067Y218012D01*
Y138091D01*
X-292197Y137985D01*
X-293009Y136995D01*
X-293613Y135866D01*
X-293985Y134640D01*
X-294110Y133366D01*
X-293985Y132092D01*
X-293613Y130867D01*
X-293009Y129737D01*
X-292197Y128748D01*
X-291207Y127935D01*
X-290078Y127332D01*
X-288853Y126960D01*
X-287579Y126835D01*
X-286304Y126960D01*
X-285079Y127332D01*
X-283950Y127935D01*
X-282960Y128748D01*
X-282148Y129737D01*
X-281544Y130867D01*
X-281173Y132092D01*
X-281047Y133366D01*
X-281173Y134640D01*
X-281544Y135866D01*
X-282148Y136995D01*
X-282960Y137985D01*
X-283090Y138091D01*
Y216153D01*
X-257923Y241320D01*
X-257756Y241303D01*
X-256482Y241429D01*
X-255256Y241800D01*
X-254158Y242388D01*
X-253882Y242311D01*
X-253658Y242205D01*
Y193209D01*
Y186353D01*
X-264454Y175557D01*
X-265336Y174408D01*
X-265890Y173070D01*
X-266079Y171634D01*
Y167189D01*
X-267484D01*
Y153284D01*
X-253579D01*
Y153491D01*
X-253079Y153743D01*
X-251894Y153384D01*
X-250532Y153250D01*
X-249168Y153384D01*
X-247858Y153782D01*
X-246650Y154427D01*
X-245906Y155038D01*
X-245532Y155261D01*
X-245157Y155038D01*
X-244413Y154427D01*
X-243205Y153782D01*
X-241895Y153384D01*
X-240531Y153250D01*
X-239169Y153384D01*
X-237858Y153782D01*
X-236650Y154427D01*
X-235906Y155038D01*
X-235531Y155261D01*
X-235157Y155038D01*
X-234413Y154427D01*
X-233205Y153782D01*
X-231894Y153384D01*
X-230532Y153250D01*
X-229169Y153384D01*
X-227858Y153782D01*
X-226650Y154427D01*
X-225591Y155296D01*
X-224723Y156355D01*
X-224077Y157563D01*
X-223679Y158873D01*
X-223545Y160236D01*
X-223679Y161599D01*
X-224077Y162910D01*
X-224723Y164118D01*
X-225591Y165176D01*
X-226650Y166045D01*
X-227858Y166691D01*
X-229169Y167088D01*
X-230532Y167223D01*
X-231894Y167088D01*
X-233205Y166691D01*
X-234413Y166045D01*
X-235157Y165435D01*
X-235531Y165212D01*
X-235906Y165435D01*
X-236650Y166045D01*
X-237858Y166691D01*
X-239169Y167088D01*
X-240531Y167223D01*
X-241895Y167088D01*
X-243205Y166691D01*
X-244413Y166045D01*
X-245157Y165435D01*
X-245532Y165212D01*
X-245906Y165435D01*
X-246650Y166045D01*
X-247858Y166691D01*
X-249168Y167088D01*
X-250532Y167223D01*
X-251894Y167088D01*
X-253079Y166729D01*
X-253579Y166982D01*
Y167189D01*
X-254984D01*
Y169336D01*
X-244188Y180132D01*
X-244188Y180132D01*
X-243306Y181281D01*
X-242752Y182619D01*
X-242563Y184055D01*
Y187661D01*
X-233479D01*
X-219060Y173243D01*
X-219060Y173243D01*
X-217912Y172361D01*
X-216574Y171807D01*
X-215138Y171618D01*
X-199193D01*
X-197757Y171807D01*
X-196419Y172361D01*
X-195270Y173243D01*
X-173411Y195102D01*
X-172949Y194911D01*
Y150950D01*
X-173436Y150039D01*
X-173808Y148813D01*
X-173933Y147539D01*
X-173808Y146265D01*
X-173436Y145040D01*
X-172832Y143911D01*
X-172020Y142921D01*
X-171030Y142109D01*
X-169901Y141505D01*
X-168676Y141133D01*
X-167402Y141008D01*
X-166127Y141133D01*
X-164902Y141505D01*
X-163773Y142109D01*
X-162783Y142921D01*
X-161971Y143911D01*
X-161367Y145040D01*
X-160996Y146265D01*
X-160870Y147539D01*
X-160996Y148813D01*
X-161367Y150039D01*
X-161854Y150950D01*
Y205251D01*
X-161367Y206162D01*
X-161068Y207150D01*
X-116915Y251303D01*
X-115792D01*
X-114882Y250816D01*
X-113656Y250444D01*
X-112382Y250319D01*
X-111108Y250444D01*
X-109882Y250816D01*
X-108753Y251420D01*
X-107764Y252232D01*
X-107307Y252788D01*
X-106807Y252609D01*
Y213715D01*
X-139631Y180891D01*
X-140513Y179742D01*
X-141067Y178404D01*
X-141256Y176969D01*
Y125329D01*
X-149128Y117457D01*
X-210512D01*
X-210512Y117457D01*
X-211948Y117268D01*
X-213285Y116714D01*
X-214435Y115832D01*
X-238038Y92229D01*
X-238500Y92420D01*
Y102130D01*
X-254374D01*
Y86256D01*
X-244664D01*
X-244473Y85794D01*
X-283431Y46836D01*
X-284312Y45687D01*
X-284866Y44349D01*
X-285055Y42913D01*
Y-6212D01*
X-285807D01*
X-287571Y-6386D01*
X-289268Y-6901D01*
X-290831Y-7737D01*
X-292202Y-8861D01*
X-293326Y-10232D01*
X-294162Y-11795D01*
X-294677Y-13492D01*
X-294851Y-15256D01*
X-294677Y-17020D01*
X-294162Y-18717D01*
X-293326Y-20280D01*
X-292202Y-21651D01*
X-290831Y-22775D01*
X-289268Y-23611D01*
X-287571Y-24126D01*
X-285807Y-24299D01*
X-283352D01*
X-270155Y-37497D01*
X-270155Y-37497D01*
X-268784Y-38622D01*
X-267221Y-39457D01*
X-265524Y-39972D01*
X-263760Y-40146D01*
X-263760Y-40146D01*
X-195945D01*
X-195945Y-40146D01*
X-194181Y-39972D01*
X-192484Y-39457D01*
X-190921Y-38622D01*
X-189550Y-37497D01*
X-179019Y-26966D01*
X-179019Y-26966D01*
X-177894Y-25595D01*
X-177058Y-24032D01*
X-176544Y-22335D01*
X-176370Y-20571D01*
X-176370Y-20571D01*
Y38287D01*
X-176544Y40052D01*
X-177058Y41748D01*
X-177894Y43312D01*
X-179019Y44682D01*
X-180389Y45807D01*
X-181953Y46643D01*
X-183649Y47157D01*
X-185413Y47331D01*
X-208445D01*
X-210209Y47157D01*
X-211906Y46643D01*
X-213469Y45807D01*
X-214840Y44682D01*
X-215964Y43312D01*
X-216800Y41748D01*
X-217315Y40052D01*
X-217489Y38287D01*
X-217315Y36523D01*
X-216800Y34827D01*
X-215964Y33263D01*
X-214840Y31893D01*
X-213469Y30768D01*
X-211906Y29932D01*
X-210209Y29418D01*
X-208445Y29244D01*
X-194457D01*
Y-16825D01*
X-199691Y-22059D01*
X-212367D01*
X-212441Y-21559D01*
X-211556Y-21290D01*
X-210426Y-20687D01*
X-209437Y-19874D01*
X-208624Y-18885D01*
X-208021Y-17755D01*
X-207649Y-16530D01*
X-207524Y-15256D01*
X-207649Y-13982D01*
X-208021Y-12756D01*
X-208624Y-11627D01*
X-209437Y-10638D01*
X-210426Y-9825D01*
X-211556Y-9222D01*
X-212781Y-8850D01*
X-214055Y-8725D01*
X-215329Y-8850D01*
X-216555Y-9222D01*
X-217465Y-9708D01*
X-244730D01*
X-268413Y13975D01*
Y35336D01*
X-235182Y68568D01*
X-234193Y68867D01*
X-233064Y69471D01*
X-232074Y70283D01*
X-231262Y71273D01*
X-230659Y72402D01*
X-230287Y73627D01*
X-230161Y74902D01*
X-230287Y76176D01*
X-230659Y77401D01*
X-231262Y78530D01*
X-232074Y79520D01*
X-233064Y80332D01*
X-233463Y80545D01*
X-233536Y81040D01*
X-216411Y98165D01*
X-215949Y97974D01*
Y96752D01*
X-215919Y96524D01*
X-215923Y96294D01*
X-215850Y96004D01*
X-215811Y95708D01*
X-215723Y95495D01*
X-215668Y95272D01*
X-215523Y95011D01*
X-215408Y94735D01*
X-215268Y94552D01*
X-215157Y94351D01*
X-214949Y94136D01*
X-214767Y93899D01*
X-214585Y93759D01*
X-214425Y93594D01*
X-210464Y90444D01*
X-210207Y90290D01*
X-209970Y90108D01*
X-209758Y90020D01*
X-209561Y89902D01*
X-209273Y89820D01*
X-208997Y89705D01*
X-208769Y89675D01*
X-208548Y89612D01*
X-208249Y89607D01*
X-207953Y89568D01*
X-162776D01*
X-117795Y89568D01*
X-116751Y89705D01*
X-115778Y90108D01*
X-114942Y90750D01*
X-114942Y90750D01*
X-38664Y167028D01*
X5806D01*
X6850Y167166D01*
X7823Y167569D01*
X8659Y168210D01*
X8659Y168210D01*
X20097Y179648D01*
X20097Y179648D01*
X20738Y180484D01*
X20965Y181032D01*
X21465Y180933D01*
Y140331D01*
X20965Y140032D01*
X20174Y140455D01*
X18863Y140852D01*
X17500Y140986D01*
X16137Y140852D01*
X14827Y140455D01*
X13619Y139809D01*
X12560Y138940D01*
X11691Y137881D01*
X11045Y136674D01*
X10648Y135363D01*
X10514Y134000D01*
X10648Y132637D01*
X11045Y131326D01*
X11691Y130119D01*
X12302Y129375D01*
X12524Y129000D01*
X12302Y128625D01*
X11691Y127881D01*
X11045Y126674D01*
X10648Y125363D01*
X10514Y124000D01*
X10648Y122637D01*
X11045Y121326D01*
X11691Y120119D01*
X12302Y119375D01*
X12524Y119000D01*
X12302Y118625D01*
X11691Y117881D01*
X11045Y116674D01*
X10648Y115363D01*
X10514Y114000D01*
X10648Y112637D01*
X11007Y111453D01*
X10755Y110953D01*
X10547D01*
Y97047D01*
X21465D01*
Y-125973D01*
X-422520D01*
Y-123130D01*
Y-110432D01*
X-422286Y-110198D01*
X-422046Y-109885D01*
X-421785Y-109587D01*
X-421031Y-108458D01*
X-420856Y-108104D01*
X-420658Y-107761D01*
X-420138Y-106507D01*
X-420036Y-106125D01*
X-419909Y-105750D01*
X-419644Y-104419D01*
X-419618Y-104024D01*
X-419566Y-103631D01*
Y-102953D01*
Y135039D01*
Y135718D01*
X-419618Y136110D01*
X-419644Y136505D01*
X-419909Y137837D01*
X-420036Y138211D01*
X-420138Y138593D01*
X-420658Y139848D01*
X-420856Y140190D01*
X-421031Y140545D01*
X-421785Y141674D01*
X-422046Y141971D01*
X-422286Y142285D01*
X-422520Y142518D01*
Y153051D01*
X-425571Y156102D01*
X-429311Y159843D01*
Y208158D01*
X-428136Y208313D01*
X-427042Y208766D01*
X-426102Y209487D01*
X-425380Y210427D01*
X-424927Y211522D01*
X-424772Y212697D01*
Y327461D01*
X-258971D01*
X-258780Y326999D01*
X-271963Y313815D01*
X-279936D01*
X-280847Y314302D01*
X-282072Y314674D01*
X-283347Y314799D01*
X-284621Y314674D01*
X-285846Y314302D01*
X-286975Y313698D01*
X-287965Y312886D01*
X-288777Y311896D01*
X-289381Y310767D01*
X-289752Y309542D01*
X-289878Y308268D01*
X-289752Y306994D01*
X-289381Y305768D01*
X-288777Y304639D01*
X-287965Y303649D01*
X-286975Y302837D01*
X-285846Y302233D01*
X-284621Y301862D01*
X-283347Y301736D01*
X-282072Y301862D01*
X-280847Y302233D01*
X-279936Y302720D01*
X-269665D01*
X-268230Y302909D01*
X-266892Y303464D01*
X-265743Y304345D01*
X-245616Y324472D01*
X-114021D01*
X-113110Y323985D01*
X-111884Y323614D01*
X-110610Y323488D01*
X-109336Y323614D01*
X-108111Y323985D01*
X-106982Y324589D01*
X-105992Y325401D01*
X-105180Y326391D01*
X-104608Y327461D01*
X-99094D01*
X-99094Y303051D01*
D02*
G37*
G36*
X21465Y484365D02*
X20987Y484220D01*
X20839Y484441D01*
X19132Y486388D01*
X17185Y488095D01*
X15033Y489533D01*
X12711Y490678D01*
X10260Y491510D01*
X7721Y492015D01*
X5138Y492184D01*
X2555Y492015D01*
X16Y491510D01*
X-2436Y490678D01*
X-4758Y489533D01*
X-6910Y488095D01*
X-8856Y486388D01*
X-10563Y484441D01*
X-12001Y482289D01*
X-13146Y479967D01*
X-13978Y477516D01*
X-14483Y474977D01*
X-14653Y472394D01*
X-14483Y469811D01*
X-13978Y467272D01*
X-13146Y464820D01*
X-12001Y462499D01*
X-10563Y460346D01*
X-8856Y458400D01*
X-6910Y456693D01*
X-4758Y455255D01*
X-2436Y454110D01*
X16Y453278D01*
X2555Y452773D01*
X5138Y452603D01*
X7721Y452773D01*
X10260Y453278D01*
X12711Y454110D01*
X15033Y455255D01*
X17185Y456693D01*
X19132Y458400D01*
X20839Y460346D01*
X20987Y460568D01*
X21465Y460423D01*
Y299902D01*
X-19961D01*
X-32559Y287303D01*
X-75669D01*
Y287303D01*
D01*
X-81083Y292717D01*
Y350492D01*
X-94468Y363878D01*
X-124488D01*
Y366437D01*
X-142106Y384055D01*
X-142303Y383858D01*
X-209307D01*
X-209620Y384358D01*
X-209322Y385340D01*
X-209197Y386614D01*
X-209322Y387888D01*
X-209694Y389114D01*
X-210298Y390243D01*
X-211110Y391233D01*
X-212100Y392045D01*
X-213229Y392649D01*
X-214454Y393020D01*
X-215728Y393146D01*
X-217003Y393020D01*
X-218228Y392649D01*
X-219139Y392162D01*
X-262085D01*
X-262109Y392662D01*
X-260735Y392797D01*
X-258868Y393363D01*
X-257147Y394283D01*
X-255639Y395521D01*
X-254401Y397029D01*
X-253481Y398750D01*
X-252915Y400617D01*
X-252724Y402559D01*
X-252915Y404501D01*
X-253481Y406368D01*
X-254401Y408089D01*
X-255639Y409597D01*
X-257147Y410835D01*
X-258868Y411755D01*
X-260735Y412321D01*
X-262677Y412513D01*
X-264619Y412321D01*
X-266486Y411755D01*
X-268207Y410835D01*
X-269715Y409597D01*
X-270953Y408089D01*
X-271873Y406368D01*
X-272439Y404501D01*
X-272631Y402559D01*
X-272439Y400617D01*
X-271873Y398750D01*
X-270953Y397029D01*
X-269715Y395521D01*
X-268207Y394283D01*
X-266486Y393363D01*
X-264619Y392797D01*
X-263245Y392662D01*
X-263270Y392162D01*
X-267761D01*
X-297928Y422328D01*
X-299077Y423210D01*
X-300415Y423764D01*
X-301850Y423953D01*
X-309956D01*
X-310867Y424440D01*
X-312092Y424812D01*
X-313366Y424937D01*
X-314640Y424812D01*
X-315866Y424440D01*
X-316995Y423836D01*
X-317985Y423024D01*
X-318797Y422034D01*
X-319400Y420905D01*
X-319772Y419680D01*
X-319898Y418405D01*
X-319772Y417131D01*
X-319400Y415906D01*
X-318797Y414777D01*
X-317985Y413787D01*
X-316995Y412975D01*
X-315866Y412371D01*
X-314640Y412000D01*
X-313366Y411874D01*
X-312092Y412000D01*
X-310867Y412371D01*
X-309956Y412858D01*
X-304148D01*
X-275610Y384320D01*
X-275802Y383858D01*
X-277343D01*
X-291336Y369865D01*
X-291902Y370006D01*
X-292174Y370905D01*
X-292778Y372034D01*
X-293590Y373024D01*
X-294580Y373836D01*
X-295709Y374440D01*
X-296935Y374812D01*
X-297652Y374882D01*
X-302280Y379511D01*
X-303325Y380312D01*
X-304541Y380816D01*
X-305847Y380988D01*
X-328813D01*
X-329285Y381376D01*
X-330414Y381979D01*
X-331639Y382351D01*
X-332913Y382476D01*
X-334188Y382351D01*
X-335413Y381979D01*
X-336542Y381376D01*
X-337532Y380563D01*
X-338344Y379573D01*
X-338948Y378444D01*
X-339319Y377219D01*
X-339445Y375945D01*
X-339319Y374671D01*
X-338948Y373445D01*
X-338344Y372316D01*
X-337532Y371326D01*
X-336542Y370514D01*
X-335413Y369911D01*
X-334188Y369539D01*
X-332913Y369413D01*
X-331639Y369539D01*
X-330414Y369911D01*
X-329285Y370514D01*
X-328813Y370902D01*
X-307935D01*
X-304664Y367630D01*
X-304615Y367131D01*
X-304243Y365906D01*
X-303639Y364777D01*
X-302827Y363787D01*
X-301837Y362975D01*
X-300708Y362371D01*
X-299809Y362099D01*
X-299684Y361598D01*
X-300011Y361221D01*
X-376059D01*
Y417761D01*
X-376197Y418805D01*
X-376600Y419778D01*
X-377241Y420614D01*
X-377241Y420614D01*
X-377344Y420717D01*
X-378180Y421358D01*
X-379153Y421761D01*
X-380197Y421899D01*
X-380197Y421899D01*
X-422224D01*
X-422230Y421898D01*
X-422236Y421899D01*
X-422750Y421830D01*
X-423263Y421763D01*
X-423266Y421762D01*
X-423269Y421761D01*
X-423274Y421759D01*
X-423279Y421758D01*
X-423759Y421558D01*
X-424237Y421361D01*
X-424239Y421359D01*
X-424242Y421358D01*
X-424246Y421355D01*
X-424251Y421352D01*
X-424272Y421337D01*
X-424772Y421582D01*
Y530304D01*
X-165996D01*
X-165805Y529842D01*
X-185383Y510264D01*
X-185806Y509939D01*
X-186447Y509104D01*
X-186850Y508131D01*
X-186987Y507087D01*
Y445768D01*
X-186987Y445768D01*
X-186850Y444724D01*
X-186447Y443750D01*
X-185806Y442915D01*
X-185806Y442915D01*
X-175176Y432285D01*
X-175176Y432285D01*
X-155822Y412931D01*
X-156035Y412479D01*
X-156378Y412513D01*
X-158320Y412321D01*
X-160187Y411755D01*
X-161908Y410835D01*
X-163416Y409597D01*
X-164654Y408089D01*
X-165574Y406368D01*
X-166140Y404501D01*
X-166331Y402559D01*
X-166140Y400617D01*
X-165574Y398750D01*
X-164654Y397029D01*
X-163416Y395521D01*
X-161908Y394283D01*
X-160187Y393363D01*
X-158320Y392797D01*
X-156378Y392606D01*
X-154436Y392797D01*
X-152569Y393363D01*
X-150848Y394283D01*
X-149340Y395521D01*
X-148102Y397029D01*
X-147182Y398750D01*
X-146616Y400617D01*
X-146424Y402559D01*
X-146580Y404134D01*
X-146134Y404579D01*
X-145748Y404529D01*
X-145748Y404529D01*
X-137258D01*
X-136890Y404492D01*
X-136521Y404529D01*
X-98305D01*
X-84428Y390651D01*
X-73010Y379234D01*
X-66219Y372442D01*
X-65383Y371801D01*
X-64410Y371398D01*
X-63366Y371261D01*
X-63366Y371261D01*
X-45551D01*
X-44507Y371398D01*
X-43534Y371801D01*
X-42698Y372442D01*
X-42698Y372443D01*
X-40730Y374411D01*
X-40730Y374411D01*
X-40089Y375247D01*
X-39836Y375857D01*
X-39686Y376220D01*
X-39686Y376220D01*
X-39636Y376595D01*
X-39548Y377264D01*
X-39548Y377264D01*
X-39548Y378150D01*
Y386122D01*
X-39608Y386573D01*
X-39686Y387166D01*
X-40089Y388139D01*
X-40089Y388139D01*
X-40730Y388975D01*
X-40730Y388975D01*
X-42501Y390746D01*
X-42501Y390746D01*
X-43049Y391166D01*
X-43337Y391388D01*
X-43337Y391388D01*
X-43337Y391388D01*
X-43817Y391587D01*
X-44310Y391791D01*
X-44310Y391791D01*
X-44310Y391791D01*
X-44594Y391828D01*
X-45354Y391928D01*
X-45354Y391928D01*
X-52100Y391928D01*
X-52228Y392058D01*
X-52229Y392058D01*
X-52229Y392058D01*
X-89138Y429411D01*
X-89148Y429418D01*
X-89155Y429428D01*
X-89564Y429741D01*
X-89970Y430057D01*
X-89981Y430061D01*
X-89991Y430069D01*
X-90466Y430266D01*
X-90940Y430466D01*
X-90952Y430467D01*
X-90964Y430472D01*
X-91474Y430539D01*
X-91984Y430609D01*
X-91996Y430608D01*
X-92008Y430609D01*
X-93287Y430609D01*
X-137187D01*
X-145651Y439073D01*
X-145651Y439073D01*
X-157885Y451307D01*
X-157657Y451787D01*
X-156378Y451661D01*
X-154436Y451852D01*
X-152569Y452418D01*
X-150848Y453338D01*
X-149340Y454576D01*
X-148102Y456084D01*
X-147182Y457805D01*
X-146616Y459672D01*
X-146424Y461614D01*
X-146616Y463556D01*
X-147182Y465423D01*
X-148102Y467144D01*
X-149340Y468652D01*
X-150848Y469890D01*
X-152569Y470810D01*
X-154436Y471376D01*
X-156378Y471568D01*
X-158320Y471376D01*
X-160187Y470810D01*
X-161908Y469890D01*
X-162817Y469144D01*
X-163269Y469358D01*
Y493408D01*
X-159037Y497639D01*
X-159037Y497639D01*
X-144864Y511812D01*
X-144223Y512648D01*
X-143819Y513621D01*
X-143682Y514665D01*
X-143682Y514665D01*
Y518405D01*
Y525000D01*
X-143682Y525000D01*
X-143819Y526044D01*
X-144223Y527017D01*
X-144864Y527853D01*
X-144864Y527853D01*
X-145257Y528246D01*
X-146853Y529842D01*
X-146661Y530304D01*
X21465D01*
Y484365D01*
D02*
G37*
%LPC*%
G36*
X-200665Y-73669D02*
X-218508D01*
Y-91512D01*
X-200665D01*
Y-73669D01*
D02*
G37*
G36*
X-240083D02*
X-257925D01*
Y-91512D01*
X-240083D01*
Y-73669D01*
D02*
G37*
G36*
X0Y6986D02*
X-1363Y6852D01*
X-2674Y6455D01*
X-3881Y5809D01*
X-4625Y5199D01*
X-5000Y4976D01*
X-5375Y5199D01*
X-6119Y5809D01*
X-7326Y6455D01*
X-8637Y6852D01*
X-10000Y6986D01*
X-11363Y6852D01*
X-12674Y6455D01*
X-13881Y5809D01*
X-14625Y5199D01*
X-15000Y4976D01*
X-15375Y5199D01*
X-16119Y5809D01*
X-17326Y6455D01*
X-18637Y6852D01*
X-20000Y6986D01*
X-21363Y6852D01*
X-22674Y6455D01*
X-23881Y5809D01*
X-24625Y5199D01*
X-25000Y4976D01*
X-25375Y5199D01*
X-26119Y5809D01*
X-27326Y6455D01*
X-28637Y6852D01*
X-30000Y6986D01*
X-31363Y6852D01*
X-32674Y6455D01*
X-33881Y5809D01*
X-34625Y5199D01*
X-35000Y4976D01*
X-35375Y5199D01*
X-36119Y5809D01*
X-37326Y6455D01*
X-38637Y6852D01*
X-40000Y6986D01*
X-41363Y6852D01*
X-42547Y6493D01*
X-43047Y6746D01*
Y6953D01*
X-56953D01*
Y-6953D01*
X-43047D01*
Y-6746D01*
X-42547Y-6493D01*
X-41363Y-6852D01*
X-40000Y-6986D01*
X-38637Y-6852D01*
X-37326Y-6455D01*
X-36119Y-5809D01*
X-35375Y-5199D01*
X-35000Y-4976D01*
X-34625Y-5199D01*
X-33881Y-5809D01*
X-32674Y-6455D01*
X-31363Y-6852D01*
X-30000Y-6986D01*
X-28637Y-6852D01*
X-27326Y-6455D01*
X-26119Y-5809D01*
X-25375Y-5199D01*
X-25000Y-4976D01*
X-24625Y-5199D01*
X-23881Y-5809D01*
X-22674Y-6455D01*
X-21363Y-6852D01*
X-20000Y-6986D01*
X-18637Y-6852D01*
X-17326Y-6455D01*
X-16119Y-5809D01*
X-15375Y-5199D01*
X-15000Y-4976D01*
X-14625Y-5199D01*
X-13881Y-5809D01*
X-12674Y-6455D01*
X-11363Y-6852D01*
X-10000Y-6986D01*
X-8637Y-6852D01*
X-7326Y-6455D01*
X-6119Y-5809D01*
X-5375Y-5199D01*
X-5000Y-4976D01*
X-4625Y-5199D01*
X-3881Y-5809D01*
X-2674Y-6455D01*
X-1363Y-6852D01*
X0Y-6986D01*
X1363Y-6852D01*
X2674Y-6455D01*
X3881Y-5809D01*
X4940Y-4940D01*
X5809Y-3881D01*
X6455Y-2674D01*
X6852Y-1363D01*
X6986Y0D01*
X6852Y1363D01*
X6455Y2674D01*
X5809Y3881D01*
X4940Y4940D01*
X3881Y5809D01*
X2674Y6455D01*
X1363Y6852D01*
X0Y6986D01*
D02*
G37*
G36*
X-337811Y-45311D02*
X-355654D01*
Y-63153D01*
X-337811D01*
Y-45311D01*
D02*
G37*
G36*
X-268622Y-73626D02*
X-270371Y-73798D01*
X-272053Y-74308D01*
X-273602Y-75137D01*
X-274961Y-76252D01*
X-276076Y-77610D01*
X-276904Y-79160D01*
X-277414Y-80841D01*
X-277587Y-82590D01*
X-277414Y-84339D01*
X-276904Y-86021D01*
X-276076Y-87571D01*
X-274961Y-88929D01*
X-273602Y-90044D01*
X-272053Y-90873D01*
X-270371Y-91383D01*
X-268622Y-91555D01*
X-266873Y-91383D01*
X-265192Y-90873D01*
X-263642Y-90044D01*
X-262283Y-88929D01*
X-261168Y-87571D01*
X-260340Y-86021D01*
X-259830Y-84339D01*
X-259658Y-82590D01*
X-259830Y-80841D01*
X-260340Y-79160D01*
X-261168Y-77610D01*
X-262283Y-76252D01*
X-263642Y-75137D01*
X-265192Y-74308D01*
X-266873Y-73798D01*
X-268622Y-73626D01*
D02*
G37*
G36*
X-116811Y-51752D02*
X-143484D01*
X-145289Y-51894D01*
X-147049Y-52316D01*
X-148721Y-53009D01*
X-150265Y-53955D01*
X-151641Y-55130D01*
X-158373Y-61863D01*
X-159549Y-63239D01*
X-160495Y-64783D01*
X-161187Y-66455D01*
X-161610Y-68215D01*
X-161752Y-70020D01*
Y-73669D01*
X-179138D01*
Y-91512D01*
X-161295D01*
Y-87201D01*
X-160795Y-87102D01*
X-160495Y-87827D01*
X-159549Y-89371D01*
X-158373Y-90747D01*
X-156997Y-91923D01*
X-155454Y-92869D01*
X-153781Y-93561D01*
X-152021Y-93984D01*
X-150216Y-94126D01*
X-148412Y-93984D01*
X-146652Y-93561D01*
X-144979Y-92869D01*
X-143436Y-91923D01*
X-142060Y-90747D01*
X-140884Y-89371D01*
X-140268Y-88365D01*
X-139768Y-88506D01*
Y-91512D01*
X-121925D01*
Y-87201D01*
X-121425Y-87102D01*
X-121125Y-87827D01*
X-120179Y-89371D01*
X-119003Y-90747D01*
X-117627Y-91923D01*
X-116084Y-92869D01*
X-114411Y-93561D01*
X-112651Y-93984D01*
X-110846Y-94126D01*
X-109042Y-93984D01*
X-107282Y-93561D01*
X-105609Y-92869D01*
X-104066Y-91923D01*
X-102690Y-90747D01*
X-101514Y-89371D01*
X-100568Y-87827D01*
X-99875Y-86155D01*
X-99453Y-84395D01*
X-99311Y-82590D01*
Y-69252D01*
X-99453Y-67447D01*
X-99875Y-65687D01*
X-100568Y-64015D01*
X-101514Y-62471D01*
X-102690Y-61095D01*
X-108654Y-55130D01*
X-110031Y-53955D01*
X-111574Y-53009D01*
X-113246Y-52316D01*
X-115006Y-51894D01*
X-116811Y-51752D01*
D02*
G37*
G36*
X-279701Y-73669D02*
X-297543D01*
Y-91512D01*
X-279701D01*
Y-73669D01*
D02*
G37*
G36*
X-189587Y-73626D02*
X-191335Y-73798D01*
X-193017Y-74308D01*
X-194567Y-75137D01*
X-195925Y-76252D01*
X-197040Y-77610D01*
X-197869Y-79160D01*
X-198379Y-80841D01*
X-198551Y-82590D01*
X-198379Y-84339D01*
X-197869Y-86021D01*
X-197040Y-87571D01*
X-195925Y-88929D01*
X-194567Y-90044D01*
X-193017Y-90873D01*
X-191335Y-91383D01*
X-189587Y-91555D01*
X-187838Y-91383D01*
X-186156Y-90873D01*
X-184606Y-90044D01*
X-183248Y-88929D01*
X-182133Y-87571D01*
X-181305Y-86021D01*
X-180795Y-84339D01*
X-180622Y-82590D01*
X-180795Y-80841D01*
X-181305Y-79160D01*
X-182133Y-77610D01*
X-183248Y-76252D01*
X-184606Y-75137D01*
X-186156Y-74308D01*
X-187838Y-73798D01*
X-189587Y-73626D01*
D02*
G37*
G36*
X-336890Y135012D02*
X-338164Y134886D01*
X-339389Y134514D01*
X-340518Y133911D01*
X-341508Y133099D01*
X-342320Y132109D01*
X-342924Y130980D01*
X-343296Y129754D01*
X-343421Y128480D01*
X-343296Y127206D01*
X-342924Y125981D01*
X-342919Y125971D01*
Y-1735D01*
X-378259Y-37075D01*
X-379009Y-37989D01*
X-379566Y-39031D01*
X-379909Y-40162D01*
X-380025Y-41339D01*
Y-79134D01*
X-379909Y-80310D01*
X-379566Y-81441D01*
X-379009Y-82483D01*
X-378259Y-83397D01*
X-366153Y-95503D01*
X-365240Y-96253D01*
X-364197Y-96810D01*
X-363066Y-97153D01*
X-361890Y-97269D01*
X-355654D01*
Y-100161D01*
X-337811D01*
Y-82319D01*
X-355654D01*
Y-85211D01*
X-359393D01*
X-367967Y-76637D01*
Y-71557D01*
X-367496Y-71388D01*
X-367334Y-71586D01*
X-361921Y-76999D01*
X-361921Y-76999D01*
X-361007Y-77749D01*
X-359965Y-78306D01*
X-358834Y-78649D01*
X-357658Y-78765D01*
X-357657Y-78765D01*
X-355654D01*
Y-81657D01*
X-337811D01*
Y-63815D01*
X-355654D01*
Y-65561D01*
X-356116Y-65752D01*
X-357042Y-64825D01*
Y-45411D01*
X-319463Y-7832D01*
X-319002Y-8024D01*
Y-14075D01*
X-318886Y-15251D01*
X-318543Y-16382D01*
X-317986Y-17424D01*
X-317236Y-18338D01*
X-278456Y-57117D01*
X-277542Y-57867D01*
X-276500Y-58424D01*
X-275369Y-58767D01*
X-274193Y-58883D01*
X-245883D01*
X-235033Y-69734D01*
Y-75997D01*
X-235343Y-76252D01*
X-236457Y-77610D01*
X-237286Y-79160D01*
X-237796Y-80841D01*
X-237968Y-82590D01*
X-237796Y-84339D01*
X-237286Y-86021D01*
X-236457Y-87571D01*
X-235343Y-88929D01*
X-233984Y-90044D01*
X-232434Y-90873D01*
X-230753Y-91383D01*
X-229004Y-91555D01*
X-227255Y-91383D01*
X-225573Y-90873D01*
X-224024Y-90044D01*
X-222665Y-88929D01*
X-221550Y-87571D01*
X-220722Y-86021D01*
X-220212Y-84339D01*
X-220039Y-82590D01*
X-220212Y-80841D01*
X-220722Y-79160D01*
X-221550Y-77610D01*
X-222665Y-76252D01*
X-222975Y-75997D01*
Y-67236D01*
X-223091Y-66060D01*
X-223434Y-64929D01*
X-223991Y-63887D01*
X-224741Y-62973D01*
X-239123Y-48591D01*
X-240036Y-47841D01*
X-241079Y-47284D01*
X-242210Y-46941D01*
X-243386Y-46825D01*
X-271696D01*
X-306943Y-11577D01*
Y107825D01*
X-306938Y107835D01*
X-306567Y109060D01*
X-306441Y110335D01*
X-306567Y111609D01*
X-306938Y112834D01*
X-307542Y113963D01*
X-308354Y114953D01*
X-309344Y115765D01*
X-310473Y116369D01*
X-311698Y116741D01*
X-312973Y116866D01*
X-314247Y116741D01*
X-315117Y116477D01*
X-315382Y116919D01*
X-314806Y117495D01*
X-308186D01*
X-284274Y93582D01*
X-284180Y92637D01*
X-283727Y91141D01*
X-282990Y89762D01*
X-281998Y88554D01*
X-280789Y87562D01*
X-279410Y86825D01*
X-277914Y86371D01*
X-276358Y86218D01*
X-274802Y86371D01*
X-273306Y86825D01*
X-271927Y87562D01*
X-270719Y88554D01*
X-269727Y89762D01*
X-268990Y91141D01*
X-268536Y92637D01*
X-268383Y94193D01*
X-268536Y95749D01*
X-268990Y97245D01*
X-269727Y98624D01*
X-270719Y99832D01*
X-271927Y100824D01*
X-273306Y101561D01*
X-274802Y102015D01*
X-275747Y102108D01*
X-301426Y127787D01*
X-302340Y128537D01*
X-303382Y129094D01*
X-304513Y129437D01*
X-305689Y129553D01*
X-317303D01*
X-318479Y129437D01*
X-319610Y129094D01*
X-320653Y128537D01*
X-321566Y127787D01*
X-326291Y123062D01*
X-327041Y122149D01*
X-327598Y121106D01*
X-327941Y119975D01*
X-328057Y118799D01*
Y627D01*
X-330399Y-1715D01*
X-330861Y-1524D01*
Y125971D01*
X-330855Y125981D01*
X-330484Y127206D01*
X-330358Y128480D01*
X-330484Y129754D01*
X-330855Y130980D01*
X-331459Y132109D01*
X-332271Y133099D01*
X-333261Y133911D01*
X-334390Y134514D01*
X-335616Y134886D01*
X-336890Y135012D01*
D02*
G37*
G36*
X-420484Y191975D02*
X-421847Y191840D01*
X-423158Y191443D01*
X-424366Y190797D01*
X-425424Y189928D01*
X-426293Y188870D01*
X-426939Y187662D01*
X-427336Y186351D01*
X-427471Y184988D01*
X-427336Y183625D01*
X-426939Y182315D01*
X-426293Y181107D01*
X-425683Y180363D01*
X-425460Y179988D01*
X-425683Y179613D01*
X-426293Y178870D01*
X-426939Y177662D01*
X-427336Y176351D01*
X-427471Y174988D01*
X-427336Y173625D01*
X-426939Y172315D01*
X-426293Y171107D01*
X-425424Y170048D01*
X-424366Y169179D01*
X-423158Y168534D01*
X-421847Y168136D01*
X-420484Y168002D01*
X-419121Y168136D01*
X-417811Y168534D01*
X-416603Y169179D01*
X-415544Y170048D01*
X-414675Y171107D01*
X-414030Y172315D01*
X-413632Y173625D01*
X-413498Y174988D01*
X-413632Y176351D01*
X-414030Y177662D01*
X-414675Y178870D01*
X-415286Y179613D01*
X-415509Y179988D01*
X-415286Y180363D01*
X-414675Y181107D01*
X-414030Y182315D01*
X-413632Y183625D01*
X-413498Y184988D01*
X-413632Y186351D01*
X-414030Y187662D01*
X-414675Y188870D01*
X-415544Y189928D01*
X-416603Y190797D01*
X-417811Y191443D01*
X-419121Y191840D01*
X-420484Y191975D01*
D02*
G37*
G36*
X-375382Y476536D02*
X-397161D01*
Y454756D01*
X-375382D01*
Y476536D01*
D02*
G37*
G36*
X-75531Y487794D02*
X-75546Y487792D01*
X-141516D01*
X-142560Y487655D01*
X-143533Y487252D01*
X-144369Y486611D01*
X-145010Y485775D01*
X-145413Y484802D01*
X-145550Y483758D01*
X-145550Y450098D01*
X-145413Y449054D01*
X-145010Y448081D01*
X-144369Y447246D01*
X-144369Y447246D01*
X-144172Y447049D01*
X-143336Y446408D01*
X-142363Y446004D01*
X-141319Y445867D01*
X-141319Y445867D01*
X-92894D01*
X-92894Y445867D01*
X-91849Y446004D01*
X-90877Y446408D01*
X-90041Y447049D01*
X-90041Y447049D01*
X-89845Y447245D01*
X-76949D01*
X-75905Y447382D01*
X-74932Y447786D01*
X-74096Y448427D01*
X-72324Y450198D01*
X-71683Y451034D01*
X-71280Y452007D01*
X-71143Y453051D01*
X-71143Y453051D01*
Y483406D01*
X-71280Y484451D01*
X-71683Y485424D01*
X-72324Y486259D01*
X-72324Y486259D01*
X-72678Y486613D01*
X-73513Y487254D01*
X-74486Y487657D01*
X-75531Y487794D01*
D02*
G37*
G36*
X-262677Y471568D02*
X-264619Y471376D01*
X-266486Y470810D01*
X-268207Y469890D01*
X-269715Y468652D01*
X-270953Y467144D01*
X-271873Y465423D01*
X-272439Y463556D01*
X-272631Y461614D01*
X-272439Y459672D01*
X-271873Y457805D01*
X-270953Y456084D01*
X-269715Y454576D01*
X-268207Y453338D01*
X-266486Y452418D01*
X-264619Y451852D01*
X-262677Y451661D01*
X-260735Y451852D01*
X-258868Y452418D01*
X-257147Y453338D01*
X-255639Y454576D01*
X-254401Y456084D01*
X-253481Y457805D01*
X-252915Y459672D01*
X-252724Y461614D01*
X-252915Y463556D01*
X-253481Y465423D01*
X-254401Y467144D01*
X-255639Y468652D01*
X-257147Y469890D01*
X-258868Y470810D01*
X-260735Y471376D01*
X-262677Y471568D01*
D02*
G37*
G36*
X-400957Y523477D02*
X-422736D01*
Y501697D01*
X-400957D01*
Y523477D01*
D02*
G37*
G36*
X-122894Y526386D02*
X-124643Y526214D01*
X-126324Y525703D01*
X-127874Y524875D01*
X-129233Y523760D01*
X-130347Y522402D01*
X-131176Y520852D01*
X-131686Y519170D01*
X-131858Y517421D01*
X-131686Y515672D01*
X-131176Y513991D01*
X-130347Y512441D01*
X-129233Y511083D01*
X-127874Y509968D01*
X-126324Y509139D01*
X-124643Y508629D01*
X-122894Y508457D01*
X-121145Y508629D01*
X-119463Y509139D01*
X-117913Y509968D01*
X-116555Y511083D01*
X-115440Y512441D01*
X-114612Y513991D01*
X-114102Y515672D01*
X-113929Y517421D01*
X-114102Y519170D01*
X-114612Y520852D01*
X-115440Y522402D01*
X-116555Y523760D01*
X-117913Y524875D01*
X-119463Y525703D01*
X-121145Y526214D01*
X-122894Y526386D01*
D02*
G37*
G36*
X-386272Y523813D02*
X-387980Y523679D01*
X-389647Y523279D01*
X-391231Y522623D01*
X-392692Y521727D01*
X-393995Y520614D01*
X-395109Y519311D01*
X-396004Y517849D01*
X-396660Y516265D01*
X-397060Y514599D01*
X-397195Y512890D01*
X-397060Y511181D01*
X-396660Y509515D01*
X-396004Y507931D01*
X-395109Y506469D01*
X-393995Y505166D01*
X-392692Y504053D01*
X-391231Y503157D01*
X-389647Y502501D01*
X-387980Y502101D01*
X-386272Y501967D01*
X-384563Y502101D01*
X-382896Y502501D01*
X-381312Y503157D01*
X-379851Y504053D01*
X-378547Y505166D01*
X-377434Y506469D01*
X-376539Y507931D01*
X-375883Y509515D01*
X-375483Y511181D01*
X-375348Y512890D01*
X-375483Y514599D01*
X-375883Y516265D01*
X-376539Y517849D01*
X-377434Y519311D01*
X-378547Y520614D01*
X-379851Y521727D01*
X-381312Y522623D01*
X-382896Y523279D01*
X-384563Y523679D01*
X-386272Y523813D01*
D02*
G37*
%LPD*%
G36*
X-75177Y483406D02*
Y453051D01*
X-76949Y451280D01*
X-91516D01*
X-92894Y449902D01*
X-141319D01*
X-141516Y450098D01*
X-141516Y483758D01*
X-75533D01*
X-75531Y483760D01*
X-75177Y483406D01*
D02*
G37*
D15*
X-411846Y512587D02*
D03*
X-386272Y465646D02*
D03*
D18*
X-246437Y94193D02*
D03*
D48*
X-273406Y322047D02*
X-271831D01*
X-255394Y338484D01*
Y336811D02*
Y338484D01*
X-305847Y375945D02*
X-298209Y368307D01*
X-332913Y375945D02*
X-305847D01*
D49*
X-270059Y386614D02*
X-215728D01*
X-301850Y418405D02*
X-270059Y386614D01*
X-313366Y418405D02*
X-301850D01*
X-269665Y308268D02*
X-247913Y330020D01*
X-283347Y308268D02*
X-269665D01*
X-247913Y330020D02*
X-110610D01*
X-135709Y123031D02*
Y176969D01*
X-293976Y268799D02*
X-283642Y258465D01*
X-312382Y268839D02*
X-294016D01*
X-293976Y268799D01*
X-283642Y258465D02*
X-255000D01*
X-248110Y251575D01*
X-260531Y171634D02*
X-248110Y184055D01*
X-260531Y160236D02*
Y171634D01*
X-248110Y193209D02*
X-231181D01*
X-215138Y177165D01*
X-248110Y184055D02*
Y193209D01*
Y251575D01*
X-215138Y177165D02*
X-199193D01*
X-167697Y208661D01*
X-167402D01*
X-119213Y256850D01*
X-112382D01*
X-167402Y147539D02*
Y208661D01*
X-131772Y256890D02*
X-131772D01*
X-123406Y265256D01*
X-105689D01*
X-101260Y260827D01*
Y211417D02*
Y260827D01*
X-135709Y176969D02*
X-101260Y211417D01*
X-247028Y-15256D02*
X-214055D01*
X-273960Y11677D02*
X-247028Y-15256D01*
X-273960Y11677D02*
Y37634D01*
X-236693Y74902D02*
X-236102D01*
X-273960Y37634D02*
X-236693Y74902D01*
X-279508Y42913D02*
X-210512Y111909D01*
X-146831D01*
X-135709Y123031D01*
X-279508Y-15354D02*
Y-15256D01*
Y42913D01*
D50*
X-331772Y292520D02*
X-323786Y284534D01*
X-310943D01*
X-310930Y284547D02*
X-201358D01*
X-310943Y284534D02*
X-310930Y284547D01*
X-201358D02*
X-189252Y272441D01*
X-331772Y292520D02*
Y304331D01*
X-189252Y224705D02*
Y272441D01*
X-199193Y288484D02*
X-182165Y271457D01*
Y227658D02*
Y271457D01*
X-312579Y288484D02*
X-199193D01*
X-335709Y281693D02*
X-204311D01*
X-211890Y264862D02*
X-203819Y272933D01*
X-219567Y264862D02*
X-211890D01*
X-217402Y277854D02*
X-212480Y272933D01*
X-319468Y277854D02*
X-217402D01*
X-328720Y268602D02*
X-319468Y277854D01*
X-204311Y281693D02*
X-196831Y274213D01*
Y256299D02*
Y274213D01*
X-328720Y205118D02*
Y268602D01*
X-228720Y274016D02*
X-219567Y264862D01*
X-318878Y274016D02*
X-228720D01*
X-324390Y268504D02*
X-318878Y274016D01*
X-324390Y212106D02*
Y268504D01*
X-103425Y270571D02*
X-96929Y264075D01*
Y250492D02*
Y264075D01*
Y250492D02*
X-95846Y249410D01*
X-134724Y270571D02*
X-103425D01*
X-142697Y262599D02*
X-134724Y270571D01*
X-152244Y245965D02*
Y280512D01*
Y245965D02*
X-151949Y245669D01*
X-209724Y187894D02*
X-151949Y245669D01*
X-321122Y208839D02*
X-312382D01*
X-324390Y212106D02*
X-321122Y208839D01*
X-328720Y205118D02*
X-322441Y198839D01*
X-312382D01*
X-287579Y133366D02*
Y218012D01*
X-257756Y247835D01*
X-222323Y190453D02*
Y194783D01*
Y190453D02*
X-213661Y181791D01*
X-204606D01*
X-142697Y243701D01*
Y262599D01*
D54*
X-93189Y255118D02*
X-72716Y234646D01*
X-62677D01*
X-93189Y255118D02*
Y273031D01*
X-107756Y287598D02*
X-93189Y273031D01*
X-158150Y287598D02*
X-107756D01*
X-163366Y282382D02*
X-158150Y287598D01*
X-163366Y280906D02*
Y282382D01*
X-88071Y259744D02*
X610D01*
X-88661D02*
X-88071D01*
D56*
X7303Y236713D02*
Y288779D01*
X-174784Y449016D02*
X-142303Y416535D01*
X-174784Y449016D02*
Y502264D01*
X-156378Y520669D01*
X-406378Y412057D02*
X-395748D01*
X-385118D01*
Y356644D02*
Y412057D01*
X-417008Y356644D02*
X-406378D01*
X-395748D01*
X-385118D01*
X-417008D02*
Y412057D01*
X-195945Y-31102D02*
X-185413Y-20571D01*
X-263760Y-31102D02*
X-195945D01*
X-185413Y-20571D02*
Y38287D01*
X-208445D02*
X-197126D01*
X-185413D01*
X-279508Y-15256D02*
X-273406D01*
X-285807D02*
X-279606D01*
X-279508D01*
Y-15354D02*
X-263760Y-31102D01*
D57*
X-229004Y-82590D02*
Y-67236D01*
X-243386Y-52854D02*
X-229004Y-67236D01*
X-274193Y-52854D02*
X-243386D01*
X-312973Y-14075D02*
X-274193Y-52854D01*
X-312973Y-14075D02*
Y110335D01*
X-305689Y123524D02*
X-276358Y94193D01*
X-317303Y123524D02*
X-305689D01*
X-363071Y-67323D02*
Y-42913D01*
Y-67323D02*
X-357658Y-72736D01*
X-346732D01*
X-361890Y-91240D02*
X-346732D01*
X-373996Y-79134D02*
X-361890Y-91240D01*
X-373996Y-79134D02*
Y-41339D01*
X-363071Y-42913D02*
X-322028Y-1870D01*
Y118799D01*
X-317303Y123524D01*
X-373996Y-41339D02*
X-336890Y-4232D01*
Y128480D01*
D59*
X-843760Y-71468D02*
X-808327D01*
X-865138Y-50090D02*
X-843760Y-71468D01*
X-865138Y-50090D02*
Y-5512D01*
X-857657Y1969D02*
X-842106D01*
X-646760Y-71468D02*
X-611327D01*
X-646760D02*
Y-6130D01*
X-639153Y1476D01*
X-613957D01*
X-613661Y1181D01*
X-865138Y-5512D02*
X-857657Y1969D01*
D61*
X-143484Y-63287D02*
X-116811D01*
X-110846Y-69252D01*
Y-82590D02*
Y-69252D01*
X-150216Y-70020D02*
X-143484Y-63287D01*
X-150216Y-82590D02*
Y-70020D01*
D63*
X-229004Y-82590D02*
D03*
X-110846D02*
D03*
X-189587D02*
D03*
X-150216D02*
D03*
X-580984Y202539D02*
D03*
Y142539D02*
D03*
X-62894Y517421D02*
D03*
X-122894D02*
D03*
X-268622Y-82590D02*
D03*
D64*
X-249004D02*
D03*
X-130847D02*
D03*
X-209587D02*
D03*
X-170217D02*
D03*
X-346732Y-91240D02*
D03*
Y-72736D02*
D03*
Y-54232D02*
D03*
X-288622Y-82590D02*
D03*
D65*
X-746732Y-71850D02*
D03*
X-711299D02*
D03*
X-544173Y-71555D02*
D03*
X-508740D02*
D03*
X-411846Y465343D02*
D03*
X-386272Y512890D02*
D03*
X-843760Y-71468D02*
D03*
X-808327D02*
D03*
X-646760D02*
D03*
X-611327D02*
D03*
D66*
X-220532Y160236D02*
D03*
X-230532D02*
D03*
X-240531D02*
D03*
X-250532D02*
D03*
X-312382Y258839D02*
D03*
Y248839D02*
D03*
Y238839D02*
D03*
Y228839D02*
D03*
Y218839D02*
D03*
Y208839D02*
D03*
Y198839D02*
D03*
X-550406Y174988D02*
D03*
X-420484D02*
D03*
Y184988D02*
D03*
X17500Y114000D02*
D03*
Y124000D02*
D03*
Y134000D02*
D03*
Y144000D02*
D03*
X0Y0D02*
D03*
X-10000D02*
D03*
X-20000D02*
D03*
X-30000D02*
D03*
X-40000D02*
D03*
X-36500Y214000D02*
D03*
X-26500D02*
D03*
X-16500D02*
D03*
D67*
X-260531Y160236D02*
D03*
X-50000Y0D02*
D03*
X-46500Y214000D02*
D03*
D68*
X-312382Y268839D02*
D03*
X-550406Y184988D02*
D03*
X17500Y104000D02*
D03*
D69*
X-276358Y94193D02*
D03*
D70*
X-262677Y402559D02*
D03*
Y461614D02*
D03*
Y520669D02*
D03*
X-156378D02*
D03*
Y461614D02*
D03*
Y402559D02*
D03*
D71*
X-811496Y138681D02*
D03*
X-673701D02*
D03*
X-639153Y139272D02*
D03*
Y1476D02*
D03*
X-842106Y139764D02*
D03*
Y1969D02*
D03*
D72*
X-341910Y322342D02*
D03*
X-189252Y224705D02*
D03*
X-182165Y227461D02*
D03*
X-312579Y288484D02*
D03*
X-331772Y304331D02*
D03*
X-215728Y386614D02*
D03*
X-313366Y418405D02*
D03*
X-298209Y368406D02*
D03*
X-332913Y375945D02*
D03*
X-283347Y308268D02*
D03*
X-62677Y234646D02*
D03*
X-163366Y280906D02*
D03*
X-152244Y280512D02*
D03*
X-95846Y249410D02*
D03*
X-88071Y259744D02*
D03*
X-36988Y278937D02*
D03*
Y272539D02*
D03*
X-136890Y411024D02*
D03*
X-23799Y449409D02*
D03*
X-16319D02*
D03*
X-23799Y442717D02*
D03*
X-78917Y471358D02*
D03*
X-88661Y480315D02*
D03*
Y471358D02*
D03*
X-78917Y480315D02*
D03*
X-135906Y479724D02*
D03*
Y455413D02*
D03*
Y463517D02*
D03*
Y471621D02*
D03*
X-252441Y37795D02*
D03*
X-246339D02*
D03*
X-240236D02*
D03*
X-234134D02*
D03*
X-203819Y272933D02*
D03*
X-212480D02*
D03*
X-196831Y256299D02*
D03*
X-101752Y5610D02*
D03*
Y18602D02*
D03*
X-103622Y31594D02*
D03*
X-130492Y-7382D02*
D03*
X-117057D02*
D03*
X-103622D02*
D03*
X-117057Y31594D02*
D03*
X-130492D02*
D03*
X5335Y289961D02*
D03*
X-965D02*
D03*
X-7264D02*
D03*
X-258543Y37795D02*
D03*
X-228031D02*
D03*
X-312973Y110335D02*
D03*
X-110610Y330020D02*
D03*
X-257756Y247835D02*
D03*
X-287579Y133366D02*
D03*
X-209724Y187894D02*
D03*
X-293976Y268799D02*
D03*
X-167402Y208661D02*
D03*
X-335709Y281693D02*
D03*
X-46831Y378740D02*
D03*
Y385039D02*
D03*
X-52835Y378740D02*
D03*
X-58839D02*
D03*
Y385039D02*
D03*
X-52835D02*
D03*
X17933Y289961D02*
D03*
X11634D02*
D03*
X-405787Y31496D02*
D03*
X-395158D02*
D03*
X-384528D02*
D03*
X-373898D02*
D03*
X-406083Y87303D02*
D03*
X-384823D02*
D03*
X-374193D02*
D03*
X-336890Y128480D02*
D03*
X-377343Y231102D02*
D03*
X-346339Y26969D02*
D03*
X-324587Y461614D02*
D03*
X-330935D02*
D03*
X-337283D02*
D03*
X-416614Y453937D02*
D03*
X-408445Y453839D02*
D03*
X-417008Y356644D02*
D03*
Y412057D02*
D03*
X-395748D02*
D03*
X-385118D02*
D03*
Y356644D02*
D03*
X-406378D02*
D03*
X-395748D02*
D03*
X-406378Y412057D02*
D03*
X-368189Y363976D02*
D03*
X-362726D02*
D03*
X-255394Y338484D02*
D03*
X-110413Y400787D02*
D03*
X-16319Y442717D02*
D03*
X-58937Y471752D02*
D03*
Y478445D02*
D03*
X-66417Y471752D02*
D03*
Y478445D02*
D03*
X-131772Y256890D02*
D03*
X-175965Y291339D02*
D03*
X-160512Y249803D02*
D03*
X-282756Y250000D02*
D03*
X-222323Y194783D02*
D03*
X-36988Y266831D02*
D03*
X-40827Y290846D02*
D03*
Y310531D02*
D03*
Y300689D02*
D03*
X-72323D02*
D03*
Y310531D02*
D03*
Y290846D02*
D03*
X-214055Y-15256D02*
D03*
X-236693Y74902D02*
D03*
X-183051Y99114D02*
D03*
X-205984D02*
D03*
X-194518D02*
D03*
X-185413Y38287D02*
D03*
X-208839D02*
D03*
X-197126D02*
D03*
X-285807Y-15256D02*
D03*
X-273406D02*
D03*
X-279606D02*
D03*
X-167402Y147539D02*
D03*
X-118189Y97441D02*
D03*
X-283051Y387008D02*
D03*
X-77441Y-86319D02*
D03*
X-112382Y256850D02*
D03*
X-143455Y191781D02*
D03*
D73*
X-613661Y1181D02*
D03*
X-866220Y-2264D02*
D03*
X-728819Y1476D02*
D03*
X-526260Y2264D02*
D03*
M02*
