G04 Layer_Color=65535*
%FSLAX25Y25*%
%MOIN*%
G70*
G01*
G75*
%ADD57C,0.01000*%
%ADD74C,0.01181*%
%ADD75C,0.00984*%
%ADD76C,0.00500*%
%ADD77C,0.03937*%
%ADD78C,0.01575*%
%ADD79C,0.00787*%
%ADD80C,0.00394*%
%ADD81C,0.00591*%
%ADD82C,0.01969*%
D57*
X638271Y442795D02*
G03*
X638271Y442795I-574J0D01*
G01*
X527776Y382410D02*
G03*
X527776Y382410I-500J0D01*
G01*
X723461Y22200D02*
G03*
X715461Y22200I-4000J0D01*
G01*
X723461D02*
G03*
X731461Y22200I4000J0D01*
G01*
X645571Y224705D02*
G03*
X645571Y224705I-23622J0D01*
G01*
X216902Y31484D02*
X291705D01*
X216902D02*
Y81484D01*
X291705Y31484D02*
Y81484D01*
X216902D02*
X291705D01*
X622047Y444862D02*
Y468583D01*
Y444862D02*
X712598D01*
X622047Y468583D02*
X712598D01*
Y444862D02*
Y468583D01*
X545590Y39457D02*
Y72331D01*
X585118Y39457D02*
Y72331D01*
X545590D02*
X585118D01*
X545590Y39457D02*
X585118D01*
X21555Y234965D02*
X60925D01*
X21555Y167913D02*
X60925D01*
X21555D02*
Y234965D01*
X60925Y167913D02*
Y234965D01*
X41240Y144094D02*
Y167920D01*
X41640Y235265D02*
Y258957D01*
X224508Y234473D02*
X263878D01*
X224508Y167421D02*
X263878D01*
X224508D02*
Y234473D01*
X263878Y167421D02*
Y234473D01*
X244193Y143602D02*
Y167428D01*
X244593Y234773D02*
Y258465D01*
X107161Y249508D02*
Y288878D01*
X174213Y249508D02*
Y288878D01*
X107161Y249508D02*
X174213D01*
X107161Y288878D02*
X174213D01*
X174206Y269193D02*
X198032D01*
X83169Y269593D02*
X106861D01*
X742717Y525381D02*
Y659055D01*
X604921Y525381D02*
Y659055D01*
Y525381D02*
X742717D01*
X604921Y659055D02*
X742717D01*
X19902Y31484D02*
X94705D01*
X19902D02*
Y81484D01*
X94705Y31484D02*
Y81484D01*
X19902D02*
X94705D01*
X329402Y319000D02*
X466402D01*
Y302000D02*
Y319000D01*
X329402Y302000D02*
X466402D01*
X329402D02*
Y319000D01*
X-98Y110236D02*
X909350D01*
X402Y31985D02*
X909350D01*
X489301Y588488D02*
Y650858D01*
X505049Y588488D02*
Y650858D01*
X489301D02*
X505049D01*
X489301Y588488D02*
X505049D01*
X479274Y588399D02*
Y650769D01*
X463526Y588399D02*
Y650769D01*
Y588399D02*
X479274D01*
X463526Y650769D02*
X479274D01*
X663996Y39457D02*
Y72331D01*
X703524Y39457D02*
Y72331D01*
X663996D02*
X703524D01*
X663996Y39457D02*
X703524D01*
X624626D02*
Y72331D01*
X664153Y39457D02*
Y72331D01*
X624626D02*
X664153D01*
X624626Y39457D02*
X664153D01*
X703366D02*
Y72331D01*
X742894Y39457D02*
Y72331D01*
X703366D02*
X742894D01*
X703366Y39457D02*
X742894D01*
X250106Y290520D02*
Y325480D01*
X275697Y290520D02*
Y325480D01*
X250106D02*
X275697D01*
X250106Y290520D02*
X275697D01*
X194587Y299409D02*
Y329331D01*
X220571Y299409D02*
Y329331D01*
X194587D02*
X220571D01*
X194587Y299409D02*
X220571D01*
X538583Y633760D02*
X564567D01*
X538583Y603838D02*
X564567D01*
X538583D02*
Y633760D01*
X564567Y603838D02*
Y633760D01*
X319488Y31398D02*
X394291D01*
X319488D02*
Y81397D01*
X394291Y31398D02*
Y81397D01*
X319488D02*
X394291D01*
X116929Y31102D02*
X191732D01*
X116929D02*
Y81102D01*
X191732Y31102D02*
Y81102D01*
X116929D02*
X191732D01*
X585209Y39457D02*
Y72331D01*
X624736Y39457D02*
Y72331D01*
X585209D02*
X624736D01*
X585209Y39457D02*
X624736D01*
X497572Y19030D02*
X496573Y20030D01*
X494573D01*
X493574Y19030D01*
Y18030D01*
X494573Y17031D01*
X496573D01*
X497572Y16031D01*
Y15031D01*
X496573Y14032D01*
X494573D01*
X493574Y15031D01*
X499572Y20030D02*
X501571D01*
X500571D01*
Y14032D01*
X499572D01*
X501571D01*
X504570D02*
Y20030D01*
X507569D01*
X508569Y19030D01*
Y17031D01*
X507569Y16031D01*
X504570D01*
X506569D02*
X508569Y14032D01*
X514567Y20030D02*
X510568D01*
Y14032D01*
X514567D01*
X510568Y17031D02*
X512568D01*
X516566Y14032D02*
Y20030D01*
X520565Y14032D01*
Y20030D01*
X506070Y9432D02*
X505070Y10432D01*
X503071D01*
X502071Y9432D01*
Y8433D01*
X503071Y7433D01*
X505070D01*
X506070Y6433D01*
Y5434D01*
X505070Y4434D01*
X503071D01*
X502071Y5434D01*
X508069Y10432D02*
Y4434D01*
X510068Y6433D01*
X512068Y4434D01*
Y10432D01*
X875196Y348862D02*
X881194D01*
Y345863D01*
X880195Y344863D01*
X878195D01*
X877196Y345863D01*
Y348862D01*
X875196Y342864D02*
Y340864D01*
Y341864D01*
X881194D01*
X880195Y342864D01*
X881194Y337865D02*
Y333867D01*
X880195D01*
X876196Y337865D01*
X875196D01*
X889665Y130610D02*
Y134609D01*
X891665D01*
X892331Y133942D01*
Y132610D01*
X891665Y131943D01*
X889665D01*
X893664Y130610D02*
X894997D01*
X894331D01*
Y134609D01*
X893664Y133942D01*
X899662Y134609D02*
X898329Y133942D01*
X896996Y132610D01*
Y131277D01*
X897663Y130610D01*
X898996D01*
X899662Y131277D01*
Y131943D01*
X898996Y132610D01*
X896996D01*
X799868Y378018D02*
Y380642D01*
X799212Y381298D01*
X797900D01*
X797244Y380642D01*
Y378018D01*
X797900Y377362D01*
X799212D01*
X798556Y378674D02*
X799868Y377362D01*
X799212D02*
X799868Y378018D01*
X801180Y377362D02*
X802492D01*
X801836D01*
Y381298D01*
X801180Y380642D01*
X804460D02*
X805116Y381298D01*
X806427D01*
X807084Y380642D01*
Y378018D01*
X806427Y377362D01*
X805116D01*
X804460Y378018D01*
Y380642D01*
X771521Y198786D02*
Y201410D01*
X770865Y202066D01*
X769554D01*
X768898Y201410D01*
Y198786D01*
X769554Y198130D01*
X770865D01*
X770210Y199442D02*
X771521Y198130D01*
X770865D02*
X771521Y198786D01*
X772833D02*
X773489Y198130D01*
X774801D01*
X775457Y198786D01*
Y201410D01*
X774801Y202066D01*
X773489D01*
X772833Y201410D01*
Y200754D01*
X773489Y200098D01*
X775457D01*
X707677Y146814D02*
Y142815D01*
X709677D01*
X710343Y143481D01*
Y146147D01*
X709677Y146814D01*
X707677D01*
X713675Y142815D02*
Y146814D01*
X711676Y144814D01*
X714342D01*
X586417Y133133D02*
Y129134D01*
X588417D01*
X589083Y129800D01*
Y132466D01*
X588417Y133133D01*
X586417D01*
X593082Y129134D02*
X590416D01*
X593082Y131800D01*
Y132466D01*
X592415Y133133D01*
X591082D01*
X590416Y132466D01*
X463091Y562660D02*
Y558661D01*
X465090D01*
X465756Y559328D01*
Y561994D01*
X465090Y562660D01*
X463091D01*
X469755Y558661D02*
X467089D01*
X469755Y561327D01*
Y561994D01*
X469089Y562660D01*
X467756D01*
X467089Y561994D01*
X473754Y562660D02*
X472421Y561994D01*
X471088Y560661D01*
Y559328D01*
X471754Y558661D01*
X473087D01*
X473754Y559328D01*
Y559994D01*
X473087Y560661D01*
X471088D01*
X782972Y638152D02*
Y634154D01*
X784972D01*
X785638Y634820D01*
Y637486D01*
X784972Y638152D01*
X782972D01*
X789637D02*
X786971D01*
Y636153D01*
X788304Y636819D01*
X788971D01*
X789637Y636153D01*
Y634820D01*
X788971Y634154D01*
X787638D01*
X786971Y634820D01*
X518602Y216203D02*
Y212871D01*
X519269Y212205D01*
X520602D01*
X521268Y212871D01*
Y216203D01*
X522601Y215537D02*
X523268Y216203D01*
X524600D01*
X525267Y215537D01*
Y214871D01*
X524600Y214204D01*
X523934D01*
X524600D01*
X525267Y213538D01*
Y212871D01*
X524600Y212205D01*
X523268D01*
X522601Y212871D01*
X802953Y542913D02*
Y546912D01*
X804952D01*
X805619Y546246D01*
Y544913D01*
X804952Y544246D01*
X802953D01*
X804286D02*
X805619Y542913D01*
X809617D02*
X806952D01*
X809617Y545579D01*
Y546246D01*
X808951Y546912D01*
X807618D01*
X806952Y546246D01*
X592913Y413976D02*
Y417975D01*
X594913D01*
X595579Y417309D01*
Y415976D01*
X594913Y415309D01*
X592913D01*
X594246D02*
X595579Y413976D01*
X596912Y417309D02*
X597578Y417975D01*
X598911D01*
X599578Y417309D01*
Y416642D01*
X598911Y415976D01*
X598245D01*
X598911D01*
X599578Y415309D01*
Y414643D01*
X598911Y413976D01*
X597578D01*
X596912Y414643D01*
X603577Y417975D02*
X602244Y417309D01*
X600911Y415976D01*
Y414643D01*
X601577Y413976D01*
X602910D01*
X603577Y414643D01*
Y415309D01*
X602910Y415976D01*
X600911D01*
X473630Y118490D02*
X472964Y119156D01*
X471631D01*
X470965Y118490D01*
Y115824D01*
X471631Y115157D01*
X472964D01*
X473630Y115824D01*
X474963Y115157D02*
X476296D01*
X475630D01*
Y119156D01*
X474963Y118490D01*
X478296D02*
X478962Y119156D01*
X480295D01*
X480961Y118490D01*
Y117823D01*
X480295Y117157D01*
X479628D01*
X480295D01*
X480961Y116490D01*
Y115824D01*
X480295Y115157D01*
X478962D01*
X478296Y115824D01*
X627863Y117581D02*
X625197D01*
Y115582D01*
X626530D01*
X625197D01*
Y113583D01*
X629196Y116915D02*
X629862Y117581D01*
X631195D01*
X631861Y116915D01*
Y116249D01*
X631195Y115582D01*
X630528D01*
X631195D01*
X631861Y114916D01*
Y114249D01*
X631195Y113583D01*
X629862D01*
X629196Y114249D01*
X736024Y411319D02*
Y415318D01*
X738023D01*
X738689Y414651D01*
Y413318D01*
X738023Y412652D01*
X736024D01*
X737357D02*
X738689Y411319D01*
X742688D02*
X740022D01*
X742688Y413985D01*
Y414651D01*
X742022Y415318D01*
X740689D01*
X740022Y414651D01*
X744021Y411985D02*
X744688Y411319D01*
X746020D01*
X746687Y411985D01*
Y414651D01*
X746020Y415318D01*
X744688D01*
X744021Y414651D01*
Y413985D01*
X744688Y413318D01*
X746687D01*
X860728Y448881D02*
Y444882D01*
X862728D01*
X863394Y445548D01*
Y448214D01*
X862728Y448881D01*
X860728D01*
X864727Y444882D02*
X866060D01*
X865394D01*
Y448881D01*
X864727Y448214D01*
X868059Y445548D02*
X868726Y444882D01*
X870059D01*
X870725Y445548D01*
Y448214D01*
X870059Y448881D01*
X868726D01*
X868059Y448214D01*
Y447548D01*
X868726Y446881D01*
X870725D01*
X534063Y279308D02*
Y281974D01*
X533397Y282640D01*
X532064D01*
X531398Y281974D01*
Y279308D01*
X532064Y278642D01*
X533397D01*
X532730Y279975D02*
X534063Y278642D01*
X533397D02*
X534063Y279308D01*
X538062Y282640D02*
X535396D01*
Y280641D01*
X536729Y281308D01*
X537396D01*
X538062Y280641D01*
Y279308D01*
X537396Y278642D01*
X536063D01*
X535396Y279308D01*
X566142Y633034D02*
Y630368D01*
X567475Y629035D01*
X568808Y630368D01*
Y633034D01*
X570140Y629035D02*
X571473D01*
X570807D01*
Y633034D01*
X570140Y632368D01*
X807776Y565810D02*
X810441D01*
Y565143D01*
X807776Y562477D01*
Y561811D01*
X810441D01*
X811774Y565810D02*
Y561811D01*
X813774D01*
X814440Y562477D01*
Y565143D01*
X813774Y565810D01*
X811774D01*
X815773D02*
X818439D01*
Y565143D01*
X815773Y562477D01*
Y561811D01*
X841929Y546814D02*
X844595D01*
Y546147D01*
X841929Y543481D01*
Y542815D01*
X844595D01*
X845928Y546814D02*
Y542815D01*
X847927D01*
X848594Y543481D01*
Y546147D01*
X847927Y546814D01*
X845928D01*
X849927Y542815D02*
X851260D01*
X850593D01*
Y546814D01*
X849927Y546147D01*
X728937Y196420D02*
X731603D01*
Y195754D01*
X728937Y193088D01*
Y192421D01*
X731603D01*
X732936Y195754D02*
X733602Y196420D01*
X734935D01*
X735602Y195754D01*
Y195087D01*
X734935Y194421D01*
X734269D01*
X734935D01*
X735602Y193754D01*
Y193088D01*
X734935Y192421D01*
X733602D01*
X732936Y193088D01*
X609055Y470534D02*
Y467202D01*
X609722Y466536D01*
X611055D01*
X611721Y467202D01*
Y470534D01*
X613054D02*
X615720D01*
Y469868D01*
X613054Y467202D01*
Y466536D01*
X751083Y480574D02*
Y477241D01*
X751749Y476575D01*
X753082D01*
X753749Y477241D01*
Y480574D01*
X757747D02*
X755081D01*
Y478574D01*
X756414Y479241D01*
X757081D01*
X757747Y478574D01*
Y477241D01*
X757081Y476575D01*
X755748D01*
X755081Y477241D01*
X707264Y267877D02*
Y264545D01*
X707930Y263878D01*
X709263D01*
X709930Y264545D01*
Y267877D01*
X713928Y263878D02*
X711263D01*
X713928Y266544D01*
Y267210D01*
X713262Y267877D01*
X711929D01*
X711263Y267210D01*
X329902Y328452D02*
Y323454D01*
X330901Y322454D01*
X332901D01*
X333900Y323454D01*
Y328452D01*
X335900Y322454D02*
X337899D01*
X336899D01*
Y328452D01*
X335900Y327453D01*
X493110Y656262D02*
X495776D01*
X494443D01*
Y652264D01*
X497109Y656262D02*
X499775Y652264D01*
Y656262D02*
X497109Y652264D01*
X725394Y162955D02*
X728059D01*
X726727D01*
Y158957D01*
X729392Y162289D02*
X730059Y162955D01*
X731392D01*
X732058Y162289D01*
Y161623D01*
X731392Y160956D01*
X730725D01*
X731392D01*
X732058Y160290D01*
Y159623D01*
X731392Y158957D01*
X730059D01*
X729392Y159623D01*
X744390Y658822D02*
X747056D01*
X745723D01*
Y654823D01*
X748388D02*
X749721D01*
X749055D01*
Y658822D01*
X748388Y658155D01*
X612205Y507087D02*
Y511085D01*
X614204D01*
X614871Y510419D01*
Y509086D01*
X614204Y508420D01*
X612205D01*
X613538D02*
X614871Y507087D01*
X618869Y511085D02*
X616203D01*
Y509086D01*
X617536Y509752D01*
X618203D01*
X618869Y509086D01*
Y507753D01*
X618203Y507087D01*
X616870D01*
X616203Y507753D01*
X622868Y511085D02*
X621535Y510419D01*
X620202Y509086D01*
Y507753D01*
X620869Y507087D01*
X622201D01*
X622868Y507753D01*
Y508420D01*
X622201Y509086D01*
X620202D01*
X586713Y452362D02*
Y456361D01*
X588712D01*
X589378Y455694D01*
Y454362D01*
X588712Y453695D01*
X586713D01*
X588046D02*
X589378Y452362D01*
X593377Y456361D02*
X590711D01*
Y454362D01*
X592044Y455028D01*
X592711D01*
X593377Y454362D01*
Y453029D01*
X592711Y452362D01*
X591378D01*
X590711Y453029D01*
X597376Y456361D02*
X594710D01*
Y454362D01*
X596043Y455028D01*
X596709D01*
X597376Y454362D01*
Y453029D01*
X596709Y452362D01*
X595376D01*
X594710Y453029D01*
X651575Y506791D02*
Y510790D01*
X653574D01*
X654241Y510124D01*
Y508791D01*
X653574Y508124D01*
X651575D01*
X652908D02*
X654241Y506791D01*
X658239Y510790D02*
X655574D01*
Y508791D01*
X656906Y509457D01*
X657573D01*
X658239Y508791D01*
Y507458D01*
X657573Y506791D01*
X656240D01*
X655574Y507458D01*
X661572Y506791D02*
Y510790D01*
X659572Y508791D01*
X662238D01*
X754724Y215059D02*
Y219058D01*
X756724D01*
X757390Y218391D01*
Y217058D01*
X756724Y216392D01*
X754724D01*
X756057D02*
X757390Y215059D01*
X760722D02*
Y219058D01*
X758723Y217058D01*
X761389D01*
X762722Y215725D02*
X763388Y215059D01*
X764721D01*
X765388Y215725D01*
Y218391D01*
X764721Y219058D01*
X763388D01*
X762722Y218391D01*
Y217725D01*
X763388Y217058D01*
X765388D01*
X744095Y205610D02*
Y209609D01*
X746094D01*
X746760Y208943D01*
Y207610D01*
X746094Y206943D01*
X744095D01*
X745427D02*
X746760Y205610D01*
X750093D02*
Y209609D01*
X748093Y207610D01*
X750759D01*
X752092Y209609D02*
X754758D01*
Y208943D01*
X752092Y206277D01*
Y205610D01*
X727165Y434941D02*
Y438940D01*
X729165D01*
X729831Y438273D01*
Y436940D01*
X729165Y436274D01*
X727165D01*
X728498D02*
X729831Y434941D01*
X733163D02*
Y438940D01*
X731164Y436940D01*
X733830D01*
X737829Y438940D02*
X735163D01*
Y436940D01*
X736496Y437607D01*
X737162D01*
X737829Y436940D01*
Y435607D01*
X737162Y434941D01*
X735829D01*
X735163Y435607D01*
X612992Y408268D02*
Y412266D01*
X614992D01*
X615658Y411600D01*
Y410267D01*
X614992Y409601D01*
X612992D01*
X614325D02*
X615658Y408268D01*
X616991Y411600D02*
X617657Y412266D01*
X618990D01*
X619657Y411600D01*
Y410933D01*
X618990Y410267D01*
X618324D01*
X618990D01*
X619657Y409601D01*
Y408934D01*
X618990Y408268D01*
X617657D01*
X616991Y408934D01*
X623655Y412266D02*
X620990D01*
Y410267D01*
X622323Y410933D01*
X622989D01*
X623655Y410267D01*
Y408934D01*
X622989Y408268D01*
X621656D01*
X620990Y408934D01*
X622736Y431693D02*
Y435692D01*
X624736D01*
X625402Y435025D01*
Y433692D01*
X624736Y433026D01*
X622736D01*
X624069D02*
X625402Y431693D01*
X626735Y435025D02*
X627401Y435692D01*
X628734D01*
X629401Y435025D01*
Y434359D01*
X628734Y433692D01*
X628068D01*
X628734D01*
X629401Y433026D01*
Y432359D01*
X628734Y431693D01*
X627401D01*
X626735Y432359D01*
X632733Y431693D02*
Y435692D01*
X630734Y433692D01*
X633399D01*
X631890Y408366D02*
Y412365D01*
X633889D01*
X634556Y411698D01*
Y410365D01*
X633889Y409699D01*
X631890D01*
X633223D02*
X634556Y408366D01*
X635888Y411698D02*
X636555Y412365D01*
X637888D01*
X638554Y411698D01*
Y411032D01*
X637888Y410365D01*
X637221D01*
X637888D01*
X638554Y409699D01*
Y409033D01*
X637888Y408366D01*
X636555D01*
X635888Y409033D01*
X642553Y408366D02*
X639887D01*
X642553Y411032D01*
Y411698D01*
X641887Y412365D01*
X640554D01*
X639887Y411698D01*
X642323Y431496D02*
Y435495D01*
X644322D01*
X644989Y434828D01*
Y433495D01*
X644322Y432829D01*
X642323D01*
X643656D02*
X644989Y431496D01*
X646321Y434828D02*
X646988Y435495D01*
X648321D01*
X648987Y434828D01*
Y434162D01*
X648321Y433495D01*
X647654D01*
X648321D01*
X648987Y432829D01*
Y432163D01*
X648321Y431496D01*
X646988D01*
X646321Y432163D01*
X650320Y431496D02*
X651653D01*
X650987D01*
Y435495D01*
X650320Y434828D01*
X651575Y408366D02*
Y412365D01*
X653574D01*
X654241Y411698D01*
Y410365D01*
X653574Y409699D01*
X651575D01*
X652908D02*
X654241Y408366D01*
X655574Y411698D02*
X656240Y412365D01*
X657573D01*
X658239Y411698D01*
Y411032D01*
X657573Y410365D01*
X656906D01*
X657573D01*
X658239Y409699D01*
Y409033D01*
X657573Y408366D01*
X656240D01*
X655574Y409033D01*
X659572Y411698D02*
X660239Y412365D01*
X661572D01*
X662238Y411698D01*
Y409033D01*
X661572Y408366D01*
X660239D01*
X659572Y409033D01*
Y411698D01*
X505905Y387106D02*
Y391105D01*
X507905D01*
X508571Y390439D01*
Y389106D01*
X507905Y388439D01*
X505905D01*
X507238D02*
X508571Y387106D01*
X512570D02*
X509904D01*
X512570Y389772D01*
Y390439D01*
X511904Y391105D01*
X510571D01*
X509904Y390439D01*
X513903D02*
X514569Y391105D01*
X515902D01*
X516569Y390439D01*
Y389772D01*
X515902Y389106D01*
X516569Y388439D01*
Y387773D01*
X515902Y387106D01*
X514569D01*
X513903Y387773D01*
Y388439D01*
X514569Y389106D01*
X513903Y389772D01*
Y390439D01*
X514569Y389106D02*
X515902D01*
X17028Y248327D02*
Y254325D01*
X20027D01*
X21026Y253325D01*
Y251326D01*
X20027Y250326D01*
X17028D01*
X19027D02*
X21026Y248327D01*
X27024D02*
X23026D01*
X27024Y252326D01*
Y253325D01*
X26025Y254325D01*
X24025D01*
X23026Y253325D01*
X33022Y254325D02*
X31023Y253325D01*
X29024Y251326D01*
Y249326D01*
X30023Y248327D01*
X32023D01*
X33022Y249326D01*
Y250326D01*
X32023Y251326D01*
X29024D01*
X526772Y288189D02*
Y292188D01*
X528771D01*
X529437Y291521D01*
Y290188D01*
X528771Y289522D01*
X526772D01*
X528105D02*
X529437Y288189D01*
X533436D02*
X530770D01*
X533436Y290855D01*
Y291521D01*
X532770Y292188D01*
X531437D01*
X530770Y291521D01*
X537435Y292188D02*
X534769D01*
Y290188D01*
X536102Y290855D01*
X536768D01*
X537435Y290188D01*
Y288855D01*
X536768Y288189D01*
X535435D01*
X534769Y288855D01*
X173957Y326957D02*
Y332955D01*
X176956D01*
X177955Y331955D01*
Y329956D01*
X176956Y328956D01*
X173957D01*
X175956D02*
X177955Y326957D01*
X183953D02*
X179955D01*
X183953Y330955D01*
Y331955D01*
X182954Y332955D01*
X180954D01*
X179955Y331955D01*
X185953D02*
X186952Y332955D01*
X188952D01*
X189952Y331955D01*
Y330955D01*
X188952Y329956D01*
X187952D01*
X188952D01*
X189952Y328956D01*
Y327956D01*
X188952Y326957D01*
X186952D01*
X185953Y327956D01*
X502461Y296457D02*
Y300455D01*
X504460D01*
X505126Y299789D01*
Y298456D01*
X504460Y297790D01*
X502461D01*
X503793D02*
X505126Y296457D01*
X509125D02*
X506459D01*
X509125Y299123D01*
Y299789D01*
X508459Y300455D01*
X507126D01*
X506459Y299789D01*
X513124Y296457D02*
X510458D01*
X513124Y299123D01*
Y299789D01*
X512457Y300455D01*
X511125D01*
X510458Y299789D01*
X515650Y339469D02*
Y343467D01*
X517649D01*
X518315Y342801D01*
Y341468D01*
X517649Y340801D01*
X515650D01*
X516983D02*
X518315Y339469D01*
X519648D02*
X520981D01*
X520315D01*
Y343467D01*
X519648Y342801D01*
X522981Y340135D02*
X523647Y339469D01*
X524980D01*
X525646Y340135D01*
Y342801D01*
X524980Y343467D01*
X523647D01*
X522981Y342801D01*
Y342134D01*
X523647Y341468D01*
X525646D01*
X480413Y296457D02*
Y300455D01*
X482413D01*
X483079Y299789D01*
Y298456D01*
X482413Y297790D01*
X480413D01*
X481746D02*
X483079Y296457D01*
X484412D02*
X485745D01*
X485078D01*
Y300455D01*
X484412Y299789D01*
X487744D02*
X488411Y300455D01*
X489744D01*
X490410Y299789D01*
Y299123D01*
X489744Y298456D01*
X490410Y297790D01*
Y297123D01*
X489744Y296457D01*
X488411D01*
X487744Y297123D01*
Y297790D01*
X488411Y298456D01*
X487744Y299123D01*
Y299789D01*
X488411Y298456D02*
X489744D01*
X257776Y244587D02*
Y250585D01*
X260775D01*
X261774Y249585D01*
Y247586D01*
X260775Y246586D01*
X257776D01*
X259775D02*
X261774Y244587D01*
X263774D02*
X265773D01*
X264773D01*
Y250585D01*
X263774Y249585D01*
X272771Y250585D02*
X268772D01*
Y247586D01*
X270771Y248585D01*
X271771D01*
X272771Y247586D01*
Y245586D01*
X271771Y244587D01*
X269772D01*
X268772Y245586D01*
X473917Y370079D02*
Y374077D01*
X475917D01*
X476583Y373411D01*
Y372078D01*
X475917Y371412D01*
X473917D01*
X475250D02*
X476583Y370079D01*
X477916D02*
X479249D01*
X478582D01*
Y374077D01*
X477916Y373411D01*
X483914Y370079D02*
X481248D01*
X483914Y372744D01*
Y373411D01*
X483248Y374077D01*
X481915D01*
X481248Y373411D01*
X795079Y616240D02*
Y620239D01*
X797078D01*
X797745Y619572D01*
Y618239D01*
X797078Y617573D01*
X795079D01*
X796412D02*
X797745Y616240D01*
X799078D02*
X800410D01*
X799744D01*
Y620239D01*
X799078Y619572D01*
X802410Y616240D02*
X803743D01*
X803076D01*
Y620239D01*
X802410Y619572D01*
X654823Y264862D02*
Y268861D01*
X656822D01*
X657489Y268195D01*
Y266862D01*
X656822Y266195D01*
X654823D01*
X656156D02*
X657489Y264862D01*
X658822D02*
X660154D01*
X659488D01*
Y268861D01*
X658822Y268195D01*
X662154D02*
X662820Y268861D01*
X664153D01*
X664820Y268195D01*
Y265529D01*
X664153Y264862D01*
X662820D01*
X662154Y265529D01*
Y268195D01*
X477067Y380413D02*
Y384412D01*
X479066D01*
X479733Y383746D01*
Y382413D01*
X479066Y381746D01*
X477067D01*
X478400D02*
X479733Y380413D01*
X481066Y381080D02*
X481732Y380413D01*
X483065D01*
X483731Y381080D01*
Y383746D01*
X483065Y384412D01*
X481732D01*
X481066Y383746D01*
Y383079D01*
X481732Y382413D01*
X483731D01*
X467421Y347146D02*
Y351144D01*
X469421D01*
X470087Y350478D01*
Y349145D01*
X469421Y348479D01*
X467421D01*
X468754D02*
X470087Y347146D01*
X471420Y351144D02*
X474086D01*
Y350478D01*
X471420Y347812D01*
Y347146D01*
X808760Y524114D02*
Y528113D01*
X810759D01*
X811426Y527446D01*
Y526114D01*
X810759Y525447D01*
X808760D01*
X810093D02*
X811426Y524114D01*
X815424Y528113D02*
X814091Y527446D01*
X812759Y526114D01*
Y524781D01*
X813425Y524114D01*
X814758D01*
X815424Y524781D01*
Y525447D01*
X814758Y526114D01*
X812759D01*
X176083Y281496D02*
Y287494D01*
X179082D01*
X180081Y286494D01*
Y284495D01*
X179082Y283495D01*
X176083D01*
X178082D02*
X180081Y281496D01*
X186079Y287494D02*
X182081D01*
Y284495D01*
X184080Y285495D01*
X185080D01*
X186079Y284495D01*
Y282496D01*
X185080Y281496D01*
X183080D01*
X182081Y282496D01*
X844094Y371260D02*
Y375259D01*
X846094D01*
X846760Y374592D01*
Y373259D01*
X846094Y372593D01*
X844094D01*
X845427D02*
X846760Y371260D01*
X850093D02*
Y375259D01*
X848093Y373259D01*
X850759D01*
X802854Y530217D02*
Y534215D01*
X804854D01*
X805520Y533549D01*
Y532216D01*
X804854Y531549D01*
X802854D01*
X804187D02*
X805520Y530217D01*
X806853D02*
X808186D01*
X807520D01*
Y534215D01*
X806853Y533549D01*
X570382Y252733D02*
Y255399D01*
X569716Y256066D01*
X568383D01*
X567717Y255399D01*
Y252733D01*
X568383Y252067D01*
X569716D01*
X569049Y253400D02*
X570382Y252067D01*
X569716D02*
X570382Y252733D01*
X574381Y256066D02*
X573048Y255399D01*
X571715Y254066D01*
Y252733D01*
X572382Y252067D01*
X573715D01*
X574381Y252733D01*
Y253400D01*
X573715Y254066D01*
X571715D01*
X508375Y537674D02*
Y540340D01*
X507708Y541007D01*
X506375D01*
X505709Y540340D01*
Y537674D01*
X506375Y537008D01*
X507708D01*
X507042Y538341D02*
X508375Y537008D01*
X507708D02*
X508375Y537674D01*
X511707Y537008D02*
Y541007D01*
X509707Y539007D01*
X512373D01*
X521760Y329013D02*
Y331679D01*
X521094Y332345D01*
X519761D01*
X519095Y331679D01*
Y329013D01*
X519761Y328346D01*
X521094D01*
X520427Y329679D02*
X521760Y328346D01*
X521094D02*
X521760Y329013D01*
X523093Y331679D02*
X523760Y332345D01*
X525093D01*
X525759Y331679D01*
Y331012D01*
X525093Y330346D01*
X524426D01*
X525093D01*
X525759Y329679D01*
Y329013D01*
X525093Y328346D01*
X523760D01*
X523093Y329013D01*
X782784Y553914D02*
Y556580D01*
X782118Y557247D01*
X780785D01*
X780118Y556580D01*
Y553914D01*
X780785Y553248D01*
X782118D01*
X781451Y554581D02*
X782784Y553248D01*
X782118D02*
X782784Y553914D01*
X786783Y553248D02*
X784117D01*
X786783Y555914D01*
Y556580D01*
X786116Y557247D01*
X784783D01*
X784117Y556580D01*
X758768Y551552D02*
Y554218D01*
X758102Y554884D01*
X756769D01*
X756102Y554218D01*
Y551552D01*
X756769Y550886D01*
X758102D01*
X757435Y552219D02*
X758768Y550886D01*
X758102D02*
X758768Y551552D01*
X760101Y550886D02*
X761434D01*
X760768D01*
Y554884D01*
X760101Y554218D01*
X276673Y83169D02*
Y89167D01*
X279672D01*
X280672Y88168D01*
Y86168D01*
X279672Y85169D01*
X276673D01*
X282671Y83169D02*
X284671D01*
X283671D01*
Y89167D01*
X282671Y88168D01*
X291668Y83169D02*
X287670D01*
X291668Y87168D01*
Y88168D01*
X290669Y89167D01*
X288669D01*
X287670Y88168D01*
X20402Y84954D02*
Y90952D01*
X23401D01*
X24400Y89953D01*
Y87953D01*
X23401Y86954D01*
X20402D01*
X26400Y84954D02*
X28399D01*
X27399D01*
Y90952D01*
X26400Y89953D01*
X31398Y84954D02*
X33397D01*
X32398D01*
Y90952D01*
X31398Y89953D01*
X639272Y73721D02*
Y79719D01*
X642271D01*
X643270Y78719D01*
Y76719D01*
X642271Y75720D01*
X639272D01*
X645270Y74720D02*
X646269Y73721D01*
X648269D01*
X649268Y74720D01*
Y78719D01*
X648269Y79719D01*
X646269D01*
X645270Y78719D01*
Y77719D01*
X646269Y76719D01*
X649268D01*
X718012Y74508D02*
Y80506D01*
X721011D01*
X722011Y79506D01*
Y77507D01*
X721011Y76507D01*
X718012D01*
X728009Y80506D02*
X724010D01*
Y77507D01*
X726009Y78506D01*
X727009D01*
X728009Y77507D01*
Y75507D01*
X727009Y74508D01*
X725010D01*
X724010Y75507D01*
X546654Y74311D02*
Y80309D01*
X549652D01*
X550652Y79309D01*
Y77310D01*
X549652Y76310D01*
X546654D01*
X555651Y74311D02*
Y80309D01*
X552652Y77310D01*
X556650D01*
X682185Y74016D02*
Y80014D01*
X685184D01*
X686184Y79014D01*
Y77015D01*
X685184Y76015D01*
X682185D01*
X688183Y74016D02*
X690182D01*
X689183D01*
Y80014D01*
X688183Y79014D01*
X600197Y250357D02*
Y246358D01*
X602863D01*
X606861Y249691D02*
X606195Y250357D01*
X604862D01*
X604196Y249691D01*
Y249024D01*
X604862Y248358D01*
X606195D01*
X606861Y247691D01*
Y247025D01*
X606195Y246358D01*
X604862D01*
X604196Y247025D01*
X608194Y246358D02*
X609527D01*
X608861D01*
Y250357D01*
X608194Y249691D01*
X864665Y511479D02*
Y507480D01*
X867331D01*
X868664D02*
X869997D01*
X869331D01*
Y511479D01*
X868664Y510813D01*
X871465Y468959D02*
X868799D01*
Y466960D01*
X870132D01*
X868799D01*
Y464961D01*
X872798D02*
X874131D01*
X873464D01*
Y468959D01*
X872798Y468293D01*
X469685Y324865D02*
Y320866D01*
X471684D01*
X472351Y321533D01*
Y324198D01*
X471684Y324865D01*
X469685D01*
X476349Y320866D02*
X473684D01*
X476349Y323532D01*
Y324198D01*
X475683Y324865D01*
X474350D01*
X473684Y324198D01*
X477682Y324865D02*
X480348D01*
Y324198D01*
X477682Y321533D01*
Y320866D01*
X530905Y317188D02*
Y313189D01*
X532905D01*
X533571Y313855D01*
Y316521D01*
X532905Y317188D01*
X530905D01*
X534904Y313189D02*
X536237D01*
X535571D01*
Y317188D01*
X534904Y316521D01*
X538237Y317188D02*
X540902D01*
Y316521D01*
X538237Y313855D01*
Y313189D01*
X668996Y276538D02*
Y272539D01*
X670995D01*
X671662Y273206D01*
Y275872D01*
X670995Y276538D01*
X668996D01*
X672995Y272539D02*
X674328D01*
X673661D01*
Y276538D01*
X672995Y275872D01*
X678993Y272539D02*
X676327D01*
X678993Y275205D01*
Y275872D01*
X678326Y276538D01*
X676994D01*
X676327Y275872D01*
X535039Y537660D02*
Y533661D01*
X537039D01*
X537705Y534328D01*
Y536994D01*
X537039Y537660D01*
X535039D01*
X539038Y533661D02*
X540371D01*
X539705D01*
Y537660D01*
X539038Y536994D01*
X542370Y533661D02*
X543703D01*
X543037D01*
Y537660D01*
X542370Y536994D01*
X532185Y561184D02*
Y557185D01*
X534184D01*
X534851Y557852D01*
Y560517D01*
X534184Y561184D01*
X532185D01*
X536184Y557852D02*
X536850Y557185D01*
X538183D01*
X538849Y557852D01*
Y560517D01*
X538183Y561184D01*
X536850D01*
X536184Y560517D01*
Y559851D01*
X536850Y559184D01*
X538849D01*
X517913Y662168D02*
Y658169D01*
X519913D01*
X520579Y658836D01*
Y661502D01*
X519913Y662168D01*
X517913D01*
X521912Y661502D02*
X522578Y662168D01*
X523911D01*
X524578Y661502D01*
Y660835D01*
X523911Y660169D01*
X524578Y659502D01*
Y658836D01*
X523911Y658169D01*
X522578D01*
X521912Y658836D01*
Y659502D01*
X522578Y660169D01*
X521912Y660835D01*
Y661502D01*
X522578Y660169D02*
X523911D01*
X565846Y644156D02*
Y640158D01*
X567846D01*
X568512Y640824D01*
Y643490D01*
X567846Y644156D01*
X565846D01*
X569845D02*
X572511D01*
Y643490D01*
X569845Y640824D01*
Y640158D01*
X584154Y661676D02*
Y657677D01*
X586153D01*
X586819Y658344D01*
Y661009D01*
X586153Y661676D01*
X584154D01*
X590818D02*
X589485Y661009D01*
X588152Y659677D01*
Y658344D01*
X588819Y657677D01*
X590152D01*
X590818Y658344D01*
Y659010D01*
X590152Y659677D01*
X588152D01*
X593701Y293270D02*
Y289272D01*
X595700D01*
X596367Y289938D01*
Y292604D01*
X595700Y293270D01*
X593701D01*
X597699Y292604D02*
X598366Y293270D01*
X599699D01*
X600365Y292604D01*
Y291937D01*
X599699Y291271D01*
X599032D01*
X599699D01*
X600365Y290605D01*
Y289938D01*
X599699Y289272D01*
X598366D01*
X597699Y289938D01*
X659646Y147404D02*
Y143405D01*
X661645D01*
X662312Y144072D01*
Y146738D01*
X661645Y147404D01*
X659646D01*
X663644Y143405D02*
X664977D01*
X664311D01*
Y147404D01*
X663644Y146738D01*
X312845Y335069D02*
X311845Y336069D01*
X309846D01*
X308846Y335069D01*
Y331071D01*
X309846Y330071D01*
X311845D01*
X312845Y331071D01*
X314844Y330071D02*
X316844D01*
X315844D01*
Y336069D01*
X314844Y335069D01*
X319843Y330071D02*
X321842D01*
X320843D01*
Y336069D01*
X319843Y335069D01*
X487410Y271935D02*
X486743Y272601D01*
X485410D01*
X484744Y271935D01*
Y269269D01*
X485410Y268602D01*
X486743D01*
X487410Y269269D01*
X488743Y272601D02*
X491409D01*
Y271935D01*
X488743Y269269D01*
Y268602D01*
X806603Y657860D02*
X805936Y658526D01*
X804603D01*
X803937Y657860D01*
Y655194D01*
X804603Y654528D01*
X805936D01*
X806603Y655194D01*
X810602Y658526D02*
X809269Y657860D01*
X807936Y656527D01*
Y655194D01*
X808602Y654528D01*
X809935D01*
X810602Y655194D01*
Y655861D01*
X809935Y656527D01*
X807936D01*
X470087Y655596D02*
X469421Y656262D01*
X468088D01*
X467421Y655596D01*
Y652930D01*
X468088Y652264D01*
X469421D01*
X470087Y652930D01*
X474086Y656262D02*
X471420D01*
Y654263D01*
X472753Y654930D01*
X473419D01*
X474086Y654263D01*
Y652930D01*
X473419Y652264D01*
X472086D01*
X471420Y652930D01*
X479831Y363076D02*
X479165Y363743D01*
X477832D01*
X477165Y363076D01*
Y360410D01*
X477832Y359744D01*
X479165D01*
X479831Y360410D01*
X481164Y363076D02*
X481831Y363743D01*
X483163D01*
X483830Y363076D01*
Y362410D01*
X483163Y361743D01*
X482497D01*
X483163D01*
X483830Y361077D01*
Y360410D01*
X483163Y359744D01*
X481831D01*
X481164Y360410D01*
X898040Y574002D02*
X897373Y574668D01*
X896041D01*
X895374Y574002D01*
Y571336D01*
X896041Y570669D01*
X897373D01*
X898040Y571336D01*
X902039Y570669D02*
X899373D01*
X902039Y573335D01*
Y574002D01*
X901372Y574668D01*
X900039D01*
X899373Y574002D01*
X794496Y505596D02*
X793830Y506262D01*
X792497D01*
X791831Y505596D01*
Y502930D01*
X792497Y502264D01*
X793830D01*
X794496Y502930D01*
X795829Y502264D02*
X797162D01*
X796496D01*
Y506262D01*
X795829Y505596D01*
X251083Y333557D02*
Y327559D01*
X254082D01*
X255081Y328559D01*
Y329558D01*
X254082Y330558D01*
X251083D01*
X254082D01*
X255081Y331558D01*
Y332558D01*
X254082Y333557D01*
X251083D01*
X257081Y327559D02*
Y333557D01*
X260080D01*
X261080Y332558D01*
Y330558D01*
X260080Y329558D01*
X257081D01*
X259080D02*
X261080Y327559D01*
X263079D02*
X265078D01*
X264078D01*
Y333557D01*
X263079Y332558D01*
X496850Y83957D02*
Y89955D01*
X499849D01*
X500849Y88955D01*
Y86956D01*
X499849Y85956D01*
X496850D01*
X502848Y88955D02*
X503848Y89955D01*
X505848D01*
X506847Y88955D01*
Y87955D01*
X505848Y86956D01*
X506847Y85956D01*
Y84956D01*
X505848Y83957D01*
X503848D01*
X502848Y84956D01*
Y85956D01*
X503848Y86956D01*
X502848Y87955D01*
Y88955D01*
X503848Y86956D02*
X505848D01*
X544004Y147230D02*
X543338Y147896D01*
X542005D01*
X541339Y147230D01*
Y144564D01*
X542005Y143898D01*
X543338D01*
X544004Y144564D01*
X548003Y143898D02*
X545337D01*
X548003Y146563D01*
Y147230D01*
X547337Y147896D01*
X546004D01*
X545337Y147230D01*
X549336D02*
X550002Y147896D01*
X551335D01*
X552002Y147230D01*
Y146563D01*
X551335Y145897D01*
X550669D01*
X551335D01*
X552002Y145230D01*
Y144564D01*
X551335Y143898D01*
X550002D01*
X549336Y144564D01*
X703256Y435025D02*
X702590Y435692D01*
X701257D01*
X700591Y435025D01*
Y432359D01*
X701257Y431693D01*
X702590D01*
X703256Y432359D01*
X707255Y431693D02*
X704589D01*
X707255Y434359D01*
Y435025D01*
X706589Y435692D01*
X705256D01*
X704589Y435025D01*
X708588Y432359D02*
X709254Y431693D01*
X710587D01*
X711254Y432359D01*
Y435025D01*
X710587Y435692D01*
X709254D01*
X708588Y435025D01*
Y434359D01*
X709254Y433692D01*
X711254D01*
X695186Y411305D02*
X694519Y411971D01*
X693186D01*
X692520Y411305D01*
Y408639D01*
X693186Y407972D01*
X694519D01*
X695186Y408639D01*
X696518Y411305D02*
X697185Y411971D01*
X698518D01*
X699184Y411305D01*
Y410638D01*
X698518Y409972D01*
X697851D01*
X698518D01*
X699184Y409305D01*
Y408639D01*
X698518Y407972D01*
X697185D01*
X696518Y408639D01*
X700517Y411305D02*
X701184Y411971D01*
X702517D01*
X703183Y411305D01*
Y408639D01*
X702517Y407972D01*
X701184D01*
X700517Y408639D01*
Y411305D01*
X531693Y386282D02*
X533026D01*
X532359D01*
Y382283D01*
X531693D01*
X533026D01*
X537691Y385616D02*
X537024Y386282D01*
X535692D01*
X535025Y385616D01*
Y382950D01*
X535692Y382283D01*
X537024D01*
X537691Y382950D01*
X539024Y385616D02*
X539690Y386282D01*
X541023D01*
X541690Y385616D01*
Y384949D01*
X541023Y384283D01*
X540357D01*
X541023D01*
X541690Y383616D01*
Y382950D01*
X541023Y382283D01*
X539690D01*
X539024Y382950D01*
X552165Y570079D02*
Y574078D01*
X554165D01*
X554831Y573411D01*
Y572078D01*
X554165Y571412D01*
X552165D01*
X553498D02*
X554831Y570079D01*
X558830D02*
X556164D01*
X558830Y572745D01*
Y573411D01*
X558163Y574078D01*
X556831D01*
X556164Y573411D01*
X562162Y570079D02*
Y574078D01*
X560163Y572078D01*
X562829D01*
X731583Y316324D02*
X730917Y316991D01*
X729584D01*
X728917Y316324D01*
Y313659D01*
X729584Y312992D01*
X730917D01*
X731583Y313659D01*
X732916Y312992D02*
X734249D01*
X733582D01*
Y316991D01*
X732916Y316324D01*
X738914Y316991D02*
X737581Y316324D01*
X736248Y314991D01*
Y313659D01*
X736915Y312992D01*
X738248D01*
X738914Y313659D01*
Y314325D01*
X738248Y314991D01*
X736248D01*
X710048Y316816D02*
X709381Y317483D01*
X708048D01*
X707382Y316816D01*
Y314151D01*
X708048Y313484D01*
X709381D01*
X710048Y314151D01*
X711381Y313484D02*
X712713D01*
X712047D01*
Y317483D01*
X711381Y316816D01*
X716712Y313484D02*
Y317483D01*
X714713Y315484D01*
X717379D01*
X721957Y340340D02*
X721291Y341007D01*
X719958D01*
X719291Y340340D01*
Y337674D01*
X719958Y337008D01*
X721291D01*
X721957Y337674D01*
X723290Y337008D02*
X724623D01*
X723956D01*
Y341007D01*
X723290Y340340D01*
X726622D02*
X727289Y341007D01*
X728622D01*
X729288Y340340D01*
Y339674D01*
X728622Y339007D01*
X729288Y338341D01*
Y337674D01*
X728622Y337008D01*
X727289D01*
X726622Y337674D01*
Y338341D01*
X727289Y339007D01*
X726622Y339674D01*
Y340340D01*
X727289Y339007D02*
X728622D01*
X733366Y349176D02*
Y345177D01*
X736032D01*
X737365Y348509D02*
X738031Y349176D01*
X739364D01*
X740031Y348509D01*
Y347843D01*
X739364Y347177D01*
X738698D01*
X739364D01*
X740031Y346510D01*
Y345844D01*
X739364Y345177D01*
X738031D01*
X737365Y345844D01*
X676870Y296260D02*
Y300259D01*
X678869D01*
X679536Y299592D01*
Y298259D01*
X678869Y297593D01*
X676870D01*
X678203D02*
X679536Y296260D01*
X683535D02*
X680869D01*
X683535Y298926D01*
Y299592D01*
X682868Y300259D01*
X681535D01*
X680869Y299592D01*
X684867Y300259D02*
X687533D01*
Y299592D01*
X684867Y296926D01*
Y296260D01*
X680126Y290734D02*
X679460Y291400D01*
X678127D01*
X677461Y290734D01*
Y288068D01*
X678127Y287402D01*
X679460D01*
X680126Y288068D01*
X681459Y287402D02*
X682792D01*
X682126D01*
Y291400D01*
X681459Y290734D01*
X687457Y291400D02*
X684792D01*
Y289401D01*
X686125Y290067D01*
X686791D01*
X687457Y289401D01*
Y288068D01*
X686791Y287402D01*
X685458D01*
X684792Y288068D01*
X730126Y381580D02*
X729460Y382247D01*
X728127D01*
X727461Y381580D01*
Y378914D01*
X728127Y378248D01*
X729460D01*
X730126Y378914D01*
X731459Y378248D02*
X732792D01*
X732126D01*
Y382247D01*
X731459Y381580D01*
X734792Y382247D02*
X737457D01*
Y381580D01*
X734792Y378914D01*
Y378248D01*
X717421Y401772D02*
Y405770D01*
X719421D01*
X720087Y405104D01*
Y403771D01*
X719421Y403105D01*
X717421D01*
X718754D02*
X720087Y401772D01*
X723419D02*
Y405770D01*
X721420Y403771D01*
X724086D01*
X725419Y405104D02*
X726085Y405770D01*
X727418D01*
X728085Y405104D01*
Y402438D01*
X727418Y401772D01*
X726085D01*
X725419Y402438D01*
Y405104D01*
X739468Y402362D02*
Y406361D01*
X741468D01*
X742134Y405694D01*
Y404361D01*
X741468Y403695D01*
X739468D01*
X740801D02*
X742134Y402362D01*
X743467Y405694D02*
X744134Y406361D01*
X745467D01*
X746133Y405694D01*
Y405028D01*
X745467Y404361D01*
X744800D01*
X745467D01*
X746133Y403695D01*
Y403029D01*
X745467Y402362D01*
X744134D01*
X743467Y403029D01*
X747466Y405694D02*
X748132Y406361D01*
X749465D01*
X750132Y405694D01*
Y405028D01*
X749465Y404361D01*
X748799D01*
X749465D01*
X750132Y403695D01*
Y403029D01*
X749465Y402362D01*
X748132D01*
X747466Y403029D01*
X564772Y566521D02*
X564106Y567188D01*
X562773D01*
X562106Y566521D01*
Y563855D01*
X562773Y563189D01*
X564106D01*
X564772Y563855D01*
X568104Y563189D02*
Y567188D01*
X566105Y565188D01*
X568771D01*
X597351Y335025D02*
X596684Y335692D01*
X595352D01*
X594685Y335025D01*
Y332359D01*
X595352Y331693D01*
X596684D01*
X597351Y332359D01*
X598684Y331693D02*
X600017D01*
X599350D01*
Y335692D01*
X598684Y335025D01*
X604682Y331693D02*
X602016D01*
X604682Y334359D01*
Y335025D01*
X604015Y335692D01*
X602682D01*
X602016Y335025D01*
X607882Y358352D02*
X607216Y359018D01*
X605883D01*
X605217Y358352D01*
Y355686D01*
X605883Y355020D01*
X607216D01*
X607882Y355686D01*
X609215Y355020D02*
X610548D01*
X609882D01*
Y359018D01*
X609215Y358352D01*
X612547Y355686D02*
X613214Y355020D01*
X614547D01*
X615213Y355686D01*
Y358352D01*
X614547Y359018D01*
X613214D01*
X612547Y358352D01*
Y357685D01*
X613214Y357019D01*
X615213D01*
X587902Y375576D02*
X587236Y376243D01*
X585903D01*
X585236Y375576D01*
Y372911D01*
X585903Y372244D01*
X587236D01*
X587902Y372911D01*
X591901Y372244D02*
X589235D01*
X591901Y374910D01*
Y375576D01*
X591234Y376243D01*
X589901D01*
X589235Y375576D01*
X593234D02*
X593900Y376243D01*
X595233D01*
X595899Y375576D01*
Y372911D01*
X595233Y372244D01*
X593900D01*
X593234Y372911D01*
Y375576D01*
X681308Y313470D02*
X680641Y314137D01*
X679308D01*
X678642Y313470D01*
Y310804D01*
X679308Y310138D01*
X680641D01*
X681308Y310804D01*
X685306Y310138D02*
X682640D01*
X685306Y312804D01*
Y313470D01*
X684640Y314137D01*
X683307D01*
X682640Y313470D01*
X686639Y310138D02*
X687972D01*
X687306D01*
Y314137D01*
X686639Y313470D01*
X690658Y322427D02*
X689992Y323093D01*
X688659D01*
X687992Y322427D01*
Y319761D01*
X688659Y319094D01*
X689992D01*
X690658Y319761D01*
X691991Y322427D02*
X692657Y323093D01*
X693990D01*
X694657Y322427D01*
Y321760D01*
X693990Y321094D01*
X693324D01*
X693990D01*
X694657Y320427D01*
Y319761D01*
X693990Y319094D01*
X692657D01*
X691991Y319761D01*
X695990Y319094D02*
X697323D01*
X696656D01*
Y323093D01*
X695990Y322427D01*
X549606Y169845D02*
Y165847D01*
X551606D01*
X552272Y166513D01*
Y169179D01*
X551606Y169845D01*
X549606D01*
X553605Y165847D02*
X554938D01*
X554272D01*
Y169845D01*
X553605Y169179D01*
X559603Y169845D02*
X556937D01*
Y167846D01*
X558270Y168512D01*
X558937D01*
X559603Y167846D01*
Y166513D01*
X558937Y165847D01*
X557604D01*
X556937Y166513D01*
X581496Y229097D02*
Y225098D01*
X584162D01*
X588161D02*
X585495D01*
X588161Y227764D01*
Y228431D01*
X587494Y229097D01*
X586161D01*
X585495Y228431D01*
X609842Y288386D02*
Y292385D01*
X611842D01*
X612508Y291718D01*
Y290385D01*
X611842Y289719D01*
X609842D01*
X613841Y292385D02*
X616507D01*
Y291718D01*
X613841Y289052D01*
Y288386D01*
X176673Y82677D02*
Y88675D01*
X179672D01*
X180672Y87675D01*
Y85676D01*
X179672Y84676D01*
X176673D01*
X182671Y82677D02*
X184671D01*
X183671D01*
Y88675D01*
X182671Y87675D01*
X187670D02*
X188669Y88675D01*
X190669D01*
X191668Y87675D01*
Y83677D01*
X190669Y82677D01*
X188669D01*
X187670Y83677D01*
Y87675D01*
X379035Y82874D02*
Y88872D01*
X382034D01*
X383034Y87872D01*
Y85873D01*
X382034Y84873D01*
X379035D01*
X385033Y82874D02*
X387033D01*
X386033D01*
Y88872D01*
X385033Y87872D01*
X390032D02*
X391032Y88872D01*
X393031D01*
X394031Y87872D01*
Y86873D01*
X393031Y85873D01*
X392031D01*
X393031D01*
X394031Y84873D01*
Y83874D01*
X393031Y82874D01*
X391032D01*
X390032Y83874D01*
X905768Y227780D02*
Y223781D01*
X903768D01*
X903102Y224447D01*
Y225780D01*
X903768Y226447D01*
X905768D01*
X901769Y227780D02*
X900436D01*
X901103D01*
Y223781D01*
X901769Y224447D01*
X896437Y227780D02*
Y223781D01*
X898437Y225780D01*
X895771D01*
X565551Y406201D02*
Y410199D01*
X567551D01*
X568217Y409533D01*
Y408200D01*
X567551Y407534D01*
X565551D01*
X569550Y406201D02*
X570883D01*
X570216D01*
Y410199D01*
X569550Y409533D01*
X575548Y410199D02*
X572882D01*
Y408200D01*
X574215Y408867D01*
X574882D01*
X575548Y408200D01*
Y406867D01*
X574882Y406201D01*
X573549D01*
X572882Y406867D01*
X633957Y322047D02*
Y326046D01*
X635956D01*
X636622Y325379D01*
Y324047D01*
X635956Y323380D01*
X633957D01*
X635290D02*
X636622Y322047D01*
X639955D02*
Y326046D01*
X637955Y324047D01*
X640621D01*
X644620Y322047D02*
X641954D01*
X644620Y324713D01*
Y325379D01*
X643954Y326046D01*
X642621D01*
X641954Y325379D01*
X821260Y86577D02*
Y83245D01*
X821926Y82579D01*
X823259D01*
X823926Y83245D01*
Y86577D01*
X827924D02*
X826591Y85911D01*
X825259Y84578D01*
Y83245D01*
X825925Y82579D01*
X827258D01*
X827924Y83245D01*
Y83912D01*
X827258Y84578D01*
X825259D01*
X678051Y381755D02*
Y378422D01*
X678718Y377756D01*
X680051D01*
X680717Y378422D01*
Y381755D01*
X682050Y377756D02*
X683383D01*
X682716D01*
Y381755D01*
X682050Y381088D01*
X685382D02*
X686049Y381755D01*
X687382D01*
X688048Y381088D01*
Y378422D01*
X687382Y377756D01*
X686049D01*
X685382Y378422D01*
Y381088D01*
X843209Y533723D02*
Y529724D01*
X845208D01*
X845875Y530391D01*
Y533057D01*
X845208Y533723D01*
X843209D01*
X847207Y529724D02*
X848540D01*
X847874D01*
Y533723D01*
X847207Y533057D01*
X850540D02*
X851206Y533723D01*
X852539D01*
X853205Y533057D01*
Y530391D01*
X852539Y529724D01*
X851206D01*
X850540Y530391D01*
Y533057D01*
X757146Y47109D02*
Y43110D01*
X759145D01*
X759811Y43777D01*
Y46442D01*
X759145Y47109D01*
X757146D01*
X763810Y46442D02*
X763144Y47109D01*
X761811D01*
X761144Y46442D01*
Y45776D01*
X761811Y45110D01*
X763144D01*
X763810Y44443D01*
Y43777D01*
X763144Y43110D01*
X761811D01*
X761144Y43777D01*
X767809Y43110D02*
X765143D01*
X767809Y45776D01*
Y46442D01*
X767142Y47109D01*
X765810D01*
X765143Y46442D01*
X714567Y445374D02*
Y449373D01*
X716566D01*
X717233Y448706D01*
Y447373D01*
X716566Y446707D01*
X714567D01*
X718566Y448706D02*
X719232Y449373D01*
X720565D01*
X721231Y448706D01*
Y448040D01*
X720565Y447373D01*
X719899D01*
X720565D01*
X721231Y446707D01*
Y446040D01*
X720565Y445374D01*
X719232D01*
X718566Y446040D01*
X585728Y74016D02*
Y80014D01*
X588727D01*
X589727Y79014D01*
Y77015D01*
X588727Y76015D01*
X585728D01*
X595725Y80014D02*
X593726Y79014D01*
X591726Y77015D01*
Y75015D01*
X592726Y74016D01*
X594725D01*
X595725Y75015D01*
Y76015D01*
X594725Y77015D01*
X591726D01*
X566634Y262303D02*
Y266302D01*
X568633D01*
X569300Y265635D01*
Y264302D01*
X568633Y263636D01*
X566634D01*
X567967D02*
X569300Y262303D01*
X570633Y265635D02*
X571299Y266302D01*
X572632D01*
X573298Y265635D01*
Y264969D01*
X572632Y264302D01*
X571966D01*
X572632D01*
X573298Y263636D01*
Y262970D01*
X572632Y262303D01*
X571299D01*
X570633Y262970D01*
X681890Y431595D02*
Y435593D01*
X683889D01*
X684556Y434927D01*
Y433594D01*
X683889Y432927D01*
X681890D01*
X683223D02*
X684556Y431595D01*
X685888Y434927D02*
X686555Y435593D01*
X687888D01*
X688554Y434927D01*
Y434260D01*
X687888Y433594D01*
X688554Y432927D01*
Y432261D01*
X687888Y431595D01*
X686555D01*
X685888Y432261D01*
Y432927D01*
X686555Y433594D01*
X685888Y434260D01*
Y434927D01*
X686555Y433594D02*
X687888D01*
X670571Y407972D02*
Y411971D01*
X672570D01*
X673237Y411305D01*
Y409972D01*
X672570Y409305D01*
X670571D01*
X671904D02*
X673237Y407972D01*
X674570D02*
X675903D01*
X675236D01*
Y411971D01*
X674570Y411305D01*
X677902D02*
X678568Y411971D01*
X679901D01*
X680568Y411305D01*
Y410638D01*
X679901Y409972D01*
X679235D01*
X679901D01*
X680568Y409305D01*
Y408639D01*
X679901Y407972D01*
X678568D01*
X677902Y408639D01*
X660827Y431496D02*
Y435495D01*
X662826D01*
X663493Y434828D01*
Y433495D01*
X662826Y432829D01*
X660827D01*
X662160D02*
X663493Y431496D01*
X664825D02*
X666158D01*
X665492D01*
Y435495D01*
X664825Y434828D01*
X670157Y431496D02*
Y435495D01*
X668158Y433495D01*
X670823D01*
X759941Y439468D02*
Y443467D01*
X761940D01*
X762607Y442801D01*
Y441468D01*
X761940Y440801D01*
X759941D01*
X761274D02*
X762607Y439468D01*
X763940D02*
X765273D01*
X764606D01*
Y443467D01*
X763940Y442801D01*
X769938Y443467D02*
X768605Y442801D01*
X767272Y441468D01*
Y440135D01*
X767938Y439468D01*
X769271D01*
X769938Y440135D01*
Y440801D01*
X769271Y441468D01*
X767272D01*
X779626Y513878D02*
Y517877D01*
X781625D01*
X782292Y517210D01*
Y515877D01*
X781625Y515211D01*
X779626D01*
X780959D02*
X782292Y513878D01*
X786291D02*
X783625D01*
X786291Y516544D01*
Y517210D01*
X785624Y517877D01*
X784291D01*
X783625Y517210D01*
X787623D02*
X788290Y517877D01*
X789623D01*
X790289Y517210D01*
Y514544D01*
X789623Y513878D01*
X788290D01*
X787623Y514544D01*
Y517210D01*
X568209Y569882D02*
Y573881D01*
X570208D01*
X570875Y573214D01*
Y571881D01*
X570208Y571215D01*
X568209D01*
X569542D02*
X570875Y569882D01*
X574873D02*
X572207D01*
X574873Y572548D01*
Y573214D01*
X574207Y573881D01*
X572874D01*
X572207Y573214D01*
X576206Y569882D02*
X577539D01*
X576872D01*
Y573881D01*
X576206Y573214D01*
X747112Y568339D02*
X746456Y568995D01*
X745144D01*
X744488Y568339D01*
Y565715D01*
X745144Y565059D01*
X746456D01*
X747112Y565715D01*
X751048Y565059D02*
X748424D01*
X751048Y567683D01*
Y568339D01*
X750392Y568995D01*
X749080D01*
X748424Y568339D01*
X752360Y568995D02*
X754984D01*
Y568339D01*
X752360Y565715D01*
Y565059D01*
X528707Y448260D02*
X528051Y448916D01*
X526739D01*
X526083Y448260D01*
Y445636D01*
X526739Y444980D01*
X528051D01*
X528707Y445636D01*
X532642Y444980D02*
X530018D01*
X532642Y447604D01*
Y448260D01*
X531986Y448916D01*
X530674D01*
X530018Y448260D01*
X533954D02*
X534610Y448916D01*
X535922D01*
X536578Y448260D01*
Y447604D01*
X535922Y446948D01*
X536578Y446292D01*
Y445636D01*
X535922Y444980D01*
X534610D01*
X533954Y445636D01*
Y446292D01*
X534610Y446948D01*
X533954Y447604D01*
Y448260D01*
X534610Y446948D02*
X535922D01*
X522014Y479362D02*
X521358Y480018D01*
X520046D01*
X519390Y479362D01*
Y476739D01*
X520046Y476083D01*
X521358D01*
X522014Y476739D01*
X523325Y479362D02*
X523982Y480018D01*
X525293D01*
X525949Y479362D01*
Y478707D01*
X525293Y478051D01*
X524637D01*
X525293D01*
X525949Y477395D01*
Y476739D01*
X525293Y476083D01*
X523982D01*
X523325Y476739D01*
X529885Y476083D02*
X527261D01*
X529885Y478707D01*
Y479362D01*
X529229Y480018D01*
X527917D01*
X527261Y479362D01*
X521915Y487630D02*
X521259Y488286D01*
X519947D01*
X519291Y487630D01*
Y485006D01*
X519947Y484350D01*
X521259D01*
X521915Y485006D01*
X523227Y487630D02*
X523883Y488286D01*
X525195D01*
X525851Y487630D01*
Y486974D01*
X525195Y486318D01*
X524539D01*
X525195D01*
X525851Y485662D01*
Y485006D01*
X525195Y484350D01*
X523883D01*
X523227Y485006D01*
X527163Y487630D02*
X527819Y488286D01*
X529131D01*
X529787Y487630D01*
Y486974D01*
X529131Y486318D01*
X528475D01*
X529131D01*
X529787Y485662D01*
Y485006D01*
X529131Y484350D01*
X527819D01*
X527163Y485006D01*
X578116Y427886D02*
X577460Y428542D01*
X576148D01*
X575492Y427886D01*
Y425262D01*
X576148Y424606D01*
X577460D01*
X578116Y425262D01*
X579428Y427886D02*
X580084Y428542D01*
X581396D01*
X582052Y427886D01*
Y427230D01*
X581396Y426574D01*
X580740D01*
X581396D01*
X582052Y425918D01*
Y425262D01*
X581396Y424606D01*
X580084D01*
X579428Y425262D01*
X585331Y424606D02*
Y428542D01*
X583364Y426574D01*
X585987D01*
X582677Y549999D02*
X583989D01*
X583333D01*
Y546063D01*
X582677D01*
X583989D01*
X588581Y549343D02*
X587925Y549999D01*
X586613D01*
X585957Y549343D01*
Y546719D01*
X586613Y546063D01*
X587925D01*
X588581Y546719D01*
X592517Y546063D02*
X589893D01*
X592517Y548687D01*
Y549343D01*
X591861Y549999D01*
X590549D01*
X589893Y549343D01*
X545768Y457381D02*
X547080D01*
X546424D01*
Y453445D01*
X545768D01*
X547080D01*
X551671Y456725D02*
X551015Y457381D01*
X549704D01*
X549048Y456725D01*
Y454101D01*
X549704Y453445D01*
X551015D01*
X551671Y454101D01*
X554951Y453445D02*
Y457381D01*
X552983Y455413D01*
X555607D01*
X806594Y364469D02*
Y368404D01*
X808562D01*
X809218Y367748D01*
Y366436D01*
X808562Y365780D01*
X806594D01*
X807906D02*
X809218Y364469D01*
X813154Y368404D02*
X810530D01*
Y366436D01*
X811842Y367092D01*
X812498D01*
X813154Y366436D01*
Y365125D01*
X812498Y364469D01*
X811186D01*
X810530Y365125D01*
X814466Y367748D02*
X815122Y368404D01*
X816434D01*
X817090Y367748D01*
Y367092D01*
X816434Y366436D01*
X815778D01*
X816434D01*
X817090Y365780D01*
Y365125D01*
X816434Y364469D01*
X815122D01*
X814466Y365125D01*
X714862Y434842D02*
Y438778D01*
X716830D01*
X717486Y438122D01*
Y436810D01*
X716830Y436154D01*
X714862D01*
X716174D02*
X717486Y434842D01*
X721422Y438778D02*
X718798D01*
Y436810D01*
X720110Y437466D01*
X720766D01*
X721422Y436810D01*
Y435499D01*
X720766Y434842D01*
X719454D01*
X718798Y435499D01*
X722734Y438778D02*
X725357D01*
Y438122D01*
X722734Y435499D01*
Y434842D01*
X574902Y443405D02*
Y447341D01*
X576869D01*
X577525Y446685D01*
Y445373D01*
X576869Y444717D01*
X574902D01*
X576214D02*
X577525Y443405D01*
X581461Y447341D02*
X578837D01*
Y445373D01*
X580149Y446029D01*
X580805D01*
X581461Y445373D01*
Y444062D01*
X580805Y443405D01*
X579493D01*
X578837Y444062D01*
X582773Y446685D02*
X583429Y447341D01*
X584741D01*
X585397Y446685D01*
Y446029D01*
X584741Y445373D01*
X585397Y444717D01*
Y444062D01*
X584741Y443405D01*
X583429D01*
X582773Y444062D01*
Y444717D01*
X583429Y445373D01*
X582773Y446029D01*
Y446685D01*
X583429Y445373D02*
X584741D01*
X546358Y443602D02*
Y447538D01*
X548326D01*
X548982Y446882D01*
Y445570D01*
X548326Y444914D01*
X546358D01*
X547670D02*
X548982Y443602D01*
X552918Y447538D02*
X550294D01*
Y445570D01*
X551606Y446226D01*
X552262D01*
X552918Y445570D01*
Y444258D01*
X552262Y443602D01*
X550950D01*
X550294Y444258D01*
X554230D02*
X554886Y443602D01*
X556198D01*
X556854Y444258D01*
Y446882D01*
X556198Y447538D01*
X554886D01*
X554230Y446882D01*
Y446226D01*
X554886Y445570D01*
X556854D01*
X803445Y411416D02*
X806069D01*
X804757D01*
Y407480D01*
X810005D02*
X807381D01*
X810005Y410104D01*
Y410760D01*
X809348Y411416D01*
X808037D01*
X807381Y410760D01*
X849114Y387893D02*
X851738D01*
Y387236D01*
X849114Y384613D01*
Y383957D01*
X851738D01*
X853050D02*
X854362D01*
X853706D01*
Y387893D01*
X853050Y387236D01*
X8670Y338940D02*
X6004D01*
Y336940D01*
X7337D01*
X6004D01*
Y334941D01*
X10003D02*
X11336D01*
X10669D01*
Y337607D01*
X10003D01*
X15334Y334941D02*
X14001D01*
X13335Y335607D01*
Y336940D01*
X14001Y337607D01*
X15334D01*
X16001Y336940D01*
Y336274D01*
X13335D01*
X17334Y334941D02*
X18666D01*
X18000D01*
Y338940D01*
X17334D01*
X23332D02*
Y334941D01*
X21332D01*
X20666Y335607D01*
Y336940D01*
X21332Y337607D01*
X23332D01*
X24665Y334941D02*
Y338940D01*
X25997Y337607D01*
X27330Y338940D01*
Y334941D01*
X29330Y337607D02*
X30663D01*
X31329Y336940D01*
Y334941D01*
X29330D01*
X28663Y335607D01*
X29330Y336274D01*
X31329D01*
X32662Y334941D02*
X34661D01*
X35328Y335607D01*
X34661Y336274D01*
X33329D01*
X32662Y336940D01*
X33329Y337607D01*
X35328D01*
X37327Y338273D02*
Y337607D01*
X36661D01*
X37994D01*
X37327D01*
Y335607D01*
X37994Y334941D01*
X41992D02*
X40659D01*
X39993Y335607D01*
Y336940D01*
X40659Y337607D01*
X41992D01*
X42659Y336940D01*
Y336274D01*
X39993D01*
X43992Y337607D02*
Y334941D01*
Y336274D01*
X44658Y336940D01*
X45325Y337607D01*
X45991D01*
X47990Y334275D02*
X50656D01*
X54655Y338940D02*
X51989D01*
Y334941D01*
X54655D01*
X51989Y336940D02*
X53322D01*
X55988Y334941D02*
Y337607D01*
X57987D01*
X58654Y336940D01*
Y334941D01*
X61986D02*
X60653D01*
X59987Y335607D01*
Y336940D01*
X60653Y337607D01*
X61986D01*
X62652Y336940D01*
Y336274D01*
X59987D01*
X63985Y337607D02*
Y334941D01*
Y336274D01*
X64652Y336940D01*
X65318Y337607D01*
X65985D01*
X69317Y333608D02*
X69983D01*
X70650Y334275D01*
Y337607D01*
X68650D01*
X67984Y336940D01*
Y335607D01*
X68650Y334941D01*
X70650D01*
X71983D02*
X73316D01*
X72649D01*
Y337607D01*
X71983D01*
X75315D02*
X77981D01*
X75315Y334941D01*
X77981D01*
X81313D02*
X79980D01*
X79314Y335607D01*
Y336940D01*
X79980Y337607D01*
X81313D01*
X81979Y336940D01*
Y336274D01*
X79314D01*
X83312Y337607D02*
Y334941D01*
Y336274D01*
X83979Y336940D01*
X84645Y337607D01*
X85312D01*
X87311Y334275D02*
X89977D01*
X93976Y338273D02*
X93309Y338940D01*
X91976D01*
X91310Y338273D01*
Y335607D01*
X91976Y334941D01*
X93309D01*
X93976Y335607D01*
Y336940D01*
X92643D01*
X97974Y338273D02*
X97308Y338940D01*
X95975D01*
X95309Y338273D01*
Y337607D01*
X95975Y336940D01*
X97308D01*
X97974Y336274D01*
Y335607D01*
X97308Y334941D01*
X95975D01*
X95309Y335607D01*
X99307Y334941D02*
Y338940D01*
X100640Y337607D01*
X101973Y338940D01*
Y334941D01*
X103306Y334275D02*
X105972D01*
X107305Y338940D02*
Y336274D01*
X108637Y334941D01*
X109970Y336274D01*
Y338940D01*
X111303Y334941D02*
X112636D01*
X111970D01*
Y338940D01*
X111303Y338273D01*
X114636Y334941D02*
Y335607D01*
X115302D01*
Y334941D01*
X114636D01*
X117968D02*
X119301D01*
X118634D01*
Y338940D01*
X117968Y338273D01*
X846988Y385894D02*
X844322D01*
X845655Y384561D02*
Y387227D01*
X754724Y625720D02*
X757390D01*
X756057Y627053D02*
Y624387D01*
X610394Y23198D02*
X620391D01*
X590492D02*
X600489D01*
X595491Y28196D02*
Y18199D01*
X592337Y10117D02*
X591338Y11116D01*
X589338D01*
X588339Y10117D01*
Y9117D01*
X589338Y8117D01*
X591338D01*
X592337Y7118D01*
Y6118D01*
X591338Y5118D01*
X589338D01*
X588339Y6118D01*
X594337Y11116D02*
X598335D01*
X596336D01*
Y5118D01*
X600335D02*
Y11116D01*
X603334D01*
X604333Y10117D01*
Y8117D01*
X603334Y7118D01*
X600335D01*
X602334D02*
X604333Y5118D01*
X609332Y11116D02*
X607332D01*
X606333Y10117D01*
Y6118D01*
X607332Y5118D01*
X609332D01*
X610331Y6118D01*
Y10117D01*
X609332Y11116D01*
X612331D02*
Y5118D01*
X615330D01*
X616329Y6118D01*
Y7118D01*
X615330Y8117D01*
X612331D01*
X615330D01*
X616329Y9117D01*
Y10117D01*
X615330Y11116D01*
X612331D01*
X622328D02*
X618329D01*
Y5118D01*
X622328D01*
X618329Y8117D02*
X620328D01*
X582351Y619193D02*
Y621859D01*
X581018Y620526D02*
X583684D01*
X688287Y246457D02*
X687288D01*
Y247456D01*
X688287D01*
Y246457D01*
X758366Y472638D02*
X757367D01*
Y473637D01*
X758366D01*
Y472638D01*
X590158Y473228D02*
X589158D01*
Y474228D01*
X590158D01*
Y473228D01*
X718110Y4626D02*
Y8625D01*
X720110Y10624D01*
X722109Y8625D01*
Y4626D01*
Y7625D01*
X718110D01*
X728107Y9624D02*
X727107Y10624D01*
X725108D01*
X724108Y9624D01*
Y5626D01*
X725108Y4626D01*
X727107D01*
X728107Y5626D01*
X679589Y10117D02*
X678590Y11116D01*
X676590D01*
X675591Y10117D01*
Y9117D01*
X676590Y8117D01*
X678590D01*
X679589Y7118D01*
Y6118D01*
X678590Y5118D01*
X676590D01*
X675591Y6118D01*
X681589Y5118D02*
Y11116D01*
X684588D01*
X685587Y10117D01*
Y8117D01*
X684588Y7118D01*
X681589D01*
X687587Y11116D02*
Y6118D01*
X688586Y5118D01*
X690586D01*
X691585Y6118D01*
Y11116D01*
X632480Y10624D02*
Y4626D01*
X635479D01*
X636479Y5626D01*
Y6625D01*
X635479Y7625D01*
X632480D01*
X635479D01*
X636479Y8625D01*
Y9624D01*
X635479Y10624D01*
X632480D01*
X638478Y4626D02*
Y8625D01*
X640478Y10624D01*
X642477Y8625D01*
Y4626D01*
Y7625D01*
X638478D01*
X644476Y10624D02*
X648475D01*
X646476D01*
Y4626D01*
X650475Y10624D02*
X654473D01*
X652474D01*
Y4626D01*
X556558Y10117D02*
X555558Y11116D01*
X553559D01*
X552559Y10117D01*
Y9117D01*
X553559Y8117D01*
X555558D01*
X556558Y7118D01*
Y6118D01*
X555558Y5118D01*
X553559D01*
X552559Y6118D01*
X558557Y11116D02*
X560557D01*
X559557D01*
Y5118D01*
X558557D01*
X560557D01*
X563555D02*
Y11116D01*
X566554D01*
X567554Y10117D01*
Y8117D01*
X566554Y7118D01*
X563555D01*
X565555D02*
X567554Y5118D01*
X573552Y11116D02*
X569554D01*
Y5118D01*
X573552D01*
X569554Y8117D02*
X571553D01*
X575552Y5118D02*
Y11116D01*
X579550Y5118D01*
Y11116D01*
X550874Y23198D02*
X560871D01*
X555872Y28196D02*
Y18199D01*
X629642Y23498D02*
X639639D01*
X634640Y28496D02*
Y18499D01*
X669343Y23998D02*
X679339D01*
X674341Y28996D02*
Y18999D01*
X570776Y23198D02*
X580772D01*
X648842Y23698D02*
X658839D01*
X689240Y23998D02*
X699237D01*
X639649Y216969D02*
X634401D01*
X637025Y214345D02*
Y219593D01*
X457261Y312052D02*
X458573Y313364D01*
Y315988D01*
X457261Y317300D01*
X452013D01*
X450702Y315988D01*
Y313364D01*
X452013Y312052D01*
X458573Y303452D02*
Y308700D01*
X450702D01*
Y303452D01*
X454637Y308700D02*
Y306076D01*
X344373Y308600D02*
X336502D01*
X339125D01*
X344373Y303352D01*
X340437Y307288D01*
X336502Y303352D01*
X337002Y317600D02*
X342249D01*
X344873Y314976D01*
X342249Y312352D01*
X337002D01*
X340937D01*
Y317600D01*
X679792Y114862D02*
Y117528D01*
X678459Y116195D02*
X681125D01*
X521327Y606201D02*
Y608867D01*
X519994Y607534D02*
X522660D01*
X521524Y551968D02*
Y554634D01*
X520191Y553301D02*
X522857D01*
X565650Y280739D02*
X568315D01*
X566983Y282072D02*
Y279407D01*
X576772Y658040D02*
X574106D01*
X575439Y656707D02*
Y659373D01*
X539733Y495177D02*
Y497843D01*
X538400Y496510D02*
X541066D01*
X488355Y316535D02*
Y319201D01*
X487022Y317868D02*
X489688D01*
X799576Y559055D02*
Y561721D01*
X798243Y560388D02*
X800908D01*
X852036Y440354D02*
Y443020D01*
X850703Y441687D02*
X853369D01*
X280664Y289299D02*
Y285301D01*
X282664Y287300D02*
X278665D01*
X674182Y234350D02*
Y237016D01*
X672849Y235683D02*
X675515D01*
X526575Y304460D02*
X529241D01*
X527908Y305793D02*
Y303127D01*
X724508Y184283D02*
X727174D01*
X725841Y185616D02*
Y182950D01*
X846094Y584547D02*
Y581882D01*
X847427Y583214D02*
X844761D01*
X545571Y157610D02*
X548237D01*
X546904Y158942D02*
Y156277D01*
X762590Y68209D02*
Y65543D01*
X763923Y66876D02*
X761257D01*
X591012Y119882D02*
Y122548D01*
X589680Y121215D02*
X592345D01*
X696623Y115354D02*
Y118020D01*
X695290Y116687D02*
X697956D01*
D74*
X532823Y178051D02*
G03*
X532429Y178051I-197J0D01*
G01*
D02*
G03*
X532823Y178051I197J0D01*
G01*
D75*
X525815Y498098D02*
G03*
X525815Y498098I-492J0D01*
G01*
D76*
X755003Y532677D02*
G03*
X755003Y532677I-278J0D01*
G01*
X502936Y315256D02*
G03*
X502936Y315256I-278J0D01*
G01*
X591026Y253445D02*
G03*
X591026Y253445I-278J0D01*
G01*
X554707Y280020D02*
G03*
X554707Y280020I-278J0D01*
G01*
X675551Y373425D02*
X675787D01*
X648228D02*
X648465D01*
X675551Y345866D02*
X675787D01*
X648228D02*
X648465D01*
X675787Y373189D02*
Y373425D01*
X648228Y373189D02*
Y373425D01*
X675787Y345866D02*
Y346102D01*
X648228Y345866D02*
Y346102D01*
D77*
X737357Y654089D02*
G03*
X737357Y654089I-538J0D01*
G01*
D78*
X674618Y381693D02*
G03*
X674618Y381693I-406J0D01*
G01*
D79*
X831847Y339512D02*
Y349512D01*
X871846D01*
X831847Y339512D02*
X871846D01*
Y349512D01*
X888346Y125512D02*
Y135512D01*
X828347Y125512D02*
Y135512D01*
X888346D01*
X828347Y125512D02*
X888346D01*
X776024Y193622D02*
Y196142D01*
X768996Y192244D02*
X775295D01*
X768996Y191614D02*
Y192244D01*
Y191614D02*
X775295D01*
Y192244D01*
X811555Y379035D02*
X842657D01*
X810276Y380315D02*
X811555Y379035D01*
Y392815D02*
X842657D01*
X810276Y391535D02*
X811555Y392815D01*
X810276Y380315D02*
Y391535D01*
X825138Y379134D02*
Y392815D01*
X842657Y379035D02*
Y392815D01*
X842224Y395374D02*
Y447539D01*
X811516Y395374D02*
X842224D01*
X811516D02*
Y447539D01*
X842224D01*
X815847Y370768D02*
Y375492D01*
X822342Y369685D02*
X824114D01*
X824213Y369783D02*
Y376575D01*
X807480D02*
X824213D01*
X807480Y369685D02*
X822342D01*
X807480D02*
Y376575D01*
X798583Y382795D02*
Y385315D01*
X799311Y386693D02*
X805610D01*
Y387323D01*
X799311D02*
X805610D01*
X799311Y386693D02*
Y387323D01*
X717618Y425098D02*
X722342D01*
X723425Y431595D02*
Y433366D01*
X716536Y433465D02*
X723327D01*
X716536Y416732D02*
Y433465D01*
X723425Y416732D02*
Y431595D01*
X716536Y416732D02*
X723425D01*
X759055Y618799D02*
Y632579D01*
X776575Y618799D02*
Y632480D01*
X791437Y620079D02*
Y631299D01*
X790158Y618799D02*
X791437Y620079D01*
X759055Y618799D02*
X790158D01*
Y632579D02*
X791437Y631299D01*
X759055Y632579D02*
X790158D01*
X492520Y580315D02*
X502756D01*
X504528Y565945D02*
Y578543D01*
X463189Y564173D02*
Y580315D01*
Y564173D02*
X473819D01*
X463189Y580315D02*
X473819D01*
X502756Y580335D02*
X504528Y578543D01*
X502756Y564173D02*
X504528Y565945D01*
X492520Y564173D02*
X502756D01*
X895846Y229512D02*
X905847D01*
X895846D02*
Y279512D01*
X905847Y229512D02*
Y279512D01*
X895846D02*
X905847D01*
X777264Y539764D02*
X801476D01*
X777264D02*
Y549803D01*
X801476Y539764D02*
Y549803D01*
X777264D02*
X801476D01*
X787795Y541831D02*
X790945D01*
X787795Y547736D02*
X790945D01*
X538386Y585433D02*
X562598D01*
Y575394D02*
Y585433D01*
X538386Y575394D02*
Y585433D01*
Y575394D02*
X562598D01*
X548917Y583366D02*
X552067D01*
X548917Y577461D02*
X552067D01*
X787795Y535039D02*
X790945D01*
X787795Y529134D02*
X790945D01*
X777264Y537106D02*
X801476D01*
Y527067D02*
Y537106D01*
X777264Y527067D02*
Y537106D01*
Y527067D02*
X801476D01*
X794783Y631890D02*
X818996D01*
Y621850D02*
Y631890D01*
X794783Y621850D02*
Y631890D01*
Y621850D02*
X818996D01*
X805315Y629823D02*
X808465D01*
X805315Y623917D02*
X808465D01*
X638583Y512205D02*
X662795D01*
X638583D02*
Y522244D01*
X662795Y512205D02*
Y522244D01*
X638583D02*
X662795D01*
X649114Y514272D02*
X652264D01*
X649114Y520177D02*
X652264D01*
X622638Y520276D02*
X625787D01*
X622638Y514370D02*
X625787D01*
X612106Y522343D02*
X636319D01*
Y512303D02*
Y522343D01*
X612106Y512303D02*
Y522343D01*
Y512303D02*
X636319D01*
X817224Y555118D02*
X831398D01*
X817224Y523622D02*
Y555118D01*
X831398Y523622D02*
Y555118D01*
X817224Y523622D02*
X831398D01*
X606102Y421949D02*
X610827D01*
X605020Y413681D02*
Y415453D01*
X605118Y413583D02*
X611909D01*
Y430315D01*
X605020Y415453D02*
Y430315D01*
X611909D01*
X723524Y344586D02*
Y349311D01*
X715256Y350394D02*
X717028D01*
X715158Y343504D02*
Y350295D01*
Y343504D02*
X731890D01*
X717028Y350394D02*
X731890D01*
Y343504D02*
Y350394D01*
X695079Y421850D02*
X699803D01*
X700886Y428346D02*
Y430118D01*
X693996Y430216D02*
X700787D01*
X693996Y413484D02*
Y430216D01*
X700886Y413484D02*
Y428346D01*
X693996Y413484D02*
X700886D01*
X704921Y421850D02*
X709646D01*
X710728Y428346D02*
Y430118D01*
X703838Y430216D02*
X710630D01*
X703838Y413484D02*
Y430216D01*
X710728Y413484D02*
Y428346D01*
X703838Y413484D02*
X710728D01*
X554429Y139665D02*
X559154D01*
X553346Y131398D02*
Y133169D01*
X553445Y131299D02*
X560236D01*
Y148032D01*
X553346Y133169D02*
Y148032D01*
X560236D01*
X720079Y327067D02*
X724803D01*
X718996Y318799D02*
Y320571D01*
X719094Y318701D02*
X725886D01*
Y335433D01*
X718996Y320571D02*
Y335433D01*
X725886D01*
X710039Y327166D02*
X714764D01*
X715846Y333662D02*
Y335433D01*
X708957Y335531D02*
X715748D01*
X708957Y318799D02*
Y335531D01*
X715846Y318799D02*
Y333662D01*
X708957Y318799D02*
X715846D01*
X497835Y535532D02*
X503347D01*
Y494193D02*
Y535532D01*
X497835Y494193D02*
X503347D01*
X531594Y380118D02*
X533957D01*
Y368701D02*
Y380118D01*
X531594Y368701D02*
X533957D01*
X531594D02*
Y380118D01*
X525492Y380315D02*
X530216D01*
X755807Y549803D02*
X769587D01*
Y529921D02*
Y549803D01*
X755807Y529921D02*
Y549803D01*
Y529921D02*
X769587D01*
X765453Y542618D02*
X768602D01*
Y539075D02*
Y542618D01*
X756791D02*
X759941D01*
X756791Y539075D02*
Y542618D01*
X504725Y321654D02*
Y325197D01*
X507874D01*
X516536Y321654D02*
Y325197D01*
X513386D02*
X516536D01*
X503740Y312500D02*
X517520D01*
X503740D02*
Y332382D01*
X517520Y312500D02*
Y332382D01*
X503740D02*
X517520D01*
X575886Y236319D02*
X589665D01*
X575886D02*
Y256201D01*
X589665Y236319D02*
Y256201D01*
X575886D02*
X589665D01*
X576870Y243504D02*
X580020D01*
X576870D02*
Y247047D01*
X585532Y243504D02*
X588681D01*
Y247047D01*
X552362Y270079D02*
Y273622D01*
X549212Y270079D02*
X552362D01*
X540551D02*
Y273622D01*
Y270079D02*
X543701D01*
X539567Y282776D02*
X553346D01*
Y262894D02*
Y282776D01*
X539567Y262894D02*
Y282776D01*
Y262894D02*
X553346D01*
X580512Y623228D02*
X594980D01*
X580512Y645472D02*
X594980D01*
X582087Y656102D02*
X593406D01*
X594980Y623228D02*
Y654528D01*
X593406Y656102D02*
X594980Y654528D01*
X580512D02*
X582087Y656102D01*
X580512Y623228D02*
Y654528D01*
X863878Y479528D02*
X904134D01*
X863878Y505709D02*
X904134D01*
X863878Y479528D02*
Y505709D01*
X904134Y479528D02*
Y505709D01*
X875787Y428051D02*
Y472539D01*
X905906Y428051D02*
Y472539D01*
X875787Y428051D02*
X905906D01*
X875787Y472539D02*
X905906D01*
X624902Y163484D02*
X655020D01*
X624902Y118996D02*
X655020D01*
Y163484D01*
X624902Y118996D02*
Y163484D01*
X689567Y250591D02*
X705709D01*
X689567Y267913D02*
X705709D01*
Y250591D02*
Y267913D01*
X689567Y250591D02*
Y267913D01*
X759646Y476772D02*
X775787D01*
X759646Y494095D02*
X775787D01*
Y476772D02*
Y494095D01*
X759646Y476772D02*
Y494095D01*
X591437Y477362D02*
Y494685D01*
X607579Y477362D02*
Y494685D01*
X591437D02*
X607579D01*
X591437Y477362D02*
X607579D01*
X770453Y642933D02*
X810453D01*
X770453D02*
Y652933D01*
X810453D01*
Y642933D02*
Y652933D01*
Y647933D02*
X816453D01*
X764453D02*
X770453D01*
X307362Y283051D02*
Y323051D01*
X297362Y283051D02*
X307362D01*
X297362D02*
Y323051D01*
X307362D01*
X302362D02*
Y329051D01*
Y277051D02*
Y283051D01*
X800886Y502362D02*
X824508D01*
X832776Y494095D01*
Y462205D02*
Y494095D01*
X792618Y462205D02*
Y494095D01*
X800886Y502362D01*
X792618Y462205D02*
X832776D01*
X862106Y568405D02*
X902264D01*
X893996Y528248D02*
X902264Y536516D01*
Y568405D01*
X862106Y536516D02*
Y568405D01*
Y536516D02*
X870374Y528248D01*
X893996D01*
X525098Y234350D02*
Y257973D01*
X516831Y226083D02*
X525098Y234350D01*
X484941Y226083D02*
X516831D01*
X484941Y266240D02*
X516831D01*
X525098Y257973D01*
X484941Y226083D02*
Y266240D01*
X482677Y114370D02*
Y154527D01*
X514567D02*
X522835Y146260D01*
X482677Y154527D02*
X514567D01*
X482677Y114370D02*
X514567D01*
X522835Y122638D01*
Y146260D01*
X740256Y392126D02*
X744980D01*
X746063Y398622D02*
Y400394D01*
X739173Y400492D02*
X745965D01*
X739173Y383760D02*
Y400492D01*
X746063Y383760D02*
Y398622D01*
X739173Y383760D02*
X746063D01*
X719341Y400492D02*
X726230D01*
X719341Y385630D02*
Y400492D01*
X726230Y383760D02*
Y400492D01*
X719439Y383760D02*
X726230D01*
X719341Y383858D02*
Y385630D01*
X720424Y392126D02*
X725148D01*
X730340D02*
X735064D01*
X736147Y398622D02*
Y400394D01*
X729257Y400492D02*
X736048D01*
X729257Y383760D02*
Y400492D01*
X736147Y383760D02*
Y398622D01*
X729257Y383760D02*
X736147D01*
X688976Y285827D02*
Y292717D01*
Y285827D02*
X703839D01*
X688976Y292717D02*
X705709D01*
Y285925D02*
Y292717D01*
X703839Y285827D02*
X705610D01*
X697342Y286910D02*
Y291634D01*
Y295866D02*
Y300591D01*
X703839Y294783D02*
X705610D01*
X705709Y294882D02*
Y301673D01*
X688976D02*
X705709D01*
X688976Y294783D02*
X703839D01*
X688976D02*
Y301673D01*
X728937Y335433D02*
X735827D01*
X728937Y320571D02*
Y335433D01*
X735827Y318701D02*
Y335433D01*
X729035Y318701D02*
X735827D01*
X728937Y318799D02*
Y320571D01*
X730020Y327067D02*
X734744D01*
X493504Y359252D02*
Y363976D01*
X485236Y365059D02*
X487008D01*
X485138Y358169D02*
Y364961D01*
Y358169D02*
X501870D01*
X487008Y365059D02*
X501870D01*
Y358169D02*
Y365059D01*
X825984Y369685D02*
Y376575D01*
Y369685D02*
X840847D01*
X825984Y376575D02*
X842717D01*
Y369783D02*
Y376575D01*
X840847Y369685D02*
X842618D01*
X834350Y370768D02*
Y375492D01*
X467717Y337402D02*
X472441D01*
X466634Y329134D02*
Y330906D01*
X466732Y329035D02*
X473524D01*
Y345768D01*
X466634Y330906D02*
Y345768D01*
X473524D01*
X485138Y378642D02*
Y385532D01*
Y378642D02*
X500000D01*
X485138Y385532D02*
X501870D01*
Y378740D02*
Y385532D01*
X500000Y378642D02*
X501772D01*
X493504Y379724D02*
Y384449D01*
X658169Y254921D02*
X662894D01*
X663976Y261417D02*
Y263189D01*
X657087Y263287D02*
X663878D01*
X657087Y246555D02*
Y263287D01*
X663976Y246555D02*
Y261417D01*
X657087Y246555D02*
X663976D01*
X485138Y368602D02*
Y375492D01*
Y368602D02*
X500000D01*
X485138Y375492D02*
X501870D01*
Y368701D02*
Y375492D01*
X500000Y368602D02*
X501772D01*
X493504Y369685D02*
Y374410D01*
X488780Y303051D02*
Y307776D01*
X495276Y301969D02*
X497047D01*
X497146Y302067D02*
Y308858D01*
X480413D02*
X497146D01*
X480413Y301969D02*
X495276D01*
X480413D02*
Y308858D01*
X507185Y356004D02*
X514075D01*
X507185Y341142D02*
Y356004D01*
X514075Y339272D02*
Y356004D01*
X507283Y339272D02*
X514075D01*
X507185Y339370D02*
Y341142D01*
X508268Y347638D02*
X512992D01*
X510728Y303150D02*
Y307874D01*
X517224Y302067D02*
X518996D01*
X519095Y302165D02*
Y308957D01*
X502362D02*
X519095D01*
X502362Y302067D02*
X517224D01*
X502362D02*
Y308957D01*
X555807Y286614D02*
Y293504D01*
X540945D02*
X555807D01*
X539075Y286614D02*
X555807D01*
X539075D02*
Y293406D01*
X539173Y293504D02*
X540945D01*
X547441Y287697D02*
Y292421D01*
X508760Y377461D02*
X513484D01*
X507677Y369193D02*
Y370965D01*
X507776Y369094D02*
X514567D01*
Y385827D01*
X507677Y370965D02*
Y385827D01*
X514567D01*
X653059Y430315D02*
X659948D01*
X653059Y415453D02*
Y430315D01*
X659948Y413583D02*
Y430315D01*
X653157Y413583D02*
X659948D01*
X653059Y413681D02*
Y415453D01*
X654142Y421949D02*
X658866D01*
X644533D02*
X649258D01*
X643451Y413681D02*
Y415453D01*
X643549Y413583D02*
X650341D01*
Y430315D01*
X643451Y415453D02*
Y430315D01*
X650341D01*
X633843Y430315D02*
X640733D01*
X633843Y415453D02*
Y430315D01*
X640733Y413583D02*
Y430315D01*
X633942Y413583D02*
X640733D01*
X633843Y413681D02*
Y415453D01*
X634926Y421949D02*
X639650D01*
X625318D02*
X630043D01*
X624235Y413681D02*
Y415453D01*
X624334Y413583D02*
X631125D01*
Y430315D01*
X624235Y415453D02*
Y430315D01*
X631125D01*
X614628D02*
X621517D01*
X614628Y415453D02*
Y430315D01*
X621517Y413583D02*
Y430315D01*
X614726Y413583D02*
X621517D01*
X614628Y413681D02*
Y415453D01*
X615710Y421949D02*
X620435D01*
X728680Y425197D02*
X733404D01*
X727597Y416929D02*
Y418701D01*
X727695Y416831D02*
X734487D01*
Y433563D01*
X727597Y418701D02*
Y433563D01*
X734487D01*
X744980Y198228D02*
Y202953D01*
X736713Y204035D02*
X738484D01*
X736614Y197146D02*
Y203937D01*
Y197146D02*
X753346D01*
X738484Y204035D02*
X753346D01*
Y197146D02*
Y204035D01*
X757283Y205413D02*
X762008D01*
X756201Y197146D02*
Y198917D01*
X756299Y197047D02*
X763091D01*
Y213779D01*
X756201Y198917D02*
Y213779D01*
X763091D01*
X580709Y457972D02*
Y464862D01*
Y457972D02*
X595571D01*
X580709Y464862D02*
X597441D01*
Y458071D02*
Y464862D01*
X595571Y457972D02*
X597342D01*
X589075Y459055D02*
Y463780D01*
X738287Y425197D02*
X743012D01*
X737205Y416929D02*
Y418701D01*
X737303Y416831D02*
X744095D01*
Y433563D01*
X737205Y418701D02*
Y433563D01*
X744095D01*
X667929Y165945D02*
X682172D01*
X666043Y164080D02*
X667929Y165945D01*
X683858Y119193D02*
Y164277D01*
X666043Y119193D02*
X683858D01*
X666043D02*
Y164080D01*
X682172Y165945D02*
X683858Y164277D01*
X666043Y148031D02*
X683858D01*
X512697Y638878D02*
X530512D01*
X528826Y656791D02*
X530512Y655123D01*
X512697Y610039D02*
Y654927D01*
Y610039D02*
X530512D01*
Y655123D01*
X512697Y654927D02*
X514582Y656791D01*
X528826D01*
X514779Y602559D02*
X529022D01*
X512894Y600694D02*
X514779Y602559D01*
X530709Y555807D02*
Y600891D01*
X512894Y555807D02*
X530709D01*
X512894D02*
Y600694D01*
X529022Y602559D02*
X530709Y600891D01*
X512894Y584646D02*
X530709D01*
X787161Y558268D02*
Y610433D01*
X756453Y558268D02*
X787161D01*
X756453D02*
Y610433D01*
X787161D01*
X725787Y127165D02*
X777953D01*
X725787D02*
Y157874D01*
X777953D01*
Y127165D02*
Y157874D01*
X569980Y273819D02*
Y287598D01*
X587500Y273819D02*
Y287500D01*
X602362Y275098D02*
Y286319D01*
X601083Y273819D02*
X602362Y275098D01*
X569980Y273819D02*
X601083D01*
Y287598D02*
X602362Y286319D01*
X569980Y287598D02*
X601083D01*
X541437Y645669D02*
X572539D01*
X540158Y646949D02*
X541437Y645669D01*
Y659449D02*
X572539D01*
X540158Y658169D02*
X541437Y659449D01*
X540158Y646949D02*
Y658169D01*
X555020Y645768D02*
Y659449D01*
X572539Y645669D02*
Y659449D01*
X532874Y499508D02*
Y530610D01*
X534154Y531890D01*
X546654Y499508D02*
Y530610D01*
X545374Y531890D02*
X546654Y530610D01*
X534154Y531890D02*
X545374D01*
X532972Y517028D02*
X546654D01*
X532874Y499508D02*
X546654D01*
X481496Y320866D02*
X495276D01*
X481595Y338386D02*
X495276D01*
X482776Y353248D02*
X493996D01*
X495276Y351969D01*
Y320866D02*
Y351969D01*
X481496D02*
X482776Y353248D01*
X481496Y320866D02*
Y351969D01*
X792717Y563386D02*
X806496D01*
X792815Y580905D02*
X806496D01*
X793996Y595768D02*
X805217D01*
X806496Y594488D01*
Y563386D02*
Y594488D01*
X792717D02*
X793996Y595768D01*
X792717Y563386D02*
Y594488D01*
X845177Y444685D02*
Y475787D01*
X846457Y477067D01*
X858957Y444685D02*
Y475787D01*
X857677Y477067D02*
X858957Y475787D01*
X846457Y477067D02*
X857677D01*
X845276Y462205D02*
X858957D01*
X845177Y444685D02*
X858957D01*
X667323Y238681D02*
X681103D01*
X667421Y256201D02*
X681103D01*
X668603Y271063D02*
X679823D01*
X681103Y269783D01*
Y238681D02*
Y269783D01*
X667323D02*
X668603Y271063D01*
X667323Y238681D02*
Y269783D01*
X530905Y297539D02*
Y311319D01*
X548425Y297539D02*
Y311220D01*
X563287Y298819D02*
Y310039D01*
X562008Y297539D02*
X563287Y298819D01*
X530905Y297539D02*
X562008D01*
Y311319D02*
X563287Y310039D01*
X530905Y311319D02*
X562008D01*
X728838Y177362D02*
Y191142D01*
X746358Y177362D02*
Y191043D01*
X761221Y178642D02*
Y189862D01*
X759941Y177362D02*
X761221Y178642D01*
X728838Y177362D02*
X759941D01*
Y191142D02*
X761221Y189862D01*
X728838Y191142D02*
X759941D01*
X839173Y580217D02*
X852953D01*
X839173Y562697D02*
X852854D01*
X840453Y547835D02*
X851673D01*
X839173Y549114D02*
X840453Y547835D01*
X839173Y549114D02*
Y580217D01*
X851673Y547835D02*
X852953Y549114D01*
Y580217D01*
X607677Y368701D02*
X612402D01*
X613484Y375197D02*
Y376968D01*
X606595Y377067D02*
X613386D01*
X606595Y360335D02*
Y377067D01*
X613484Y360335D02*
Y375197D01*
X606595Y360335D02*
X613484D01*
X598228Y368799D02*
X602953D01*
X604035Y375295D02*
Y377067D01*
X597146Y377165D02*
X603937D01*
X597146Y360433D02*
Y377165D01*
X604035Y360433D02*
Y375295D01*
X597146Y360433D02*
X604035D01*
X820866Y28366D02*
X879724D01*
X820866Y81476D02*
X879724D01*
Y28366D02*
Y81476D01*
X820866Y28366D02*
Y81476D01*
X575965Y324350D02*
Y404350D01*
X565965D02*
X575965D01*
X565965Y324350D02*
Y404350D01*
Y324350D02*
X575965D01*
X614173Y331299D02*
Y336024D01*
X605906Y337106D02*
X607677D01*
X605807Y330217D02*
Y337008D01*
Y330217D02*
X622540D01*
X607677Y337106D02*
X622540D01*
Y330217D02*
Y337106D01*
X624016Y321654D02*
Y326378D01*
X630512Y320571D02*
X632283D01*
X632382Y320669D02*
Y327461D01*
X615650D02*
X632382D01*
X615650Y320571D02*
X630512D01*
X615650D02*
Y327461D01*
X549902Y164469D02*
X581004D01*
X582283Y163189D01*
X549902Y150689D02*
X581004D01*
X582283Y151969D01*
Y163189D01*
X567421Y150689D02*
Y164370D01*
X549902Y150689D02*
Y164469D01*
X552264Y563287D02*
Y568012D01*
X543996Y569094D02*
X545768D01*
X543898Y562205D02*
Y568996D01*
Y562205D02*
X560630D01*
X545768Y569094D02*
X560630D01*
Y562205D02*
Y569094D01*
X667815Y285748D02*
Y295748D01*
X617815Y285748D02*
X667815D01*
X617815Y295748D02*
X667815D01*
X617815Y285748D02*
Y295748D01*
X541732Y175886D02*
X588976D01*
X541732Y223130D02*
X588976D01*
Y175886D02*
Y223130D01*
X541732Y175886D02*
Y223130D01*
X699606Y327067D02*
X704331D01*
X698524Y318799D02*
Y320571D01*
X698622Y318701D02*
X705413D01*
Y335433D01*
X698524Y320571D02*
Y335433D01*
X705413D01*
X697342Y309350D02*
Y314075D01*
X703838Y308268D02*
X705610D01*
X705709Y308366D02*
Y315158D01*
X688976D02*
X705709D01*
X688976Y308268D02*
X703838D01*
X688976D02*
Y315158D01*
X663749Y421949D02*
X668474D01*
X662667Y413681D02*
Y415453D01*
X662765Y413583D02*
X669556D01*
Y430315D01*
X662667Y415453D02*
Y430315D01*
X669556D01*
X673357Y421949D02*
X678082D01*
X672274Y413681D02*
Y415453D01*
X672373Y413583D02*
X679164D01*
Y430315D01*
X672274Y415453D02*
Y430315D01*
X679164D01*
X682965Y421949D02*
X687689D01*
X681882Y413681D02*
Y415453D01*
X681981Y413583D02*
X688772D01*
Y430315D01*
X681882Y415453D02*
Y430315D01*
X688772D01*
X583169Y261614D02*
Y266338D01*
X574902Y267421D02*
X576673D01*
X574803Y260531D02*
Y267323D01*
Y260531D02*
X591535D01*
X576673Y267421D02*
X591535D01*
Y260531D02*
Y267421D01*
X766496Y48327D02*
Y64468D01*
X758819D02*
X766496D01*
X760257Y57098D02*
X761758Y55598D01*
X762620D01*
X763482D02*
X764982Y57098D01*
X762620Y55598D02*
X763482D01*
X758819Y48327D02*
Y64468D01*
Y48327D02*
X766496D01*
X760257Y57098D02*
X764982D01*
X575787Y586024D02*
Y589173D01*
X569882Y586024D02*
Y589173D01*
X577854Y575492D02*
Y599705D01*
X567815Y575492D02*
X577854D01*
X567815Y599705D02*
X577854D01*
X567815Y575492D02*
Y599705D01*
X764370Y518405D02*
X767520D01*
X764370Y512500D02*
X767520D01*
X753839Y520472D02*
X778051D01*
Y510433D02*
Y520472D01*
X753839Y510433D02*
Y520472D01*
Y510433D02*
X778051D01*
X760335Y453839D02*
X765059D01*
X766142Y460335D02*
Y462106D01*
X759252Y462205D02*
X766043D01*
X759252Y445472D02*
Y462205D01*
X766142Y445472D02*
Y460335D01*
X759252Y445472D02*
X766142D01*
X857087Y515453D02*
Y525689D01*
X855315Y527461D02*
X857087Y525689D01*
X840925D02*
X842717Y527461D01*
X840945Y486122D02*
Y496752D01*
X857087Y486122D02*
Y496752D01*
X840945Y486122D02*
X857087D01*
X842717Y527461D02*
X855315D01*
X840945Y515453D02*
Y525689D01*
X596767Y165354D02*
X611011D01*
X594882Y163490D02*
X596767Y165354D01*
X612697Y118602D02*
Y163687D01*
X594882Y118602D02*
X612697D01*
X594882D02*
Y163490D01*
X611011Y165354D02*
X612697Y163687D01*
X594882Y147441D02*
X612697Y147441D01*
X689878Y165945D02*
X704121D01*
X687992Y164080D02*
X689878Y165945D01*
X705807Y119193D02*
Y164277D01*
X687992Y119193D02*
X705807D01*
X687992D02*
Y164080D01*
X704121Y165945D02*
X705807Y164277D01*
X687992Y148031D02*
X705807Y148031D01*
X747441Y555118D02*
X752165D01*
X746358Y546850D02*
Y548622D01*
X746457Y546752D02*
X753248D01*
Y563484D01*
X746358Y548622D02*
Y563484D01*
X753248D01*
X576201Y494095D02*
Y501378D01*
X554528Y492717D02*
X577559D01*
X554528Y460827D02*
Y492717D01*
Y460827D02*
X577559D01*
Y492717D01*
X539665Y475492D02*
Y480217D01*
X531398Y481299D02*
X533169D01*
X531299Y474409D02*
Y481201D01*
Y474409D02*
X548032D01*
X533169Y481299D02*
X548032D01*
Y474409D02*
Y481299D01*
X539567Y484055D02*
Y488779D01*
X531299Y489862D02*
X533071D01*
X531201Y482972D02*
Y489764D01*
Y482972D02*
X547933D01*
X533071Y489862D02*
X547933D01*
Y482972D02*
Y489862D01*
X591339Y537008D02*
Y543898D01*
X566240Y534941D02*
X591831D01*
X566240Y521161D02*
Y534941D01*
Y521161D02*
X591831D01*
Y534941D01*
X538878Y440846D02*
X543602D01*
X544685Y447342D02*
Y449114D01*
X537795Y449213D02*
X544587D01*
X537795Y432480D02*
Y449213D01*
X544685Y432480D02*
Y447342D01*
X537795Y432480D02*
X544685D01*
X559055Y439567D02*
X563779D01*
X564862Y446063D02*
Y447835D01*
X557972Y447933D02*
X564764D01*
X557972Y431201D02*
Y447933D01*
X564862Y431201D02*
Y446063D01*
X557972Y431201D02*
X564862D01*
X567913Y439567D02*
X572638D01*
X573720Y446063D02*
Y447835D01*
X566831Y447933D02*
X573622D01*
X566831Y431201D02*
Y447933D01*
X573720Y431201D02*
Y446063D01*
X566831Y431201D02*
X573720D01*
X565945Y423917D02*
Y428642D01*
X557677Y429724D02*
X559449D01*
X557579Y422835D02*
Y429626D01*
Y422835D02*
X574311D01*
X559449Y429724D02*
X574311D01*
Y422835D02*
Y429724D01*
D80*
X515894Y171536D02*
X526374D01*
X515894Y210551D02*
X526524D01*
D81*
X496063Y82776D02*
X522047D01*
Y32776D02*
Y82776D01*
X496063Y32776D02*
Y82776D01*
Y32776D02*
X522047D01*
D82*
X330411Y14858D02*
X322539D01*
Y3051D01*
X330411D01*
X322539Y8955D02*
X326475D01*
X334347Y14858D02*
X342218D01*
X338282D01*
Y3051D01*
X346154Y14858D02*
Y3051D01*
Y8955D01*
X354025D01*
Y14858D01*
Y3051D01*
X357961D02*
Y14858D01*
X363865D01*
X365832Y12890D01*
Y8955D01*
X363865Y6987D01*
X357961D01*
X361897D02*
X365832Y3051D01*
X377640Y14858D02*
X369768D01*
Y3051D01*
X377640D01*
X369768Y8955D02*
X373704D01*
X381575Y14858D02*
X389447D01*
X385511D01*
Y3051D01*
X129660Y14988D02*
X121789D01*
Y9084D01*
X125725D01*
X121789D01*
Y3181D01*
X141468Y14988D02*
X133596D01*
Y3181D01*
X141468D01*
X133596Y9084D02*
X137532D01*
X145403Y3181D02*
Y14988D01*
X153275Y3181D01*
Y14988D01*
X157211Y3181D02*
Y14988D01*
X163114D01*
X165082Y13020D01*
Y9084D01*
X163114Y7116D01*
X157211D01*
X161146D02*
X165082Y3181D01*
X176889Y14988D02*
X169018D01*
Y3181D01*
X176889D01*
X169018Y9084D02*
X172953D01*
X180825Y14988D02*
X188696D01*
X184761D01*
Y3181D01*
X235135Y14465D02*
X227264D01*
Y2657D01*
X235135D01*
X227264Y8561D02*
X231200D01*
X239071Y2657D02*
Y10529D01*
X243007Y14465D01*
X246942Y10529D01*
Y2657D01*
Y8561D01*
X239071D01*
X250878Y2657D02*
Y14465D01*
X256782D01*
X258750Y12497D01*
Y8561D01*
X256782Y6593D01*
X250878D01*
X254814D02*
X258750Y2657D01*
X262685Y14465D02*
X270557D01*
X266621D01*
Y2657D01*
X274493Y14465D02*
Y2657D01*
Y8561D01*
X282364D01*
Y14465D01*
Y2657D01*
X35271Y14988D02*
X27399D01*
Y9084D01*
X31335D01*
X27399D01*
Y3181D01*
X47078Y14988D02*
X39206D01*
Y3181D01*
X47078D01*
X39206Y9084D02*
X43142D01*
X51014Y3181D02*
Y14988D01*
X58885Y3181D01*
Y14988D01*
X70692Y13020D02*
X68724Y14988D01*
X64789D01*
X62821Y13020D01*
Y5148D01*
X64789Y3181D01*
X68724D01*
X70692Y5148D01*
X82499Y14988D02*
X74628D01*
Y3181D01*
X82499D01*
X74628Y9084D02*
X78564D01*
M02*
