G04 Layer_Color=8421504*
%FSLAX25Y25*%
%MOIN*%
G70*
G01*
G75*
%ADD10R,0.05906X0.05512*%
%ADD11R,0.05512X0.05906*%
%ADD12R,0.03740X0.06890*%
%ADD13R,0.12598X0.06890*%
%ADD14R,0.02559X0.07284*%
%ADD15R,0.13780X0.13780*%
%ADD16R,0.12992X0.09449*%
%ADD17R,0.07874X0.07874*%
%ADD18R,0.07874X0.07874*%
G04:AMPARAMS|DCode=19|XSize=57.87mil|YSize=9.45mil|CornerRadius=1.18mil|HoleSize=0mil|Usage=FLASHONLY|Rotation=0.000|XOffset=0mil|YOffset=0mil|HoleType=Round|Shape=RoundedRectangle|*
%AMROUNDEDRECTD19*
21,1,0.05787,0.00709,0,0,0.0*
21,1,0.05551,0.00945,0,0,0.0*
1,1,0.00236,0.02776,-0.00354*
1,1,0.00236,-0.02776,-0.00354*
1,1,0.00236,-0.02776,0.00354*
1,1,0.00236,0.02776,0.00354*
%
%ADD19ROUNDEDRECTD19*%
G04:AMPARAMS|DCode=20|XSize=57.87mil|YSize=9.45mil|CornerRadius=1.18mil|HoleSize=0mil|Usage=FLASHONLY|Rotation=270.000|XOffset=0mil|YOffset=0mil|HoleType=Round|Shape=RoundedRectangle|*
%AMROUNDEDRECTD20*
21,1,0.05787,0.00709,0,0,270.0*
21,1,0.05551,0.00945,0,0,270.0*
1,1,0.00236,-0.00354,-0.02776*
1,1,0.00236,-0.00354,0.02776*
1,1,0.00236,0.00354,0.02776*
1,1,0.00236,0.00354,-0.02776*
%
%ADD20ROUNDEDRECTD20*%
%ADD21R,0.23622X0.12598*%
%ADD22R,0.11811X0.11811*%
%ADD23R,0.05906X0.03543*%
%ADD24R,0.07874X0.05906*%
%ADD25R,0.11811X0.11811*%
%ADD26R,0.15748X0.13780*%
%ADD27R,0.09843X0.11811*%
%ADD28R,0.15748X0.09843*%
%ADD29R,0.27559X0.23622*%
%ADD30R,0.09843X0.15748*%
%ADD31R,0.23622X0.27559*%
%ADD32R,0.21654X0.11811*%
%ADD33R,0.11811X0.21654*%
%ADD34R,0.06299X0.09843*%
%ADD35R,0.27559X0.11811*%
%ADD36R,0.11811X0.15748*%
%ADD37R,0.12598X0.07874*%
%ADD38R,0.03937X0.07087*%
%ADD39R,0.06299X0.02362*%
%ADD40R,0.12992X0.09055*%
%ADD41R,0.35039X0.41929*%
%ADD42R,0.13780X0.09843*%
%ADD43R,0.08504X0.04213*%
%ADD44R,0.40984X0.42520*%
%ADD45R,0.02559X0.07874*%
%ADD46R,0.09449X0.12992*%
%ADD47R,0.01850X0.02520*%
D10*
X-312677Y295768D02*
D03*
X-322126D02*
D03*
X-339055Y355906D02*
D03*
X-348504D02*
D03*
X-338957Y347342D02*
D03*
X-348406D02*
D03*
X-295453Y133465D02*
D03*
X-304902D02*
D03*
X-190728Y181201D02*
D03*
X-181280D02*
D03*
X-326358Y435138D02*
D03*
X-335807D02*
D03*
X-264055Y193504D02*
D03*
X-254606D02*
D03*
X-264449Y203150D02*
D03*
X-273898D02*
D03*
X-289547Y330906D02*
D03*
X-298996D02*
D03*
X-148209Y63189D02*
D03*
X-157657D02*
D03*
X-340630Y159547D02*
D03*
X-331181D02*
D03*
X-377343Y175000D02*
D03*
X-367894D02*
D03*
X-399291Y174902D02*
D03*
X-389843D02*
D03*
X-385118Y241535D02*
D03*
X-394567D02*
D03*
X-385118Y251575D02*
D03*
X-394567D02*
D03*
X-44272Y242618D02*
D03*
X-53720D02*
D03*
X-385118Y231102D02*
D03*
X-394567D02*
D03*
X-190728Y167717D02*
D03*
X-181280D02*
D03*
Y158760D02*
D03*
X-190728D02*
D03*
X-155098Y216437D02*
D03*
X-164547D02*
D03*
X-72224Y242618D02*
D03*
X-62776D02*
D03*
D11*
X-313071Y304331D02*
D03*
Y313779D02*
D03*
X-321929Y304331D02*
D03*
Y313779D02*
D03*
X-342106Y305610D02*
D03*
Y315059D02*
D03*
X-133543Y429331D02*
D03*
Y419882D02*
D03*
X-120650Y318602D02*
D03*
Y328051D02*
D03*
X-84626Y-77854D02*
D03*
Y-86122D02*
D03*
X-198019Y307776D02*
D03*
Y298327D02*
D03*
X-207627Y307776D02*
D03*
Y298327D02*
D03*
X-217235Y307775D02*
D03*
Y298327D02*
D03*
X-181378Y201279D02*
D03*
Y191831D02*
D03*
X-282756Y233563D02*
D03*
Y243012D02*
D03*
X-273307Y233465D02*
D03*
Y242913D02*
D03*
X-142697Y307776D02*
D03*
Y298327D02*
D03*
X-138268Y72736D02*
D03*
Y63287D02*
D03*
X-152304Y307776D02*
D03*
Y298327D02*
D03*
X-265274Y298327D02*
D03*
Y307776D02*
D03*
X-255666D02*
D03*
Y298327D02*
D03*
X-246059D02*
D03*
Y307776D02*
D03*
X-236451D02*
D03*
Y298327D02*
D03*
X-226843D02*
D03*
Y307776D02*
D03*
X-372224Y251673D02*
D03*
Y242224D02*
D03*
X-372716Y212402D02*
D03*
Y221850D02*
D03*
X-222815Y119685D02*
D03*
Y129134D02*
D03*
X-413268Y211614D02*
D03*
Y202165D02*
D03*
X-150965Y191831D02*
D03*
Y201280D02*
D03*
X-150645Y256890D02*
D03*
Y266339D02*
D03*
X-160561Y256890D02*
D03*
Y266339D02*
D03*
X-140728Y256890D02*
D03*
Y266339D02*
D03*
X-170945Y191929D02*
D03*
Y201378D02*
D03*
X-160905Y201280D02*
D03*
Y191831D02*
D03*
X-326555Y13878D02*
D03*
Y4429D02*
D03*
X-176063Y298228D02*
D03*
Y307677D02*
D03*
X-185906Y298228D02*
D03*
Y307677D02*
D03*
X-274882Y307776D02*
D03*
Y298327D02*
D03*
X-163366Y298228D02*
D03*
Y307677D02*
D03*
D12*
X-295256Y409941D02*
D03*
X-304311D02*
D03*
X-313366D02*
D03*
D13*
X-304311Y385138D02*
D03*
D14*
X-309803Y367224D02*
D03*
X-314803D02*
D03*
X-319803D02*
D03*
X-324803D02*
D03*
Y325295D02*
D03*
X-319803D02*
D03*
X-314803D02*
D03*
X-309803D02*
D03*
D15*
X-186398Y26969D02*
D03*
Y-3347D02*
D03*
X-279508Y26378D02*
D03*
Y-3937D02*
D03*
X-361496Y463583D02*
D03*
Y433268D02*
D03*
X-361693Y487500D02*
D03*
Y517815D02*
D03*
X-208346Y26969D02*
D03*
Y-3347D02*
D03*
D16*
X-34331Y361910D02*
D03*
Y389272D02*
D03*
D17*
X-110315Y384941D02*
D03*
X-124488D02*
D03*
X-252047Y386811D02*
D03*
X-266221D02*
D03*
X-239744Y386713D02*
D03*
X-225571D02*
D03*
X-69370Y496358D02*
D03*
X-83543D02*
D03*
X-86890Y401575D02*
D03*
X-101063D02*
D03*
X-325768Y449902D02*
D03*
X-339941D02*
D03*
X-101063Y414272D02*
D03*
X-86890D02*
D03*
D18*
X-310512Y450000D02*
D03*
Y464173D02*
D03*
D19*
X-237756Y240945D02*
D03*
Y239370D02*
D03*
Y237795D02*
D03*
Y236220D02*
D03*
Y234646D02*
D03*
Y233071D02*
D03*
Y231496D02*
D03*
Y229921D02*
D03*
Y228346D02*
D03*
Y226772D02*
D03*
Y225197D02*
D03*
Y223622D02*
D03*
Y222047D02*
D03*
Y220472D02*
D03*
Y218898D02*
D03*
Y217323D02*
D03*
X-204921D02*
D03*
Y218898D02*
D03*
Y220472D02*
D03*
Y222047D02*
D03*
Y223622D02*
D03*
Y225197D02*
D03*
Y226772D02*
D03*
Y228346D02*
D03*
Y229921D02*
D03*
Y231496D02*
D03*
Y233071D02*
D03*
Y234646D02*
D03*
Y236220D02*
D03*
Y237795D02*
D03*
Y239370D02*
D03*
Y240945D02*
D03*
D20*
X-209528Y245551D02*
D03*
X-211102D02*
D03*
X-212677D02*
D03*
X-214252D02*
D03*
X-215827D02*
D03*
X-217402D02*
D03*
X-218976D02*
D03*
X-220551D02*
D03*
X-222126D02*
D03*
X-223701D02*
D03*
X-225276D02*
D03*
X-226851D02*
D03*
X-228425D02*
D03*
X-230000D02*
D03*
X-231575D02*
D03*
X-233150D02*
D03*
Y212717D02*
D03*
X-231575D02*
D03*
X-230000D02*
D03*
X-228425D02*
D03*
X-226851D02*
D03*
X-225276D02*
D03*
X-223701D02*
D03*
X-222126D02*
D03*
X-220551D02*
D03*
X-218976D02*
D03*
X-217402D02*
D03*
X-215827D02*
D03*
X-214252D02*
D03*
X-212677D02*
D03*
X-211102D02*
D03*
X-209528D02*
D03*
D21*
X-317992Y88681D02*
D03*
Y49311D02*
D03*
D22*
X-308307Y27067D02*
D03*
X-326496D02*
D03*
X-162126Y46850D02*
D03*
X-143937D02*
D03*
X-345492Y173917D02*
D03*
X-327303D02*
D03*
X-335945Y522047D02*
D03*
X-317756D02*
D03*
X-306417Y150197D02*
D03*
X-288228D02*
D03*
X-117342Y495177D02*
D03*
X-99154D02*
D03*
X-65827Y255413D02*
D03*
X-47638D02*
D03*
D23*
X-58937Y-63071D02*
D03*
Y-73071D02*
D03*
Y-68071D02*
D03*
Y-78071D02*
D03*
Y-83071D02*
D03*
Y-88071D02*
D03*
D24*
X-42795Y-98622D02*
D03*
Y-52559D02*
D03*
X-8150D02*
D03*
Y-98622D02*
D03*
D25*
X-37284Y442756D02*
D03*
Y424567D02*
D03*
X-209134Y115118D02*
D03*
Y133307D02*
D03*
X-31280Y339311D02*
D03*
Y321122D02*
D03*
X-83740Y439823D02*
D03*
Y458012D02*
D03*
X-394961Y197303D02*
D03*
Y215492D02*
D03*
X-343583Y394134D02*
D03*
Y375945D02*
D03*
D26*
X-331772Y504036D02*
D03*
Y472539D02*
D03*
X-675768Y199606D02*
D03*
Y168110D02*
D03*
D27*
X-601980Y187724D02*
D03*
X-638909D02*
D03*
Y167252D02*
D03*
X-601980D02*
D03*
D28*
X-148209Y3106D02*
D03*
Y21106D02*
D03*
D29*
X-120453Y12106D02*
D03*
D30*
X-102638Y437106D02*
D03*
X-120638D02*
D03*
X-47575Y274213D02*
D03*
X-65575D02*
D03*
D31*
X-111638Y464862D02*
D03*
X-56575Y301969D02*
D03*
D32*
X-359921Y3937D02*
D03*
X-401260D02*
D03*
X-398996Y115650D02*
D03*
X-357658D02*
D03*
D33*
X-1161Y397146D02*
D03*
Y438484D02*
D03*
X-70650Y331102D02*
D03*
Y372441D02*
D03*
D34*
X-278838Y341043D02*
D03*
X-288839D02*
D03*
Y369980D02*
D03*
X-278838D02*
D03*
X-110630Y369390D02*
D03*
X-120630D02*
D03*
Y340453D02*
D03*
X-110630D02*
D03*
X-180709Y143209D02*
D03*
X-190709D02*
D03*
Y114272D02*
D03*
X-180709D02*
D03*
D35*
X-243386Y-4232D02*
D03*
Y25689D02*
D03*
X7500Y334744D02*
D03*
Y304823D02*
D03*
D36*
X13898Y362106D02*
D03*
X-12480D02*
D03*
D37*
X-295650Y497638D02*
D03*
Y520275D02*
D03*
D38*
X-336890Y136909D02*
D03*
X-340630Y147736D02*
D03*
X-333150D02*
D03*
X-296831Y121161D02*
D03*
X-304311D02*
D03*
X-300571Y110335D02*
D03*
X-372717Y197343D02*
D03*
X-368976Y186516D02*
D03*
X-376457D02*
D03*
X-124390Y403937D02*
D03*
X-116910D02*
D03*
X-120650Y414764D02*
D03*
D39*
X-344862Y247638D02*
D03*
Y240158D02*
D03*
X-356280D02*
D03*
Y243898D02*
D03*
Y247638D02*
D03*
D40*
X-362874Y374350D02*
D03*
Y394350D02*
D03*
D41*
X-404606Y384350D02*
D03*
D42*
X-59035Y393898D02*
D03*
Y423819D02*
D03*
D43*
X-356972Y47146D02*
D03*
Y53839D02*
D03*
Y60532D02*
D03*
Y67225D02*
D03*
Y73917D02*
D03*
D44*
X-389744Y60532D02*
D03*
D45*
X-237677Y360433D02*
D03*
X-233740D02*
D03*
X-229803D02*
D03*
X-214055D02*
D03*
X-217992D02*
D03*
X-221929D02*
D03*
X-225866D02*
D03*
X-198307D02*
D03*
X-202244D02*
D03*
X-206181D02*
D03*
X-210118D02*
D03*
X-194370D02*
D03*
Y347205D02*
D03*
X-210118D02*
D03*
X-206181D02*
D03*
X-202244D02*
D03*
X-198307D02*
D03*
X-225866D02*
D03*
X-221929D02*
D03*
X-217992D02*
D03*
X-214055D02*
D03*
X-229803D02*
D03*
X-233740D02*
D03*
X-237677D02*
D03*
X-241614Y360433D02*
D03*
Y347205D02*
D03*
X-245551Y360433D02*
D03*
Y347205D02*
D03*
X-190433D02*
D03*
X-186496D02*
D03*
Y360433D02*
D03*
X-190433D02*
D03*
D46*
X-386496Y441732D02*
D03*
X-413858D02*
D03*
D47*
X-82854Y253543D02*
D03*
X-78917D02*
D03*
X-80886Y259449D02*
D03*
X-123799Y57480D02*
D03*
X-127736D02*
D03*
X-125768Y51575D02*
D03*
M02*
